<svg id="Layer_1" data-name="Layer 1" xmlns="http://www.w3.org/2000/svg" viewBox="0 0 1000 1000"><defs><style>.cls-1{fill:#77297d;}.cls-2{fill:#fff;}</style></defs><path class="cls-1" d="M851.13,183.06a35.08,35.08,0,0,0-34.85-34.84H183.06a35.08,35.08,0,0,0-34.84,34.84V816.94a35.08,35.08,0,0,0,34.84,34.84H816.94a35.08,35.08,0,0,0,34.84-34.84V183.06Z"/><path class="cls-2" d="M330.35,742l-29.59-94H277.09v94H215.94V464.49h82.85c13.15,0,25,2,36.17,6.58,10.52,4.6,19.72,10.52,27,18.41s13.15,17.75,17.75,28.93c3.95,11.18,5.92,24.33,5.92,38.14A118.83,118.83,0,0,1,378.35,598c-5.26,12.5-11.83,22.36-21.69,30.91L397.42,742Zm-5.26-185.43c0-12.49-2.63-22.36-7.89-28.93s-12.49-9.87-21.7-9.87H276.44v77.59H295.5q13.81,0,21.7-9.86c5.26-7.23,7.89-16.44,7.89-28.93m455,132.16a142.07,142.07,0,0,0,2-25V464.49H720.93V663.73c0,3.29,0,6.57-.65,8.55a19.09,19.09,0,0,1-1.32,5.91,26.06,26.06,0,0,1-7.89,10.52,26.12,26.12,0,0,1-27.62,0c-3.28-2.63-6.57-5.91-7.89-10.52a15.8,15.8,0,0,1-1.31-5.91c-.66-2-.66-4.61-.66-8.55V464.49H612.44V663.73c0,9.86.66,18.41,2.63,25a60.34,60.34,0,0,0,7.23,19.07,57.59,57.59,0,0,0,12.5,15.78,67.42,67.42,0,0,0,17.09,12.5,99.5,99.5,0,0,0,21,7.89,104.13,104.13,0,0,0,25,2.63,100.64,100.64,0,0,0,25-2.63,99.5,99.5,0,0,0,21-7.89c6.57-3.29,11.83-7.89,17.09-12.5a73.19,73.19,0,0,0,12.5-15.78c2.63-5.26,4.6-11.83,6.57-19.07M568.38,730.14c5.92-3.29,10.52-5.92,13.16-9.21V571H500.66v55.9h19.72V687.4a3.83,3.83,0,0,1-3.28,1.31,12.38,12.38,0,0,1-5.26,1.32c-2,.66-3.95.66-6.58,1.32-2.63,0-4.6.65-7.23.65-5.92,0-11.18-1.31-14.47-3.94a26.13,26.13,0,0,1-7.89-10.52,15.7,15.7,0,0,1-1.31-5.92c-.66-2-.66-4.6-.66-8.55V549.32A100.84,100.84,0,0,1,475,534.19c.66-4.6,2.63-7.89,5.26-11.18s5.92-5.26,9.87-7.23a48.14,48.14,0,0,1,15.12-2.63,117.77,117.77,0,0,1,14.47,1.32,152.79,152.79,0,0,1,16.43,4.6,169.14,169.14,0,0,1,33.54,16.44V475.67a143.73,143.73,0,0,0-31.56-12.49,162.14,162.14,0,0,0-41.43-5.26c-9.2,0-17.75.66-25,2.63a99.59,99.59,0,0,0-21.05,7.89,62.06,62.06,0,0,0-16.43,11.83,85.69,85.69,0,0,0-11.84,15.13,57.88,57.88,0,0,0-7.89,21,139.59,139.59,0,0,0-2.63,25.64v121c0,9.86.66,18.41,2.63,25a60.28,60.28,0,0,0,7.23,19.07,71.3,71.3,0,0,0,11.84,15.78A77.49,77.49,0,0,0,450,735.4a99.29,99.29,0,0,0,21,7.89,100.61,100.61,0,0,0,25,2.63,125,125,0,0,0,27-2.63c8.55-1.31,17.1-3.94,24.33-5.92,8.55-1.31,15.78-3.94,21-7.23M755.13,359.29S667,291.56,605.86,269.2c-61.8-23-125.59-21.7-173.59,0l-217,99.29s82.85,63.13,182.8,63.13c78.25,0,217-123.62,357.05-72.33m27,62.46-30.25-30.9C692,329.7,552.6,398.74,552.6,398.74L600,427c61.81,30.91,110.46-41.42,182.14-5.26M383.62,277.09s-30.25-17.75-50-22.35-40.11-2-53.92,6.57l-63.78,38.8s28.28,16.44,59.18,12.49c25-2.63,63.12-46,108.5-35.51"/></svg>