<svg id="Layer_1" data-name="Layer 1" xmlns="http://www.w3.org/2000/svg" viewBox="0 0 632.04 481.03">
    <g id="Layer_4" data-name="Layer 4">
        <path class="background"
            d="M188.08,11.15V88.39h-54V10.06H.82L.29,487.3H133.83V411.43H249.58v77.85l382,1.81.77-199.26H584.46V214H632L632.33,13ZM297.76,289.47H248.31l-.92,100.93-112.07.19L135,108.81l50,.14v98H297.76Zm174,1.45L315,290l0-83.77,155.62.93Z"
            transform="translate(-0.29 -10.06)" />
    </g>
    <g id="Student_Union" data-name="Student Union">
        <polygon class="union"
            points="550.3 281.77 549.13 199.16 314.37 197.32 315.11 81.7 283.08 81.7 283.59 6.67 626.84 5.68 627.01 197.32 579.71 197.32 579.71 285.42 626.22 285.42 627.01 477.1 315.48 476.42 314.36 280.24 550.3 281.77" />
    </g>
    <g id="401a" data-name="401a">
        <path id="Vector_2" data-name="Vector 2" class="room" d="M6.44,482.74v-30H34.71v30.73Z"
            transform="translate(-0.29 -10.06)" />
    </g>
    <g id="401b" data-name="401b">
        <path id="Vector_3" data-name="Vector 3" class="room" d="M7.15,423.92v25.65H33.88V424.22Z"
            transform="translate(-0.29 -10.06)" />
    </g>
    <g id="401c" data-name="401c">
        <path id="Vector_4" data-name="Vector 4" class="room" d="M6.67,391.1v29.76H33.94V391.41Z"
            transform="translate(-0.29 -10.06)" />
    </g>
    <g id="401d" data-name="401d">
        <path id="Vector_5" data-name="Vector 5" class="room" d="M33.88,387.19v-27.8H4.94V387.8Z"
            transform="translate(-0.29 -10.06)" />
    </g>
    <g id="401e" data-name="401e">
        <path id="Vector_6" data-name="Vector 6" class="room" d="M6.56,355.66V330H34.12v26Z"
            transform="translate(-0.29 -10.06)" />
    </g>
    <g id="401f" data-name="401f">
        <path id="Vector_7" data-name="Vector 7" class="room" d="M6.79,298.67v29.14H34.65v-28.9Z"
            transform="translate(-0.29 -10.06)" />
    </g>
    <g id="401g" data-name="401g">
        <path id="Vector_8" data-name="Vector 8" class="room" d="M6.79,295.4H34.44V265.55H6.67Z"
            transform="translate(-0.29 -10.06)" />
    </g>
    <g id="401h" data-name="401h">
        <path id="Vector_9" data-name="Vector 9" class="room" d="M6.51,262.27H34.44V236.39h-28Z"
            transform="translate(-0.29 -10.06)" />
    </g>
    <g id="401i" data-name="401i">
        <path id="Vector_10" data-name="Vector 10" class="room" d="M6.39,234H34V204.67H6.51Z"
            transform="translate(-0.29 -10.06)" />
    </g>
    <g id="401j" data-name="401j">
        <path id="Vector_11" data-name="Vector 11" class="room" d="M6.59,172.53v28.68H34v-29Z"
            transform="translate(-0.29 -10.06)" />
    </g>
    <g id="401k" data-name="401k">
        <path id="Vector_12" data-name="Vector 12" class="room" d="M6.43,169V142.32H34.28v27Z"
            transform="translate(-0.29 -10.06)" />
    </g>
    <g id="401l" data-name="401l">
        <path id="Vector_13" data-name="Vector 13" class="room" d="M6.71,110.89v29.85H34.16v-30Z"
            transform="translate(-0.29 -10.06)" />
    </g>
    <g id="401m" data-name="401m">
        <path id="Vector_14" data-name="Vector 14" class="room" d="M6.71,107.65v-29H34.28v29Z"
            transform="translate(-0.29 -10.06)" />
    </g>
    <g id="401" data-name="401">
        <path id="Vector_15" data-name="Vector 15" class="room"
            d="M36.42,78.93H63.08v31.35H82.2v47.29h46.1v184H82V483.66H36.38Z"
            transform="translate(-0.29 -10.06)" />
    </g>
    <g id="402" data-name="402">
        <path id="Vector_16" data-name="Vector 16" class="room"
            d="M84.81,344.81H94.88v31.76H84.77Z" transform="translate(-0.29 -10.06)" />
    </g>
    <g id="403" data-name="403">
        <path id="Vector_17" data-name="Vector 17" class="room" d="M119.23,344.81h7.6V379.6h-8.34Z"
            transform="translate(-0.29 -10.06)" />
    </g>
    <g id="404" data-name="404">
        <path id="Vector_18" data-name="Vector 18" class="room" d="M252.8,295.76H298v94.81H252.61Z"
            transform="translate(-0.29 -10.06)" />
    </g>
    <g id="405" data-name="405">
        <path id="Vector_19" data-name="Vector 19" class="room" d="M272.57,411.21h42.09V485H272Z"
            transform="translate(-0.29 -10.06)" />
    </g>
    <g id="405a" data-name="405a">
        <path id="Vector_20" data-name="Vector 20" class="room" d="M253.16,410.64H270V485H252.8Z"
            transform="translate(-0.29 -10.06)" />
    </g>
    <g id="406" data-name="406">
        <path id="Vector_21" data-name="Vector 21" class="room"
            d="M378.75,296.68v18.66H315V296.27Z" transform="translate(-0.29 -10.06)" />
    </g>
    <g id="407" data-name="407">
        <path id="Vector_22" data-name="Vector 22" class="room" d="M315,370.12h16.75V390.4H315.07Z"
            transform="translate(-0.29 -10.06)" />
    </g>
    <g id="Bathroom">
        <path id="Vector_23" data-name="Vector 23" class="bathroom"
            d="M315.22,368.3h16.27V350.74H346.8V317.35H315.26Z" transform="translate(-0.29 -10.06)" />
    </g>
    <g id="408" data-name="408">
        <path id="Vector_24" data-name="Vector 24" class="room" d="M333.22,352.67h13v37.92H333.19Z"
            transform="translate(-0.29 -10.06)" />
    </g>
    <g id="Bathroom-2" data-name="Bathroom">
        <path id="Vector_25" data-name="Vector 25" class="bathroom"
            d="M353.44,318h23.24v45.33H347.24V353.12H353Z" transform="translate(-0.29 -10.06)" />
    </g>
    <g id="411" data-name="411">
        <path id="Vector_26" data-name="Vector 26" class="room"
            d="M365.73,383.53h11.58v8.61H365.8Z" transform="translate(-0.29 -10.06)" />
    </g>
    <g id="410" data-name="410">
        <path id="Vector_27" data-name="Vector 27" class="room" d="M363.64,383.56H347.92v7h15.87Z"
            transform="translate(-0.29 -10.06)" />
    </g>
    <g id="408a" data-name="408a">
        <path id="Vector_28" data-name="Vector 28" class="room" d="M348,382.15h9.49V365h-9.64Z"
            transform="translate(-0.29 -10.06)" />
    </g>
    <g id="412" data-name="412">
        <path id="Vector_29" data-name="Vector 29" class="room"
            d="M381.57,296.87V390H503.94V296.35Z" transform="translate(-0.29 -10.06)" />
    </g>
    <g id="409" data-name="409">
        <path id="Vector_30" data-name="Vector 30" class="room"
            d="M317.09,411.4V484s62.14-.19,62.19,0,0-73,0-73Z" transform="translate(-0.29 -10.06)" />
    </g>
    <g id="413" data-name="413">
        <path id="Vector_31" data-name="Vector 31" class="room" d="M381.25,411.43v72.3h89.69v-72Z"
            transform="translate(-0.29 -10.06)" />
    </g>
    <g id="414" data-name="414">
        <path id="Vector_32" data-name="Vector 32" class="room" d="M520.14,411.6V484H627.3V411.37Z"
            transform="translate(-0.29 -10.06)" />
    </g>
    <g id="415" data-name="415">
        <path id="Vector_33" data-name="Vector 33" class="room"
            d="M520.64,17.29H627.3V88.44H520.45Z" transform="translate(-0.29 -10.06)" />
    </g>
    <g id="416" data-name="416">
        <path id="Vector_34" data-name="Vector 34" class="room"
            d="M381.12,108.52v93.8H503.93V109.08Z" transform="translate(-0.29 -10.06)" />
    </g>
    <g id="417" data-name="417">
        <path id="Vector_35" data-name="Vector 35" class="room" d="M470.72,17.29H381.13V88.52H470Z"
            transform="translate(-0.29 -10.06)" />
    </g>
    <g id="418" data-name="418">
        <path id="Vector_36" data-name="Vector 36" class="room" d="M348,17.86h31.25v70H348.06Z"
            transform="translate(-0.29 -10.06)" />
    </g>
    <g id="419" data-name="419">
        <path id="Vector_37" data-name="Vector 37" class="room"
            d="M346.84,107.62h10.07v23.82H346.8Z" transform="translate(-0.29 -10.06)" />
    </g>
    <g id="419a" data-name="419a">
        <path id="Vector_38" data-name="Vector 38" class="room"
            d="M359.2,108.59v22.17h18.88V108.31Z" transform="translate(-0.29 -10.06)" />
    </g>
    <g id="Bathroom-3" data-name="Bathroom">
        <path id="Vector_39" data-name="Vector 39" class="bathroom"
            d="M346.6,133.14v48.38h29.83V133.59Z" transform="translate(-0.29 -10.06)" />
    </g>
    <g id="420" data-name="420">
        <path id="Vector_40" data-name="Vector 40" class="room" d="M333.8,108v9.34h10.75v-9.38Z"
            transform="translate(-0.29 -10.06)" />
    </g>
    <g id="421" data-name="421">
        <path id="Vector_41" data-name="Vector 41" class="room"
            d="M315.67,119.39h15.76V107.86H315.55Z" transform="translate(-0.29 -10.06)" />
    </g>
    <g id="422" data-name="422">
        <path id="Vector_42" data-name="Vector 42" class="room"
            d="M346.17,76.91V88.44H316.82V76.51Z" transform="translate(-0.29 -10.06)" />
    </g>
    <g id="423" data-name="423">
        <path id="Vector_43" data-name="Vector 43" class="room" d="M316.22,121.37v9.95h29V121.17Z"
            transform="translate(-0.29 -10.06)" />
    </g>
    <g id="424" data-name="424">
        <path id="Vector_44" data-name="Vector 44" class="room"
            d="M375.67,183.86v16.22H318.12V183Z" transform="translate(-0.29 -10.06)" />
    </g>
    <g id="Bathroom-4" data-name="Bathroom">
        <path id="Vector_45" data-name="Vector 45" class="bathroom"
            d="M316.7,134.27h26.82v11.45H332.26v2.43h8.14v33H317.25Z"
            transform="translate(-0.29 -10.06)" />
    </g>
    <g id="425" data-name="425">
        <path id="Vector_46" data-name="Vector 46" class="room"
            d="M191.53,109v93.92H297.76V109.11Z" transform="translate(-0.29 -10.06)" />
    </g>
    <g id="426" data-name="426">
        <path id="Vector_47" data-name="Vector 47" class="room" d="M345.63,18.73h-60V73.9h60.44Z"
            transform="translate(-0.29 -10.06)" />
    </g>
    <g id="426a" data-name="426a">
        <path id="Vector_48" data-name="Vector 48" class="room" d="M286,77.42h29.35V87.74H285.67Z"
            transform="translate(-0.29 -10.06)" />
    </g>
    <g id="427" data-name="427">
        <path id="Vector_49" data-name="Vector 49" class="room" d="M283.26,18.28h-46.1v43.2h46.22Z"
            transform="translate(-0.29 -10.06)" />
    </g>
    <g id="428" data-name="428">
        <path id="Vector_50" data-name="Vector 50" class="room" d="M234.51,18.16h-44V88.67h44.24Z"
            transform="translate(-0.29 -10.06)" />
    </g>
    <g id="429" data-name="429">
        <path id="Vector_51" data-name="Vector 51" class="room" d="M118.61,107.56v7H130v-7.24Z"
            transform="translate(-0.29 -10.06)" />
    </g>
    <g id="430" data-name="430">
        <path id="Vector_52" data-name="Vector 52" class="room" d="M96.68,108.81v13H83.09V109.25Z"
            transform="translate(-0.29 -10.06)" />
    </g>
    <g id="431" data-name="431">
        <path id="Vector_53" data-name="Vector 53" class="room"
            d="M4.13,49.19c.16.69,0,26.33,0,26.33H82V48.62Z" transform="translate(-0.29 -10.06)" />
    </g>
    <g id="431a" data-name="431a">
        <path id="Vector_54" data-name="Vector 54" class="room" d="M3.5,46.57h45V14.29H3.38Z"
            transform="translate(-0.29 -10.06)" />
    </g>
    <g id="431b" data-name="431b">
        <path id="Vector_55" data-name="Vector 55" class="room" d="M50.7,15.52H82.42V46.38H50.9Z"
            transform="translate(-0.29 -10.06)" />
    </g>
    <g id="lift_A_level_4" data-name="lift A level 4">
        <path id="Vector_56" data-name="Vector 56" class="lift"
            d="M97.78,344.32V362.5h18.69V344.75Z" transform="translate(-0.29 -10.06)" />
    </g>
    <g id="stairs_A_level_4" data-name="stairs A level 4">
        <path id="Vector_57" data-name="Vector 57" class="stair" d="M85.8,410.38h43.51v73H85.71Z"
            transform="translate(-0.29 -10.06)" />
    </g>
    <g id="stairs_B_level_4" data-name="stairs B level 4">
        <path id="Vector_58" data-name="Vector 58" class="stair" d="M473.52,411V482.8h25.67v-72Z"
            transform="translate(-0.29 -10.06)" />
    </g>
    <g id="lift_B_level_4" data-name="lift B level 4">
        <path id="Vector_59" data-name="Vector 59" class="lift"
            d="M360.22,366.75V380.2h17.12V367.1Z" transform="translate(-0.29 -10.06)" />
    </g>
    <g id="stairs_C_level_4" data-name="stairs C level 4">
        <path id="Vector_60" data-name="Vector 60" class="stair" d="M474.12,212h72V288.1H474.25Z"
            transform="translate(-0.29 -10.06)" />
    </g>
    <g id="stairs_D_level_4" data-name="stairs D level 4">
        <path id="Vector_61" data-name="Vector 61" class="stair"
            d="M472.25,17.58H498.7V88.39H472.21Z" transform="translate(-0.29 -10.06)" />
    </g>
    <g id="stairs_E_level_4" data-name="stairs E level 4">
        <path id="Vector_62" data-name="Vector 62" class="stair" d="M86.61,16.08h41.77V89.63H86.2Z"
            transform="translate(-0.29 -10.06)" />
    </g>
    <g id="lift_C_floor_4" data-name="lift C floor 4">
        <path id="Vector_63" data-name="Vector 63" class="lift" d="M99.65,128.31h15.92V154H99.69Z"
            transform="translate(-0.29 -10.06)" />
    </g>
</svg>