<svg width="993" height="501" viewBox="0 0 993 501" transform="scale(-1,1)"
    xmlns="http://www.w3.org/2000/svg">
    <g id="BusinessSchoolLevel1">
        <g id="level 1">
            <path id="path960"   d="M81.9643 307.527H0.0803223V500.236H992.242V245.924H932.136V122.727H910.288V0.235596H82.4947L81.9643 307.527Z" class="background"/>
        </g>
        <g id="101">
            <path id="path964" d="M9.36022 490.023H24.7735V316.155H9.10754L9.36022 490.023Z" class="room"/>
        </g>
        <g id="102">
            <path id="path967" d="M26.9845 317.384H40.5027V355.935H26.2264L26.9845 317.384Z" class="room"/>
        </g>
        <g id="103">
            <path id="path970" d="M72.5295 316.737H86.7427V359.622H72.6559L72.5295 316.737Z" class="room"/>
        </g>
        <g id="104">
            <path id="path975" d="M92.0277 188.024V358.854H106.143V187.658L92.0277 188.024Z" class="room"/>
        </g>
        <g id="105">
            <path id="path978" d="M108.644 403.268V416.624H185.829V402.262H108.465L108.644 403.268Z" class="room"/>
        </g>
        <g id="106">
            <path id="path985" d="M165.014 359.872H204.143V374.691H164.746L165.014 359.872Z" class="room"/>
        </g>
        <g id="107">
            <path id="path988" d="M206.734 360.375V375.102H244.255V360.1L206.734 360.375Z" class="room"/>
        </g>
        <g id="108">
            <path id="path991" d="M289.065 360.512V374.691H246.497V359.597L289.065 360.512Z" class="room"/>
        </g>
        <g id="109">
            <path id="path1964" d="M292.021 312.853V374.599H393.417V365.177H385.332V341.943V313.082" class="room"/>
        </g>
        <g id="110">
            <path id="path1967" d="M352.903 401.622V490.902H274.422V401.027L352.903 401.622Z" class="room"/>
        </g>
        <g id="111">
            <path id="path1970" d="M396.722 364.849V377.792H412.4V364.849H396.722Z" class="room"/>
        </g>
        <g id="112">
            <path id="path1973" d="M389.307 342.849V361.144H415.304V343.626L389.307 342.849Z" class="room"/>
        </g>
        <g id="113">
            <path id="path1976" d="M453.786 7.35327V309.811H292.629V7.53593L453.786 7.35327Z" class="room"/>
        </g>
        <g id="114">
            <path id="path1979" d="M446.993 312.427H496.321V374.985H446.788L446.993 312.427Z" class="room"/>
        </g>
        <g id="115">
            <path id="path1982" d="M455.677 272.704V309.271H499.044V375.091H572.621V295.591L573.598 295.329H580.123V374.933H662.078V272.967L455.677 272.704Z" class="room"/>
        </g>
        <g id="116">
            <path id="path1985" d="M355.442 402.014V490.353H534.357V401.909L355.442 402.014Z" class="room"/>
        </g>
        <g id="117">
            <path id="path1988" d="M602.583 402.593C602.362 401.769 602.583 491.194 602.583 491.194H683.562V498.35H742.55V402.119L602.583 402.593Z" class="room"/>
        </g>
        <g id="118">
            <path id="path1991" d="M766.083 374.444C765.674 375.971 766.083 498.245 766.083 498.245H983.381V374.708H766.237L766.083 374.444Z" class="room"/>
        </g>
        <g id="119">
            <path id="path1994" d="M665.997 295.759V374.153H741.684V296.811L665.997 295.759Z" class="room"/>
        </g>
        <g id="120">
            <path id="path1997" d="M728.239 108.23V126.013H744.99V254.128H729.062V269.281H575.427V108.861L728.239 108.23Z" class="room"/>
        </g>
        <g id="121">
            <path id="path2000" d="M741.891 10.5132V81.9101H665.69V11.0919L741.891 10.5132Z" class="room"/>
        </g>
        <g id="122">
            <path id="path2003" d="M766.195 129.917H908.833V126.286H927.845V246.562H766.657L766.195 129.917Z" class="room"/>
        </g>
        <g id="123">
            <path id="path2006" d="M767.222 30.2333V128.148H905.647V30.0754L767.222 30.2333Z" class="room"/>
        </g>
        <g id="124">
            <path id="path2009" d="M928.153 248.521H767.171V372.217C767.171 372.217 982.924 372.477 983.184 372.217C983.444 371.957 983.184 254.204 983.184 254.204H928.102L928.153 248.521Z" class="room"/>
        </g>
        <g id="105a">
            <path id="path2014" d="M188.874 403.318V421.781H89.5685V492.371H269.268V402.624L188.874 403.318Z" class="room"/>
        </g>
        <g id="107a">
            <path id="path2017" d="M165.285 355.686V313.277H233.003V337.709H244.662V357.144L244.319 355.862L165.285 355.686Z" class="room"/>
        </g>
        <g id="108a">
            <path id="path2022" d="M235.647 333.891H247.712V355.408L248.26 355.956H289.265V311.958H235.375L235.647 333.891Z" class="room"/>
        </g>
        <g id="104a">
            <path id="path2025" d="M162.241 373.336V307.96H290.349V6.19116H89.0005V184.103H110.615V374.358L162.241 373.336Z" class="room"/>
        </g>
        <g id="113b">
            <path id="path2060" d="M474.552 268.121V109.108H573.398V269.143L474.552 268.121Z" class="room"/>
        </g>
        <g id="113c">
            <path id="path2063" d="M661.69 10.0713H474.141V105.411H662.438L661.69 10.0713Z" class="room"/>
        </g>
        <g id="113a">
            <path id="path2058" d="M471.725 268.377H455.681V247.947H471.975L471.725 268.377Z" class="room"/>
        </g>
        <g id="stair A level 1">
            <path id="path1774" d="M28.8101 411.573V491.726H84.8069V411.211L28.8101 411.573Z" class="stair"/>
        </g>
        <g id="stair B level 1">
            <path id="path1777" d="M538.03 401.735H571.392V471.205H538.324L538.03 401.735Z" class="stair"/>
        </g>
        <g id="stair C level 1">
            <path id="path1780" d="M387.074 338.421V313.313H415.426V339.145L387.074 338.421Z" class="stair"/>
        </g>
        <g id="elevator A level 1">
            <path id="path2469" d="M49.9807 319.19H64.4632V336.004H49.6747L49.9807 319.19Z" class="lift"/>
        </g>
    </g>
</svg>
