<svg id="Layer_1" data-name="Layer 1" xmlns="http://www.w3.org/2000/svg" viewBox="0 0 547.52 475.73" transform="scale(-1,-1)">
    <g id="Layer_2" data-name="Layer 2">
        <path class="background"
            d="M503.26,210l-.4-198.22L185,13l-.3,76H132.3l.3-76.5H.3V486.3H133l1-77.7,114.3,2.6-1,76,259.45.31L506.36,290h-35.6l.26-79.58ZM295.8,290H243V390.1H135V111.8h50V210H295.8Zm155.88.4L314,290V210l137.68.4Z"
            transform="translate(-0.3 -11.78)" />
    </g>
    <g id="Student Union">
        <polygon class="union"
            points="454.51 281.52 454.51 195 373.27 195 371.86 172.12 309.67 172.12 309.67 81.42 281.46 81.28 281.46 4.28 499.16 1.22 499.16 195.3 467.5 195.3 467.5 281.52 502.7 281.52 502.71 469.65 310.58 471.65 311.23 303.24 371.9 303.63 373.27 281.52 454.51 281.52" />
    </g>
    <g id="501" data-name="501">
        <path id="Vector_2" data-name="Vector 2" class="room"
            d="M37.2,480.2H82.1V340h46.8V158.1H81.7V19.5H36.9Z" transform="translate(-0.3 -11.78)" />
    </g>
    <g id="501a" data-name="501a">
        <path id="Vector_3" data-name="Vector 3" class="room" d="M34.2,450.8v29.8H6.6V451Z"
            transform="translate(-0.3 -11.78)" />
    </g>
    <g id="501b" data-name="501b">
        <path id="Vector_4" data-name="Vector 4" class="room" d="M34.2,422v26.3H6.5V422.2Z"
            transform="translate(-0.3 -11.78)" />
    </g>
    <g id="501c" data-name="501c">
        <path id="Vector_5" data-name="Vector 5" class="room" d="M34.3,390.1v29.4H6.6V390.3Z"
            transform="translate(-0.3 -11.78)" />
    </g>
    <g id="501d" data-name="501d">
        <path id="Vector_6" data-name="Vector 6" class="room" d="M34.2,358.1v29H6V358.3Z"
            transform="translate(-0.3 -11.78)" />
    </g>
    <g id="501e" data-name="501e">
        <path id="Vector_7" data-name="Vector 7" class="room" d="M34.5,329v27.3H6.5V329.2Z"
            transform="translate(-0.3 -11.78)" />
    </g>
    <g id="501f" data-name="501f">
        <path id="Vector_8" data-name="Vector 8" class="room" d="M34.6,297v29.8H6.6V297.2Z"
            transform="translate(-0.3 -11.78)" />
    </g>
    <g id="501g" data-name="501g">
        <path id="Vector_9" data-name="Vector 9" class="room" d="M34.8,264.8v29.8H6.8V265Z"
            transform="translate(-0.3 -11.78)" />
    </g>
    <g id="501h" data-name="501h">
        <path id="Vector_10" data-name="Vector 10" class="room" d="M34.6,236.2v26.5H6.6V236.4Z"
            transform="translate(-0.3 -11.78)" />
    </g>
    <g id="501i" data-name="501i">
        <path id="Vector_11" data-name="Vector 11" class="room" d="M34.6,204v29.8H6.6V204.2Z"
            transform="translate(-0.3 -11.78)" />
    </g>
    <g id="501j" data-name="501j">
        <path id="Vector_12" data-name="Vector 12" class="room" d="M34.3,172.2v30.1H6.3V172.5Z"
            transform="translate(-0.3 -11.78)" />
    </g>
    <g id="501k" data-name="501k">
        <path id="Vector_13" data-name="Vector 13" class="room" d="M34.1,143.6v26.5H6.1V143.8Z"
            transform="translate(-0.3 -11.78)" />
    </g>
    <g id="501l" data-name="501l">
        <path id="Vector_14" data-name="Vector 14" class="room" d="M34.3,111.8v29.6H6.3V112Z"
            transform="translate(-0.3 -11.78)" />
    </g>
    <g id="501m" data-name="501m">
        <path id="Vector_15" data-name="Vector 15" class="room" d="M34.1,79.4v29.4H6.6V79.6Z"
            transform="translate(-0.3 -11.78)" />
    </g>
    <g id="501n" data-name="501n">
        <path id="Vector_16" data-name="Vector 16" class="room" d="M34.7,50.1V77.4H6.7v-27Z"
            transform="translate(-0.3 -11.78)" />
    </g>
    <g id="501o" data-name="501o">
        <path id="Vector_17" data-name="Vector 17" class="room" d="M34.3,19.4V48.6H6.3v-29Z"
            transform="translate(-0.3 -11.78)" />
    </g>
    <g id="502" data-name="502">
        <path id="Vector_18" data-name="Vector 18" class="room" d="M83.8,344H94.1v31.5H83.7Z"
            transform="translate(-0.3 -11.78)" />
    </g>
    <g id="503" data-name="503">
        <path id="Vector_19" data-name="Vector 19" class="room" d="M118.5,344h7.8v35h-8Z"
            transform="translate(-0.3 -11.78)" />
    </g>
    <g id="504" data-name="504">
        <path id="Vector_20" data-name="Vector 20" class="room" d="M251.8,296h44v93.6H250.5Z"
            transform="translate(-0.3 -11.78)" />
    </g>
    <g id="505" data-name="505">
        <path id="Vector_21" data-name="Vector 21" class="room" d="M251.26,409.7h58.25v69.9H250.6Z"
            transform="translate(-0.3 -11.78)" />
    </g>
    <g id="506" data-name="506">
        <path id="Vector_22" data-name="Vector 22" class="room" d="M317.4,298.4h55.7v16.8H317.2Z"
            transform="translate(-0.3 -11.78)" />
    </g>
    <g id="Bathroom">
        <path id="Vector_24" data-name="Vector 24" class="bathroom"
            d="M314,387.76h17.3l.15-37.86H338V316.7H314.1Z" transform="translate(-0.3 -11.78)" />
    </g>
    <g id="508a" data-name="508a">
        <path id="Vector_26" data-name="Vector 26" class="unionArea" d="M345.6,363.8v17h9.3V363.9Z"
            transform="translate(-0.3 -11.78)" />
    </g>
    <g id="Bathroom-2" data-name="Bathroom">
        <path id="Vector_27" data-name="Vector 27" class="bathroom"
            d="M343.31,317.05h30V362l-29.86-.12-.31,25.95-9.94,0,.46-35.75,27.25.15v-2.7h-18Z"
            transform="translate(-0.3 -11.78)" />
    </g>
    <g id="509" data-name="509">
        <path id="Vector_28" data-name="Vector 28" class="unionArea" d="M360.5,382.7H344.9v6.8h15.6Z"
            transform="translate(-0.3 -11.78)" />
    </g>
    <g id="510" data-name="510">
        <path id="Vector_29" data-name="Vector 29" class="unionArea" d="M363.3,382.75v6.8h12.2v-6.9Z"
            transform="translate(-0.3 -11.78)" />
    </g>
    <g id="511" data-name="511">
        <path id="Vector_30" data-name="Vector 30" class="unionArea" d="M315.3,410v69H375V409.7Z"
            transform="translate(-0.3 -11.78)" />
    </g>
    <g id="512" data-name="512">
        <path id="Vector_31" data-name="Vector 31" class="unionArea"
            d="M378.6,367s-.6,40-.2,40.63,121.1,0,121.1,0V297H417.13l.3,69.67Z"
            transform="translate(-0.3 -11.78)" />
    </g>
    <g id="512a" data-name="512a">
        <path id="Vector_32" data-name="Vector 32" class="unionArea" d="M378.6,410.5v67.1h73.7V410.4Z"
            transform="translate(-0.3 -11.78)" />
    </g>
    <g id="512b" data-name="512b">
        <rect class="unionArea" x="378.3" y="332.57" width="36.85" height="19.45" />
    </g>
    <g id="512c" data-name="512c">
        <rect class="unionArea" x="377.96" y="309.34" width="37.19" height="19.26" />
    </g>
    <g id="512d" data-name="512d">
        <rect class="unionArea" x="378.3" y="286.62" width="35.16" height="18.65" />
    </g>
    <g id="513" data-name="513">
        <path id="Vector_33" data-name="Vector 33" class="unionArea"
            d="M378.5,202.9V67.36h73.18V90.7H497.9V203.2Z" transform="translate(-0.3 -11.78)" />
    </g>
    <g id="514" data-name="514">
        <path id="Vector_34" data-name="Vector 34" class="unionArea" d="M355.8,109.2V130h19.5V109.5Z"
            transform="translate(-0.3 -11.78)" />
    </g>
    <g id="515" data-name="515">
        <path id="Vector_35" data-name="Vector 35" class="unionArea" d="M344.7,108.6h8.6v25.1h-8.8Z"
            transform="translate(-0.3 -11.78)" />
    </g>
    <g id="Bathroom-3" data-name="Bathroom">
        <path id="Vector_36" data-name="Vector 36" class="bathroom"
            d="M344.7,134.7l-.2,36.91-30.9-.36-.39,10.25,61.19.8V134.5S344.1,135.1,344.7,134.7Z"
            transform="translate(-0.3 -11.78)" />
    </g>
    <g id="516" data-name="516">
        <path id="Vector_37" data-name="Vector 37" class="unionArea" d="M331.1,107.15h11.6v9.3H331.1Z"
            transform="translate(-0.3 -11.78)" />
    </g>
    <g id="517" data-name="517">
        <path id="Vector_38" data-name="Vector 38" class="unionArea" d="M329.2,106.2H313.6v11.2h15.7Z"
            transform="translate(-0.3 -11.78)" />
    </g>
    <g id="518" data-name="518">
        <path id="Vector_39" data-name="Vector 39" class="unionArea" d="M329.2,50.82h-46V88.6h46.1Z"
            transform="translate(-0.3 -11.78)" />
    </g>
    <g id="518a" data-name="518a">
        <rect class="room" x="253.22" y="7.42" width="28.24" height="44.65" />
    </g>
    <g id="518b" data-name="518b">
        <rect class="unionArea" x="284.22" y="8.5" width="29.08" height="27.75" />
    </g>
    <g id="518c" data-name="518c">
        <rect class="unionArea" x="316.32" y="8.5" width="27.75" height="27.75" />
    </g>
    <g id="518d" data-name="518d">
        <polygon class="unionArea"
            points="331.91 40.14 347.27 40.14 347.27 8.5 375 8.5 375 52.08 331.91 52.08 331.91 40.14" />
    </g>
    <g id="518e" data-name="518e">
        <rect class="unionArea" x="331.91" y="55.58" width="43.09" height="18.73" />
    </g>
    <g id="Bathroom-4" data-name="Bathroom">
        <path id="Vector_41" data-name="Vector 41" class="bathroom"
            d="M312.3,119.6h30.3l.1,49.4H312.3Z" transform="translate(-0.3 -11.78)" />
    </g>
    <g id="521" data-name="521">
        <path id="Vector_43" data-name="Vector 43" class="room" d="M373.6,183.9H312.1v16.8h61.7Z"
            transform="translate(-0.3 -11.78)" />
    </g>
    <g id="522" data-name="522">
        <path id="Vector_44" data-name="Vector 44" class="room" d="M190.3,110.1v94.5H295.8v-95Z"
            transform="translate(-0.3 -11.78)" />
    </g>
    <g id="523" data-name="523">
        <path id="Vector_45" data-name="Vector 45" class="room" d="M250.12,19.2H189.7V89.8h60.42Z"
            transform="translate(-0.3 -11.78)" />
    </g>
    <g id="523a" data-name="523a">
        <rect class="room" x="253.22" y="55.58" width="27.32" height="21.24" />
    </g>
    <g id="524" data-name="524">
        <path id="Vector_46" data-name="Vector 46" class="room" d="M117.6,108.9h12v6.6H117.9Z"
            transform="translate(-0.3 -11.78)" />
    </g>
    <g id="525" data-name="525">
        <path id="Vector_47" data-name="Vector 47" class="room" d="M97.4,109.9v12.2H82.5V109.5Z"
            transform="translate(-0.3 -11.78)" />
    </g>
    <g id="513a" data-name="513a">
        <path id="Vector_48" data-name="Vector 48" class="unionArea" d="M379.59,19.3H406V63.85H379.66Z"
            transform="translate(-0.3 -11.78)" />
    </g>
    <g id="513b" data-name="513b">
        <rect class="unionArea" x="408.95" y="7.52" width="41.73" height="44.55" />
    </g>
    <g id="elevator_A_level_5" data-name="elevator A level 5">
        <path id="Vector_49" data-name="Vector 49" class="lift" d="M97.2,343.8v18.9h18.5V343.6Z"
            transform="translate(-0.3 -11.78)" />
    </g>
    <g id="stairs_A_level_5" data-name="stairs A level 5">
        <path id="Vector_50" data-name="Vector 50" class="stair" d="M85.2,408.8h42.9v72.9H85.4Z"
            transform="translate(-0.3 -11.78)" />
    </g>
    <g id="stairs_B_level_5" data-name="stairs B level 5">
        <path id="Vector_51" data-name="Vector 51" class="stair" d="M455.34,409.4H499.5v68.2h-44Z"
            transform="translate(-0.3 -11.78)" />
    </g>
    <g id="lift_B_level_5" data-name="elevator B level 5">
        <path id="Vector_52" data-name="Vector 52" class="lift" d="M357.5,364.45v13H375V364Z"
            transform="translate(-0.3 -11.78)" />
    </g>
    <g id="stairs_C_level_5" data-name="stairs C level 5">
        <path id="Vector_53" data-name="Vector 53" class="stair"
            d="M547.82,254.92v-14.8H468.17v14.1Z" transform="translate(-0.3 -11.78)" />
    </g>
    <g id="stairs_D_level_5" data-name="stairs D level 5">
        <path id="Vector_54" data-name="Vector 54" class="stair" d="M454.6,21.3V88.6h44.9V21.4Z"
            transform="translate(-0.3 -11.78)" />
    </g>
    <g id="stairs_E_level_5" data-name="stairs E level 5">
        <path id="Vector_55" data-name="Vector 55" class="stair" d="M85.5,19.9h42.3V90H85Z"
            transform="translate(-0.3 -11.78)" />
    </g>
    <g id="elevator_C_level_5" data-name="elevator C level 5">
        <path id="Vector_56" data-name="Vector 56" class="lift"
            d="M98.3,130c.7-.3,17.1,0,17.1,0v25s-17.3.3-17.2,0S98.3,130,98.3,130Z"
            transform="translate(-0.3 -11.78)" />
    </g>
</svg>
