<svg width="841" height="501" viewBox="0 0 841 501" fill="none" xmlns="http://www.w3.org/2000/svg">
    <g id="BusinessSchoolLevel5">
        <g id="level 5">
            <path id="Vector" opacity="0.55"
                d="M247.293 466.309V487.086H590.468V500.331H840.018V291.339H767.633V206.649H779.025V0.330566H589.519V12.9673H184.995V33.9879H132.546V12.4812H0.292358V486.236H132.958V463.757L247.293 466.309Z"
                fill="#75378F" />
        </g>
        <g id="501">
            <path id="Vector_2"
                d="M37.1822 480.151H82.0966V340.016H128.919V158.13H81.6877V19.5305H36.9095L37.1822 480.151Z"
                fill="#75378F" />
        </g>
        <g id="501a">
            <path id="Vector_3" d="M34.171 450.845V480.686H6.60461V451.082L34.171 450.845Z"
                fill="#75378F" />
        </g>
        <g id="501b">
            <path id="Vector_4" d="M34.244 422V448.263H6.46716V422.208L34.244 422Z" fill="#75378F" />
        </g>
        <g id="501c">
            <path id="Vector_5" d="M34.3494 390.117V419.538H6.57251V390.351L34.3494 390.117Z"
                fill="#75378F" />
        </g>
        <g id="501d">
            <path id="Vector_6" d="M34.2441 358.13V387.129H6.04639V358.36L34.2441 358.13Z"
                fill="#75378F" />
        </g>
        <g id="501e">
            <path id="Vector_7" d="M34.4545 328.984V356.299H6.46716V329.2L34.4545 328.984Z"
                fill="#75378F" />
        </g>
        <g id="501f">
            <path id="Vector_8" d="M34.5598 296.996V326.837H6.57251V297.233L34.5598 296.996Z"
                fill="#75378F" />
        </g>
        <g id="501g">
            <path id="Vector_9" d="M34.7702 264.798V294.639H6.78284V265.035L34.7702 264.798Z"
                fill="#75378F" />
        </g>
        <g id="501h">
            <path id="Vector_10" d="M34.5598 236.178V262.652H6.57251V236.388L34.5598 236.178Z"
                fill="#75378F" />
        </g>
        <g id="501i">
            <path id="Vector_11" d="M34.5598 203.98V233.821H6.57251V204.217L34.5598 203.98Z"
                fill="#75378F" />
        </g>
        <g id="501j">
            <path id="Vector_12" d="M34.3494 172.203V202.255H6.36206V172.442L34.3494 172.203Z"
                fill="#75378F" />
        </g>
        <g id="501k">
            <path id="Vector_13" d="M34.1388 143.583V170.056H6.15149V143.793L34.1388 143.583Z"
                fill="#75378F" />
        </g>
        <g id="501l">
            <path id="Vector_14" d="M34.3494 111.806V141.436H6.36206V112.041L34.3494 111.806Z"
                fill="#75378F" />
        </g>
        <g id="501m">
            <path id="Vector_15" d="M34.1389 79.3972V108.817H6.57251V79.6307L34.1389 79.3972Z"
                fill="#75378F" />
        </g>
        <g id="501n">
            <path id="Vector_16" d="M34.6649 50.1455V77.4612H6.67761V50.3623L34.6649 50.1455Z"
                fill="#75378F" />
        </g>
        <g id="501o">
            <path id="Vector_17" d="M34.3494 19.4207V48.6304H6.36206V19.6525L34.3494 19.4207Z"
                fill="#75378F" />
        </g>
        <g id="502">
            <path id="Vector_18" d="M83.8436 344.042H94.1436V375.512H83.6775L83.8436 344.042Z"
                fill="#75378F" />
        </g>
        <g id="503">
            <path id="Vector_19" d="M118.509 344.042H126.317V379.028H118.288L118.509 344.042Z"
                fill="#75378F" />
        </g>
        <g id="504">
            <path id="Vector_20" d="M251.75 296.014H295.719V389.574H250.421L251.75 296.014Z"
                fill="#75378F" />
        </g>
        <g id="505">
            <path id="Vector_21" d="M251.252 409.704H312.996V479.619H250.643L251.252 409.704Z"
                fill="#75378F" />
        </g>
        <g id="506">
            <path id="Vector_22" d="M317.371 298.396H373.08V315.18H317.15L317.371 298.396Z"
                fill="#75378F" />
        </g>
        <g id="507">
            <path id="Vector_23" d="M313.441 375.783H331.822V389.531H313.407L313.441 375.783Z"
                fill="#75378F" />
        </g>
        <g id="507a">
            <path id="Vector_24"
                d="M314.056 373.753H331.378V349.859H337.972V316.695H314.09L314.056 373.753Z"
                fill="#75378F" />
        </g>
        <g id="508">
            <path id="Vector_25" d="M333.223 352.238H343.916V389.251H333.12L333.223 352.238Z"
                fill="#75378F" />
        </g>
        <g id="508a">
            <path id="Vector_26" d="M345.625 363.783V380.785H354.883V363.888L345.625 363.783Z"
                fill="#75378F" />
        </g>
        <g id="508b">
            <path id="Vector_27"
                d="M344.155 317.149H374.118V362.034H346.034V352.273H361.785V349.615H343.78L344.155 317.149Z"
                fill="#75378F" />
        </g>
        <g id="509">
            <path id="Vector_28" d="M360.452 382.706H344.805V389.493H360.418L360.452 382.706Z"
                fill="#75378F" />
        </g>
        <g id="510">
            <path id="Vector_29" d="M363.254 382.811V389.598H375.417V382.741L363.254 382.811Z"
                fill="#75378F" />
        </g>
        <g id="511">
            <path id="Vector_30" d="M315.32 409.956V479.015H376.681V409.677L315.32 409.956Z"
                fill="#75378F" />
        </g>
        <g id="512">
            <path id="Vector_31"
                d="M378.423 296.975C378.423 296.975 378.055 406.955 378.423 407.594C378.792 408.232 498.412 407.594 498.412 407.594V297.045L378.423 296.975Z"
                fill="#75378F" />
        </g>
        <g id="512a">
            <path id="Vector_32" d="M378.594 410.464V477.563H452.254V410.359L378.594 410.464Z"
                fill="#75378F" />
        </g>
        <g id="513">
            <path id="Vector_33" d="M378.457 202.853V90.6941H497.831V203.237L378.457 202.853Z"
                fill="#75378F" />
        </g>
        <g id="514">
            <path id="Vector_34" d="M355.772 109.236V129.981H375.246V109.48L355.772 109.236Z"
                fill="#75378F" />
        </g>
        <g id="515">
            <path id="Vector_35" d="M344.663 108.585H353.238V133.654H344.404L344.663 108.585Z"
                fill="#75378F" />
        </g>
        <g id="515a">
            <path id="Vector_36"
                d="M344.689 134.662V142.806H353.393V144.477H349.507V182.252H374.378V134.502C374.378 134.502 344.067 135.086 344.689 134.662Z"
                fill="#75378F" />
        </g>
        <g id="516">
            <path id="Vector_37" d="M330.958 108.718H342.512V118.029H330.958V108.718Z"
                fill="#75378F" />
        </g>
        <g id="517">
            <path id="Vector_38" d="M329.17 109.301H313.6V120.496H329.274L329.17 109.301Z"
                fill="#75378F" />
        </g>
        <g id="518">
            <path id="Vector_39" d="M375.984 19.2642H284.014V89.6158H376.217L375.984 19.2642Z"
                fill="#75378F" />
        </g>
        <g id="519">
            <path id="Vector_40" d="M313.367 131.158V121.369H342.383V131.237L313.367 131.158Z"
                fill="#75378F" />
        </g>
        <g id="519b">
            <path id="Vector_41"
                d="M312.279 132.563H342.538V142.803H330.155V144.793H344.611V168.96H312.175L312.279 132.563Z"
                fill="#75378F" />
        </g>
        <g id="520">
            <path id="Vector_42" d="M312.305 170.923V182.303H344.87V171.029L312.305 170.923Z"
                fill="#75378F" />
        </g>
        <g id="521">
            <path id="Vector_43" d="M373.601 183.945H312.123V200.763H373.808L373.601 183.945Z"
                fill="#75378F" />
        </g>
        <g id="522">
            <path id="Vector_44" d="M190.28 110.118V204.61H295.799V109.587L190.28 110.118Z"
                fill="#75378F" />
        </g>
        <g id="523">
            <path id="Vector_45" d="M281.576 19.1814H189.632V89.7983H281.55L281.576 19.1814Z"
                fill="#75378F" />
        </g>
        <g id="524">
            <path id="Vector_46" d="M117.553 108.948H129.522V115.553H117.812L117.553 108.948Z"
                fill="#75378F" />
        </g>
        <g id="525">
            <path id="Vector_47" d="M97.3711 109.929V122.158H82.5005V109.531L97.3711 109.929Z"
                fill="#75378F" />
        </g>
        <g id="513a">
            <path id="Vector_48" d="M378.535 21.3174H452.525V88.9632H378.742L378.535 21.3174Z"
                fill="#75378F" />
        </g>
        <g id="elevator A level 5">
            <path id="Vector_49" d="M97.2449 343.763V362.615H115.734V343.483L97.2449 343.763Z"
                fill="#2D6D9C" />
        </g>
        <g id="stairs A level 5">
            <path id="Vector_50" d="M85.2444 408.765H128.164V481.652H85.3617L85.2444 408.765Z"
                fill="#B03A4F" />
        </g>
        <g id="stairs B level 5">
            <path id="Vector_51" d="M469.669 409.405H494.96V463.16H469.786L469.669 409.405Z"
                fill="#B03A4F" />
        </g>
        <g id="elevator B level 5">
            <path id="Vector_52" d="M357.483 366.469V379.437H375.034V366.029L357.483 366.469Z"
                fill="#2D6D9C" />
        </g>
        <g id="stairs C level 5">
            <path id="Vector_53" d="M537.718 256.622V241.813H378.352V255.942L537.718 256.622Z"
                fill="#B03A4F" />
        </g>
        <g id="stairs D level 5">
            <path id="Vector_54" d="M454.622 21.3313V88.5937H499.485V21.429L454.622 21.3313Z"
                fill="#B03A4F" />
        </g>
        <g id="stairs E level 5">
            <path id="Vector_55" d="M85.5426 19.8513H127.862V90.0115H85.0021L85.5426 19.8513Z"
                fill="#B03A4F" />
        </g>
        <g id="elevator C level 5">
            <path id="Vector_56"
                d="M98.2924 130.004C98.9601 129.711 115.43 130.004 115.43 130.004V155.04C115.43 155.04 98.1195 155.329 98.197 155.04C98.2745 154.75 98.2924 130.004 98.2924 130.004Z"
                fill="#2D6D9C" />
        </g>
    </g>
</svg>