<svg width="811" height="501" viewBox="0 0 811 501" fill="none" xmlns="http://www.w3.org/2000/svg">
<g id="BusinessSchoolLevel3">
<g id="level 3">
<path id="Vector" opacity="0.55" d="M313.39 498.061V425.103H295.5V454.286H210.153V424.31H191.798V500.361H53.5558V304.132H0.0803223V194.219H53.6735V0.455566H810.608V500.456H313.111L313.39 498.061Z" fill="#75378F"/>
</g>
<g id="301">
<path id="Vector_2" d="M120.966 447.716V498.354H59.9502V447.423H120.823L120.966 447.716Z" fill="#75378F"/>
</g>
<g id="302">
<path id="Vector_3" d="M60.8102 419.731V444.389H125.028V454.126H138.358V419.486H60.0935L60.8102 419.731Z" fill="#75378F"/>
</g>
<g id="303">
<path id="Vector_4" d="M60.3324 395.708V416.795H118.864V395.904L60.3324 395.708Z" fill="#75378F"/>
</g>
<g id="304">
<path id="Vector_5" d="M89.6984 383.85H123.866V393.716H89.2523L89.6984 383.85Z" fill="#75378F"/>
</g>
<g id="305">
<path id="Vector_6" d="M86.9774 393.67V373.939H60.6156V393.716L86.9774 393.67Z" fill="#75378F"/>
</g>
<g id="306">
<path id="Vector_7" d="M60.348 349.366V368.778H87.4235V349.595L60.348 349.366Z" fill="#75378F"/>
</g>
<g id="307">
<path id="Vector_8" d="M90.3229 348.955V358.866H101.608V370.239H122.929V348.407L90.3229 348.955Z" fill="#75378F"/>
</g>
<g id="308">
<path id="Vector_9" d="M140.415 349.823H151.299V382.252H139.656L140.415 349.823Z" fill="#75378F"/>
</g>
<g id="309">
<path id="Vector_10" d="M124.714 348.544H138.318C138.318 348.544 138.318 416.69 138.318 417.375C138.318 418.06 120.387 417.375 120.387 417.375V400.567H124.758V381.795H88.5387V360.876H99.8239V372.249H124.981L124.714 348.544Z" fill="#75378F"/>
</g>
<g id="310">
<path id="Vector_11" d="M153.618 370.605H174.092V417.284H154.019L153.618 370.605Z" fill="#75378F"/>
</g>
<g id="311">
<path id="Vector_12" d="M176.857 349.64H184.663V387.504H176.456L176.857 349.64Z" fill="#75378F"/>
</g>
<g id="312">
<path id="Vector_13" d="M317.682 496.067C317.682 496.067 316.732 419.407 317.682 419.152C318.632 418.898 364.295 419.152 364.295 419.152V495.611" fill="#75378F"/>
</g>
<g id="313">
<path id="Vector_14" d="M386.553 300.653V319.425H447.038V300.836L386.553 300.653Z" fill="#75378F"/>
</g>
<g id="314">
<path id="Vector_15" d="M383.208 371.07V398.749H411.666V371.07H383.208Z" fill="#75378F"/>
</g>
<g id="315">
<path id="Vector_16" d="M413.854 371.473H427.281V390.245H433.615V397.233H413.23V371.701L413.854 371.473Z" fill="#75378F"/>
</g>
<g id="316">
<path id="Vector_17" d="M435.979 390.29V399.288H448.468V389.925L435.979 390.29Z" fill="#75378F"/>
</g>
<g id="317">
<path id="Vector_18" d="M366.617 494.876H514.217V417.96H366.929L366.617 494.876Z" fill="#75378F"/>
</g>
<g id="318">
<path id="Vector_19" d="M515.964 418.782H546.741V495.835H515.964V418.782Z" fill="#75378F"/>
</g>
<g id="319">
<path id="Vector_20" d="M599.979 397.772V495.332H677.86V397.59L599.979 397.772Z" fill="#75378F"/>
</g>
<g id="320">
<path id="Vector_21" d="M679.599 397.864V495.652H777.954V397.407L679.599 397.864Z" fill="#75378F"/>
</g>
<g id="321">
<path id="Vector_22" d="M599.96 5.0484H712.292V79.6599H599.864L599.96 5.0484Z" fill="#75378F"/>
</g>
<g id="322">
<path id="Vector_23" d="M516.654 5.19513H546.755V79.3663H516.367L516.654 5.19513Z" fill="#75378F"/>
</g>
<g id="323">
<path id="Vector_24" d="M482.873 5.39093H514.265V79.0728H483.111L482.873 5.39093Z" fill="#75378F"/>
</g>
<g id="324">
<path id="Vector_25" d="M367.195 5.14624H480.675V79.7577H468.968V40.2259H367.004L367.195 5.14624Z" fill="#75378F"/>
</g>
<g id="325">
<path id="Vector_26" d="M466.101 43.9931V80.0023H440.061V43.8464L466.101 43.9931Z" fill="#75378F"/>
</g>
<g id="326">
<path id="Vector_27" d="M412.16 43.5266H437.976V79.6045H411.538L412.16 43.5266Z" fill="#75378F"/>
</g>
<g id="327">
<path id="Vector_28" d="M383.715 43.7224V79.9471H409.196V43.6245L383.715 43.7224Z" fill="#75378F"/>
</g>
<g id="328">
<path id="Vector_29" d="M416.184 99.5961V110.116H427.303V99.5961H416.184Z" fill="#75378F"/>
</g>
<g id="329">
<path id="Vector_30" d="M402.327 100.046H414.494V110.462H402.158L402.327 100.046Z" fill="#75378F"/>
</g>
<g id="330">
<path id="Vector_31" d="M400.232 100.53V110.22H382.894V100.911L400.232 100.53Z" fill="#75378F"/>
</g>
<g id="331">
<path id="Vector_32" d="M380.9 43.8801V79.0054H354.708V44.0878L380.9 43.8801Z" fill="#75378F"/>
</g>
<g id="332">
<path id="Vector_33" d="M353.221 43.984C353.074 44.5344 353.221 78.2787 353.221 78.2787H325.576V44.3647L353.221 43.984Z" fill="#75378F"/>
</g>
<g id="333">
<path id="Vector_34" d="M364.406 5.09045H252.236V50.7014H289.615V53.7813H251.526V64.9937H254.399V77.3481H323.276V40.977H364.845L364.406 5.09045Z" fill="#75378F"/>
</g>
<g id="334">
<path id="Vector_35" d="M259.975 86.2764V105.379H279.509V85.7573L259.975 86.2764Z" fill="#75378F"/>
</g>
<g id="335">
<path id="Vector_36" d="M380.966 111.01L319.558 117.689L309.757 116.27L283.362 112.498V82.114H315.097V107.757H321.856V82.4946H380.932L380.966 111.01Z" fill="#75378F"/>
</g>
<g id="336">
<path id="Vector_37" d="M383.364 112.551H427.13V126.221H383.364V112.551Z" fill="#75378F"/>
</g>
<g id="336b">
<path id="Vector_38" d="M429.361 101.235H450.145V126.532C450.145 126.532 429.385 126.945 429.496 126.532C429.606 126.119 429.361 101.235 429.361 101.235Z" fill="#75378F"/>
</g>
<g id="336c">
<path id="Vector_39" d="M447.408 128.989V177.438H417.768V128.574L447.408 128.989Z" fill="#75378F"/>
</g>
<g id="336d">
<path id="Vector_40" d="M382.958 129.127V176.849H415.403V129.093L382.958 129.127Z" fill="#75378F"/>
</g>
<g id="337">
<path id="Vector_41" d="M446.901 180.518V197.509H382.823V179.306H446.867L446.901 180.518Z" fill="#75378F"/>
</g>
<g id="338">
<path id="Vector_42" d="M188.358 100.643H176.023V107.114H188.426L188.358 100.643Z" fill="#75378F"/>
</g>
<g id="339">
<path id="Vector_43" d="M153.65 101.196H137.394V113.758H153.988L153.65 101.196Z" fill="#75378F"/>
</g>
<g id="340">
<path id="Vector_44" d="M104.915 40.3932V82.1974H60.5743V141.028H107.957V150.06H118.332V98.0816H145.843V83.2356H138.036V40.3932H104.915Z" fill="#75378F"/>
</g>
<g id="340a">
<path id="Vector_45" d="M120.191 117.357V141.063H137.732V116.907L120.191 117.357Z" fill="#75378F"/>
</g>
<g id="340b">
<path id="Vector_46" d="M120.461 101.196C120.461 101.196 119.828 114.343 120.461 114.174C121.095 114.004 135.873 114.174 135.873 114.174V100.989L120.461 101.196Z" fill="#75378F"/>
</g>
<g id="340c">
<path id="Vector_47" d="M80.3789 32.0532V79.1522H59.8983V31.9494L80.3789 32.0532Z" fill="#75378F"/>
</g>
<g id="340d">
<path id="Vector_48" d="M82.7447 56.7964H102.685V79.5673C102.685 79.5673 82.1842 79.7898 82.4067 79.5673C82.6292 79.3448 82.7447 56.7964 82.7447 56.7964Z" fill="#75378F"/>
</g>
<g id="340e">
<path id="Vector_49" d="M82.7109 32.2262V53.9243H102.549V31.8802L82.7109 32.2262Z" fill="#75378F"/>
</g>
<g id="340f">
<path id="Vector_50" d="M105.152 37.6247H121.847V7.51733H60.3376V29.25H105.321L105.152 37.6247Z" fill="#75378F"/>
</g>
<g id="elevator A level 3">
<path id="Vector_51" d="M154.064 349.346V368.662H173.625V349.742L154.064 349.346Z" fill="#2D6D9C"/>
</g>
<g id="stairs A level 3">
<path id="Vector_52" d="M141.939 419.987H186.796V491.422H142.056L141.939 419.987Z" fill="#B03A4F"/>
</g>
<g id="stairs B level 3">
<path id="Vector_53" d="M549.5 419.511H576.46V498.085H549.654L549.5 419.511Z" fill="#B03A4F"/>
</g>
<g id="stairs C level 3">
<path id="Vector_54" d="M447.774 327.377V367.954H382.504V326.782L447.774 327.377Z" fill="#B03A4F"/>
</g>
<g id="elevator B level 3">
<path id="Vector_55" d="M429.917 373.229V387.31H449.246V372.436L429.917 373.229Z" fill="#2D6D9C"/>
</g>
<g id="stairs D level 3">
<path id="Vector_56" d="M746.82 267.788V280.481H807.79V267.59L746.82 267.788Z" fill="#B03A4F"/>
</g>
<g id="stairs E level 3">
<path id="Vector_57" d="M557.711 219.391V238.946H677.134V218.955L557.711 219.391Z" fill="#B03A4F"/>
</g>
<g id="stairs F level 3">
<path id="Vector_58" d="M549.499 5.69031H576.653V79.7429H548.957L549.499 5.69031Z" fill="#B03A4F"/>
</g>
<g id="stairs G level 3">
<path id="Vector_59" d="M141.348 6.44019H186.669V80.3342H141.077L141.348 6.44019Z" fill="#B03A4F"/>
</g>
<g id="elevator C level 3">
<path id="Vector_60" d="M154.906 122.197H173.654V148.732H155.177L154.906 122.197Z" fill="#2D6D9C"/>
</g>
</g>
</svg>
