<?xml version="1.0" encoding="utf-8"?>
<!-- Generator: Adobe Illustrator 26.0.0, SVG Export Plug-In . SVG Version: 6.00 Build 0)  -->
<svg version="1.1" id="Layer_1" xmlns="http://www.w3.org/2000/svg" xmlns:xlink="http://www.w3.org/1999/xlink" x="0px" y="0px"
	 viewBox="0 0 811 501" style="enable-background:new 0 0 811 501;" xml:space="preserve">
<g id="level_3">
	<path id="Vector" class="background" d="M313.4,498.1v-73h-17.9v29.2h-85.3v-30h-18.4v76.1H53.6V304.1H0.1V194.2h53.6V0.5h756.9v500H313.1
		L313.4,498.1z"/>
</g>
<g id="Student_Union">
	<polygon id="Student_Union" class="union" points="452.1,85.8 452.1,197.5 380.9,197.5 380.9,300.7 453.1,300.7 453.1,398.7 
		589,399.3 589,494.9 807.8,496.1 807.8,5 482.9,5.4 482.9,85.8 	"/>
</g>
<g id="Meeting_Space">
	<rect x="511.4" y="90" class="unionArea" width="65.2" height="86.9"/>
</g>
<g id="Computer_Area">
	<rect x="457.8" y="90" class="unionArea" width="47.7" height="87.5"/>
	<rect x="459" y="301.9" class="unionArea" width="47.7" height="87.5"/>
</g>
<g id="Collaborate_Space">
	<polygon class="unionArea" points="598.9,85.8 600,176.8 797.1,179.3 797.1,14.8 725.6,14.8 723.6,85.8 	"/>
</g>
<g id="IT_Help_Desk">
	<rect x="609.5" y="245.9" class="unionArea" width="50.5" height="46.5"/>
</g>
<g id="Group_Study_Pods">
	<rect x="511.4" y="301.9" class="unionArea" width="201" height="87.5"/>
</g>
<g id="Gallery">
	<rect x="720.1" y="300.7" class="unionArea" width="81.6" height="88.7"/>
</g>
<g id="Welcome_Area">
	<rect x="386.6" y="201" class="unionArea" width="149.6" height="94.2"/>
</g>
<g id="_x33_01">
	<path id="Vector_2" class="room" d="M121,447.7v50.6H60v-50.9h60.9L121,447.7z"/>
</g>
<g id="_x33_02">
	<path id="Vector_3" class="room" d="M60.8,419.7v24.7H125v9.7h13.3v-34.6H60.1L60.8,419.7z"/>
</g>
<g id="_x33_03">
	<path id="Vector_4" class="room" d="M60.3,395.7v21.1h58.5v-20.9L60.3,395.7z"/>
</g>
<g id="_x33_04">
	<path id="Vector_5" class="room" d="M89.7,383.9h34.2v9.9H89.3L89.7,383.9z"/>
</g>
<g id="_x33_05">
	<path id="Vector_6" class="room" d="M87,393.7v-19.7H60.6v19.8L87,393.7z"/>
</g>
<g id="_x33_06">
	<path id="Vector_7" class="room" d="M60.3,349.4v19.4h27.1v-19.2L60.3,349.4z"/>
</g>
<g id="_x33_07">
	<path id="Vector_8" class="room" d="M90.3,349v9.9h11.3v11.4h21.3v-21.8L90.3,349z"/>
</g>
<g id="_x33_08">
	<path id="Vector_9" class="room" d="M140.4,349.8h10.9v32.4h-11.6L140.4,349.8z"/>
</g>
<g id="_x33_09">
	<path id="Vector_10" class="room" d="M124.7,348.5h13.6c0,0,0,68.1,0,68.8s-17.9,0-17.9,0v-16.8h4.4v-18.8H88.5v-20.9h11.3v11.4H125
		L124.7,348.5z"/>
</g>
<g id="_x33_10">
	<path id="Vector_11" class="room" d="M153.6,370.6h20.5v46.7H154L153.6,370.6z"/>
</g>
<g id="_x33_11">
	<path id="Vector_12" class="room" d="M176.9,349.6h7.8v37.9h-8.2L176.9,349.6z"/>
</g>
<g id="_x33_12">
	<path id="Vector_13" class="room" d="M317.7,496.1c0,0-1-76.7,0-76.9c0.9-0.3,46.6,0,46.6,0v76.5"/>
</g>
<g id="_x33_13">
	<path id="Vector_14" class="room" d="M386.6,300.7v18.8H447v-18.6L386.6,300.7z"/>
</g>
<g id="_x33_14">
	<path id="Vector_15" class="room" d="M383.2,371.1v27.7h28.5v-27.7H383.2z"/>
</g>
<g id="_x33_15">
	<path id="Vector_16" class="room" d="M413.9,371.5h13.4v18.8h6.3v7h-20.4v-25.5L413.9,371.5z"/>
</g>
<g id="_x33_16">
	<path id="Vector_17" class="room" d="M436,390.3v9h12.5v-9.4L436,390.3z"/>
</g>
<g id="_x33_17">
	<path id="Vector_18" class="room" d="M366.6,494.9h147.6V418H366.9L366.6,494.9z"/>
</g>
<g id="_x33_18">
	<path id="Vector_19" class="room" d="M516,418.8h30.8v77.1H516V418.8z"/>
</g>
<g id="_x33_19">
	<path id="Vector_20" class="room" d="M600,397.8v97.6h77.9v-97.7L600,397.8z"/>
</g>
<g id="_x33_20">
	<path id="Vector_21" class="room" d="M685.1,397.9v97.8h98.4v-98.2L685.1,397.9z"/>
</g>
<g id="_x33_21">
	<path id="Vector_22" class="room" d="M600,5h112.3v74.6H599.9L600,5z"/>
</g>
<g id="_x33_22">
	<path id="Vector_23" class="room" d="M516.7,5.2h30.1v74.2h-30.4L516.7,5.2z"/>
</g>
<g id="_x33_23">
	<path id="Vector_24" class="room" d="M482.9,5.4h31.4v73.7h-31.2L482.9,5.4z"/>
</g>
<g id="_x33_24">
	<path id="Vector_25" class="room" d="M367.2,5.1h113.5v74.6H469V40.2H367L367.2,5.1z"/>
</g>
<g id="_x33_25">
	<path id="Vector_26" class="room" d="M466.1,44v36h-26V43.8L466.1,44z"/>
</g>
<g id="_x33_26">
	<path id="Vector_27" class="room" d="M412.2,43.5H438v36.1h-26.4L412.2,43.5z"/>
</g>
<g id="_x33_27">
	<path id="Vector_28" class="room" d="M383.7,43.7v36.2h25.5V43.6L383.7,43.7z"/>
</g>
<g id="_x33_28">
	<path id="Vector_29" class="room" d="M416.2,99.6v10.5h11.1V99.6H416.2z"/>
</g>
<g id="_x33_29">
	<path id="Vector_30" class="room" d="M402.3,100h12.2v10.4h-12.3L402.3,100z"/>
</g>
<g id="_x33_30">
	<path id="Vector_31" class="room" d="M400.2,100.5v9.7h-17.3v-9.3L400.2,100.5z"/>
</g>
<g id="_x33_31">
	<path id="Vector_32" class="room" d="M380.9,43.9V79h-26.2V44.1L380.9,43.9z"/>
</g>
<g id="_x33_32">
	<path id="Vector_33" class="room" d="M353.2,44c-0.1,0.6,0,34.3,0,34.3h-27.6V44.4L353.2,44z"/>
</g>
<g id="_x33_33">
	<path id="Vector_34" class="room" d="M364.4,5.1H252.2v45.6h37.4v3.1h-38.1V65h2.9v12.4h68.9V41h41.6L364.4,5.1z"/>
</g>
<g id="_x33_34">
	<path id="Vector_35" class="room" d="M260,86.3v19.1h19.5V85.8L260,86.3z"/>
</g>
<g id="_x33_35">
	<path id="Vector_36" class="room" d="M381,111l-61.4,6.7l-9.8-1.4l-26.4-3.8V82.1h31.7v25.6h6.8V82.5h59.1L381,111z"/>
</g>
<g id="_x33_36">
	<path id="Vector_37" class="room" d="M383.4,112.6h43.8v13.7h-43.8V112.6z"/>
</g>
<g id="_x33_36b">
	<path id="Vector_38" class="room" d="M429.4,101.2h20.8v25.3c0,0-20.8,0.4-20.6,0C429.6,126.1,429.4,101.2,429.4,101.2z"/>
</g>
<g id="_x33_36c">
	<path id="Vector_39" class="room" d="M447.4,129v48.4h-29.6v-48.9L447.4,129z"/>
</g>
<g id="_x33_36d">
	<path id="Vector_40" class="room" d="M383,129.1v47.7h32.4v-47.8L383,129.1z"/>
</g>
<g id="_x33_37">
	<path id="Vector_41" class="room" d="M446.9,180.5v17h-64.1v-18.2h64L446.9,180.5z"/>
</g>
<g id="_x33_38">
	<path id="Vector_42" class="room" d="M188.4,100.6H176v6.5h12.4L188.4,100.6z"/>
</g>
<g id="_x33_39">
	<path id="Vector_43" class="room" d="M153.6,101.2h-16.3v12.6H154L153.6,101.2z"/>
</g>
<g id="_x33_40">
	<path id="Vector_44" class="room" d="M104.9,40.4v41.8H60.6V141H108v9h10.4v-52h27.5V83.2H138V40.4H104.9z"/>
</g>
<g id="_x33_40a">
	<path id="Vector_45" class="room" d="M120.2,117.4v23.7h17.5v-24.2L120.2,117.4z"/>
</g>
<g id="_x33_40b">
	<path id="Vector_46" class="room" d="M120.5,101.2c0,0-0.6,13.1,0,13c0.6-0.2,15.4,0,15.4,0V101L120.5,101.2z"/>
</g>
<g id="_x33_40c">
	<path id="Vector_47" class="room" d="M80.4,32.1v47.1H59.9V31.9L80.4,32.1z"/>
</g>
<g id="_x33_40d">
	<path id="Vector_48" class="room" d="M82.7,56.8h19.9v22.8c0,0-20.5,0.2-20.3,0C82.6,79.3,82.7,56.8,82.7,56.8z"/>
</g>
<g id="_x33_40e">
	<path id="Vector_49" class="room" d="M82.7,32.2v21.7h19.8v-22L82.7,32.2z"/>
</g>
<g id="_x33_40f">
	<path id="Vector_50" class="room" d="M105.2,37.6h16.7V7.5H60.3v21.7h45L105.2,37.6z"/>
</g>
<g id="elevator_A_level_3">
	<path id="Vector_51" class="lift" d="M154.1,349.3v19.3h19.6v-18.9L154.1,349.3z"/>
</g>
<g id="stairs_A_level_3">
	<path id="Vector_52" class="stair" d="M141.9,420h44.9v71.4h-44.7L141.9,420z"/>
</g>
<g id="stairs_B_level_3">
	<path id="Vector_53" class="stair" d="M549.5,419.5h27v78.6h-26.8L549.5,419.5z"/>
</g>
<g id="stairs_C_level_3">
	<path id="Vector_54" class="stair" d="M447.8,327.4V368h-65.3v-41.2L447.8,327.4z"/>
</g>
<g id="elevator_B_level_3">
	<path id="Vector_55" class="lift" d="M429.9,373.2v14.1h19.3v-14.9L429.9,373.2z"/>
</g>
<g id="stairs_D_level_3">
	<path id="Vector_56" class="stair" d="M746.8,267.8v12.7h61v-12.9L746.8,267.8z"/>
</g>
<g id="stairs_E_level_3">
	<path id="Vector_57" class="stair" d="M557.7,213.5v25.5h119.4v-26.1L557.7,213.5z"/>
</g>
<g id="stairs_F_level_3">
	<path id="Vector_58" class="stair" d="M549.5,5.7h27.2v74.1H549L549.5,5.7z"/>
</g>
<g id="stairs_G_level_3">
	<path id="Vector_59" class="stair" d="M141.3,6.4h45.3v73.9h-45.6L141.3,6.4z"/>
</g>
<g id="elevator_C_level_3">
	<path id="Vector_60" class="lift" d="M154.9,122.2h18.7v26.5h-18.5L154.9,122.2z"/>
</g>
</svg>
