<svg width="885" height="501" viewBox="0 0 885 501" fill="none" xmlns="http://www.w3.org/2000/svg">
<g id="BusinessSchoolLevel2">
<g id="level 2">
<path id="Vector" opacity="0.55" d="M120.318 1.61111V213.931H61.59V196.866H0.186279V305.759H60.8624V288.472H121.25V500.845H884.851V302.598H868.453V198.365H851.13V0.845459L120.318 1.61111Z" fill="#75378F"/>
</g>
<g id="201">
<path id="Vector_2" d="M143.765 421.877H189.088V494.87H143.91L143.765 421.877Z" fill="#75378F"/>
</g>
<g id="202">
<path id="Vector_3" d="M153.772 352.375V385.864H142.242V352.078L153.772 352.375Z" fill="#75378F"/>
</g>
<g id="203">
<path id="Vector_4" d="M180.096 351.929H190.321V388.537H179.371L180.096 351.929Z" fill="#75378F"/>
</g>
<g id="201c">
<path id="Vector_5" d="M127.303 338.712H158.413V311.46H127.738C127.738 311.46 127.244 285.83 127.738 283.986C128.233 282.142 57.8315 283.986 57.8315 283.986V300.545H5.47388V253.096H190.176V348.291H127.303V338.712Z" fill="#75378F"/>
</g>
<g id="201d">
<path id="Vector_6" d="M155.82 315.542V334.935H126.465V315.866L155.82 315.542Z" fill="#75378F"/>
</g>
<g id="204">
<path id="Vector_7" d="M319.255 422.257V493.492H192.24V422.516L319.255 422.257Z" fill="#75378F"/>
</g>
<g id="205">
<path id="Vector_8" d="M340.151 421.869H484.527V493.234H340.151V421.869Z" fill="#75378F"/>
</g>
<g id="205a">
<path id="Vector_9" d="M322.728 423.227H337.437V492.652H322.854L322.728 423.227Z" fill="#75378F"/>
</g>
<g id="206">
<path id="Vector_10" d="M254.061 351.281C253.619 350.505 352.416 351.281 352.416 351.281V398.986H253.619L254.061 351.281Z" fill="#75378F"/>
</g>
<g id="207">
<path id="Vector_11" d="M386.253 374.034H414.472V399.568H386.064L386.253 374.034Z" fill="#75378F"/>
</g>
<g id="208">
<path id="Vector_12" d="M417.439 374.81V399.374H436.315V393.427H430.065V374.034" fill="#75378F"/>
</g>
<g id="209">
<path id="Vector_13" d="M439.598 393.233V401.701H451.213V393.298L439.598 393.233Z" fill="#75378F"/>
</g>
<g id="210">
<path id="Vector_14" d="M487.46 423.356V492.91H521.676V498.599H549.958V423.097L487.46 423.356Z" fill="#75378F"/>
</g>
<g id="211">
<path id="Vector_15" d="M604.05 421.934H630.564V498.663H603.608L604.05 421.934Z" fill="#75378F"/>
</g>
<g id="212">
<path id="Vector_16" d="M715.536 336.492V399.194H651.333V336.168L715.536 336.492Z" fill="#75378F"/>
</g>
<g id="213">
<path id="Vector_17" d="M633.216 422.4V498.613H732.644V422.594L633.216 422.4Z" fill="#75378F"/>
</g>
<g id="214">
<path id="path3405" d="M735.497 402.684V498.371H783.93V492.519H850.569V402.684H735.497Z" fill="#75378F"/>
</g>
<g id="215">
<path id="Vector_18" d="M735.135 400.524H778.265V394.551H851.385V317.084H735.43L735.135 400.524Z" fill="#75378F"/>
</g>
<g id="216">
<path id="Vector_19" d="M785.041 8.19678H843.49V185.453H829.349V169.163H748.451V185.332H735.489V83.4913H785.1L785.041 8.19678Z" fill="#75378F"/>
</g>
<g id="217">
<path id="Vector_20" d="M781.682 81.0177V4.81818H717.518V80.3541L781.682 81.0177Z" fill="#75378F"/>
</g>
<g id="218">
<path id="Vector_21" d="M651.056 102.677H716.104V166.388H650.29C650.29 166.388 651.645 102.436 651.056 102.677Z" fill="#75378F"/>
</g>
<g id="219">
<path id="Vector_22" d="M714.454 79.7507V6.14545H669.321V80.535L714.454 79.7507Z" fill="#75378F"/>
</g>
<g id="220">
<path id="Vector_23" d="M666.728 6.26617H602.918V80.5351H667.435L666.728 6.26617Z" fill="#75378F"/>
</g>
<g id="221">
<path id="Vector_24" d="M715.721 170.008V183.582L500.425 183.281V102.858H643.425V169.223L715.721 170.008Z" fill="#75378F"/>
</g>
<g id="222">
<path id="Vector_25" d="M500.543 187.415V204.61H503.724V297.582H500.071V315.501H713.599V186.209L500.543 187.415Z" fill="#75378F"/>
</g>
<g id="216a">
<path id="Vector_26" d="M751.19 172.453V184.037H826.255V171.246L751.19 172.453Z" fill="#75378F"/>
</g>
<g id="223">
<path id="Vector_27" d="M500.602 319.937C500.344 320.897 500.602 337.614 500.602 337.614H502.605V396.438H642.895V333.391H716.958V319.153L500.602 319.937Z" fill="#75378F"/>
</g>
<g id="224">
<path id="Vector_28" d="M386.858 277.673V298.705H455.057V277.948L386.858 277.673Z" fill="#75378F"/>
</g>
<g id="225">
<path id="Vector_29" d="M454.251 259.665V275.748H434.203V259.527L454.251 259.665Z" fill="#75378F"/>
</g>
<g id="225a">
<path id="Vector_30" d="M431.797 257.57H454.296V204.999H386.008V275.702H431.877L431.797 257.57Z" fill="#75378F"/>
</g>
<g id="227">
<path id="Vector_31" d="M431.304 103.296H451.487V128.754H431.15L431.304 103.296Z" fill="#75378F"/>
</g>
<g id="226">
<path id="Vector_32" d="M451.204 155.519H441.074V178.845H451.41L451.204 155.519Z" fill="#75378F"/>
</g>
<g id="226a">
<path id="Vector_33" d="M386.181 181.85H451.435V200.41H386.156L386.181 181.85Z" fill="#75378F"/>
</g>
<g id="226b">
<path id="Vector_34" d="M386.49 144.971H438.709V180.143H386.027L386.49 144.971Z" fill="#75378F"/>
</g>
<g id="228">
<path id="Vector_35" d="M386.259 113.142H429.298V142.601H386.182L386.259 113.142Z" fill="#75378F"/>
</g>
<g id="228a">
<path id="Vector_36" d="M431.432 131.57V142.443H440.971V152.974H451.461V130.939H431.33L431.432 131.57Z" fill="#75378F"/>
</g>
<g id="230">
<path id="Vector_37" d="M403.408 111.304C403.536 111.699 386.362 111.304 386.362 111.304C386.362 111.304 385.828 99.8184 386.362 100.352C386.895 100.885 403.305 100.352 403.305 100.352L403.408 111.304Z" fill="#75378F"/>
</g>
<g id="229">
<path id="Vector_38" d="M405.182 111.699H417.651V101.01H405.156L405.182 111.699Z" fill="#75378F"/>
</g>
<g id="231">
<path id="Vector_39" d="M325.97 80.2319C325.97 80.2319 325.97 10.8117 325.97 9.80363C325.97 8.79554 550.205 9.80363 550.205 9.80363V79.9112L325.97 80.2319Z" fill="#75378F"/>
</g>
<g id="232">
<path id="Vector_40" d="M323.237 59.6801V80.4224H303.876V59.5604L323.237 59.6801Z" fill="#75378F"/>
</g>
<g id="232a">
<path id="Vector_41" d="M303.993 57.7256H323.626V9.26038H303.876L303.993 57.7256Z" fill="#75378F"/>
</g>
<g id="232b">
<path id="Vector_42" d="M301.227 80.1033V9.77887H191.995V79.7842L301.227 80.1033Z" fill="#75378F"/>
</g>
<g id="233">
<path id="Vector_43" d="M191.049 101.582V109.598H178.094V101.78L191.049 101.582Z" fill="#75378F"/>
</g>
<g id="234">
<path id="Vector_44" d="M141.285 84.3805V100.074H128.936V7.71979H141.01L141.285 84.3805Z" fill="#75378F"/>
</g>
<g id="234b">
<path id="Vector_45" d="M142.057 118.002C142.057 118.002 154.701 117.454 154.847 118.002C154.994 118.549 154.847 150.997 154.847 150.997H142.112L142.057 118.002Z" fill="#75378F"/>
</g>
<g id="234a">
<path id="Vector_46" d="M140.151 117.597H127.096C127.096 117.597 126.284 165.109 127.096 164.891C127.907 164.674 158.125 164.891 158.125 164.891V190.518H127.604V219.2H56.6273V203.192H5.42078V250.382H190.476V153.849H139.812L140.151 117.597Z" fill="#75378F"/>
</g>
<g id="234c">
<path id="Vector_47" d="M155.649 167.221V188.09H127.265C127.265 188.09 126.923 166.177 127.265 166.769C127.607 167.362 155.649 167.221 155.649 167.221Z" fill="#75378F"/>
</g>
<g id="234d">
<path id="Vector_48" d="M192.363 102.97H383.97V348.581C383.97 348.581 250.293 347.802 250.502 348.581C250.71 349.36 250.502 400.504 250.502 400.504C250.502 400.504 192.55 401.576 192.837 400.504C193.124 399.433 192.363 102.97 192.363 102.97Z" fill="#75378F"/>
</g>
<g id="elevator A level 2">
<path id="Vector_49" d="M161.261 355.18H173.148V369.345H160.954L161.261 355.18Z" fill="#2D6D9C"/>
</g>
<g id="stairs A level 2">
<path id="Vector_50" d="M386.332 328.695V369.747H454.006V328.376L386.332 328.695Z" fill="#B03A4F"/>
</g>
<g id="stairs B level 2">
<path id="Vector_51" d="M552.546 422.063V500.349H580.906V422.103L552.546 422.063Z" fill="#B03A4F"/>
</g>
<g id="stairs C level 2">
<path id="Vector_52" d="M749.627 270.002H830.277V281.419H749.589L749.627 270.002Z" fill="#B03A4F"/>
</g>
<g id="stairs D level 2">
<path id="Vector_53" d="M553.018 9.78876V80.278H579.707V9.47052L553.018 9.78876Z" fill="#B03A4F"/>
</g>
<g id="elevator B level 2">
<path id="Vector_54" d="M433.039 375.214V389.491H455.585V375.552" fill="#2D6D9C"/>
</g>
<g id="elevator C level 2">
<path id="Vector_55" d="M157.854 124.316V151.112H175.53V124.316H157.854Z" fill="#2D6D9C"/>
</g>
<g id="stairs E level 2">
<path id="Vector_56" d="M143.979 15.2335V82.2953H189.553V14.8198L143.979 15.2335Z" fill="#B03A4F"/>
</g>
</g>
</svg>
