<svg width="843" height="501" viewBox="0 0 843 501"
    xmlns="http://www.w3.org/2000/svg">
    <g id="BusinessSchoolLevel6">
        <g id="level 6">
            <path id="Vector"   d="M0.30121 13.0025V487.865H133.021V467.048H247.073V486.163H467.249V500.041H842.009V292.657H768.233V208.734H780.38V0.0410156H466.738V14.8355H185.572V34.9978H133.276V13.7881C133.276 13.7881 -1.87243 11.0387 0.30121 13.0025Z" class="background"/>
        </g>
        <g id="601">
            <path id="Vector_2" d="M82.1275 478.429C82.1275 479.645 8.75366 478.429 8.75366 478.429V453.142H44.6689V23.1006H81.4152V159.931H128.966V341.432H81.4152L82.1275 478.429Z" class="room"/>
        </g>
        <g id="601a">
            <path id="Vector_3" d="M9.28418 392.465H41.9389V450.42H9.32626L9.28418 392.465Z" class="room"/>
        </g>
        <g id="601b">
            <path id="Vector_4" d="M8.93787 360.217H42.3921V388.267H8.98098L8.93787 360.217Z" class="room"/>
        </g>
        <g id="601c">
            <path id="Vector_5" d="M9.01782 329.593H42.4721V357.643H9.06094L9.01782 329.593Z" class="room"/>
        </g>
        <g id="601d">
            <path id="Vector_6" d="M8.93787 298.729H42.3921V326.779H8.98098L8.93787 298.729Z" class="room"/>
        </g>
        <g id="601e">
            <path id="Vector_7" d="M9.09778 267.865H42.5521V295.915H9.14088L9.09778 267.865Z" class="room"/>
        </g>
        <g id="601f">
            <path id="Vector_8" d="M9.09778 236.841H42.5521V264.891H9.14089L9.09778 236.841Z" class="room"/>
        </g>
        <g id="601g">
            <path id="Vector_9" d="M9.09778 205.816H42.5521V233.867H9.14088L9.09778 205.816Z" class="room"/>
        </g>
        <g id="601h">
            <path id="Vector_10" d="M9.09778 174.633H42.5521V202.683H9.14089L9.09778 174.633Z" class="room"/>
        </g>
        <g id="601i">
            <path id="Vector_11" d="M8.93787 143.928H42.3921V171.978H8.98098L8.93787 143.928Z" class="room"/>
        </g>
        <g id="601j">
            <path id="Vector_12" d="M8.93787 113.225H42.3921V140.795H8.98098L8.93787 113.225Z" class="room"/>
        </g>
        <g id="601k">
            <path id="Vector_13" d="M9.25769 82.2002H42.712V110.25H9.3008L9.25769 82.2002Z" class="room"/>
        </g>
        <g id="601l">
            <path id="Vector_14" d="M9.09778 51.1763H42.5521V79.2264H9.14088L9.09778 51.1763Z" class="room"/>
        </g>
        <g id="601m">
            <path id="Vector_15" d="M9.09778 23.0308H42.5521V48.3623H9.14089L9.09778 23.0308Z" class="room"/>
        </g>
        <g id="602">
            <path id="Vector_16" d="M84.1239 344.205H94.6862V376.694H83.4086L84.1239 344.205Z" class="room"/>
        </g>
        <g id="603">
            <path id="Vector_17" d="M118.63 345.325H126.205V380.012H118.504L118.63 345.325Z" class="room"/>
        </g>
        <g id="604">
            <path id="Vector_18" d="M251.019 410.205H313.13V479.018H250.556L251.019 410.205Z" class="room"/>
        </g>
        <g id="605">
            <path id="Vector_19" d="M314.81 411.407H377.595V479.261H315.049L314.81 411.407Z" class="room"/>
        </g>
        <g id="606">
            <path id="Vector_20" d="M345.379 112.321V206.812H314.965V294.337H345.875V408.114H377.326V112.991L345.379 112.321Z" class="room"/>
        </g>
        <g id="607">
            <path id="Vector_21" d="M331.512 383.018H343.56V391.547L337.67 396.238L330.798 392.461V383.109L331.512 383.018Z" class="room"/>
        </g>
        <g id="608">
            <path id="Vector_22" d="M329.37 391.73V382.987H313.782V387.252H316.608V391.12L323.48 396.025L329.37 391.73Z" class="room"/>
        </g>
        <g id="609">
            <path id="Vector_23" d="M342.786 363.401V380.246H313.217V363.096L342.786 363.401Z" class="room"/>
        </g>
        <g id="610">
            <path id="Vector_24" d="M255.862 344.789V371.107C255.862 371.107 295.574 371.435 295.486 371.107C295.399 370.78 295.486 344.423 295.486 344.423L255.862 344.789Z" class="room"/>
        </g>
        <g id="611">
            <path id="Vector_25" d="M342.816 318.628H313.514V361.335H342.846L342.816 318.628Z" class="room"/>
        </g>
        <g id="612">
            <path id="Vector_26" d="M255.534 342.48H295.249V299.712H255.356L255.534 342.48Z" class="room"/>
        </g>
        <g id="613">
            <path id="Vector_27" d="M342.787 297.397V316.557H313.098V297.184L342.787 297.397Z" class="room"/>
        </g>
        <g id="614">
            <path id="Vector_28" d="M311.967 201.79H343.114V185.706H312.146L311.967 201.79Z" class="room"/>
        </g>
        <g id="615">
            <path id="Vector_29" d="M312.324 147.142H340.169V156.433H312.294L312.324 147.142Z" class="room"/>
        </g>
        <g id="615a">
            <path id="Vector_30" d="M340.853 119.483V145.162H312.83V119.636L340.853 119.483Z" class="room"/>
        </g>
        <g id="615b">
            <path id="Vector_31" d="M313.514 157.803V183.452H341.299V157.621L313.514 157.803Z" class="room"/>
        </g>
        <g id="616">
            <path id="Vector_32" d="M313.246 109.705H330.114V117.93H312.949L313.246 109.705Z" class="room"/>
        </g>
        <g id="617">
            <path id="Vector_33" d="M331.898 110.101V117.686H343.679V109.918L331.898 110.101Z" class="room"/>
        </g>
        <g id="618">
            <path id="Vector_34" d="M346.356 22.7139H376.938V89.3324H346.386L346.356 22.7139Z" class="room"/>
        </g>
        <g id="619">
            <path id="Vector_35" d="M314.657 22.6831H345.239V89.3016H314.687L314.657 22.6831Z" class="room"/>
        </g>
        <g id="620">
            <path id="Vector_36" d="M188.887 110.469H296.577V207.031H188.977L188.887 110.469Z" class="room"/>
        </g>
        <g id="621">
            <path id="Vector_37" d="M283.512 22.6831H314.093V89.3016H283.541L283.512 22.6831Z" class="room"/>
        </g>
        <g id="622">
            <path id="Vector_38" d="M252.196 22.7964H282.778V89.4149H252.226L252.196 22.7964Z" class="room"/>
        </g>
        <g id="623">
            <path id="Vector_39" d="M221.051 22.7964H251.632V89.4149H221.08L221.051 22.7964Z" class="room"/>
        </g>
        <g id="624">
            <path id="Vector_40" d="M189.509 23.0225H220.091V89.641H189.539L189.509 23.0225Z" class="room"/>
        </g>
        <g id="625">
            <path id="Vector_41" d="M117.914 109.852V116.979H129.367V109.943L117.914 109.852Z" class="room"/>
        </g>
        <g id="626">
            <path id="Vector_42" d="M82.7217 110.857H97.7148V123.407H82.6027L82.7217 110.857Z" class="room"/>
        </g>
        <g id="stairs A level 6">
            <path id="Vector_43" d="M85.8801 409.724H128.752V477.271H85.9641L85.8801 409.724Z" class="stair"/>
        </g>
        <g id="elevator A level 6">
            <path id="Vector_44" d="M97.6896 344.499V363.159H116.249V344.671L97.6896 344.499Z" class="lift"/>
        </g>
        <g id="stairs B level 6">
            <path id="Vector_45" d="M454.418 255.745H378.5V245.253H454.502L454.418 255.745Z" class="stair"/>
        </g>
        <g id="stairs C level 6">
            <path id="Vector_46" d="M85.6803 24.1383V91.4274H128.342V23.9233L85.6803 24.1383Z" class="stair"/>
        </g>
        <g id="elevator B level 6">
            <path id="Vector_47" d="M98.6553 131.414H115.493V155.921H98.5713L98.6553 131.414Z" class="lift"/>
        </g>
    </g>
</svg>
