<svg width="2500" height="592" viewBox="0 0 2500 592" fill="none" xmlns="http://www.w3.org/2000/svg">
<g id="CampusOverview">
<g>
<path id="parking" d="M136.555 289.241L92.3756 285.279C89.2505 320.036 86.1039 354.787 82.9355 389.53L128.122 393.503C129.111 379.444 130.103 365.371 131.099 351.283L132.582 338.379C133.917 322.003 135.242 305.624 136.555 289.241Z" fill="#8BBDF5"/>
</g>
<g>
<path id="parking_2" d="M173.959 361.394C174.76 365.151 173.72 368.42 171.642 374.97C169.758 380.902 167.994 386.25 162.981 391.208C160.844 393.338 158.39 395.123 155.707 396.502C149.974 399.363 143.503 400.402 137.162 399.479L150.738 489.841L199.118 483.562L192.167 422.657L178.928 422.992C178.224 408.302 177.694 395.928 177.271 386.25C177.102 383.805 177.325 381.349 177.932 378.975C180.043 370.932 186.246 366.233 190.836 362.737C193.412 360.796 196.162 359.1 199.053 357.67L170.83 354.866C172.354 356.777 173.423 359.009 173.959 361.394Z" fill="#8BBDF5"/>
</g>
<g>
<path id="parking_3" d="M250.073 370L206.771 384.236C216.153 415.566 225.535 446.899 234.917 478.236L298.464 460.687C290.02 432.014 281.616 403.329 273.251 374.634L264.32 376.95C264.024 372.62 263.739 368.312 263.465 364.025L248.558 362.552L250.073 370Z" fill="#8BBDF5"/>
</g>
<g>
<path id="parking_4" d="M686.154 446.571L623.268 466.057L640.08 519.319C664.903 511.817 689.943 504.499 714.777 496.997L705.359 461.748L840.68 421.368C837.93 412.448 835.177 403.528 832.42 394.607L816.853 387.462C772.608 400.377 725.722 417.395 681.531 430.311C683.062 435.745 684.602 441.165 686.154 446.571Z" fill="#8BBDF5"/>
</g>
<g>
<path id="parking_5" d="M925.933 449.764C928.813 454.506 931.238 458.425 932.894 461.023L973.23 448.119L963.964 416.724C944.987 418.547 925.846 415.953 908.038 409.146C909.459 417.187 912.011 424.987 915.616 432.313C917.543 435.929 920.336 440.562 925.933 449.764Z" fill="#8BBDF5"/>
</g>
<g>
<path id="parking_6" d="M1019.27 433.883C1021.15 439.404 1023.02 444.922 1024.9 450.436L1067.92 437.856C1063.95 423.848 1061.63 414.57 1060.97 409.709C1060.78 407.804 1060.1 405.98 1058.99 404.416C1057.32 402.285 1054.99 400.764 1052.37 400.085C1050.21 399.499 1047.95 399.388 1045.75 399.76C1040.17 400.659 1021.23 405.942 995.769 413.996L993.799 407.782L978.242 412.113C981.324 422.159 984.413 432.198 987.509 442.23L1019.27 433.883Z" fill="#8BBDF5"/>
</g>
<g>
<path id="parking_7" d="M1097.05 439.837L1174.17 417.33C1169.76 401.893 1165.35 386.448 1160.93 370.996L1152 372.977L1140.75 375.965L1084.14 393.503C1088.45 408.955 1092.75 424.399 1097.05 439.837Z" fill="#8BBDF5"/>
</g>
<g>
<path id="parking_8" d="M1390.63 337.902L1373.09 269.051L1178.47 322.67C1179.47 327.087 1180.46 331.501 1181.45 335.91L1185.42 350.471C1189.76 363.938 1194.06 377.398 1198.33 390.851L1390.63 337.902Z" fill="#8BBDF5"/>
</g>
<g>
<path id="parking_9" d="M1640.52 313.404C1647.26 311.564 1654.14 310.236 1661.08 309.431C1672.03 307.883 1685.52 306.064 1701.14 304.137L1702.8 296.191L1695.51 275.34V270.382L1631.64 279.649C1624.26 282.399 1616.48 285.571 1608.46 289.241C1602.77 291.85 1597.36 294.513 1592.22 297.187L1593.55 305.133L1602.51 328.332C1607.79 325.972 1613.3 323.645 1619.04 321.35C1629.03 317.355 1634.13 315.233 1640.52 313.404Z" fill="#8BBDF5"/>
</g>
<g>
<path id="parking_10" d="M2085.18 308.11C2085.35 321.685 2085.52 335.257 2085.68 348.825L2113.98 363.711L2166.1 364.209C2165.78 345.675 2165.45 327.141 2165.12 308.608L2106.03 308.11L2106.53 295.704L2096.1 296.191L2095.61 307.612L2085.18 308.11Z" fill="#8BBDF5"/>
</g>
<g id="road">
<path id="Vector" d="M2497 537.69C2490.86 538.86 2481.67 539.618 2474.91 540.429C2459.58 542.248 2451.74 541.09 2427 542.162C2407.06 543.071 2388.03 542.898 2385.22 543.406C2372.91 545.572 2363.24 545.236 2350.92 547.38C2348.18 547.845 2338.63 549.393 2334.28 547.38C2328.37 544.706 2321.29 541.967 2316.6 538.145C2305.52 529.236 2299.7 524.353 2277.63 500.331C2243.96 463.675 2253.47 471.621 2228.91 455.653C2223.67 452.395 2218.1 449.71 2212.29 447.642C2210.9 444.845 2210.38 441.698 2210.79 438.603C2211.87 431.48 2218.48 427.777 2231.14 420.73C2242.86 414.234 2252.09 409.038 2258.45 412.794C2261.12 414.364 2264.03 419.463 2269.87 429.672C2270.95 431.545 2271.79 433.114 2272.35 434.143L2282.28 430.17C2282.53 425.245 2281.68 420.329 2279.79 415.772C2276.68 408.367 2271.53 404.242 2263.42 397.898C2255.3 391.554 2247.96 392.626 2243.08 385.048C2242.25 383.608 2241.5 382.119 2240.84 380.588C2236.89 372.241 2234.91 368.073 2231.66 360.225C2228.61 352.874 2217.88 328.581 2191.94 270.87L1987.9 270.372C1986.68 272.814 1984.8 274.874 1982.49 276.326C1980.07 277.695 1977.33 278.384 1974.55 278.318C1945.64 278.729 1943.6 278.859 1938.83 277.322C1937.04 276.748 1934.76 275.914 1919.96 266.896C1905.38 258.009 1896.48 252.044 1890.17 248.027C1878.28 240.623 1866.02 233.83 1853.44 227.675C1842.06 221.856 1830.28 216.878 1818.19 212.779C1798.43 206.218 1789.22 206.067 1783.92 206.283C1780.84 206.435 1767.39 198.835 1764.9 188.378C1757.79 158.553 1738.08 191.831 1728.16 188.378C1722.03 186.213 1713.08 201.52 1707.06 203.263C1695.15 206.727 1686.08 211.924 1676.75 219.188C1677.74 222.832 1678.73 226.473 1679.73 230.111L1659.36 242.019C1658.54 237.544 1657.71 233.077 1656.88 228.617L1650.39 232.579L1651.88 244.996C1643.91 250.279 1635.48 255.605 1626.56 260.877C1620.33 264.565 1614.19 268.04 1608.16 271.303C1609.48 268.163 1610.8 265.02 1612.13 261.873C1611.99 259.946 1611.72 256.991 1611.13 253.44C1609.87 245.92 1607.69 238.584 1604.64 231.594C1597.26 214.273 1588.95 199.009 1580.82 178.472C1576.09 166.564 1556.53 107.845 1558.2 101.437C1560.63 92.1156 1568.16 86.3672 1572.59 83.5633L1567.63 71.6551C1564.76 70.7431 1561.74 70.4482 1558.75 70.7896C1555.77 71.1311 1552.89 72.1013 1550.3 73.6361C1549.84 73.9284 1541.89 79.049 1540.88 88.0343C1540.25 93.5879 1542.6 97.6042 1545.35 102.93C1550.13 112.219 1571.52 175.463 1575.91 184.924C1579.16 192.026 1583.69 202.419 1588.32 215.702L1496.47 246.977C1492.35 248.564 1487.98 249.407 1483.56 249.467C1480.54 249.467 1474.9 249.164 1456.76 241.023C1444.73 235.61 1440.77 232.882 1432.94 232.579C1429.61 232.508 1426.27 232.842 1423.02 233.575C1407.96 236.411 1400.43 237.84 1389.26 241.023C1376.27 244.715 1363.1 247.226 1350.04 250.452C1337.41 253.581 1319.5 257.749 1284.73 265.825L1280.86 249.467H1251.06L1250.04 235.654H1244.96L1246.28 254.512L1277.39 254.187L1279.85 267.016C1215.9 281.89 1183.71 289.836 1160.76 294.231L1148.03 253.191L1227.8 227.707L1225.47 220.498L1137.78 248.547L1152.33 295.812C1130.5 299.817 1100.59 304.667 1064.47 308.619C1066.46 315.071 1068.45 321.527 1070.43 327.986L1082.97 325.593C1085.58 334.665 1088.18 343.737 1090.79 352.809L963.422 393.481L951.254 358.255L945.841 360.236C950.291 369.438 952.791 376.149 954.772 380.599C954.772 380.599 956.667 385.687 959.882 394.672L955.108 396.199C949.73 396.995 944.305 397.436 938.869 397.519C924.941 397.627 911.086 395.503 897.829 391.23C878.733 385.579 851.095 377.773 816.875 367.673C816.875 366.201 816.777 364.728 816.734 363.267L893.196 341.421L891.204 336.452L869.379 342.265L836.523 224.709L930.187 195.252L927.535 186.938L830.894 218.051L827.96 207.344L831.89 206.143L830.894 199.853L825.849 201.336L822.287 188.93L816.658 190.911L861.823 344.192L711.097 384.344L707.492 373.14L727.595 366.19C727.595 366.19 724.618 361.47 724.347 362.217C724.077 362.964 702.014 370.65 702.014 370.65L706.344 385.579L691.546 389.519C678.468 374.623 665.394 359.73 652.324 344.841L631.474 348.815L671.68 395.971L640.47 403.452C610.028 386.531 585.183 382.19 567.494 381.606C546.395 380.913 525.469 377.535 504.434 375.651C497.084 374.991 484.266 373.854 483.086 368.701C482.815 367.489 483.584 366.222 496.001 353.307C504.586 344.376 509.317 341.735 510.897 340.901C515.877 338.249 518.475 334.481 524.202 336.711C528.402 338.357 533.729 342.839 534.724 344.874L541.675 340.403C540.592 339.559 533.458 333.734 534.227 326.005C534.573 322.573 536.338 320.137 538.2 317.561C541.44 313.133 545.694 309.547 550.606 307.103L544.652 301.69C541.783 303.855 536.868 307.558 530.751 312.115C502.442 333.182 491.584 340.262 472.661 355.31C468.872 358.33 462.918 363.115 455.783 369.21C439.826 368.247 417.894 366.818 391.739 364.739C362 362.379 341.334 360.311 305.36 356.793C254.913 351.867 216.048 347.548 192.167 344.885C171.872 342.619 151.682 340.302 131.597 337.935L130.103 350.839L170.83 354.888L199.052 357.692L248.558 362.585L263.465 364.057C310.817 368.712 347.505 372.285 376.161 375.056C376.564 376.331 376.564 377.7 376.161 378.975C375.65 380.329 374.726 381.489 373.519 382.288C367.121 386.856 334.135 395.192 331.483 395.852C338.094 418.139 344.712 440.425 351.337 462.712L412.903 445.163C407.613 425.309 402.315 405.462 397.011 385.622C395.481 385.925 393.907 385.925 392.377 385.622C390.525 385.381 388.792 384.572 387.419 383.305C385.86 381.616 385.503 378.888 386.239 376.063L392.735 376.691C402.835 377.654 412.914 378.856 423.047 379.668C434.37 380.61 477.803 383.901 519.493 388.415L517.468 420.979H523.422L526.529 389.129C553.724 392.182 579.337 395.733 593.757 399.457C599.278 400.886 609.281 404.296 616.599 412.87C619.154 415.869 621.828 418.998 622.012 423.295C622.499 432.302 611.868 439.534 607.116 442.652C590.737 453.477 578.969 450.479 552.565 460.438L548.538 446.127H533.231L521.799 467.973L435.41 460.525L337.61 482.869H255.714L243.632 494.388C237.952 494.648 232.215 494.94 226.419 495.265C166.856 498.718 85.3498 504.304 0 522.091C0 533.999 6.70111 548.148 6.70111 560.067C21.5431 558.303 43.5085 555.737 69.999 552.619C163.1 541.793 209.585 536.381 235.318 534.746C307.19 530.08 362.737 534.129 399.869 536.987C417.276 538.318 505.495 542.172 590.509 558.573C660.757 572.138 683.275 587.348 746.15 590.596C772.901 591.981 802.444 591.451 835.516 585.389C844.762 583.689 856.453 580.755 879.458 574.963L968.077 552.619C1055.13 529.809 1211.59 484.103 1211.59 484.103C1407.83 426.792 1322.61 456.649 1575 386.553C1642.91 367.695 1706.78 351.077 1774.58 352.993C1838.6 354.855 1876.85 372.793 1916.07 383.533C1957.59 394.9 2013.62 416.789 2068.72 437.152C2076.98 440.205 2093.8 449.786 2118.61 458.003C2141.6 465.605 2165.3 470.843 2189.36 473.635C2197.79 473.635 2221.39 476.092 2227.35 482.057C2250.69 505.387 2266.8 520.055 2283.18 534.703C2299.18 549.014 2319.99 565.762 2339.48 567.883C2349.51 568.966 2347.7 566.725 2368.6 564.787C2386.03 563.185 2424.64 563.001 2432.8 562.622C2452.29 561.626 2450.13 562.741 2500 557.328C2499.57 549.599 2497.49 545.42 2497 537.69ZM535.222 470.95C531.217 475.28 531.477 477.543 525.782 485.846C519.417 495.145 516.126 499.865 511.384 503.167C510.114 504.066 508.779 504.87 507.39 505.571C483.097 502.096 385.189 488.91 254.729 493.879L258.691 490.263L341.107 489.267L440.887 467.919L525.046 474.901L537.204 451.821H544.533L547.131 462.647C542.636 464.572 538.583 467.398 535.222 470.95ZM1101.69 322.01C1110.91 320.235 1120.16 318.43 1129.43 316.597C1138.71 314.764 1147.91 312.938 1157.03 311.119L1166.05 340.457L1114.08 355.819L1101.69 322.01ZM908.07 409.06C925.878 415.866 945.019 418.46 963.996 416.638L967.244 415.555L969.409 421.758C970.026 423.523 975.818 439.079 976.272 443.409C976.38 444.546 975.861 451.745 972.884 455.881C969.907 460.016 966.973 462.289 963.281 465.808C955.909 472.834 952.943 473.278 949.684 478.138C945.809 483.93 945.635 487.167 945.614 490.176C945.614 493.489 945.7 497.083 945.917 500.548C942.778 494.052 939.865 488.325 937.256 483.356C933.381 475.778 930.956 471.026 927.167 464.325C919.979 451.594 918.907 449.591 915.746 442.316C912.399 434.848 909.739 427.09 907.8 419.138C906.836 415.089 906.1 411.463 905.537 408.388L908.07 409.06ZM928.921 519.601C918.376 522.437 847.187 543.179 804.306 548.148C785.519 550.285 766.581 550.771 747.709 549.599C704.764 546.99 673.553 536.467 658.343 531.726C638.998 525.696 611.793 520.9 566.563 514.177C561.821 504.77 555.932 493.099 559.548 483.865C560.468 481.484 562.547 477.911 575.927 470.95C598.596 459.161 617.725 456.357 632.524 447.134C636.854 444.405 640.621 442.078 644.432 437.704C648.005 433.601 648.535 431.285 651.88 428.762C657.293 424.659 663.788 424.833 665.282 424.789C673.672 424.573 713.457 413.422 813.594 380.805L815.435 381.595C815.543 383.035 816.82 386.087 816.929 387.516L832.496 394.661C854.31 400.605 877.607 400.81 899.421 406.743C902.052 417.366 905.457 427.783 909.608 437.91C913.986 448.338 918.96 458.505 924.504 468.363C931.735 481.527 935.643 486.669 941.381 499.303C944.142 505.365 946.166 510.626 947.584 514.578C942.269 515.953 934.929 517.988 928.921 519.601ZM1081.16 464C1081.05 465.083 1080.68 468.157 1076.83 475.259C1076.22 476.406 1075.46 477.738 1074.59 479.188C1012.47 496.607 995.325 501.619 952.402 513.257C951.73 510.269 951.243 507.66 950.897 505.538C950.063 500.504 949.576 497.506 949.738 493.457C949.698 490.657 950.088 487.867 950.897 485.186C951.979 481.938 953.592 479.416 965.122 468.947C967.607 466.904 969.954 464.698 972.148 462.344C976.261 457.754 979.855 453.683 980.592 447.945C981.013 444.116 980.258 440.249 978.426 436.86C975.857 429.412 973.284 421.957 970.708 414.494L978.286 412.037L993.799 407.782C1010.28 402.272 1023.66 398.039 1033.18 394.867C1038.17 393.125 1043.47 392.45 1048.74 392.886C1051.76 393.167 1055.23 393.525 1058.67 395.863C1063.28 399.013 1064.78 404.036 1065.95 407.771C1074.61 435.323 1078.38 438.192 1080.51 456.758C1081.07 459.129 1081.29 461.567 1081.16 464ZM1115.59 467.724L1109.35 469.467C1108.07 468.716 1106.84 467.884 1105.66 466.977C1099.23 462.019 1096.25 455.74 1093.42 449.764C1091.56 445.808 1090.01 441.714 1088.78 437.52C1088.78 437.52 1082.45 417.558 1076.53 395.159C1076.26 393.296 1076.15 391.412 1076.2 389.53C1076.39 387.263 1077.2 385.089 1078.52 383.24C1080.06 382.526 1082.62 381.346 1085.8 379.938C1126.07 362.022 1132.89 365.508 1135.12 367.023C1136.77 368.106 1139.27 370.52 1140.75 375.965L1151.99 372.977C1151.19 371.221 1150.96 369.255 1151.33 367.359C1151.85 365.053 1153.43 363.029 1156.96 360.734C1161.21 358.231 1165.73 356.212 1170.43 354.715L1198.12 444.719C1176.53 450.717 1151.23 457.775 1115.59 467.724ZM1515.78 357.605C1449.04 374.688 1400.02 389.855 1387.4 393.254C1287.52 420.199 1254.66 429.065 1206.7 442.349L1178.73 352.171C1181.98 351.294 1184.43 350.709 1185.42 350.471L1181.45 335.91L1174.34 338.021L1164.07 304.938L1163.74 302.708C1166.01 302.134 1169.47 301.257 1173.68 300.218C1199.35 293.874 1218.56 289.685 1224.81 288.31C1251.87 282.366 1278.84 275.817 1309.25 268.445C1330.46 263.302 1361.81 254.23 1386.21 249.088C1399.36 246.317 1411.49 244.368 1413.01 244.119C1421.58 242.755 1428.87 241.803 1434.36 241.142C1438.48 242.625 1444.95 245.083 1452.77 248.59C1463.17 253.278 1466.44 255.562 1472.62 257.034C1480 258.675 1487.67 258.504 1494.96 256.536L1590.28 224.265C1594.07 228.512 1597.09 233.384 1599.22 238.663C1599.9 240.363 1603.29 248.774 1602.69 257.067C1601.85 268.975 1592.95 277.181 1585.32 284.369C1570.75 298.085 1556.9 312.516 1542.62 326.589C1532.84 336.176 1523.86 346.549 1515.78 357.605ZM2196.82 442.608C2193.38 441.58 2189.69 440.53 2185.72 439.426C2165.38 433.737 2145.66 426.005 2126.88 416.345C2102.37 404.177 2063.63 390.104 1986.15 361.979C1908.39 333.745 1859.98 316.175 1799.23 311.336C1770.45 309.052 1740.49 304.981 1577.3 342.611C1565.97 345.231 1554.95 347.855 1544.22 350.482C1545.65 347.775 1547.23 344.896 1549.01 341.821C1557.89 335.261 1568.37 327.748 1573.99 324.284C1575.43 323.391 1576.99 322.723 1578.62 322.302C1581.09 321.664 1584.22 321.794 1595.18 325.94C1596.95 326.611 1599.2 327.499 1601.79 328.592L1602.47 328.289L1593.54 305.133C1591.91 306.61 1590 307.737 1587.91 308.446C1585.96 309.095 1582.88 310.134 1579.64 308.77C1578.07 308.105 1576.72 307.014 1575.75 305.62C1577.06 304.299 1578.39 302.979 1579.8 301.658C1586.95 294.989 1592.68 291.005 1601.65 284.781C1614.64 275.784 1623.72 271.032 1639.38 262.436C1649.64 256.807 1664.44 248.579 1682.57 238.111C1692.38 240.791 1702.32 242.959 1712.35 244.606C1733.29 248.016 1743.75 249.716 1754.07 246.587C1761.88 244.217 1769.54 239.009 1784.84 228.725C1788.55 226.213 1791.82 220.227 1798.74 218.787C1803.62 217.78 1807.69 219.101 1811.16 220.281C1833.31 227.859 1840.39 231.702 1840.39 231.702L1850.21 237.05C1845.39 240.644 1839.38 244.845 1832.45 249.24C1824.45 254.345 1816.17 258.986 1807.63 263.14C1788.83 271.876 1772.42 273.446 1752.02 275.384C1733.2 277.172 1714.25 277.172 1695.42 275.384L1702.71 296.234C1709.77 295.595 1720.58 294.686 1733.82 293.917C1765.6 292.077 1771.82 293.311 1787.44 290.28C1800.69 287.638 1813.58 283.415 1825.83 277.701C1839.66 271.285 1852.58 263.049 1864.23 253.213L1897.56 269.051C1904.01 274.474 1910.98 279.243 1918.37 283.287C1930.28 289.879 1936.59 292.673 1942.69 294.21C1955.39 297.403 1965.43 296.31 1972.49 295.704C1991.97 294.004 2011.54 295.249 2031.07 294.708C2046.66 294.275 2068.81 294.242 2096.1 296.191L2106.53 295.704L2160.66 296.191L2161.16 289.695H2176.54C2186.88 310.113 2194.35 325.648 2199.38 336.365C2210.5 360.019 2214.01 369.113 2219.24 375.089C2221.44 377.545 2223.13 380.415 2224.2 383.533C2225.46 387.202 2225.8 391.122 2225.2 394.954C2223.96 401.243 2219.79 402.921 2213.78 409.839C2207.23 417.417 2204.12 424.703 2199.88 434.662C2198.7 437.477 2197.69 440.108 2196.82 442.608Z" fill="#CDE6FF"/>
<path id="Vector_2" d="M1015.14 362.043L1012.16 355.775L975.255 341.377L978.892 351.304L1015.14 362.043Z" fill="#CDE6FF"/>
</g>
<g id="SirIanWood">
<path id="Vector_3" d="M356.567 311.434L369.86 286.978L408.476 305.859L413.196 298.562C411.788 297.339 402.792 289.219 403.323 277.116C403.457 272.295 405.109 267.639 408.043 263.812C412.525 258.15 418.576 256.526 421.77 255.66C426.395 254.434 431.24 254.289 435.93 255.238C436.926 252.087 437.932 248.948 438.928 245.798L366.396 257.381L352.247 238.977C353.243 236.552 354.25 234.117 355.246 231.681C392.869 225.121 430.759 218.686 468.916 212.379C488.651 209.131 500.31 206.002 524.246 203.372C531.225 202.574 538.264 202.433 545.269 202.949C552.692 203.342 560.038 204.636 567.148 206.803C578.195 210.403 588.304 216.412 596.745 224.395L590.315 230.826L607.896 250.994C610.712 246.541 614.727 242.972 619.479 240.699C625.395 237.998 632.053 237.391 638.359 238.977C641.185 239.638 648.795 241.402 654.23 248.417C662.696 259.351 657.965 272.883 657.662 273.728C656.125 277.834 653.622 281.51 650.365 284.445L660.66 299.461H664.991L685.159 325.626L619.122 335.499C612.92 335.391 606.803 334.044 601.129 331.538C595.455 329.032 590.339 325.417 586.082 320.906L546.168 269.863H531.542L462.907 327.348C455.584 334.245 446.405 338.852 436.498 340.604C426.592 342.356 416.389 341.176 407.144 337.21L356.567 311.434Z" fill="#75378F"/>
</g>
<g id="IshbelGordon">
<path id="Vector_4" d="M667.945 197.764C685.988 261.008 704.06 324.255 722.16 387.506L840.074 353.524C838.183 344.229 836.303 334.89 834.434 325.507L808.192 333.681C791.838 278.888 775.488 224.103 759.141 169.325L667.945 197.764Z" fill="#75378F"/>
</g>
<g id="ICRGU">
<path id="Vector_5" d="M826.152 182.532C828.375 193.704 830.591 204.891 832.799 216.092L934.03 181.384C930.956 171.143 927.878 160.902 924.796 150.661L826.152 182.532Z" fill="#977CA3"/>
</g>
<g id="RGUSport">
<path id="Vector_6" d="M840.074 228.26L858.684 309.907L868.167 307.655L886.776 384.366L925.825 387.506L987.531 364.187L962.643 254.274L954.978 255.616C949.5 234.982 944.026 214.349 938.556 193.715L840.074 228.26Z" fill="#75378F"/>
</g>
<g id="BusinessSchool">
<path id="Vector_7" d="M969.518 224.135C982.292 271.508 995.077 318.871 1007.87 366.222L1102.62 342.893L1059.84 190.651L1021.02 198.911C1021.84 202.029 1022.66 205.147 1023.49 208.265L969.518 224.135Z" fill="#75378F"/>
</g>
<g id="CentralServices">
<path id="Vector_8" d="M1559.31 65.1599L1570.51 90.9359L1712.98 27.7138L1701.8 0L1559.31 65.1599Z" fill="#75378F"/>
</g>
<g id="GH GHA">
<path id="Vector_9" d="M1818.25 141.221L1797.68 149.156L1793.01 142.152L1775.27 148.225L1779.47 157.557L1765.47 164.053L1750.07 129.042L1798.61 107.564C1795.81 101.35 1793.01 95.129 1790.21 88.9006L1750.54 105.237C1741.2 84.7038 1731.86 64.1639 1722.53 43.6167L1581.63 105.28L1620.38 207.041L1609.64 214.035L1622.71 244.347L1748.28 192.069L1753.42 207.009L1759.91 203.761L1765.99 218.224L1837.87 187.912C1831.32 172.338 1824.78 156.774 1818.25 141.221ZM1672.85 185.607C1671.13 181.998 1669.42 178.418 1667.71 174.867L1652.3 180.941L1629.44 126.812L1702.25 98.3406L1721.39 143.614L1742.86 134.747C1745.51 140.521 1748.16 146.295 1750.8 152.069L1672.85 185.607Z" fill="#75378F"/>
</g>
<g id="GraysArt">
<path id="Vector_10" d="M2155.16 96.9117L2154.69 91.3364L2041.5 92.7546L2041.96 95.5368H1988.15V256.028H2084.18C2084.49 258.496 2084.8 260.975 2085.1 263.454L2106.45 263.909V255.562L2201.55 256.028C2202.17 203.141 2202.79 150.253 2203.41 97.3663L2155.16 96.9117ZM2153.53 209.358H2038.02V126.596H2153.53V209.358Z" fill="#75378F"/>
</g>
<g id="Gatehouse">
<path id="Vector_11" d="M2266.42 432.075L2283.79 423.003L2292.06 441.797L2310.26 437.261V432.4L2317.71 428.828L2325.15 441.797L2335.9 436.611L2354.92 469.013L2343.34 474.198L2346.65 480.683H2354.92L2380.79 528.002L2363.2 534.476L2356.58 528.002L2348.31 531.239L2299.51 496.889L2320.19 489.755L2323.61 492.992L2331.77 491.054L2323.61 483.92L2297.03 492.353L2266.42 432.075Z" fill="#75378F"/>
</g>
<g id="garthdee medical practice">
<path id="Vector_12" d="M476.97 456.065L518.183 460.493V448.996H526.129V421.12H518.183L518.681 399.003L457.613 395.019V406.083H461.586L461.088 414.051H465.559L465.061 427.756H471.015L469.532 445.456L475.487 445.9L476.97 456.065Z" fill="#977CA3"/>
</g>
<g id="kaim house">
<path id="Vector_13" d="M1150.04 211.989C1152.53 220.166 1155.01 228.332 1157.48 236.487L1186.28 226.744C1184.12 219.628 1181.95 212.512 1179.78 205.396C1180.01 204.124 1179.95 202.817 1179.61 201.572C1179.27 200.326 1178.65 199.173 1177.8 198.197C1176.59 196.877 1174.97 196.01 1173.19 195.739C1171.42 195.467 1169.61 195.807 1168.06 196.703C1166.85 197.577 1165.9 198.772 1165.32 200.155C1164.75 201.537 1164.57 203.052 1164.81 204.53C1164.82 204.569 1164.82 204.609 1164.81 204.649L1161.09 205.396C1161.67 204.151 1160.01 202.072 1157.45 200.849C1156.18 200.243 1151.18 199.485 1149.26 202.007C1148.49 202.88 1147.97 203.944 1147.75 205.086C1147.53 206.229 1147.63 207.409 1148.02 208.503C1148.34 209.837 1149.04 211.05 1150.04 211.989Z" fill="#977CA3"/>
</g>
<g id="kaim cottage">
<path id="Vector_14" d="M1232.09 203.328V213.093H1234.09L1234.75 220.952L1232.09 221.689L1233.43 226.658L1235.74 225.997L1237.06 234.268L1276.07 229.613L1269.28 197.84L1232.09 203.328Z" fill="#977CA3"/>
</g>
<g id="round tower">
<path id="Vector_15" d="M1527.92 109.513C1527.92 109.167 1527.99 102.552 1523.2 99.5858C1517.89 96.3381 1509.38 99.1636 1507.31 105.54C1505.72 110.433 1508.39 115.922 1512.52 118.206C1514.12 119.072 1515.92 119.501 1517.74 119.451L1517.49 123.911L1527.92 123.662C1528.16 121.179 1528.41 118.697 1528.65 116.214H1531.64C1531.55 113.984 1531.47 111.75 1531.39 109.513H1527.92Z" fill="#977CA3"/>
</g>
<g id="EnergyTransition">
<path id="Vector_16" d="M1561.75 277.051L1552.82 261.159L1557.28 259.113L1556.29 252.726L1568.7 246.479L1571.92 248.504L1586.82 241.305L1595.26 259.178L1561.75 277.051Z" fill="#75378F"/>
</g>
<g id="square tower">
<path id="Vector_17" d="M1813.53 103.678L1816.76 111.126L1813.53 112.869L1818.99 125.773L1822.96 124.29L1824.21 127.267L1828.43 124.777L1827.43 121.064L1837.86 117.34L1833.88 103.678L1830.41 106.416L1827.18 98.2214L1813.53 103.678Z" fill="#977CA3"/>
</g>
<g id="treehouse nursery">
<path id="Vector_18" d="M2210.63 298.649L2232.48 288.224L2271.2 370.131L2247.87 381.054L2210.63 298.649Z" fill="#977CA3"/>
</g>
<g id="west lodge">
<path id="Vector_19" d="M2230.73 441.624L2233.22 444.85L2230.73 446.344L2233.22 449.321L2236.2 447.838L2238.68 449.321L2246.38 441.624L2249.6 444.362L2255.31 438.149L2243.02 429.466L2230.73 441.624Z" fill="#977CA3"/>
<path id="Vector_20" d="M2253.57 445.348L2248.61 452.049L2252.58 455.037L2258.05 447.838L2253.57 445.348Z" fill="#977CA3"/>
</g>
</g>
</svg>
