<svg width="2322" height="548" viewBox="0 0 2322 548" fill="none" xmlns="http://www.w3.org/2000/svg">
<g id="CampusOverview">
<g id="parkings">
<g id="Group 10">
<path id="parking" d="M127.11 268.11L86.3001 264.45C83.4134 296.557 80.5067 328.657 77.5801 360.75L119.32 364.42C120.233 351.433 121.15 338.433 122.07 325.42L123.44 313.5C124.673 298.373 125.897 283.243 127.11 268.11Z" fill="#8BBDF5"/>
</g>
<g id="Group 9">
<path id="parking_2" d="M161.66 334.76C162.4 338.23 161.44 341.25 159.52 347.3C157.78 352.78 156.15 357.72 151.52 362.3C149.546 364.267 147.279 365.917 144.8 367.19C139.504 369.833 133.527 370.793 127.67 369.94L140.21 453.41L184.9 447.61L178.48 391.35L166.25 391.66C165.6 378.09 165.11 366.66 164.72 357.72C164.564 355.462 164.77 353.193 165.33 351C167.28 343.57 173.01 339.23 177.25 336C179.629 334.208 182.17 332.641 184.84 331.32L158.77 328.73C160.177 330.495 161.166 332.557 161.66 334.76Z" fill="#8BBDF5"/>
</g>
<g id="Group 8">
<path id="parking_3" d="M231.97 342.71L191.97 355.86C200.637 384.8 209.304 413.743 217.97 442.69L276.67 426.48C268.87 399.993 261.107 373.497 253.38 346.99L245.13 349.13C244.857 345.13 244.594 341.15 244.34 337.19L230.57 335.83L231.97 342.71Z" fill="#8BBDF5"/>
</g>
<g id="Group 7">
<path id="parking_4" d="M634.79 413.44L576.7 431.44L592.23 480.64C615.16 473.71 638.29 466.95 661.23 460.02L652.53 427.46L777.53 390.16C774.99 381.92 772.447 373.68 769.9 365.44L755.52 358.84C714.65 370.77 671.34 386.49 630.52 398.42C631.934 403.44 633.357 408.447 634.79 413.44Z" fill="#8BBDF5"/>
</g>
<g id="Group 6">
<path id="parking_5" d="M856.28 416.39C858.94 420.77 861.18 424.39 862.71 426.79L899.97 414.87L891.41 385.87C873.881 387.554 856.199 385.158 839.75 378.87C841.063 386.298 843.419 393.502 846.75 400.27C848.53 403.61 851.11 407.89 856.28 416.39Z" fill="#8BBDF5"/>
</g>
<g id="Group 5">
<path id="parking_6" d="M942.5 401.72C944.233 406.82 945.967 411.917 947.7 417.01L987.44 405.39C983.77 392.45 981.63 383.88 981.02 379.39C980.841 377.63 980.21 375.946 979.19 374.5C977.644 372.532 975.493 371.127 973.07 370.5C971.079 369.959 968.994 369.856 966.96 370.2C961.8 371.03 944.31 375.91 920.79 383.35L918.97 377.61L904.6 381.61C907.447 390.89 910.3 400.163 913.16 409.43L942.5 401.72Z" fill="#8BBDF5"/>
</g>
<g id="Group 4">
<path id="parking_7" d="M1014.35 407.22L1085.58 386.43C1081.51 372.17 1077.44 357.903 1073.35 343.63L1065.1 345.46L1054.71 348.22L1002.42 364.42C1006.4 378.693 1010.38 392.96 1014.35 407.22Z" fill="#8BBDF5"/>
</g>
<g id="Group 3">
<path id="parking_8" d="M1285.53 313.06L1269.33 249.46L1089.56 298.99C1090.48 303.07 1091.4 307.147 1092.31 311.22L1095.98 324.67C1099.98 337.11 1103.95 349.543 1107.9 361.97L1285.53 313.06Z" fill="#8BBDF5"/>
</g>
<g id="Group 2">
<path id="parking_9" d="M1516.36 290.43C1522.59 288.731 1528.94 287.504 1535.36 286.76C1545.47 285.33 1557.93 283.65 1572.36 281.87L1573.89 274.53L1567.16 255.27V250.69L1508.16 259.25C1501.34 261.79 1494.16 264.72 1486.75 268.11C1481.49 270.52 1476.5 272.98 1471.75 275.45L1472.98 282.79L1481.25 304.22C1486.13 302.04 1491.22 299.89 1496.52 297.77C1505.75 294.08 1510.46 292.12 1516.36 290.43Z" fill="#8BBDF5"/>
</g>
<g id="Group 1">
<path id="parking_10" d="M1927.11 285.54C1927.27 298.08 1927.42 310.617 1927.57 323.15L1953.71 336.9L2001.86 337.36C2001.56 320.24 2001.26 303.12 2000.95 286L1946.37 285.54L1946.83 274.08L1937.2 274.53L1936.74 285.08L1927.11 285.54Z" fill="#8BBDF5"/>
</g>
</g>
<g id="road">
<path id="Vector" d="M2307.52 497.61C2301.85 498.69 2293.36 499.39 2287.11 500.14C2272.95 501.82 2265.71 500.75 2242.86 501.74C2224.44 502.58 2206.86 502.42 2204.26 502.89C2192.89 504.89 2183.96 504.58 2172.58 506.56C2170.05 506.99 2161.23 508.42 2157.21 506.56C2151.75 504.09 2145.21 501.56 2140.88 498.03C2130.64 489.8 2125.27 485.29 2104.88 463.1C2073.78 429.24 2082.56 436.58 2059.88 421.83C2055.04 418.821 2049.89 416.34 2044.52 414.43C2043.24 411.846 2042.76 408.939 2043.14 406.08C2044.14 399.5 2050.24 396.08 2061.94 389.57C2072.76 383.57 2081.29 378.77 2087.16 382.24C2089.63 383.69 2092.32 388.4 2097.71 397.83C2098.71 399.56 2099.49 401.01 2100 401.96L2109.18 398.29C2109.4 393.741 2108.62 389.2 2106.88 384.99C2104 378.15 2099.25 374.34 2091.75 368.48C2084.25 362.62 2077.47 363.61 2072.97 356.61C2072.2 355.28 2071.51 353.904 2070.9 352.49C2067.25 344.78 2065.42 340.93 2062.42 333.68C2059.6 326.89 2049.69 304.45 2025.73 251.14L1837.25 250.68C1836.12 252.936 1834.39 254.839 1832.25 256.18C1830.02 257.445 1827.48 258.081 1824.92 258.02C1798.21 258.4 1796.33 258.52 1791.92 257.1C1790.27 256.57 1788.16 255.8 1774.49 247.47C1761.02 239.26 1752.8 233.75 1746.97 230.04C1735.99 223.201 1724.66 216.926 1713.04 211.24C1702.54 205.865 1691.65 201.266 1680.48 197.48C1662.23 191.42 1653.72 191.28 1648.83 191.48C1645.98 191.62 1633.56 184.6 1631.26 174.94C1624.69 147.39 1606.48 178.13 1597.32 174.94C1591.66 172.94 1583.39 187.08 1577.83 188.69C1566.83 191.89 1558.45 196.69 1549.83 203.4C1550.74 206.767 1551.66 210.13 1552.58 213.49L1533.77 224.49C1533.01 220.357 1532.25 216.23 1531.48 212.11L1525.48 215.77L1526.86 227.24C1519.5 232.12 1511.71 237.04 1503.47 241.91C1497.71 245.317 1492.04 248.527 1486.47 251.54C1487.69 248.64 1488.91 245.737 1490.14 242.83C1490.01 241.05 1489.76 238.32 1489.22 235.04C1488.05 228.094 1486.04 221.317 1483.22 214.86C1476.4 198.86 1468.73 184.76 1461.22 165.79C1456.85 154.79 1438.78 100.55 1440.32 94.63C1442.57 86.02 1449.52 80.71 1453.62 78.12L1449.03 67.12C1446.39 66.2777 1443.59 66.0052 1440.83 66.3206C1438.08 66.6361 1435.42 67.5322 1433.03 68.95C1432.6 69.22 1425.26 73.9501 1424.32 82.2501C1423.74 87.3801 1425.91 91.09 1428.45 96.01C1432.87 104.59 1452.63 163.01 1456.68 171.75C1459.68 178.31 1463.87 187.91 1468.15 200.18L1383.3 229.07C1379.49 230.536 1375.46 231.314 1371.38 231.37C1368.59 231.37 1363.38 231.09 1346.62 223.57C1335.51 218.57 1331.85 216.05 1324.62 215.77C1321.54 215.704 1318.46 216.013 1315.45 216.69C1301.54 219.31 1294.59 220.63 1284.27 223.57C1272.27 226.98 1260.1 229.3 1248.04 232.28C1236.37 235.17 1219.83 239.02 1187.71 246.48L1184.14 231.37H1156.61L1155.67 218.61H1150.97L1152.19 236.03L1180.93 235.73L1183.2 247.58C1124.13 261.32 1094.4 268.66 1073.2 272.72L1061.44 234.81L1135.12 211.27L1132.97 204.61L1051.97 230.52L1065.41 274.18C1045.24 277.88 1017.62 282.36 984.25 286.01C986.09 291.97 987.927 297.933 989.76 303.9L1001.34 301.69C1003.75 310.07 1006.15 318.45 1008.56 326.83L890.91 364.4L879.67 331.86L874.67 333.69C878.78 342.19 881.09 348.39 882.92 352.5C882.92 352.5 884.67 357.2 887.64 365.5L883.23 366.91C878.262 367.646 873.252 368.053 868.23 368.13C855.364 368.229 842.566 366.268 830.32 362.32C812.68 357.1 787.15 349.89 755.54 340.56C755.54 339.2 755.45 337.84 755.41 336.49L826.04 316.31L824.2 311.72L804.04 317.09L773.69 208.5L860.21 181.29L857.76 173.61L768.49 202.35L765.78 192.46L769.41 191.35L768.49 185.54L763.83 186.91L760.54 175.45L755.34 177.28L797.06 318.87L657.83 355.96L654.5 345.61L673.07 339.19C673.07 339.19 670.32 334.83 670.07 335.52C669.82 336.21 649.44 343.31 649.44 343.31L653.44 357.1L639.77 360.74C627.69 346.98 615.614 333.223 603.54 319.47L584.28 323.14L621.42 366.7L592.59 373.61C564.47 357.98 541.52 353.97 525.18 353.43C505.69 352.79 486.36 349.67 466.93 347.93C460.14 347.32 448.3 346.27 447.21 341.51C446.96 340.39 447.67 339.22 459.14 327.29C467.07 319.04 471.44 316.6 472.9 315.83C477.5 313.38 479.9 309.9 485.19 311.96C489.07 313.48 493.99 317.62 494.91 319.5L501.33 315.37C500.33 314.59 493.74 309.21 494.45 302.07C494.77 298.9 496.4 296.65 498.12 294.27C501.113 290.18 505.043 286.868 509.58 284.61L504.08 279.61C501.43 281.61 496.89 285.03 491.24 289.24C465.09 308.7 455.06 315.24 437.58 329.14C434.08 331.93 428.58 336.35 421.99 341.98C407.25 341.09 386.99 339.77 362.83 337.85C335.36 335.67 316.27 333.76 283.04 330.51C236.44 325.96 200.54 321.97 178.48 319.51C159.734 317.417 141.084 315.277 122.53 313.09L121.15 325.01L158.77 328.75L184.84 331.34L230.57 335.86L244.34 337.22C288.08 341.52 321.97 344.82 348.44 347.38C348.813 348.558 348.813 349.822 348.44 351C347.969 352.251 347.115 353.322 346 354.06C340.09 358.28 309.62 365.98 307.17 366.59C313.277 387.177 319.39 407.763 325.51 428.35L382.38 412.14C377.494 393.8 372.6 375.467 367.7 357.14C366.287 357.42 364.833 357.42 363.42 357.14C361.709 356.918 360.109 356.17 358.84 355C357.4 353.44 357.07 350.92 357.75 348.31L363.75 348.89C373.08 349.78 382.39 350.89 391.75 351.64C402.21 352.51 442.33 355.55 480.84 359.72L478.97 389.8H484.47L487.34 360.38C512.46 363.2 536.12 366.48 549.44 369.92C554.54 371.24 563.78 374.39 570.54 382.31C572.9 385.08 575.37 387.97 575.54 391.94C575.99 400.26 566.17 406.94 561.78 409.82C546.65 419.82 535.78 417.05 511.39 426.25L507.67 413.03H493.53L482.97 433.21L403.17 426.33L312.83 446.97H237.18L226.02 457.61C220.774 457.85 215.474 458.12 210.12 458.42C155.1 461.61 79.8102 466.77 0.970215 483.2C0.970215 494.2 7.16021 507.27 7.16021 518.28C20.8702 516.65 41.1602 514.28 65.6302 511.4C151.63 501.4 194.57 496.4 218.34 494.89C284.73 490.58 336.04 494.32 370.34 496.96C386.42 498.19 467.91 501.75 546.44 516.9C611.33 529.43 632.13 543.48 690.21 546.48C714.92 547.76 742.21 547.27 772.76 541.67C781.3 540.1 792.1 537.39 813.35 532.04L895.21 511.4C975.62 490.33 1120.15 448.11 1120.15 448.11C1301.42 395.17 1222.7 422.75 1455.84 358C1518.57 340.58 1577.57 325.23 1640.2 327C1699.34 328.72 1734.67 345.29 1770.9 355.21C1809.25 365.71 1861.01 385.93 1911.9 404.74C1919.53 407.56 1935.07 416.41 1957.99 424C1979.23 431.023 2001.12 435.861 2023.34 438.44C2031.13 438.44 2052.93 440.71 2058.44 446.22C2080 467.77 2094.88 481.32 2110.01 494.85C2124.79 508.07 2144.01 523.54 2162.01 525.5C2171.28 526.5 2169.61 524.43 2188.91 522.64C2205.01 521.16 2240.68 520.99 2248.22 520.64C2266.22 519.72 2264.22 520.75 2310.29 515.75C2309.89 508.61 2307.97 504.75 2307.52 497.61ZM495.37 435.96C491.67 439.96 491.91 442.05 486.65 449.72C480.77 458.31 477.73 462.67 473.35 465.72C472.177 466.55 470.944 467.293 469.66 467.94C447.22 464.73 356.78 452.55 236.27 457.14L239.93 453.8L316.06 452.88L408.23 433.16L485.97 439.61L497.2 418.29H503.97L506.37 428.29C502.218 430.068 498.474 432.679 495.37 435.96ZM1018.63 298.38C1027.15 296.74 1035.69 295.073 1044.26 293.38C1052.83 291.687 1061.32 290 1069.75 288.32L1078.08 315.42L1030.08 329.61L1018.63 298.38ZM839.78 378.79C856.23 385.078 873.911 387.473 891.44 385.79L894.44 384.79L896.44 390.52C897.01 392.15 902.36 406.52 902.78 410.52C902.88 411.57 902.4 418.22 899.65 422.04C896.9 425.86 894.19 427.96 890.78 431.21C883.97 437.7 881.23 438.11 878.22 442.6C874.64 447.95 874.48 450.94 874.46 453.72C874.46 456.78 874.54 460.1 874.74 463.3C871.84 457.3 869.15 452.01 866.74 447.42C863.16 440.42 860.92 436.03 857.42 429.84C850.78 418.08 849.79 416.23 846.87 409.51C843.778 402.611 841.322 395.445 839.53 388.1C838.64 384.36 837.96 381.01 837.44 378.17L839.78 378.79ZM859.04 480.9C849.3 483.52 783.54 502.68 743.93 507.27C726.576 509.244 709.083 509.692 691.65 508.61C651.98 506.2 623.15 496.48 609.1 492.1C591.23 486.53 566.1 482.1 524.32 475.89C519.94 467.2 514.5 456.42 517.84 447.89C518.69 445.69 520.61 442.39 532.97 435.96C553.91 425.07 571.58 422.48 585.25 413.96C589.25 411.44 592.73 409.29 596.25 405.25C599.55 401.46 600.04 399.32 603.13 396.99C608.13 393.2 614.13 393.36 615.51 393.32C623.26 393.12 660.01 382.82 752.51 352.69L754.21 353.42C754.31 354.75 755.49 357.57 755.59 358.89L769.97 365.49C790.12 370.98 811.64 371.17 831.79 376.65C834.221 386.463 837.366 396.085 841.2 405.44C845.245 415.072 849.839 424.464 854.96 433.57C861.64 445.73 865.25 450.48 870.55 462.15C873.1 467.75 874.97 472.61 876.28 476.26C871.37 477.53 864.59 479.41 859.04 480.9ZM999.67 429.54C999.57 430.54 999.22 433.38 995.67 439.94C995.1 441 994.4 442.23 993.6 443.57C936.22 459.66 920.38 464.29 880.73 475.04C880.11 472.28 879.66 469.87 879.34 467.91C878.57 463.26 878.12 460.49 878.27 456.75C878.233 454.164 878.594 451.587 879.34 449.11C880.34 446.11 881.83 443.78 892.48 434.11C894.776 432.223 896.944 430.185 898.97 428.01C902.77 423.77 906.09 420.01 906.77 414.71C907.16 411.173 906.462 407.601 904.77 404.47C902.397 397.59 900.02 390.703 897.64 383.81L904.64 381.54L918.97 377.61C934.19 372.52 946.55 368.61 955.35 365.68C959.959 364.071 964.855 363.447 969.72 363.85C972.51 364.11 975.72 364.44 978.89 366.6C983.15 369.51 984.54 374.15 985.62 377.6C993.62 403.05 997.1 405.7 999.07 422.85C999.583 425.041 999.785 427.293 999.67 429.54ZM1031.47 432.98L1025.71 434.59C1024.53 433.896 1023.39 433.128 1022.3 432.29C1016.36 427.71 1013.61 421.91 1010.99 416.39C1009.28 412.735 1007.85 408.954 1006.71 405.08C1006.71 405.08 1000.86 386.64 995.39 365.95C995.142 364.228 995.042 362.489 995.09 360.75C995.266 358.656 996.005 356.648 997.23 354.94C998.65 354.28 1001.02 353.19 1003.95 351.89C1041.15 335.34 1047.45 338.56 1049.51 339.96C1051.04 340.96 1053.35 343.19 1054.71 348.22L1065.1 345.46C1064.35 343.838 1064.14 342.021 1064.49 340.27C1064.97 338.14 1066.43 336.27 1069.69 334.15C1073.62 331.838 1077.79 329.973 1082.13 328.59L1107.71 411.73C1087.76 417.27 1064.39 423.79 1031.47 432.98ZM1401.14 331.26C1339.49 347.04 1294.21 361.05 1282.55 364.19C1190.29 389.08 1159.93 397.27 1115.63 409.54L1089.8 326.24C1092.8 325.43 1095.06 324.89 1095.98 324.67L1092.31 311.22L1085.74 313.17L1076.25 282.61L1075.95 280.55C1078.05 280.02 1081.24 279.21 1085.13 278.25C1108.84 272.39 1126.59 268.52 1132.36 267.25C1157.36 261.76 1182.27 255.71 1210.36 248.9C1229.95 244.15 1258.91 235.77 1281.45 231.02C1293.6 228.46 1304.8 226.66 1306.21 226.43C1314.12 225.17 1320.86 224.29 1325.93 223.68C1329.73 225.05 1335.71 227.32 1342.93 230.56C1352.54 234.89 1355.56 237 1361.27 238.36C1368.09 239.875 1375.17 239.718 1381.91 237.9L1469.96 208.09C1473.46 212.013 1476.25 216.513 1478.21 221.39C1478.84 222.96 1481.97 230.73 1481.42 238.39C1480.64 249.39 1472.42 256.97 1465.37 263.61C1451.92 276.28 1439.12 289.61 1425.93 302.61C1416.9 311.465 1408.61 321.048 1401.14 331.26ZM2030.23 409.78C2027.06 408.83 2023.65 407.86 2019.98 406.84C2001.19 401.586 1982.98 394.443 1965.63 385.52C1942.99 374.28 1907.2 361.28 1835.63 335.3C1763.8 309.22 1719.09 292.99 1662.97 288.52C1636.38 286.41 1608.71 282.65 1457.97 317.41C1447.5 319.83 1437.32 322.253 1427.41 324.68C1428.73 322.18 1430.19 319.52 1431.83 316.68C1440.04 310.62 1449.72 303.68 1454.91 300.48C1456.24 299.656 1457.68 299.039 1459.19 298.65C1461.47 298.06 1464.36 298.18 1474.48 302.01C1476.12 302.63 1478.2 303.45 1480.59 304.46L1481.22 304.18L1472.97 282.79C1471.46 284.154 1469.69 285.196 1467.77 285.85C1465.97 286.45 1463.12 287.41 1460.13 286.15C1458.68 285.536 1457.43 284.528 1456.53 283.24C1457.74 282.02 1458.97 280.8 1460.28 279.58C1466.88 273.42 1472.17 269.74 1480.46 263.99C1492.46 255.68 1500.85 251.29 1515.31 243.35C1524.79 238.15 1538.46 230.55 1555.21 220.88C1564.27 223.356 1573.45 225.358 1582.72 226.88C1602.06 230.03 1611.72 231.6 1621.25 228.71C1628.47 226.52 1635.54 221.71 1649.68 212.21C1653.1 209.89 1656.12 204.36 1662.52 203.03C1667.02 202.1 1670.78 203.32 1673.99 204.41C1694.45 211.41 1700.99 214.96 1700.99 214.96L1710.06 219.9C1705.61 223.22 1700.06 227.1 1693.66 231.16C1686.27 235.875 1678.61 240.163 1670.73 244C1653.36 252.07 1638.2 253.52 1619.36 255.31C1601.97 256.962 1584.47 256.962 1567.08 255.31L1573.81 274.57C1580.33 273.98 1590.32 273.14 1602.55 272.43C1631.9 270.73 1637.65 271.87 1652.08 269.07C1664.32 266.629 1676.23 262.728 1687.54 257.45C1700.32 251.524 1712.25 243.916 1723.01 234.83L1753.8 249.46C1759.75 254.47 1766.19 258.875 1773.02 262.61C1784.02 268.7 1789.85 271.28 1795.49 272.7C1807.22 275.65 1816.49 274.64 1823.01 274.08C1841.01 272.51 1859.09 273.66 1877.13 273.16C1891.53 272.76 1911.99 272.73 1937.2 274.53L1946.83 274.08L1996.83 274.53L1997.29 268.53H2011.5C2021.05 287.39 2027.95 301.74 2032.6 311.64C2042.87 333.49 2046.11 341.89 2050.94 347.41C2052.97 349.679 2054.53 352.331 2055.53 355.21C2056.69 358.599 2057.01 362.221 2056.45 365.76C2055.3 371.57 2051.45 373.12 2045.9 379.51C2039.85 386.51 2036.98 393.24 2033.06 402.44C2031.97 405.04 2031.04 407.47 2030.23 409.78Z" fill="#CDE6FF"/>
<path id="Vector_2" d="M938.68 335.36L935.93 329.57L901.84 316.27L905.2 325.44L938.68 335.36Z" fill="#CDE6FF"/>
</g>
<g id="SirIanWood">
<path id="Vector_3" d="M330.34 288.61L342.62 266.02L378.29 283.46L382.65 276.72C381.35 275.59 373.04 268.09 373.53 256.91C373.654 252.456 375.18 248.156 377.89 244.62C382.03 239.39 387.62 237.89 390.57 237.09C394.842 235.957 399.318 235.824 403.65 236.7C404.57 233.79 405.5 230.89 406.42 227.98L339.42 238.68L326.35 221.68C327.27 219.44 328.2 217.19 329.12 214.94C363.873 208.88 398.873 202.937 434.12 197.11C452.35 194.11 463.12 191.22 485.23 188.79C491.677 188.053 498.179 187.923 504.65 188.4C511.506 188.762 518.293 189.958 524.86 191.96C535.064 195.285 544.403 200.835 552.2 208.21L546.26 214.15L562.5 232.78C565.101 228.666 568.81 225.37 573.2 223.27C578.664 220.775 584.815 220.214 590.64 221.68C593.25 222.29 600.28 223.92 605.3 230.4C613.12 240.5 608.75 253 608.47 253.78C607.051 257.573 604.739 260.969 601.73 263.68L611.24 277.55H615.24L633.87 301.72L572.87 310.84C567.141 310.74 561.491 309.495 556.249 307.181C551.008 304.866 546.283 301.527 542.35 297.36L505.48 250.21H491.97L428.57 303.31C421.805 309.681 413.326 313.937 404.175 315.555C395.024 317.174 385.6 316.084 377.06 312.42L330.34 288.61Z" fill="#75378F"/>
<text  fill="#75378F" xml:space="preserve" style="white-space: pre" font-family="Inter" font-size="20" letter-spacing="0em"><tspan x="203.7" y="190.873">Sir Ian Wood Building </tspan></text>
</g>
<g id="IshbelGordon">
<path id="Vector_4" d="M617.97 183.61C634.637 242.03 651.33 300.453 668.05 358.88L776.97 327.49C775.224 318.903 773.487 310.276 771.76 301.61L747.52 309.16C732.414 258.546 717.31 207.94 702.21 157.34L617.97 183.61Z" fill="#75378F"/>
<text id="Ishbel Gordon Building" fill="#75378F" xml:space="preserve" style="white-space: pre" font-family="Inter" font-size="20" letter-spacing="0em"><tspan x="528.93" y="141.163">Ishbel Gordon Building </tspan></text>
</g>
<g id="ICRGU">
<path id="Vector_5" d="M764.11 169.54C766.163 179.86 768.21 190.193 770.25 200.54L863.76 168.48C860.92 159.02 858.077 149.56 855.23 140.1L764.11 169.54Z" fill="#977CA3"/>
</g>
<g id="RGUSport">
<path id="Vector_6" d="M776.97 211.78L794.16 287.2L802.92 285.12L820.11 355.98L856.18 358.88L913.18 337.34L890.19 235.81L883.11 237.05C878.05 217.99 872.993 198.93 867.94 179.87L776.97 211.78Z" fill="#75378F"/>
<text id="RGU Sport" fill="#75378F" xml:space="preserve" style="white-space: pre" font-family="Inter" font-size="20" letter-spacing="0em"><tspan x="857.22" y="116.593">RGU Sport </tspan></text>
<path id="Vector_7" d="M878.27 135L870.19 238.87" stroke="#75378F"/>
</g>
<g id="BusinessSchool">
<path id="Vector_8" d="M896.54 207.97C908.34 251.73 920.15 295.48 931.97 339.22L1019.49 317.67L979.97 177.04L944.11 184.67C944.87 187.55 945.633 190.43 946.4 193.31L896.54 207.97Z" fill="#75378F"/>
<text id="Riverside Building" fill="#75378F" xml:space="preserve" style="white-space: pre" font-family="Inter" font-size="20" letter-spacing="0em"><tspan x="920.26" y="165.543">Riverside Building </tspan></text>
</g>
<g id="CentralServices">
<path id="Vector_9" d="M1441.35 61.1199L1451.69 84.9299L1583.3 26.5299L1572.97 0.929932L1441.35 61.1199Z" fill="#75378F"/>
<text id="Central Services Building" fill="#75378F" xml:space="preserve" style="white-space: pre" font-family="Inter" font-size="20" letter-spacing="0em"><tspan x="1291.21" y="20.2027">Central Services Building</tspan></text>
</g>
<g id="GarthdeeHouseAnnexe">
<path id="Vector_10" d="M1680.54 131.38L1661.54 138.71L1657.22 132.24L1640.84 137.85L1644.72 146.47L1631.78 152.47L1617.56 120.13L1662.4 100.29C1659.81 94.55 1657.22 88.8033 1654.64 83.05L1617.99 98.14C1609.36 79.1733 1600.74 60.2 1592.12 41.22L1461.97 98.18L1497.76 192.18L1487.84 198.64L1499.91 226.64L1615.91 178.35L1620.65 192.15L1626.65 189.15L1632.26 202.51L1698.66 174.51C1692.61 160.123 1686.57 145.747 1680.54 131.38ZM1546.23 172.38C1544.64 169.047 1543.06 165.74 1541.48 162.46L1527.25 168.07L1506.13 118.07L1573.39 91.77L1591.07 133.59L1610.9 125.4C1613.35 130.733 1615.79 136.067 1618.23 141.4L1546.23 172.38Z" fill="#75378F"/>
<text fill="#75378F" xml:space="preserve" style="white-space: pre" font-family="Inter" font-size="20" letter-spacing="0em"><tspan x="1625.24" y="40.2027">Garthdee House &#38; </tspan></text>
<text fill="#75378F" xml:space="preserve" style="white-space: pre" font-family="Inter" font-size="20" letter-spacing="0em"><tspan x="1625.24" y="65.2027">Garthdee House Annexe</tspan></text>
</g>
<g id="GraysArt">
<path id="Vector_11" d="M1991.75 90.45L1991.32 85.3L1886.76 86.61L1887.19 89.1801H1837.48V237.43H1926.19C1926.47 239.71 1926.76 242 1927.04 244.29L1946.76 244.71V237L2034.6 237.43C2035.17 188.577 2035.75 139.723 2036.32 90.8701L1991.75 90.45ZM1990.25 194.32H1883.55V117.87H1990.25V194.32Z" fill="#75378F"/>
<text fill="#75378F" xml:space="preserve" style="white-space: pre" font-family="Inter" font-size="20" letter-spacing="0em"><tspan x="1932.94" y="70.2727">Grays School of Art</tspan></text>
</g>
<g id="Gatehouse">
<path id="Vector_12" d="M2094.53 400.05L2110.57 391.67L2118.21 409.03L2135.02 404.84V400.35L2141.9 397.05L2148.78 409.03L2158.71 404.24L2176.28 434.17L2165.58 438.96L2168.64 444.95H2176.28L2200.17 488.66L2183.92 494.64L2177.81 488.66L2170.17 491.65L2125.09 459.92L2144.19 453.33L2147.35 456.32L2154.89 454.53L2147.35 447.94L2122.8 455.73L2094.53 400.05Z" fill="#75378F"/>
<text fill="#75378F" xml:space="preserve" style="white-space: pre" font-family="Inter" font-size="20" letter-spacing="0em"><tspan x="2131.02" y="361.073">Gatehouse Graphics</tspan></text>
<text fill="#75378F" xml:space="preserve" style="white-space: pre" font-family="Inter" font-size="20" letter-spacing="0em"><tspan x="2131.02" y="381.073">&#38; Printing</tspan></text>
</g>
<g id="garthdee medical practice">
<path id="Vector_13" d="M441.56 422.21L479.63 426.3V415.68H486.97V389.93H479.63L480.09 369.5L423.68 365.82V376.04H427.35L426.89 383.4H431.02L430.56 396.06H436.06L434.69 412.41L440.19 412.82L441.56 422.21Z" fill="#977CA3"/>
</g>
<g id="kaim house">
<path id="Vector_14" d="M1063.29 196.75C1065.59 204.303 1067.88 211.847 1070.17 219.38L1096.77 210.38C1094.77 203.807 1092.77 197.233 1090.77 190.66C1090.98 189.485 1090.93 188.278 1090.61 187.128C1090.29 185.977 1089.72 184.912 1088.94 184.01C1087.82 182.791 1086.32 181.99 1084.68 181.739C1083.05 181.489 1081.37 181.803 1079.94 182.63C1078.82 183.437 1077.94 184.542 1077.41 185.819C1076.88 187.096 1076.72 188.495 1076.94 189.86C1076.94 189.897 1076.94 189.933 1076.94 189.97L1073.5 190.66C1074.04 189.51 1072.5 187.59 1070.14 186.46C1068.97 185.9 1064.35 185.2 1062.57 187.53C1061.86 188.337 1061.38 189.319 1061.18 190.374C1060.98 191.43 1061.07 192.519 1061.43 193.53C1061.72 194.763 1062.37 195.883 1063.29 196.75Z" fill="#977CA3"/>
</g>
<g id="kaim cottage">
<path id="Vector_15" d="M1139.09 188.75V197.77H1140.93L1141.54 205.03L1139.09 205.71L1140.32 210.3L1142.46 209.69L1143.68 217.33L1179.71 213.03L1173.44 183.68L1139.09 188.75Z" fill="#977CA3"/>
</g>
<g id="round tower">
<path id="Vector_16" d="M1412.35 102.09C1412.35 101.77 1412.42 95.6599 1407.99 92.9199C1403.09 89.9199 1395.23 92.5299 1393.31 98.4199C1391.85 102.94 1394.31 108.01 1398.13 110.12C1399.61 110.92 1401.27 111.316 1402.95 111.27L1402.72 115.39L1412.35 115.16C1412.58 112.867 1412.8 110.573 1413.03 108.28H1415.79C1415.71 106.22 1415.63 104.157 1415.56 102.09H1412.35Z" fill="#977CA3"/>
</g>
<g id="EnergyTransition">
<path id="Vector_17" d="M1443.6 256.85L1435.35 242.17L1439.47 240.28L1438.56 234.38L1450.02 228.61L1453 230.48L1466.76 223.83L1474.56 240.34L1443.6 256.85Z" fill="#75378F"/>
<text id="Energy Transition" fill="#75378F" xml:space="preserve" style="white-space: pre" font-family="Inter" font-size="20" letter-spacing="0em"><tspan x="1296.21" y="270.203">Energy Transition</tspan></text>
<text id="Institute" fill="#75378F" xml:space="preserve" style="white-space: pre" font-family="Inter" font-size="20" letter-spacing="0em"><tspan x="1296.21" y="295.203">Institute</tspan></text>
</g>
<g id="square tower">
<path id="Vector_18" d="M1676.18 96.6999L1679.16 103.58L1676.18 105.19L1681.22 117.11L1684.89 115.74L1686.04 118.49L1689.94 116.19L1689.02 112.76L1698.65 109.32L1694.98 96.6999L1691.77 99.2299L1688.79 91.6599L1676.18 96.6999Z" fill="#977CA3"/>
</g>
<g id="treehouse nursery">
<path id="Vector_19" d="M2042.99 276.8L2063.17 267.17L2098.94 342.83L2077.39 352.92L2042.99 276.8Z" fill="#977CA3"/>
</g>
<g id="west lodge">
<path id="Vector_20" d="M2061.56 408.87L2063.86 411.85L2061.56 413.23L2063.86 415.98L2066.61 414.61L2068.9 415.98L2076.01 408.87L2078.99 411.4L2084.26 405.66L2072.91 397.64L2061.56 408.87Z" fill="#977CA3"/>
<path id="Vector_21" d="M2082.66 412.31L2078.07 418.5L2081.74 421.26L2086.79 414.61L2082.66 412.31Z" fill="#977CA3"/>
</g>
</g>
</svg>
