<svg width="2515" height="592" viewBox="0 0 2515 592" fill="none" xmlns="http://www.w3.org/2000/svg">
<g id="CampusOverview">
<g id="parkings">
<path id="parking" d="M137.521 289.237L93.3422 285.275C90.2173 320.032 87.0706 354.782 83.9023 389.525L129.088 393.498C130.077 379.439 131.069 365.366 132.065 351.279L133.548 338.374C134.883 321.999 136.208 305.62 137.521 289.237Z" fill="#8BBDF5"/>
<path id="parking_2" d="M174.924 361.39C175.725 365.146 174.685 368.415 172.607 374.965C170.723 380.897 168.959 386.245 163.946 391.203C161.809 393.333 159.355 395.118 156.672 396.497C150.939 399.358 144.468 400.397 138.127 399.474L151.703 489.835L200.082 483.556L193.132 422.651L179.892 422.987C179.189 408.297 178.658 395.923 178.236 386.245C178.067 383.8 178.29 381.345 178.896 378.97C181.007 370.927 187.211 366.229 191.801 362.732C194.376 360.792 197.127 359.096 200.017 357.666L171.795 354.862C173.319 356.773 174.388 359.005 174.924 361.39Z" fill="#8BBDF5"/>
<path id="parking_3" d="M251.038 369.996L207.736 384.231C217.118 415.561 226.5 446.893 235.882 478.23L299.428 460.682C290.984 432.008 282.58 403.324 274.216 374.629L265.285 376.946C264.989 372.616 264.704 368.307 264.429 364.02L249.522 362.548L251.038 369.996Z" fill="#8BBDF5"/>
<path id="parking_4" d="M687.113 446.565L624.228 466.051L641.04 519.313C665.863 511.811 690.902 504.493 715.736 496.99L706.318 461.742L841.637 421.363C838.888 412.443 836.134 403.523 833.377 394.602L817.81 387.458C773.566 400.372 726.681 417.39 682.491 430.305C684.021 435.74 685.562 441.16 687.113 446.565Z" fill="#8BBDF5"/>
<path id="parking_5" d="M926.888 449.759C929.768 454.5 932.193 458.419 933.849 461.017L974.185 448.113L964.918 416.719C945.942 418.541 926.801 415.948 908.994 409.141C910.415 417.182 912.966 424.981 916.572 432.308C918.498 435.924 921.291 440.557 926.888 449.759Z" fill="#8BBDF5"/>
<path id="parking_6" d="M1020.23 433.877C1022.1 439.398 1023.98 444.916 1025.86 450.43L1068.88 437.85C1064.9 423.842 1062.59 414.565 1061.93 409.704C1061.73 407.798 1061.05 405.975 1059.95 404.41C1058.27 402.28 1055.94 400.758 1053.32 400.08C1051.16 399.494 1048.91 399.383 1046.71 399.755C1041.12 400.654 1022.19 405.937 996.724 413.991L994.754 407.777L979.197 412.107C982.279 422.153 985.368 432.192 988.464 442.224L1020.23 433.877Z" fill="#8BBDF5"/>
<path id="parking_7" d="M1098.01 439.832L1175.12 417.325C1170.72 401.888 1166.3 386.444 1161.88 370.992L1152.95 372.973L1141.7 375.961L1085.09 393.498C1089.4 408.95 1093.71 424.394 1098.01 439.832Z" fill="#8BBDF5"/>
<path id="parking_8" d="M1391.58 337.898L1374.04 269.048L1179.43 322.667C1180.42 327.083 1181.42 331.497 1182.4 335.906L1186.38 350.467C1190.71 363.934 1195.01 377.393 1199.28 390.846L1391.58 337.898Z" fill="#8BBDF5"/>
<path id="parking_9" d="M1641.46 313.4C1648.21 311.561 1655.08 310.233 1662.03 309.427C1672.97 307.879 1686.46 306.06 1702.08 304.133L1703.74 296.187L1696.46 275.337V270.379L1632.58 279.646C1625.2 282.396 1617.43 285.567 1609.41 289.237C1603.71 291.846 1598.31 294.509 1593.17 297.183L1594.5 305.129L1603.45 328.328C1608.74 325.968 1614.25 323.641 1619.98 321.346C1629.98 317.351 1635.07 315.229 1641.46 313.4Z" fill="#8BBDF5"/>
<path id="parking_10" d="M2086.12 308.106C2086.29 321.682 2086.46 335.253 2086.62 348.821L2114.92 363.706L2167.04 364.204C2166.72 345.671 2166.39 327.138 2166.06 308.604L2106.97 308.106L2107.47 295.7L2097.04 296.187L2096.55 307.608L2086.12 308.106Z" fill="#8BBDF5"/>
</g>
<g id="road">
<path id="Vector" d="M2497.94 537.684C2491.8 538.853 2482.61 539.611 2475.84 540.423C2460.51 542.241 2452.67 541.083 2427.94 542.155C2408 543.064 2388.97 542.891 2386.15 543.4C2373.84 545.565 2364.18 545.229 2351.86 547.373C2349.12 547.838 2339.57 549.386 2335.22 547.373C2329.31 544.699 2322.23 541.96 2317.54 538.138C2306.45 529.229 2300.64 524.347 2278.57 500.325C2244.9 463.669 2254.4 471.615 2229.85 455.648C2224.61 452.39 2219.04 449.704 2213.22 447.637C2211.84 444.84 2211.32 441.692 2211.73 438.597C2212.81 431.474 2219.42 427.772 2232.08 420.724C2243.8 414.229 2253.03 409.033 2259.38 412.789C2262.06 414.359 2264.97 419.458 2270.81 429.666C2271.89 431.539 2272.73 433.109 2273.28 434.137L2283.22 430.164C2283.46 425.24 2282.61 420.323 2280.73 415.766C2277.61 408.362 2272.47 404.237 2264.35 397.893C2256.23 391.55 2248.89 392.621 2244.02 385.043C2243.19 383.603 2242.44 382.114 2241.78 380.583C2237.83 372.237 2235.85 368.069 2232.6 360.22C2229.55 352.87 2218.82 328.577 2192.88 270.866L1988.84 270.368C1987.62 272.811 1985.75 274.87 1983.43 276.322C1981.01 277.692 1978.27 278.38 1975.49 278.314C1946.58 278.726 1944.54 278.855 1939.77 277.318C1937.98 276.744 1935.7 275.911 1920.9 266.893C1906.32 258.005 1897.42 252.041 1891.11 248.024C1879.22 240.62 1866.96 233.827 1854.38 227.672C1843.01 221.854 1831.23 216.875 1819.13 212.776C1799.37 206.216 1790.16 206.064 1784.87 206.281C1781.78 206.432 1768.34 198.833 1765.85 188.375C1758.73 158.551 1739.02 191.829 1729.1 188.375C1722.98 186.21 1714.02 201.518 1708.01 203.261C1696.1 206.725 1687.03 211.921 1677.69 219.185C1678.68 222.83 1679.68 226.471 1680.67 230.108L1660.31 242.016C1659.49 237.542 1658.66 233.074 1657.83 228.614L1651.33 232.576L1652.83 244.993C1644.86 250.276 1636.43 255.602 1627.51 260.874C1621.27 264.562 1615.14 268.037 1609.1 271.299C1610.42 268.16 1611.75 265.017 1613.08 261.87C1612.94 259.943 1612.67 256.988 1612.08 253.437C1610.81 245.917 1608.63 238.581 1605.59 231.591C1598.2 214.27 1589.9 199.006 1581.77 178.47C1577.04 166.562 1557.48 107.844 1559.14 101.435C1561.58 92.1146 1569.1 86.3662 1573.54 83.5624L1568.57 71.6543C1565.71 70.7424 1562.69 70.4474 1559.7 70.7889C1556.71 71.1304 1553.84 72.1005 1551.25 73.6354C1550.79 73.9277 1542.84 79.0482 1541.82 88.0334C1541.19 93.5869 1543.54 97.6032 1546.29 102.929C1551.08 112.218 1572.47 175.461 1576.85 184.922C1580.1 192.024 1584.64 202.416 1589.27 215.699L1497.42 246.974C1493.3 248.561 1488.93 249.404 1484.51 249.464C1481.49 249.464 1475.85 249.161 1457.71 241.02C1445.68 235.607 1441.72 232.879 1433.89 232.576C1430.55 232.505 1427.22 232.839 1423.97 233.572C1408.91 236.408 1401.38 237.837 1390.21 241.02C1377.22 244.712 1364.05 247.223 1350.99 250.449C1338.36 253.578 1320.45 257.746 1285.68 265.821L1281.81 249.464H1252.01L1250.99 235.651H1245.91L1247.23 254.509L1278.34 254.184L1280.8 267.012C1216.85 281.887 1184.67 289.833 1161.72 294.228L1148.99 253.188L1228.75 227.705L1226.42 220.495L1138.73 248.544L1153.28 295.808C1131.45 299.814 1101.55 304.664 1065.42 308.615C1067.41 315.067 1069.4 321.523 1071.39 327.982L1083.92 325.589C1086.53 334.661 1089.13 343.733 1091.74 352.805L964.377 393.476L952.209 358.25L946.796 360.231C951.245 369.433 953.746 376.145 955.727 380.594C955.727 380.594 957.622 385.682 960.837 394.667L956.063 396.194C950.685 396.99 945.26 397.431 939.825 397.514C925.897 397.622 912.041 395.498 898.785 391.225C879.689 385.574 852.051 377.769 817.831 367.668C817.831 366.196 817.734 364.724 817.691 363.262L894.151 341.416L892.16 336.447L870.335 342.261L837.48 224.706L931.142 195.25L928.49 186.936L831.85 218.048L828.917 207.342L832.846 206.14L831.85 199.851L826.806 201.334L823.244 188.928L817.615 190.909L862.779 344.188L712.055 384.34L708.45 373.135L728.553 366.185C728.553 366.185 725.576 361.465 725.305 362.212C725.035 362.959 702.972 370.645 702.972 370.645L707.302 385.574L692.504 389.514C679.427 374.618 666.353 359.726 653.283 344.837L632.433 348.81L672.639 395.966L641.429 403.447C610.987 386.526 586.143 382.185 568.454 381.601C547.355 380.908 526.429 377.53 505.395 375.647C498.044 374.986 485.227 373.85 484.047 368.697C483.776 367.484 484.545 366.218 496.962 353.303C505.546 344.372 510.277 341.73 511.858 340.897C516.838 338.244 519.436 334.477 525.162 336.707C529.363 338.353 534.689 342.835 535.685 344.87L542.635 340.399C541.552 339.554 534.418 333.73 535.187 326.001C535.533 322.569 537.298 320.133 539.16 317.557C542.4 313.129 546.654 309.543 551.566 307.099L545.612 301.687C542.743 303.852 537.828 307.554 531.712 312.112C503.403 333.178 492.545 340.258 473.622 355.306C469.833 358.326 463.879 363.111 456.745 369.206C440.788 368.242 418.855 366.813 392.701 364.735C362.963 362.375 342.297 360.307 306.324 356.789C255.877 351.863 217.013 347.544 193.132 344.881C172.837 342.614 152.648 340.298 132.563 337.931L131.069 350.835L171.795 354.883L200.017 357.687L249.522 362.58L264.429 364.053C311.78 368.708 348.468 372.28 377.123 375.051C377.526 376.327 377.526 377.695 377.123 378.97C376.612 380.325 375.688 381.484 374.481 382.283C368.084 386.851 335.098 395.187 332.446 395.847C339.057 418.133 345.675 440.42 352.3 462.706L413.865 445.158C408.575 425.304 403.277 405.457 397.973 385.617C396.443 385.921 394.869 385.921 393.34 385.617C391.487 385.377 389.755 384.567 388.381 383.3C386.823 381.612 386.465 378.884 387.201 376.058L393.697 376.686C403.797 377.65 413.876 378.851 424.008 379.663C435.332 380.605 478.764 383.896 520.453 388.41L518.429 420.973H524.383L527.49 389.125C554.684 392.177 580.297 395.728 594.717 399.452C600.238 400.881 610.24 404.291 617.559 412.865C620.113 415.864 622.787 418.992 622.971 423.29C623.458 432.297 612.828 439.528 608.075 442.646C591.696 453.472 579.929 450.473 553.525 460.433L549.498 446.121H534.191L522.759 467.967L436.371 460.519L338.573 482.863H256.678L244.596 494.382C238.917 494.641 233.179 494.934 227.384 495.258C167.822 498.712 86.316 504.298 0.967285 522.084C0.967285 533.992 7.6683 548.141 7.6683 560.06C22.5101 558.296 44.4752 555.73 70.9653 552.612C164.065 541.787 210.55 536.374 236.282 534.739C308.153 530.073 363.699 534.122 400.831 536.98C418.238 538.312 506.456 542.166 591.469 558.566C661.716 572.131 684.233 587.341 747.108 590.588C773.858 591.974 803.401 591.443 836.473 585.381C845.718 583.682 857.41 580.748 880.414 574.956L969.032 552.612C1056.08 529.803 1212.54 484.097 1212.54 484.097C1408.78 426.787 1323.56 456.644 1575.95 386.548C1643.85 367.69 1707.72 351.073 1775.52 352.989C1839.55 354.851 1877.79 372.789 1917.02 383.528C1958.53 394.895 2014.56 416.784 2069.66 437.147C2077.92 440.2 2094.74 449.78 2119.55 457.997C2142.54 465.599 2166.24 470.837 2190.3 473.629C2198.73 473.629 2222.33 476.086 2228.29 482.051C2251.63 505.38 2267.74 520.049 2284.12 534.696C2300.12 549.007 2320.93 565.754 2340.41 567.876C2350.45 568.959 2348.64 566.718 2369.53 564.78C2386.96 563.178 2425.58 562.994 2433.74 562.615C2453.23 561.619 2451.06 562.734 2500.93 557.321C2500.5 549.592 2498.42 545.413 2497.94 537.684ZM536.183 470.944C532.177 475.274 532.437 477.537 526.743 485.84C520.377 495.139 517.087 499.859 512.345 503.161C511.075 504.06 509.74 504.863 508.35 505.564C484.058 502.089 386.151 488.904 255.693 493.873L259.655 490.257L342.07 489.261L441.849 467.913L526.007 474.896L538.164 451.815H545.493L548.091 462.641C543.596 464.566 539.543 467.392 536.183 470.944ZM1102.64 322.006C1111.86 320.231 1121.11 318.427 1130.39 316.593C1139.66 314.76 1148.86 312.934 1157.98 311.116L1167 340.453L1115.04 355.814L1102.64 322.006ZM909.026 409.054C926.833 415.861 945.974 418.455 964.951 416.632L968.198 415.55L970.363 421.753C970.98 423.517 976.772 439.074 977.227 443.404C977.335 444.541 976.815 451.74 973.838 455.875C970.861 460.01 967.928 462.284 964.236 465.802C956.864 472.828 953.898 473.272 950.639 478.132C946.764 483.924 946.59 487.161 946.569 490.17C946.569 493.483 946.655 497.077 946.872 500.541C943.733 494.046 940.82 488.319 938.212 483.35C934.336 475.772 931.911 471.02 928.122 464.319C920.934 451.588 919.862 449.585 916.701 442.311C913.354 434.842 910.694 427.084 908.755 419.133C907.792 415.084 907.056 411.458 906.493 408.383L909.026 409.054ZM929.876 519.594C919.332 522.431 848.143 543.172 805.263 548.141C786.476 550.278 767.538 550.764 748.667 549.592C705.722 546.983 674.512 536.46 659.302 531.719C639.957 525.689 612.752 520.893 567.523 514.171C562.781 504.763 556.892 493.093 560.508 483.859C561.428 481.477 563.507 477.905 576.887 470.944C599.556 459.155 618.684 456.351 633.483 447.128C637.813 444.4 641.58 442.072 645.391 437.699C648.963 433.596 649.494 431.279 652.839 428.757C658.252 424.654 664.747 424.827 666.241 424.784C674.631 424.568 714.415 413.417 814.551 380.8L816.391 381.59C816.5 383.03 817.777 386.083 817.885 387.512L833.453 394.656C855.266 400.6 878.563 400.805 900.376 406.738C903.008 417.361 906.413 427.778 910.563 437.905C914.942 448.332 919.915 458.499 925.459 468.357C932.69 481.521 936.599 486.663 942.336 499.296C945.097 505.359 947.121 510.62 948.539 514.571C943.224 515.946 935.884 517.981 929.876 519.594ZM1082.12 463.994C1082.01 465.077 1081.63 468.151 1077.79 475.253C1077.17 476.4 1076.41 477.732 1075.54 479.182C1013.43 496.601 996.28 501.613 953.356 513.25C952.685 510.263 952.198 507.654 951.852 505.532C951.018 500.498 950.531 497.499 950.693 493.451C950.653 490.651 951.043 487.861 951.852 485.18C952.934 481.932 954.547 479.41 966.076 468.941C968.562 466.898 970.909 464.692 973.102 462.338C977.216 457.748 980.81 453.677 981.546 447.94C981.968 444.111 981.212 440.244 979.381 436.854C976.812 429.407 974.239 421.951 971.662 414.489L979.24 412.031L994.753 407.777C1011.23 402.267 1024.61 398.034 1034.14 394.862C1039.13 393.12 1044.43 392.445 1049.69 392.881C1052.71 393.163 1056.19 393.52 1059.62 395.858C1064.23 399.008 1065.74 404.031 1066.91 407.766C1075.57 435.317 1079.33 438.186 1081.47 456.752C1082.02 459.124 1082.24 461.562 1082.12 463.994ZM1116.54 467.718L1110.31 469.461C1109.02 468.71 1107.79 467.878 1106.61 466.971C1100.18 462.013 1097.21 455.734 1094.37 449.759C1092.51 445.802 1090.97 441.709 1089.74 437.515C1089.74 437.515 1083.4 417.553 1077.48 395.154C1077.21 393.291 1077.11 391.407 1077.16 389.525C1077.35 387.258 1078.15 385.084 1079.47 383.236C1081.01 382.521 1083.58 381.341 1086.75 379.934C1127.02 362.017 1133.84 365.503 1136.07 367.019C1137.73 368.101 1140.23 370.515 1141.7 375.961L1152.95 372.973C1152.14 371.217 1151.91 369.25 1152.29 367.354C1152.81 365.049 1154.39 363.024 1157.92 360.729C1162.17 358.226 1166.68 356.207 1171.38 354.71L1199.07 444.714C1177.48 450.711 1152.18 457.769 1116.54 467.718ZM1516.73 357.601C1449.99 374.683 1400.97 389.85 1388.35 393.249C1288.47 420.194 1255.61 429.06 1207.65 442.343L1179.69 352.166C1182.93 351.289 1185.38 350.705 1186.38 350.467L1182.4 335.906L1175.29 338.017L1165.02 304.934L1164.69 302.704C1166.97 302.13 1170.42 301.254 1174.63 300.214C1200.3 293.871 1219.51 289.681 1225.76 288.306C1252.82 282.363 1279.79 275.813 1310.2 268.441C1331.41 263.299 1362.76 254.227 1387.16 249.085C1400.31 246.314 1412.44 244.365 1413.96 244.116C1422.53 242.752 1429.82 241.8 1435.31 241.139C1439.42 242.622 1445.9 245.08 1453.71 248.587C1464.12 253.275 1467.39 255.559 1473.57 257.031C1480.95 258.672 1488.61 258.501 1495.91 256.533L1591.23 224.262C1595.02 228.509 1598.04 233.381 1600.16 238.66C1600.84 240.36 1604.23 248.771 1603.64 257.064C1602.79 268.972 1593.89 277.178 1586.26 284.366C1571.7 298.082 1557.84 312.512 1543.57 326.585C1533.79 336.172 1524.81 346.545 1516.73 357.601ZM2197.75 442.603C2194.32 441.574 2190.63 440.524 2186.66 439.42C2166.32 433.732 2146.6 425.999 2127.82 416.34C2103.31 404.172 2064.57 390.099 1987.09 361.974C1909.33 333.741 1860.93 316.171 1800.17 311.332C1771.39 309.048 1741.44 304.978 1578.25 342.607C1566.92 345.227 1555.89 347.85 1545.17 350.477C1546.6 347.771 1548.18 344.891 1549.95 341.817C1558.84 335.257 1569.32 327.744 1574.94 324.28C1576.37 323.387 1577.94 322.719 1579.57 322.298C1582.04 321.66 1585.17 321.79 1596.12 325.936C1597.9 326.607 1600.15 327.495 1602.74 328.588L1603.42 328.285L1594.49 305.129C1592.86 306.606 1590.94 307.733 1588.86 308.442C1586.91 309.091 1583.83 310.13 1580.59 308.766C1579.02 308.102 1577.67 307.01 1576.69 305.616C1578 304.296 1579.33 302.975 1580.75 301.654C1587.9 294.986 1593.62 291.002 1602.6 284.777C1615.59 275.781 1624.67 271.029 1640.32 262.433C1650.59 256.804 1665.39 248.576 1683.52 238.108C1693.33 240.788 1703.27 242.956 1713.3 244.603C1734.24 248.013 1744.69 249.713 1755.01 246.584C1762.83 244.214 1770.48 239.007 1785.79 228.722C1789.49 226.211 1792.76 220.224 1799.69 218.784C1804.56 217.778 1808.63 219.098 1812.1 220.278C1834.25 227.856 1841.33 231.699 1841.33 231.699L1851.15 237.047C1846.33 240.641 1840.33 244.842 1833.4 249.237C1825.4 254.341 1817.11 258.982 1808.58 263.137C1789.77 271.873 1773.36 273.443 1752.96 275.38C1734.14 277.169 1715.19 277.169 1696.37 275.38L1703.65 296.231C1710.71 295.592 1721.53 294.682 1734.77 293.914C1766.54 292.073 1772.76 293.308 1788.39 290.276C1801.64 287.634 1814.53 283.411 1826.77 277.697C1840.61 271.282 1853.52 263.046 1865.17 253.21L1898.5 269.047C1904.95 274.471 1911.92 279.24 1919.31 283.283C1931.22 289.876 1937.53 292.669 1943.64 294.206C1956.33 297.4 1966.37 296.306 1973.43 295.7C1992.91 294 2012.49 295.245 2032.01 294.704C2047.6 294.271 2069.75 294.239 2097.04 296.187L2107.47 295.7L2161.6 296.187L2162.09 289.692H2177.48C2187.82 310.109 2195.29 325.644 2200.32 336.361C2211.44 360.015 2214.95 369.108 2220.17 375.084C2222.38 377.54 2224.06 380.411 2225.14 383.528C2226.4 387.197 2226.74 391.118 2226.14 394.949C2224.89 401.238 2220.73 402.916 2214.72 409.834C2208.17 417.412 2205.06 424.697 2200.82 434.657C2199.64 437.472 2198.63 440.102 2197.75 442.603Z" fill="#CDE6FF"/>
<path id="Vector_2" d="M1016.09 362.039L1013.11 355.771L976.209 341.373L979.846 351.3L1016.09 362.039Z" fill="#CDE6FF"/>
</g>
<g id="SirIanWood">
<path id="Vector_3" d="M357.529 311.43L370.823 286.975L409.437 305.854L414.157 298.558C412.75 297.335 403.754 289.216 404.284 277.113C404.419 272.292 406.07 267.636 409.004 263.808C413.486 258.146 419.538 256.522 422.731 255.656C427.356 254.43 432.201 254.286 436.891 255.234C437.887 252.084 438.894 248.945 439.89 245.794L367.358 257.378L353.209 238.974C354.205 236.549 355.212 234.114 356.208 231.678C393.831 225.118 431.72 218.684 469.876 212.376C489.611 209.128 501.271 206 525.206 203.369C532.185 202.571 539.224 202.43 546.229 202.947C553.651 203.339 560.998 204.633 568.108 206.801C579.154 210.4 589.263 216.409 597.705 224.392L591.274 230.823L608.855 250.991C611.671 246.538 615.686 242.969 620.438 240.695C626.354 237.995 633.012 237.388 639.318 238.974C642.144 239.635 649.754 241.399 655.188 248.414C663.654 259.348 658.923 272.88 658.62 273.724C657.083 277.831 654.581 281.507 651.324 284.442L661.619 299.457H665.949L686.117 325.622L620.081 335.495C613.879 335.386 607.762 334.04 602.088 331.534C596.414 329.028 591.299 325.413 587.041 320.902L547.128 269.86H532.502L463.868 327.343C456.545 334.24 447.366 338.848 437.46 340.6C427.553 342.352 417.351 341.172 408.106 337.205L357.529 311.43Z" fill="#75378F"/>
<text id="Sir Ian Wood Building" fill="#75378F" xml:space="preserve" style="white-space: pre" font-family="Inter" font-size="20" letter-spacing="0em"><tspan x="220.434" y="204.032">Sir Ian Wood Building </tspan></text>
</g>
<g id="IshbelGordon">
<path id="Vector_4" d="M668.904 197.761C686.947 261.004 705.018 324.251 723.119 387.501L841.031 353.52C839.14 344.224 837.26 334.885 835.391 325.503L809.149 333.676C792.796 278.885 776.445 224.1 760.099 169.323L668.904 197.761Z" fill="#75378F"/>
<text id="Ishbel Gordon Building" fill="#75378F" xml:space="preserve" style="white-space: pre" font-family="Inter" font-size="20" letter-spacing="0em"><tspan x="572.514" y="150.219">Ishbel Gordon Building </tspan></text>
</g>
<g id="ICRGU">
<path id="Vector_5" d="M827.109 182.53C829.332 193.702 831.547 204.888 833.756 216.089L934.986 181.382C931.911 171.141 928.833 160.9 925.751 150.659L827.109 182.53Z" fill="#977CA3"/>
</g>
<g id="RGUSport">
<path id="Vector_6" d="M841.031 228.257L859.64 309.903L869.123 307.652L887.732 384.362L926.78 387.501L988.486 364.183L963.598 254.271L955.933 255.613C950.456 234.98 944.981 214.346 939.511 193.713L841.031 228.257Z" fill="#75378F"/>
<text id="RGU Sport" fill="#75378F" xml:space="preserve" style="white-space: pre" font-family="Inter" font-size="20" letter-spacing="0em"><tspan x="927.906" y="123.62">RGU Sport </tspan></text>
<path id="Vector_7" d="M950.694 145.138L941.947 257.583" stroke="#75378F"/>
</g>
<g id="BusinessSchool">
<path id="Vector_8" d="M970.472 224.132C983.246 271.505 996.031 318.867 1008.83 366.218L1103.57 342.889L1060.79 190.649L1021.97 198.909C1022.79 202.027 1023.62 205.144 1024.45 208.262L970.472 224.132Z" fill="#75378F"/>
<text id="Riverside Building" fill="#75378F" xml:space="preserve" style="white-space: pre" font-family="Inter" font-size="20" letter-spacing="0em"><tspan x="996.15" y="176.611">Riverside Building </tspan></text>
</g>
<g id="CentralServices">
<path id="Vector_9" d="M1560.26 65.159L1571.45 90.9347L1713.93 27.7134L1702.74 0L1560.26 65.159Z" fill="#75378F"/>
<text id="Central Services Building" fill="#75378F" xml:space="preserve" style="white-space: pre" font-family="Inter" font-size="20" letter-spacing="0em"><tspan x="1397.72" y="19.2727">Central Services Building</tspan></text>
</g>
<g id="GH GHA">
<path id="Vector_10" d="M1819.2 141.219L1798.63 149.155L1793.95 142.15L1776.22 148.224L1780.42 157.555L1766.41 164.051L1751.02 129.041L1799.56 107.563C1796.75 101.349 1793.95 95.1278 1791.16 88.8995L1751.48 105.235C1742.14 84.7028 1732.81 64.1631 1723.48 43.6162L1582.58 105.279L1621.33 207.039L1610.59 214.032L1623.65 244.344L1749.23 192.067L1754.36 207.006L1760.86 203.759L1766.93 218.222L1838.81 187.91C1832.27 172.336 1825.73 156.772 1819.2 141.219ZM1673.8 185.604C1672.08 181.996 1670.37 178.416 1668.66 174.865L1653.25 180.938L1630.39 126.811L1703.2 98.3394L1722.34 143.612L1743.81 134.746C1746.45 140.519 1749.1 146.293 1751.74 152.067L1673.8 185.604Z" fill="#75378F"/>
<text id="Garthdee House &#38;" fill="#75378F" xml:space="preserve" style="white-space: pre" font-family="Inter" font-size="20" letter-spacing="0em"><tspan x="1759.33" y="40.9239">Garthdee House &#38; </tspan></text>
<text id="Garthdee House Annexe" fill="#75378F" xml:space="preserve" style="white-space: pre" font-family="Inter" font-size="20" letter-spacing="0em"><tspan x="1759.33" y="67.9878">Garthdee House Annexe</tspan></text>
</g>
<g id="GraysArt">
<path id="Vector_11" d="M2156.1 96.9104L2155.63 91.3352L2042.44 92.7534L2042.91 95.5355H1989.09V256.024H2085.13C2085.43 258.493 2085.74 260.972 2086.05 263.451L2107.39 263.905V255.559L2202.49 256.024C2203.11 203.138 2203.73 150.251 2204.35 97.365L2156.1 96.9104ZM2154.47 209.355H2038.97V126.594H2154.47V209.355Z" fill="#75378F"/>
<text id="Grays School of Art" fill="#75378F" xml:space="preserve" style="white-space: pre" font-family="Inter" font-size="20" letter-spacing="0em"><tspan x="2092.43" y="73.4763">Grays School of Art</tspan></text>
</g>
<g id="Gatehouse">
<path id="Vector_12" d="M2267.36 432.07L2284.73 422.998L2293 441.791L2311.2 437.255V432.394L2318.64 428.822L2326.09 441.791L2336.84 436.606L2355.86 469.006L2344.28 474.192L2347.59 480.676H2355.86L2381.72 527.995L2364.13 534.469L2357.52 527.995L2349.25 531.232L2300.45 496.882L2321.12 489.748L2324.54 492.985L2332.71 491.047L2324.54 483.913L2297.97 492.346L2267.36 432.07Z" fill="#75378F"/>
<text id="Gatehouse Graphics" fill="#75378F" xml:space="preserve" style="white-space: pre" font-family="Inter" font-size="20" letter-spacing="0em"><tspan x="2306.87" y="388.283">Gatehouse Graphics</tspan></text>
<text id="&#38; Printing" fill="#75378F" xml:space="preserve" style="white-space: pre" font-family="Inter" font-size="20" letter-spacing="0em"><tspan x="2306.87" y="409.935">&#38; Printing</tspan></text>
</g>
<g id="garthdee medical practice">
<path id="Vector_13" d="M477.931 456.059L519.144 460.487V448.99H527.09V421.114H519.144L519.642 398.997L458.575 395.014V406.077H462.548L462.05 414.045H466.521L466.023 427.75H471.977L470.494 445.45L476.448 445.894L477.931 456.059Z" fill="#977CA3"/>
</g>
<g id="kaim house">
<path id="Vector_14" d="M1150.99 211.986C1153.48 220.163 1155.96 228.329 1158.44 236.484L1187.23 226.741C1185.07 219.625 1182.9 212.509 1180.74 205.393C1180.96 204.121 1180.9 202.815 1180.56 201.569C1180.22 200.324 1179.6 199.17 1178.76 198.194C1177.54 196.875 1175.92 196.008 1174.15 195.736C1172.38 195.465 1170.56 195.805 1169.01 196.7C1167.8 197.574 1166.85 198.77 1166.28 200.152C1165.7 201.535 1165.53 203.05 1165.76 204.527C1165.77 204.567 1165.77 204.607 1165.76 204.646L1162.04 205.393C1162.63 204.148 1160.96 202.07 1158.4 200.846C1157.14 200.24 1152.14 199.482 1150.21 202.005C1149.44 202.878 1148.92 203.941 1148.7 205.084C1148.49 206.226 1148.58 207.406 1148.97 208.5C1149.29 209.835 1149.99 211.047 1150.99 211.986Z" fill="#977CA3"/>
</g>
<g id="kaim cottage">
<path id="Vector_15" d="M1233.05 203.326V213.09H1235.04L1235.7 220.95L1233.05 221.686L1234.38 226.655L1236.69 225.994L1238.01 234.265L1277.02 229.61L1270.23 197.837L1233.05 203.326Z" fill="#977CA3"/>
</g>
<g id="round tower">
<path id="Vector_16" d="M1528.87 109.511C1528.87 109.165 1528.94 102.55 1524.15 99.5843C1518.84 96.3366 1510.33 99.1621 1508.25 105.538C1506.67 110.431 1509.34 115.92 1513.47 118.204C1515.07 119.07 1516.87 119.5 1518.69 119.449L1518.44 123.909L1528.87 123.66C1529.11 121.178 1529.36 118.695 1529.6 116.212H1532.59C1532.5 113.982 1532.42 111.749 1532.34 109.511H1528.87Z" fill="#977CA3"/>
</g>
<g id="EnergyTransition">
<path id="Vector_17" d="M1562.69 277.048L1553.76 261.156L1558.22 259.11L1557.24 252.723L1569.64 246.476L1572.87 248.501L1587.77 241.302L1596.21 259.175L1562.69 277.048Z" fill="#75378F"/>
</g>
<g id="square tower">
<path id="Vector_18" d="M1814.48 103.676L1817.7 111.124L1814.48 112.867L1819.93 125.771L1823.9 124.288L1825.15 127.265L1829.37 124.775L1828.38 121.062L1838.8 117.338L1834.83 103.676L1831.35 106.415L1828.13 98.2202L1814.48 103.676Z" fill="#977CA3"/>
</g>
<g id="treehouse nursery">
<path id="Vector_19" d="M2211.57 298.645L2233.41 288.22L2272.14 370.126L2248.81 381.049L2211.57 298.645Z" fill="#977CA3"/>
</g>
<g id="west lodge">
<path id="Vector_20" d="M2231.67 441.618L2234.16 444.844L2231.67 446.338L2234.16 449.315L2237.14 447.832L2239.62 449.315L2247.31 441.618L2250.54 444.357L2256.24 438.143L2243.96 429.461L2231.67 441.618Z" fill="#977CA3"/>
<path id="Vector_21" d="M2254.51 445.342L2249.54 452.043L2253.52 455.031L2258.98 447.832L2254.51 445.342Z" fill="#977CA3"/>
</g>
</g>
</svg>
