<svg xmlns="http://www.w3.org/2000/svg" viewBox="0 0 2337.11 1080">
    <g id="road">
        <g id="road-2" data-name="road">
            <path
                d="M2335.18,871.18c-5.66,1.08-35.79,4.79-42,5.53-14.16,1.68-21.4.61-44.25,1.6-18.42.84-36,.68-38.6,1.15-11.37,2-20.3,1.7-31.68,3.67-2.53.44-11.35,1.86-15.37,0-5.46-2.46-12-5-16.33-8.52-10.24-8.23-15.61-12.75-36-34.93-31.1-33.87-22.32-26.53-45-41.28a79,79,0,0,0-15.36-7.39,14.5,14.5,0,0,1-1.38-8.35c1-6.59,7.1-10,18.8-16.51,10.82-6,19.35-10.8,25.22-7.34,2.47,1.45,5.16,6.17,10.55,15.59,1,1.74,1.78,3.18,2.29,4.13l9.18-3.67a30.88,30.88,0,0,0-2.3-13.3c-2.88-6.84-7.63-10.64-15.13-16.51s-14.28-4.9-18.8-11.92a37.78,37.78,0,0,1-2.07-4.13c-3.65-7.7-5.48-11.56-8.48-18.8-2.82-6.8-12.73-29.24-36.69-82.55l-188.48-.46a13.73,13.73,0,0,1-5,5.5,14.08,14.08,0,0,1-7.33,1.84c-26.71.38-28.59.5-33-.92-1.65-.52-3.76-1.3-17.43-9.63-13.47-8.21-21.69-13.71-27.52-17.43a383.2,383.2,0,0,0-33.93-18.8A241.79,241.79,0,0,0,1686.42,574c-18.25-6-26.76-6.2-31.65-6-2.85.14-15.27-6.88-17.57-16.54-6.57-27.55-24.78,3.2-33.94,0-5.66-2-13.93,12.15-19.49,13.76-11,3.19-19.38,8-28,14.71q1.37,5,2.75,10.08l-18.81,11q-1.14-6.2-2.29-12.38l-6.28,1q.84,7.08,1.7,14.17-11,7.33-23.39,14.68-8.64,5.12-17,9.63,1.83-4.36,3.67-8.71c-.13-1.78-.38-4.51-.92-7.8a86.34,86.34,0,0,0-6-20.18c-6.82-16-14.49-30.09-22-49.07-4.37-11-22.44-65.24-20.9-71.15,2.25-8.61,9.2-13.93,13.3-16.51l-4.59-11a19.7,19.7,0,0,0-16,1.83c-.43.28-7.77,5-8.71,13.3-.58,5.14,1.59,8.85,4.13,13.76,4.42,8.58,24.18,67,28.23,75.74,3,6.56,7.19,16.17,11.47,28.44l-84.85,28.89a34.75,34.75,0,0,1-11.92,2.29c-2.79,0-8-.28-24.76-7.8-11.11-5-14.77-7.52-22-7.79a38.06,38.06,0,0,0-9.17.91c-13.91,2.63-20.86,3.94-31.18,6.88-12,3.41-24.17,5.74-36.23,8.72-11.67,2.88-28.21,6.73-60.33,14.2L1190.06,608h-27.53l-.83-12.84H1157l1.22,17.43,28.74-.31,2.27,11.85c-59.08,13.74-88.81,21.08-110,25.15h0l-11.76-37.92,73.68-23.54-2.14-6.64-81,25.9,13.44,43.66c-20.17,3.7-47.79,8.19-81.16,11.83q2.76,9,5.51,17.89l11.58-2.21q3.61,12.57,7.22,25.14L896.94,740.94q-5.62-16.26-11.24-32.54l-5,1.84c4.11,8.5,6.42,14.7,8.25,18.8,0,0,1.75,4.7,4.72,13l-4.41,1.41a112.6,112.6,0,0,1-15,1.22,120.24,120.24,0,0,1-37.91-5.81c-17.66-5.23-43.24-12.45-74.92-21.8v-4l70.63-20.18-1.84-4.59-20.16,5.37L779.72,585l86.52-27.21-2.45-7.64-89.27,28.74-2.71-9.9,3.63-1.11-.92-5.81-4.66,1.37L766.57,552l-5.2,1.84,41.72,141.58L663.86,732.5l-3.33-10.34,18.57-6.42s-2.75-4.36-3-3.67-20.63,7.8-20.63,7.8l4,13.79-11.38,6.25L609.63,696l-19.26,3.67,37.14,43.57-28.89,6.88C570.5,734.5,547.55,730.5,531.21,730c-19.49-.65-38.82-3.77-58.25-5.51-6.79-.6-18.63-1.65-19.72-6.42-.25-1.12.46-2.29,11.93-14.21,7.93-8.25,12.3-10.69,13.76-11.47,4.6-2.45,7-5.93,12.29-3.87,3.88,1.52,8.8,5.66,9.72,7.54l6.42-4.13c-1-.78-7.59-6.16-6.88-13.3.32-3.16,1.95-5.42,3.67-7.79a31.5,31.5,0,0,1,11.46-9.63l-5.5-5c-2.65,2-7.19,5.43-12.84,9.63-26.15,19.46-36.18,26-53.66,39.9-3.5,2.8-9,7.21-15.59,12.84-14.74-.88-35-2.21-59.16-4.12-27.47-2.19-46.56-4.09-79.79-7.34-46.6-4.56-82.5-8.55-104.56-11q-27.64-3.07-55-6.31,1.83-22.53,3.64-45.05L92.33,641q-4.36,48.15-8.72,96.3L125.35,741q1.37-19.49,2.75-39l0-.36,36.66,3.65a14.91,14.91,0,0,1,2.89,6c.74,3.46-.22,6.48-2.14,12.53-1.74,5.48-3.37,10.42-8,15a27.23,27.23,0,0,1-6.72,4.9,29.06,29.06,0,0,1-17.13,2.75l12.54,83.46,44.64-5.81-6.42-56.25-12.23.3c-.65-13.57-1.14-25-1.53-33.93a21.28,21.28,0,0,1,.61-6.73c1.95-7.43,7.68-11.77,11.92-15a48,48,0,0,1,7.59-4.68L237,712.42l.76,6.9L198,732.4q13,43.43,26,86.83l58.7-16.2Q271,763.28,259.41,723.54l-8.25,2.14q-.41-6-.79-11.95c43.74,4.31,77.63,7.61,104.1,10.17a6,6,0,0,1,0,3.61,6.3,6.3,0,0,1-2.44,3.06c-5.91,4.23-36.38,11.92-38.83,12.53q9.16,30.89,18.34,61.76l56.87-16.2q-7.33-27.52-14.68-55a11.38,11.38,0,0,1-4.28,0,8.49,8.49,0,0,1-4.58-2.14c-1.44-1.57-1.77-4.08-1.09-6.69l6,.57c9.33.9,18.64,2,28,2.75,10.46.87,50.58,3.91,89.09,8.08L485,766.34h5.5l2.87-29.41c25.12,2.82,48.78,6.1,62.1,9.54,5.1,1.31,14.34,4.46,21.1,12.38,2.36,2.77,4.83,5.66,5,9.63.45,8.32-9.37,15-13.76,17.89-15.13,10-26,7.22-50.39,16.42l-3.72-13.21H499.56L489,809.75l-79.8-6.88-90.34,20.64H243.21l-11.16,10.65q-7.87.36-15.9.82c-55,3.14-137.34,5.52-216.15,21.94l.06,60.21c13.71-1.64,47.18-8.78,71.69-11.63,86-10,128.94-15,152.72-16.51,66.39-4.31,117.69-.57,152,2.06,16.09,1.24,97.57,4.8,176.1,20,64.89,12.52,85.7,26.58,143.77,29.58,24.72,1.28,52,.79,82.55-4.81,8.54-1.57,19.34-4.28,40.59-9.63l81.86-20.64c80.42-21.07,224.94-63.29,224.94-63.29,181.27-52.94,102.55-25.36,335.7-90.11,62.72-17.42,121.72-32.77,184.35-31,59.14,1.71,94.48,18.29,130.7,28.21,38.35,10.5,90.12,30.72,141,49.53,7.63,2.82,23.17,11.67,46.09,19.26a328.92,328.92,0,0,0,65.35,14.44c7.8,0,29.59,2.26,35.1,7.78,21.56,21.55,36.44,35.1,51.58,48.63,14.78,13.21,33.92,11.14,51.91,13.09,9.27,1,7.66,16.49,27,14.7,16.1-1.48,51.77-1.65,59.32-2,18-.92,34.76,0,80.88-5C2334.8,902.68,2335.64,878.29,2335.18,871.18ZM501.4,812.51c-3.7,4-3.46,6.08-8.72,13.75-5.88,8.6-8.92,13-13.3,16a28.86,28.86,0,0,1-3.69,2.23c-22.44-3.21-112.88-15.4-233.39-10.8l3.66-3.35,76.13-.92,92.17-19.72L492,816.17l11.23-21.32H510l2.4,10A33.1,33.1,0,0,0,501.4,812.51ZM1521.32,619.89c9.48-5.2,23.15-12.8,39.9-22.47a268.22,268.22,0,0,0,27.51,6c19.34,3.15,29,4.73,38.53,1.84,7.22-2.19,14.29-7,28.43-16.51,3.42-2.31,6.44-7.85,12.84-9.17,4.5-.94,8.26.28,11.47,1.37,20.46,7,27,10.55,27,10.55l9.07,4.94c-4.45,3.33-10,7.2-16.4,11.26a230.51,230.51,0,0,1-22.93,12.85c-17.37,8.07-32.53,9.51-51.37,11.31a277.25,277.25,0,0,1-52.28,0v-4.59l-59,8.56c-6.82,2.54-14,5.47-21.41,8.87-5.26,2.41-10.25,4.87-15,7.34l1.23,7.33h0a14.74,14.74,0,0,1-5.2,3.06c-1.8.6-4.65,1.56-7.64.31a8.5,8.5,0,0,1-3.6-2.92c1.21-1.22,2.44-2.44,3.75-3.66,6.6-6.16,11.89-9.84,20.18-15.59C1498.43,632.22,1506.86,627.83,1521.32,619.89Zm-471,50.05q12.8-2.52,25.49-5.06l8.33,27.1-48,14.18-11.49-31.23Q1037.44,672.46,1050.29,669.94ZM845.81,755.33a79.8,79.8,0,0,0,7,21.4c1.72,3.45,4.3,7.7,9.47,16.21,2.66,4.37,4.9,8,6.43,10.39L906,791.41l-8.56-29,3-1,2,5.72c.57,1.63,5.92,16,6.34,20,.1,1-.38,7.7-3.13,11.52s-5.46,5.93-8.87,9.18c-6.81,6.49-9.55,6.89-12.56,11.38-3.58,5.35-3.74,8.34-3.76,11.13,0,3.05.08,6.38.28,9.57-2.9-6-5.59-11.28-8-15.88-3.58-7-5.82-11.38-9.32-17.58-6.64-11.75-7.63-13.6-10.55-20.33a124.09,124.09,0,0,1-7.34-21.4c-.89-3.75-1.57-7.1-2.09-9.94Zm19.26,102.12c-9.74,2.62-75.5,21.78-115.11,26.37a299,299,0,0,1-52.28,1.37c-39.67-2.41-68.5-12.13-82.55-16.51-17.87-5.57-43-10-84.78-16.21h0c-4.38-8.7-9.82-19.48-6.48-28,.85-2.2,2.77-5.5,15.13-11.92,20.94-10.9,38.61-13.49,52.28-22,4-2.52,7.48-4.66,11-8.71,3.3-3.78,3.79-5.92,6.88-8.26,5-3.79,11-3.63,12.38-3.66,7.75-.21,44.5-10.5,137-40.63l1.7.73c.1,1.32,1.28,4.14,1.38,5.47-40.87,11.92-84.18,27.65-125,39.57q2.13,7.49,4.28,15l-58.09,18,15.53,49.2c22.93-6.93,46.06-13.68,69-20.61-4.44-16.63-6.65-24.89-8.7-32.56l125-37.3Q779.78,754.39,776,742v0c20.15,5.49,41.67,5.68,61.82,11.17a207.27,207.27,0,0,0,9.41,28.78,271,271,0,0,0,13.76,28.13c6.68,12.16,10.29,16.92,15.59,28.59,2.55,5.59,4.42,10.46,5.73,14.11C877.4,854.08,870.62,856,865.07,857.45Zm140.63-51.37c-.1,1-.45,3.84-4,10.4-.57,1.07-1.27,2.29-2.07,3.63-57.38,16.09-73.22,20.72-112.87,31.47-.62-2.75-1.07-5.17-1.39-7.13-.77-4.64-1.22-7.41-1.07-11.16a25.2,25.2,0,0,1,1.07-7.64c1-3,2.49-5.33,13.14-15a67,67,0,0,0,6.42-6.11c3.8-4.25,7.12-8,7.8-13.3a17.53,17.53,0,0,0-2-10.25q-3.56-10.32-7.13-20.65l7-2.28q4.27,13.92,8.56,27.83l29.35-7.65q2.6,7.65,5.2,15.29l39.74-11.62c-3.67-12.93-5.81-21.5-6.42-26a10.33,10.33,0,0,0-1.83-4.89,11.32,11.32,0,0,0-6.12-4,14.12,14.12,0,0,0-6.11-.31c-5.16.83-22.65,5.71-46.17,13.15L925,754.11c15.22-5.08,27.58-9,36.38-11.92a34.65,34.65,0,0,1,14.37-1.84c2.79.26,6,.6,9.17,2.75,4.26,2.91,5.65,7.55,6.73,11,8,25.46,11.48,28.1,13.45,45.25A24,24,0,0,1,1005.7,806.08Zm31.8,3.44-5.76,1.61a30.82,30.82,0,0,1-3.41-2.29c-5.94-4.58-8.69-10.38-11.31-15.9a79.25,79.25,0,0,1-4.28-11.31s-5.85-18.44-11.32-39.14a30.45,30.45,0,0,1-.3-5.2,11.61,11.61,0,0,1,2.14-5.8c1.42-.67,3.79-1.76,6.72-3.06,37.2-16.54,43.5-13.33,45.56-11.92,1.53,1,3.84,3.22,5.2,8.25L1008.45,741q6,21.4,11.93,42.81L1091.61,763q-6.1-21.4-12.23-42.81l-8.25,1.84a8.5,8.5,0,0,1-.61-5.2c.48-2.12,1.94-4,5.2-6.11a60.43,60.43,0,0,1,12.44-5.56l25.58,83.14C1093.79,793.81,1070.42,800.34,1037.5,809.52ZM1407.17,707.8c-61.65,15.79-106.93,29.79-118.59,32.93-92.26,24.89-122.62,33.08-166.92,45.35l-25.83-83.29c3-.82,5.26-1.36,6.18-1.57q6,18.64,11.92,37.3l177.63-48.92L1275.36,626l-179.77,49.53q1.38,6.11,2.75,12.23l-6.57,1.94-9.49-30.61L1082,657c2.1-.53,5.29-1.33,9.18-2.29,23.71-5.86,41.46-9.74,47.23-11,25-5.49,49.91-11.54,78-18.34,19.59-4.75,48.55-13.14,71.09-17.89,12.15-2.56,23.35-4.36,24.76-4.58,7.91-1.27,14.65-2.15,19.72-2.76,3.8,1.38,9.78,3.64,17,6.88,9.61,4.33,12.63,6.45,18.34,7.8a43.11,43.11,0,0,0,20.64-.46l88.05-29.81a45.61,45.61,0,0,1,8.25,13.3c.63,1.57,3.76,9.35,3.21,17-.78,11-9,18.58-16.05,25.22-13.45,12.67-26.25,26-39.44,39A231.84,231.84,0,0,0,1407.17,707.8Zm629.09,78.52c-3.17-1-6.58-1.92-10.25-2.94a289.07,289.07,0,0,1-54.35-21.32c-22.64-11.24-58.43-24.23-130-50.22-71.83-26.08-116.54-42.31-172.66-46.77-26.59-2.12-54.26-5.88-205,28.89q-15.7,3.62-30.56,7.26c1.32-2.5,2.78-5.15,4.42-8h0c8.21-6.06,17.89-13,23.08-16.2a15.32,15.32,0,0,1,4.28-1.84c2.28-.59,5.17-.47,15.29,3.36,1.64.63,3.72,1.44,6.11,2.45l.63-.28q7.32-3.27,15.27-6.45c9.26-3.69,14-5.65,19.87-7.33a126,126,0,0,1,19-3.67c10.11-1.44,22.57-3.12,37-4.89l1.53-7.34c6.52-.6,16.51-1.43,28.74-2.14,29.35-1.71,35.1-.57,49.53-3.36A156.57,156.57,0,0,0,1693.6,634a158.43,158.43,0,0,0,35.47-22.63L1759.86,626a118,118,0,0,0,19.19,13.18c11,6.1,16.83,8.67,22.47,10.09,11.73,3,21,2,27.52,1.38,18-1.57,36.08-.42,54.12-.92,14.4-.4,34.86-.42,60.07,1.38l-.46,10.55-9.63.45q.24,18.81.46,37.61l26.14,13.76,48.15.46q-.45-25.68-.91-51.37l-54.58-.46.46-11.46,50,.46.46-6h14.21c9.55,18.85,16.45,33.21,21.1,43.1,10.27,21.85,13.51,30.25,18.34,35.78a22.82,22.82,0,0,1,4.59,7.79,22,22,0,0,1,.92,10.55c-1.15,5.81-5,7.36-10.55,13.76-6.05,7-8.92,13.72-12.84,22.93C2038,781.58,2037.07,784,2036.26,786.32Z"
                transform="translate(0.46 -1.38)" />
            <polygon
                points="945.17 710.52 942.42 704.73 908.33 691.43 911.69 700.61 945.17 710.52" />
        </g>
        <text   transform="translate(1037.09 848.17) rotate(-15.4)">G</text>
        <text   transform="matrix(0.97, -0.26, 0.26, 0.97, 1055.97, 842.99)">a</text>
        <text   transform="translate(1069.93 839.26) rotate(-14.86)">r</text>
        <text   transform="matrix(0.97, -0.26, 0.26, 0.97, 1080.1, 836.56)">t</text>
        <text   transform="matrix(0.97, -0.25, 0.25, 0.97, 1089.69, 834.03)">h</text>
        <text   transform="translate(1105.8 829.79) rotate(-14.67)">d</text>
        <text   transform="translate(1122.16 825.51) rotate(-14.63)">e</text>
        <text   transform="matrix(0.97, -0.25, 0.25, 0.97, 1136.69, 821.72)">e</text>
        <text   transform="translate(1151.24 817.93) rotate(-14.57)"> </text>
        <text   transform="translate(1157.39 816.33) rotate(-14.55)">R</text>
        <text   transform="translate(1173.15 812.24) rotate(-14.53)">o</text>
        <text   transform="matrix(0.97, -0.25, 0.25, 0.97, 1189.08, 808.11)">a</text>
        <text   transform="translate(1203.09 804.49) rotate(-14.48)">d</text>
    </g>
    <g id="siwb">
        <path class="mainBuilding"
            d="M339.12,671.13l12.29-22.59L387.07,666l4.36-6.74c-1.3-1.13-9.61-8.63-9.12-19.81a21.17,21.17,0,0,1,4.36-12.29c4.14-5.23,9.73-6.73,12.68-7.52a28.67,28.67,0,0,1,13.08-.4c.92-2.91,1.85-5.81,2.77-8.72l-67,10.7-13.08-17,2.77-6.73q52.13-9.1,105-17.84c18.23-3,29-5.89,51.12-8.32a103.67,103.67,0,0,1,19.41-.39,84.61,84.61,0,0,1,20.21,3.56A72.46,72.46,0,0,1,561,590.69l-5.94,5.94,16.24,18.63a25.87,25.87,0,0,1,10.7-9.51,26.45,26.45,0,0,1,17.44-1.59c2.61.61,9.64,2.24,14.66,8.72,7.82,10.1,3.45,22.61,3.17,23.38a25.23,25.23,0,0,1-6.74,9.9L620.06,660h4q9.3,12.09,18.62,24.17l-61,9.12a43,43,0,0,1-30.51-13.47l-36.86-47.16H500.79l-63.4,53.1a47.69,47.69,0,0,1-51.51,9.11Z"
            transform="translate(0.46 -1.38)" />
        <text class="cls-5" transform="translate(210.19 565.54)">Sir Ian<tspan class="cls-6"
                x="76.26" y="0"> </tspan><tspan class="cls-7" x="81.54" y="0">W</tspan><tspan
                x="105.93" y="0">ood </tspan><tspan x="0" y="36">Building</tspan></text>
    </g>
    <g id="IGB">
        <path class="mainBuilding"
            d="M624,560.15q25,87.65,50.08,175.28L783,704q-2.58-12.91-5.17-25.84l-24.24,7.56q-22.66-75.91-45.31-151.83Z"
            transform="translate(0.46 -1.38)" />
        <text class="cls-5" transform="translate(535.42 481.84)">Ishbel <tspan class="cls-8"
                x="81.24" y="0">G</tspan><tspan x="100.77" y="0">o</tspan><tspan class="cls-9"
                x="117.24" y="0">r</tspan><tspan x="126.75" y="0">don </tspan><tspan x="0" y="36">
            Building</tspan></text>
    </g>
    <g id="ICRGU">
        <path class="otherBuilding"
            d="M770.14,546.09q3.08,15.48,6.14,31L869.79,545q-4.26-14.19-8.53-28.38Z"
            transform="translate(0.46 -1.38)" />
    </g>
    <g id="sport">
        <path class="mainBuilding"
            d="M783,588.32l17.19,75.42,8.76-2.07,17.19,70.86,36.07,2.9,57-21.55L896.22,612.35l-7.08,1.25Q881.55,585,874,556.41Z"
            transform="translate(0.46 -1.38)" />
        <text class="cls-5" transform="translate(863.71 457.26)">
            <tspan class="cls-11">R</tspan>
            <tspan x="16.23" y="0">GU Spo</tspan>
            <tspan class="cls-12" x="109.71" y="0">r</tspan>
            <tspan x="120.24" y="0">t</tspan>
        </text>
        <line class="labelLine" x1="884.76" y1="474.94" x2="876.67" y2="578.82" />
    </g>
    <g id="riverside">
        <path class="mainBuilding"
            d="M902.57,584.52q17.7,65.63,35.42,131.24l87.52-21.55L986,553.59l-35.86,7.63c.76,2.88,1.52,5.75,2.29,8.63Z"
            transform="translate(0.46 -1.38)" />
        <text class="cls-5" transform="translate(926.75 529.21)">
            <tspan class="cls-14">R</tspan>
            <tspan x="16.44" y="0">i</tspan>
            <tspan class="cls-9" x="23.46" y="0">v</tspan>
            <tspan x="37.59" y="0">erside Building</tspan>
        </text>
    </g>
    <g id="csb">
        <path class="mainBuilding"
            d="M1447.38,437.66q5.17,11.91,10.34,23.81l131.61-58.39q-5.16-12.81-10.33-25.61Z"
            transform="translate(0.46 -1.38)" />
        <text class="cls-15" transform="translate(1352.7 403.37)">
            <tspan class="cls-16">C</tspan>
            <tspan class="cls-17" x="11.95" y="0">e</tspan>
            <tspan class="cls-18" x="22.47" y="0">n</tspan>
            <tspan x="34.04" y="0">t</tspan>
            <tspan class="cls-19" x="40.99" y="0">r</tspan>
            <tspan x="47.75" y="0">al </tspan>
            <tspan class="cls-20" x="67.28" y="0">S</tspan>
            <tspan x="77.76" y="0">e</tspan>
            <tspan class="cls-21" x="88.28" y="0">r</tspan>
            <tspan x="95.67" y="0">vi</tspan>
            <tspan class="cls-22" x="110.69" y="0">c</tspan>
            <tspan x="119.97" y="0">es </tspan>
            <tspan x="0" y="25.2">Building</tspan>
        </text>
    </g>
    <g id="GH_GHA" data-name="GH GHA">
        <path class="mainBuilding"
            d="M1686.57,507.92l-19,7.33-4.32-6.46-16.38,5.6,3.88,8.62-12.94,6-14.22-32.34,44.84-19.83q-3.89-8.62-7.76-17.25l-36.65,15.09q-12.94-28.46-25.87-56.91L1468,474.72l35.79,94-9.92,6.47,12.07,28,116-48.29,4.74,13.8,6-3,5.61,13.37,66.4-28Q1695.62,529.48,1686.57,507.92Zm-134.31,41q-2.38-4.95-4.75-9.91l-14.23,5.6-21.12-50,67.26-26.31q8.83,20.92,17.68,41.83l19.83-8.19q3.67,8,7.33,16Z"
            transform="translate(0.46 -1.38)" />
        <text class="cls-5" transform="translate(1631.72 365.98)">
            <tspan class="cls-23">G</tspan>
            <tspan x="19.62" y="0">a</tspan>
            <tspan class="cls-24" x="34.08" y="0">r</tspan>
            <tspan x="44.61" y="0">thdee House </tspan>
            <tspan x="0" y="36">&amp; </tspan>
            <tspan class="cls-23" x="24.51" y="36">G</tspan>
            <tspan x="44.13" y="36">a</tspan>
            <tspan class="cls-24" x="58.59" y="36">r</tspan>
            <tspan x="69.12" y="36">thdee House </tspan>
            <tspan class="cls-25" x="0" y="72">A</tspan>
            <tspan x="18.27" y="72">nn</tspan>
            <tspan class="cls-25" x="51.57" y="72">e</tspan>
            <tspan class="cls-26" x="66.51" y="72">x</tspan>
            <tspan x="79.95" y="72">e</tspan>
        </text>
    </g>
    <g id="Grays">
        <path class="mainBuilding"
            d="M1997.78,467l-.43-5.14-104.56,1.28.43,2.57h-49.71V614h88.71c.28,2.29.57,4.57.85,6.86l19.72.43v-7.72l87.84.43q.86-73.28,1.72-146.55Zm-1.5,103.87h-106.7V494.41h106.7Z"
            transform="translate(0.46 -1.38)" />
        <path class="mainBuilding" d="M1898,551.53" transform="translate(0.46 -1.38)" />
        <text class="cls-5" transform="translate(1939.42 429.94)">G<tspan class="cls-27" x="19.38"
                y="0">r</tspan><tspan class="cls-28" x="29.04" y="0">a</tspan><tspan class="cls-29"
                x="43.26" y="0">y</tspan><tspan class="cls-30" x="58.29" y="0">’</tspan><tspan
                x="62.34" y="0">s </tspan><tspan class="cls-31" x="80.58" y="0">S</tspan><tspan
                x="95.55" y="0">chool of </tspan><tspan class="cls-25" x="203.61" y="0">A</tspan><tspan
                class="cls-24" x="221.88" y="0">r</tspan><tspan x="232.41" y="0">t </tspan></text>
    </g>
    <g id="gatehouse">
        <polygon class="mainBuilding"
            points="2101.01 775.21 2117.06 766.83 2124.7 784.19 2141.51 780 2141.51 775.51 2148.39 772.22 2155.26 784.19 2165.19 779.4 2182.77 809.34 2172.07 814.13 2175.13 820.12 2182.77 820.12 2206.66 863.82 2190.41 869.81 2184.3 863.82 2176.66 866.81 2131.58 835.08 2150.68 828.5 2153.83 831.49 2161.37 829.69 2153.83 823.11 2129.28 830.89 2101.01 775.21" />
        <text class="cls-15" transform="translate(2145.5 707.74)">
            <tspan class="cls-32">G</tspan>
            <tspan class="cls-33" x="13.73" y="0">a</tspan>
            <tspan class="cls-22" x="23.77" y="0">t</tspan>
            <tspan x="30.6" y="0">ehouse </tspan>
            <tspan x="0" y="25.2">G</tspan>
            <tspan class="cls-19" x="13.57" y="25.2">r</tspan>
            <tspan x="20.33" y="25.2">aphics &amp; </tspan>
            <tspan class="cls-34" x="0" y="50.4">P</tspan>
            <tspan class="cls-35" x="10.84" y="50.4">r</tspan>
            <tspan x="17.79" y="50.4">i</tspan>
            <tspan class="cls-33" x="22.7" y="50.4">n</tspan>
            <tspan x="34.27" y="50.4">ting </tspan>
            <tspan class="cls-36" x="73.98" y="50.4">F</tspan>
            <tspan x="83.26" y="50.4">acili</tspan>
            <tspan class="cls-37" x="117.58" y="50.4">t</tspan>
            <tspan x="124.72" y="50.4">y</tspan>
        </text>
    </g>
    <g id="garthdee_medical_practice" data-name="garthdee medical practice">
        <polygon class="otherBuilding"
            points="448.05 797.38 486.12 801.47 486.12 790.84 493.45 790.84 493.45 765.1 486.12 765.1 486.57 744.67 430.17 740.99 430.17 751.21 433.83 751.21 433.38 758.56 437.5 758.56 437.05 771.23 442.55 771.23 441.17 787.57 446.68 787.98 448.05 797.38" />
    </g>
    <g id="kaim_house" data-name="kaim house">
        <path class="otherBuilding"
            d="M1069.32,573.3q3.45,11.31,6.88,22.62l26.6-9q-3-9.85-6-19.72a8,8,0,0,0-1.83-6.65,7.26,7.26,0,0,0-9-1.37,7.42,7.42,0,0,0-3,7.22.74.74,0,0,1,0,.12l-3.44.68c.54-1.14-1-3.06-3.36-4.2-1.17-.56-5.79-1.26-7.57,1.07a6,6,0,0,0-1.14,6A6.44,6.44,0,0,0,1069.32,573.3Z"
            transform="translate(0.46 -1.38)" />
    </g>
    <g id="kaim_cottage" data-name="kaim cottage">
        <polygon class="otherBuilding"
            points="1145.58 563.91 1145.58 572.93 1147.41 572.93 1148.03 580.2 1145.58 580.88 1146.8 585.47 1148.94 584.85 1150.17 592.5 1186.19 588.2 1179.92 558.85 1145.58 563.91" />
    </g>
    <g id="round_tower" data-name="round tower">
        <path class="otherBuilding"
            d="M1418.38,478.64c0-.32.07-6.43-4.36-9.17-4.9-3-12.76-.39-14.68,5.5-1.46,4.52,1,9.59,4.82,11.69a9.57,9.57,0,0,0,4.82,1.15l-.23,4.13,9.63-.23q.34-3.45.68-6.88h2.76q-.12-3.1-.23-6.19Z"
            transform="translate(0.46 -1.38)" />
    </g>
    <g id="eti">
        <polygon class="otherBuilding"
            points="1450.09 632.01 1441.83 617.34 1445.96 615.44 1445.05 609.54 1456.51 603.78 1459.49 605.64 1473.25 598.99 1481.05 615.5 1450.09 632.01" />
    </g>
    <g id="square_tower" data-name="square tower">
        <polygon class="otherBuilding"
            points="1682.66 471.87 1685.65 478.75 1682.66 480.35 1687.71 492.28 1691.38 490.9 1692.53 493.65 1696.42 491.36 1695.51 487.92 1705.14 484.48 1701.47 471.87 1698.26 474.39 1695.28 466.82 1682.66 471.87" />
    </g>
    <g id="treehouse_nursery" data-name="treehouse nursery">
        <polygon class="otherBuilding"
            points="2049.48 651.96 2069.66 642.33 2105.43 718 2083.87 728.09 2049.48 651.96" />
    </g>
    <g id="west_lodge" data-name="west lodge">
        <polygon class="otherBuilding"
            points="2068.05 784.04 2070.34 787.02 2068.05 788.4 2070.34 791.15 2073.1 789.77 2075.39 791.15 2082.5 784.04 2085.48 786.56 2090.75 780.83 2079.4 772.8 2068.05 784.04" />
        <polygon class="otherBuilding"
            points="2089.15 787.48 2084.56 793.67 2088.23 796.42 2093.27 789.77 2089.15 787.48" />
    </g>
    <g id="Layer_21" data-name="Layer 21">
        <path class="cls-39"
            d="M84.6,438.24c61.46,13.26,117.19,17.48,173.47,17.38,83.94-.14,147.66-9.87,302.42-39.11,265.92-50.24,282.32-60.17,353.21-56.45,137.4,7.2,119.36,46.79,228.68,43.29,143.13-4.58,191.4-73,387.34-95.32,50.79-5.78,86.91-5.67,133.42-5.53,288,.9,377.62,80.31,569.91,47.19,40.2-6.92,27.37-4.84,103.6-42.78,0-63.88-1.5-171-1.47-234.91-81.43,13.37-38.92,26.21-191.22,27.24-116.5.78-206.09-17.45-360.48-18.48-104.61-.7-232.27-1.55-393.38,16.54-135.3,15.19-143.62,26.83-243.31,31-124.65,5.2-142.06-11.73-278-16.68-161-5.87-310.41,50.56-458.43,69.45-114.1,14.57-156.1,24.95-239.26,20.15C70.94,195.42,53,199.18,0,180.34V415C34.82,429.56,27.39,425.9,84.6,438.24Z"
            transform="translate(0.46 -1.38)" />
        <text class="mainBuilding0" transform="matrix(0.98, 0.18, -0.18, 0.98, 1032.29, 259.35)">R</text>
        <text class="mainBuilding0" transform="matrix(0.98, 0.21, -0.21, 0.98, 1060.6, 264.58)">i</text>
        <text class="mainBuilding0" transform="translate(1072.61 267.17) rotate(12.15)">v</text>
        <text class="mainBuilding0" transform="translate(1098.6 273.03) rotate(7.76)">e</text>
        <text class="mainBuilding0" transform="translate(1127.33 276.43) rotate(1.66)">r</text>
        <text class="mainBuilding0" transform="translate(1145.44 276.89) rotate(-0.3)"> </text>
        <text class="mainBuilding0" transform="matrix(1, -0.06, 0.06, 1, 1157.95, 277.14)">D</text>
        <text class="mainBuilding0" transform="translate(1195.23 274.57) rotate(-8.35)">e</text>
        <text class="mainBuilding0" transform="matrix(0.97, -0.22, 0.22, 0.97, 1223.27, 270.4)">e</text>
    </g>
</svg>