<svg width="1093" height="351" viewBox="0 0 1093 351"
    xmlns="http://www.w3.org/2000/svg">
    <g id="CentralServicesLevel2">
        <g id="2nd Floor">
            <path id="Vector" opacity="0.55" d="M1092.44 0.893188H0V350.893H1092.44V0.893188Z" class="room"/>
        </g>
        <g id="stairs 2">
            <path id="Vector_2" d="M421.996 9.5694H288.937V69.6723H421.996V9.5694Z" class="stair"/>
        </g>
        <g id="stairs 1">
            <path id="Vector_3" d="M936.88 9.89178H805.748V70.3171H936.88V9.89178Z" class="stair"/>
        </g>
        <g id="G201">
            <path id="Vector_4" d="M1080.54 9.89178H989.904V79.3157H1080.54V9.89178Z" class="room"/>
        </g>
        <g id="G202">
            <path id="Vector_5" d="M1080.86 196.305H991.838V336.757H1080.86V196.305Z" class="room"/>
            <path id="Vector_6" d="M753.038 88.6367V161.915H679.76V310.399H805.747V294.007H888.024V310.399H978.655V336.757H73.2781V291.12H51.104V336.757H11.5703V17.2855H50.1368V44.6038H67.4963V17.2855H236.227V90.564L753.038 88.6367Z" class="room"/>
        </g>
        <g id="Bathroom 1">
            <path id="Vector_7" d="M888.992 120.454H805.748V196.305H888.992V120.454Z" class="bathroom"/>
        </g>
        <g id="Bathroom 2">
            <path id="Vector_8" d="M888.992 203.86H805.748V281.96H888.992V203.86Z" class="bathroom"/>
        </g>
        <g id="Accessible Toilet 1">
            <path id="Vector_9" d="M982.034 181.195H929.97V227.478H982.034V181.195Z" class="accessible-toilet"/>
        </g>
        <g id="G204">
            <path id="Vector_10" d="M901.039 246.764V277.615H916.464V289.669H984.928V246.764H972.874L972.39 233.743H929.962V247.248L901.039 246.764Z" class="room"/>
        </g>
        <g id="G207a">
            <path id="Vector_11" d="M618.529 9.89178H793.533V30.7834H785.34V79.3157H618.529V9.89178Z" class="room"/>
        </g>
        <g id="G207b">
            <path id="Vector_12" d="M611.303 9.89178H525.971V79.3157H611.303V9.89178Z" class="room"/>
        </g>
        <g id="G207c">
            <path id="Vector_13" d="M429.551 9.89178H519.222V79.3157H437.26V31.267H429.551V9.89178Z" class="room"/>
        </g>
        <g id="G207d">
            <path id="Vector_14" d="M791.121 170.108H689.396V303.167H791.121V170.108Z" class="room"/>
        </g>
    </g>
</svg>
