<svg width="845" height="501" viewBox="0 0 845 501" fill="none" xmlns="http://www.w3.org/2000/svg">
<g id="EnergyTransitionLevel2">
<g id="2nd Floor">
<path id="Vector" opacity="0.55" d="M0 0.893188V427.949H345.487L420.141 500.893H699.65L844.617 360.268L841.147 0.893188H306.426C300.88 7.67586 260.631 47.7725 205.726 47.7725C144.096 47.7725 104.706 6.23731 99.8284 0.893188H0Z" fill="#75378F"/>
</g>
<g id="EB2">
<path id="Vector_2" d="M17.3633 13.9159H97.2222C114.668 34.0216 138.092 48.0152 164.065 53.8485L165.219 81.6102L123.577 122.697L124.157 206.033H17.3633V13.9159Z" fill="#75378F"/>
</g>
<g id="EB3">
<path id="Vector_3" d="M123.268 217.037H17.3633V413.652H123.268V217.037Z" fill="#75378F"/>
</g>
<g id="EB4">
<path id="Vector_4" d="M134.55 312.959V413.652H314.811V373.72L327.254 374.155V413.652H342.447V315.344H328.995V337.263H314.672L315.152 312.959H134.55Z" fill="#75378F"/>
</g>
<g id="EB5">
<path id="Vector_5" d="M353.299 316.43H548.608V489.17H460.503V474.848H441.404V489.17H422.312L353.299 417.122V316.43Z" fill="#75378F"/>
</g>
<g id="EB6">
<path id="Vector_6" d="M562.066 316.43H826.389V345.075L767.578 403.885L768.664 419.728L699.436 488.956L670.57 489.17V476.589H654.513V489.17H562.066V316.43Z" fill="#75378F"/>
</g>
<g id="EB7">
<path id="Vector_7" d="M826.388 178.845H631.508V304.278H826.388V178.845Z" fill="#75378F"/>
</g>
<g id="EB8">
<path id="Vector_8" d="M540.797 11.3101H593.746V53.4132H601.563V11.3101H660.588V82.4872H540.797V11.3101Z" fill="#75378F"/>
</g>
<g id="Bathroom 1">
<path id="Vector_9" d="M340.711 11.3101H443.574V73.3763H429.687V123.291H340.711V11.3101Z" fill="#75378F"/>
</g>
<g id="Bathroom 2">
<path id="Vector_10" d="M457.897 11.3101H529.945V121.555H441.84V82.4872H457.897V11.3101Z" fill="#75378F"/>
</g>
<g id="EB1">
<path id="Vector_11" d="M780.38 14.2062V22.8817H760.127V14.2062H671.006V96.3806H603.299V136.887H591.727V94.6455H540.797V123.581H567.41V131.682H330.73V11.3101H313.366C296.798 28.712 276.385 41.9906 253.761 50.0818C229.47 58.7019 203.404 61.0883 177.952 57.0222L178.911 85.4148L135.704 128.767L134.581 304.568H621.268V165.823H826.42V14.2062H780.38ZM578.995 214.437H567.707V190.562H493.053V214.437H481.337V189.262H428.388V214.437H417.1V189.698H342.446V214.437H328.566V178.845L579.001 180.58L578.995 214.437Z" fill="#75378F"/>
</g>
</g>
</svg>
