<svg width="779" height="752" viewBox="0 0 779 752" fill="none" xmlns="http://www.w3.org/2000/svg">
<g id="GarthdeeHouseAnnexeLevel1">
<g id="1st Floor">
<path id="Vector" opacity="0.55" d="M121.96 750.86V513.526L114.744 512.993V492.571H105.004V479.081H0.77832V350.274H118.672V354.256C118.672 354.256 178.694 355.713 179.103 354.256C179.511 352.798 179.103 293.825 179.103 293.825H135.201V262.881H172.011V253.994L17.5745 253.781L17.7701 34.5232L23.4754 34.7187L23.2444 16.234L32.4512 0.966309H51.167L62.5244 15.1853V22.0105H275.952V64.472H269.162V68.3645H271.757V112.23H297.849V153.963H280.324V229.43H270.94V236.54H275.419V252.785H200.52V353.865H555.054V284.902H778.399V449.861H771.68V751.02L121.96 750.86Z" fill="#75378F"/>
</g>
<g id="SA18">
<path id="Vector_2" d="M104.844 446.804V397.695H89.6474V393.767H11.1406V469.074H89.3452V446.804H104.844Z" fill="#75378F"/>
</g>
<g id="3cr">
<path id="Vector_3" d="M94.695 450.234H110.798V446.093H126.563V439.161H170.518V398.406H211.504V429.03H214.846V437.917H212.286V466.639H110.976V464.862H94.5884L94.695 450.234Z" fill="#75378F"/>
</g>
<g id="stairs 2">
<path id="Vector_4" d="M126.19 400.236H168.208V436.424H126.226L126.19 400.236Z" fill="#B03A4F"/>
</g>
<g id="SA23">
<path id="Vector_5" d="M131.807 470.194H192.238V484.591H131.665L131.807 470.194Z" fill="#75378F"/>
</g>
<g id="SA24">
<path id="Vector_6" d="M181.254 486.688V515.126H131.914V486.439L181.254 486.688Z" fill="#75378F"/>
</g>
<g id="SA25">
<path id="Vector_7" d="M191.829 517.561H131.807V555.064H191.829V517.561Z" fill="#75378F"/>
</g>
<g id="SA26">
<path id="Vector_8" d="M215.486 527.923H294.401V590.131H215.379L215.486 527.923Z" fill="#75378F"/>
</g>
<g id="SA27">
<path id="Vector_9" d="M183.849 573.619H192.167V557.907H183.849V573.619Z" fill="#75378F"/>
</g>
<g id="SA28-29">
<path id="Vector_10" d="M181.734 588.354H192.398V626.408H132.66V558.228H181.734V588.443V588.354Z" fill="#75378F"/>
</g>
<g id="SA30">
<path id="Vector_11" d="M215.308 592.833H238.112V617.485H215.201L215.308 592.833Z" fill="#75378F"/>
</g>
<g id="SA31">
<path id="Vector_12" d="M215.201 620.009H238.485V634.104H229.722V645.87H215.503L215.201 620.009Z" fill="#75378F"/>
</g>
<g id="SA31a">
<path id="Vector_13" d="M231.198 636.148H241.275V632.344H276.112V650.918H257.734V655.041H238.041V645.728H230.931L231.198 636.148Z" fill="#75378F"/>
</g>
<g id="SA30a">
<path id="Vector_14" d="M241.24 593.1H275.917V612.1H255.352V630.531H241.133L241.24 593.1Z" fill="#75378F"/>
</g>
<g id="SA30b">
<path id="Vector_15" d="M257.467 614.428H276.023V630.744H257.467V614.428Z" fill="#75378F"/>
</g>
<g id="SA30c">
<path id="Vector_16" d="M302.666 655.29H278.689V592.709H296.463V577.299H302.933L302.666 655.29Z" fill="#75378F"/>
</g>
<g id="SA32">
<path id="Vector_17" d="M192.469 628.736H132.873V738.134H192.362L192.469 628.736Z" fill="#75378F"/>
</g>
<g id="SA33">
<path id="Vector_18" d="M194.708 678.645H231.073V700.311H210.509V702.568H231.482V738.578H195.028C195.028 738.578 194.513 678.645 194.708 678.645Z" fill="#75378F"/>
</g>
<g id="SA34">
<path id="Vector_19" d="M306.487 679.533H376.161V738.062H306.487V679.533Z" fill="#75378F"/>
</g>
<g id="SA35">
<path id="Vector_20" d="M305.208 655.041V577.672H374.525V655.13L305.208 655.041Z" fill="#75378F"/>
</g>
<g id="SA36">
<path id="Vector_21" d="M376.534 655.13V577.814H456.267V655.379L376.534 655.13Z" fill="#75378F"/>
</g>
<g id="SA37">
<path id="Vector_22" d="M377.227 679.782V738.063H458.844V679.782H377.227Z" fill="#75378F"/>
</g>
<g id="SA38">
<path id="Vector_23" d="M486.554 654.935V577.405H603.736V655.041L486.554 654.935Z" fill="#75378F"/>
</g>
<g id="SA39">
<path id="Vector_24" d="M460.195 679.765V738.116H605.264V679.462L460.195 679.765Z" fill="#75378F"/>
</g>
<g id="SA40">
<path id="Vector_25" d="M607.878 679.64H619.128V737.636H607.735L607.878 679.64Z" fill="#75378F"/>
</g>
<g id="SA41">
<path id="Vector_26" d="M690.65 686.75V696.703H727.264V680.067H693.316V686.678L690.65 686.75Z" fill="#75378F"/>
</g>
<g id="SA41a">
<path id="Vector_27" d="M699.288 698.516H727.406V737.369H691.414V718.742H699.412L699.288 698.516Z" fill="#75378F"/>
</g>
<g id="SA36a">
<path id="Vector_28" d="M458.702 616.081H484.332V655.432H458.702V616.081Z" fill="#75378F"/>
</g>
<g id="SA38a">
<path id="Vector_29" d="M458.595 577.903H483.941V613.753H458.595V577.903Z" fill="#75378F"/>
</g>
<g id="SA44">
<path id="Vector_30" d="M704.958 627.51V646.243H610.419V577.139H613.494V511.66H703.482V545.804H695.733V627.563L704.958 627.51Z" fill="#75378F"/>
</g>
<g id="SA43">
<path id="Vector_31" d="M729.148 736.605H761.905V517.295H726.802V492.18H706.273V624.062H725.309V677.063H729.343L729.148 736.605Z" fill="#75378F"/>
</g>
<g id="SA43a">
<path id="Vector_32" d="M728.597 491.931V515.695H762.154V491.611C762.154 491.611 728.899 490.794 728.597 491.931Z" fill="#75378F"/>
</g>
<g id="SA46">
<path id="Vector_33" d="M723.94 472.611V398.69H771.68V417.797H762.296V472.682L723.94 472.611Z" fill="#75378F"/>
</g>
<g id="SA46a">
<path id="Vector_34" d="M725.717 377.486H771.52V396.859H723.354V383.742H725.646L725.717 377.486Z" fill="#75378F"/>
</g>
<g id="SA47">
<path id="Vector_35" d="M703.269 409.763V510.22H613.334V409.265L703.269 409.763Z" fill="#75378F"/>
</g>
<g id="SA47a">
<path id="Vector_36" d="M613.743 378.232H646.766V407.488H613.743V378.232Z" fill="#75378F"/>
</g>
<g id="SA47b">
<path id="Vector_37" d="M648.526 407.452H681.816V378.126H648.561L648.526 407.452Z" fill="#75378F"/>
</g>
<g id="SA47c">
<path id="Vector_38" d="M684.606 378.268V404.929H702.38V377.77L684.606 378.268Z" fill="#75378F"/>
</g>
<g id="SA48">
<path id="Vector_39" d="M705.757 359.801H693.849V374.802H625.989V293.7H705.757V359.801Z" fill="#75378F"/>
</g>
<g id="SA49">
<path id="Vector_40" d="M724.278 374.909V320.894H770.703V374.855L724.278 374.909Z" fill="#75378F"/>
</g>
<g id="SA50">
<path id="Vector_41" d="M731.281 302.356L734.978 292.634H709.952V302.534L731.281 302.356Z" fill="#75378F"/>
</g>
<g id="SA48a">
<path id="Vector_42" d="M563.158 344.427H609.139V331.274H613.334V374.056H622.487V293.825H563.105L563.158 344.427Z" fill="#75378F"/>
</g>
<g id="SA21">
<path id="Vector_43" d="M215.024 425.759H217.227V440.156H214.97V525.293H294.721V398.317H215.201L215.024 425.759Z" fill="#75378F"/>
</g>
<g id="stairs 3">
<path id="Vector_44" d="M258.196 687.514H300.978V730.633H258.161L258.196 687.514Z" fill="#B03A4F"/>
</g>
<g id="SA1">
<path id="Vector_45" d="M46.7772 68.2222H61.2095V81.8902H46.5283L46.7772 68.2222Z" fill="#75378F"/>
</g>
<g id="SA1a">
<path id="Vector_46" d="M43.4358 81.4283V65.8229H58.7035V39.9265H24.7378V81.8371L43.4358 81.4283Z" fill="#75378F"/>
</g>
<g id="SA1b">
<path id="Vector_47" d="M57.6546 36.2295V19.1489L49.1231 7.40039H33.7844L28.5767 15.2742V36.2295H57.6546Z" fill="#75378F"/>
</g>
<g id="SA3">
<path id="Vector_48" d="M117.783 159.686H139.112V197.775H169.38V210.412H117.836V197.864H129.532V171.772H117.748L117.783 159.686Z" fill="#75378F"/>
</g>
<g id="SA4">
<path id="Vector_49" d="M24.7021 152.719V134.127H45.8174V152.559L24.7021 152.719Z" fill="#75378F"/>
</g>
<g id="SA5">
<path id="Vector_50" d="M65.2087 138.216V149.129H60.8008V152.683H47.897V131.586H25.8931V90.0486H60.0898V138.322L65.2087 138.216Z" fill="#75378F"/>
</g>
<g id="SA6">
<path id="Vector_51" d="M67.4479 131.817H98.8541V88.9465H67.3057L67.4479 131.817Z" fill="#75378F"/>
</g>
<g id="SA7">
<path id="Vector_52" d="M152.993 89.5508V117.153H106.586V89.8352L152.993 89.5508Z" fill="#75378F"/>
</g>
<g id="SA8">
<path id="Vector_53" d="M106.07 122.806H153.331V152.523H106.39L106.07 122.806Z" fill="#75378F"/>
</g>
<g id="SA9">
<path id="Vector_54" d="M67.679 26.7383H178.232V69.7153L185.341 71.6526H189.181V66.7293H230.06V59.051H225.794V30.7907H266.443V58.891H260.205V66.6226H264.204V113.19H232.282V153.536H265.448V159.402H269.003V197.758H233.775V204.583H219.396V170.137H210.509V205.08H188.718V184.712H154.575V159.651H164.99V81.9259H67.839C67.839 81.9259 66.7903 26.2051 67.6435 26.8272L67.679 26.7383Z" fill="#75378F"/>
</g>
<g id="SA10">
<path id="Vector_55" d="M187.226 58.1445V31.2883H216.001V58.109L187.226 58.1445Z" fill="#75378F"/>
</g>
<g id="SA13">
<path id="Vector_56" d="M236.441 135.389H257.627V147.298H236.708L236.441 135.389Z" fill="#75378F"/>
</g>
<g id="stairs 1">
<path id="Vector_57" d="M278.565 135.372V131.319L271.704 119.411H291.078V147.298H262.409V135.496L278.565 135.372Z" fill="#B03A4F"/>
</g>
<g id="SA14">
<path id="Vector_58" d="M236.708 132.705V120.051H257.485L251.904 132.883L236.708 132.705Z" fill="#75378F"/>
</g>
<g id="SA12">
<path id="Vector_59" d="M217.103 246.973V213.612H243.764V207.586H269.162V224.631H263.013V236.415H268.896V247.08L217.103 246.973Z" fill="#75378F"/>
</g>
<g id="stairs 4">
<path id="Vector_60" d="M624.869 686.074H665.251V728.074H624.638L624.869 686.074Z" fill="#B03A4F"/>
</g>
<g id="stairs 5">
<path id="Vector_61" d="M744.238 317.962V292.172H770.685V317.784L744.238 317.962Z" fill="#B03A4F"/>
</g>
</g>
</svg>
