<svg width="879" height="751" viewBox="0 0 879 751" fill="none" xmlns="http://www.w3.org/2000/svg">
<g id="GarthdeeHouseAnnexeLevel2">
<g id="2nd Floor">
<path id="Vector" opacity="0.55" d="M233.576 291.683H202.552V265.795H232.248V258.337H183.022V259.821H167.79V263.123L157.152 273.761H138.164L126.775 262.372V258.878H113.673V256.922H17.1787V224.238H14.1916V209.967H11.1522L0.40918 199.329V179.275L11.4317 168.235H14.4013V155.658H27.1182V145.264H22.1222V104.389H27.0308V94.6938H13.6676V82.466H11.6587L0.653734 71.4785V51.8092L11.5539 40.909H14.2091L13.8073 26.9344L29.2842 27.3362V24.8208H86.5801V23.0739L96.9214 5.88516H98.1791V0.190491H120.259V5.92008C125.062 5.33543 129.934 6.03838 134.375 7.95685C138.817 9.87533 142.669 12.9403 145.536 16.8377H238.624V27.0567H248.441L248.878 31.6334H267.394V29.8865L275.028 22.2529H306.261L314.331 30.3232V31.5286H339.713V95.4973H363.836V102.485H376.064V114.381H388.624V156.06H658.788V171.379H669.968V159.903H878.679V302.584H830.763V750.103H179.616V481.092H151.056V496.813H24.0612V366.675H150.636V386.816H181.59V346.534H233.768L233.576 291.683Z" fill="#75378F"/>
</g>
<g id="SB3">
<path id="Vector_2" d="M92.9209 156.951V95.2877H217.26V109.105H151.16V145.998H204.159V157.405L92.9209 156.951Z" fill="#75378F"/>
</g>
<g id="SB2">
<path id="Vector_3" d="M88.9035 87.2698L88.5891 35.5113L23.5198 35.9131V45.5381H16.1482L7.25684 54.8312V69.2076L16.1482 78.2911H23.8866V87.6366L48.8663 87.5318V94.8335L73.0598 94.6763V87.3921L88.9035 87.2698Z" fill="#75378F"/>
</g>
<g id="SB2a">
<path id="Vector_4" d="M127.718 70.9195V37.3105H131.84V35.127H145.046V54.6915H134.915V71.0767L127.718 70.9195Z" fill="#75378F"/>
</g>
<g id="SB2b">
<path id="Vector_5" d="M127.701 88.7197V76.1774L140.121 75.9678V60.2464H147.911V76.1774H150.13V63.7401H162.515V88.51L127.701 88.7197Z" fill="#75378F"/>
</g>
<g id="SB4a">
<path id="Vector_6" d="M167.563 88.248H184.14V36.1926H149.309V54.6041H167.65L167.563 88.248Z" fill="#75378F"/>
</g>
<g id="SB4">
<path id="Vector_7" d="M189.486 88.8245V36.245H240.511V88.8245H189.486Z" fill="#75378F"/>
</g>
<g id="SB5">
<path id="Vector_8" d="M257.751 102.415V40.647H274.818V36.8738L281.561 30.3931H299.937L306.418 36.6467V41.0662H330.105V102.52L257.751 102.415Z" fill="#75378F"/>
</g>
<g id="SB6b">
<path id="Vector_9" d="M36.7434 236.361H24.5156V248.589H36.9356L36.7434 236.361Z" fill="#75378F"/>
</g>
<g id="SB6a">
<path id="Vector_10" d="M36.8828 221.531H24.4629V233.06H36.6907L36.8828 221.531Z" fill="#75378F"/>
</g>
<g id="SB6">
<path id="Vector_11" d="M69.6185 221.531H42.4902V248.659H69.4962L69.6185 221.531Z" fill="#75378F"/>
</g>
<g id="SB7">
<path id="Vector_12" d="M300.514 163.292H319.135V206.019H300.392L300.514 163.292Z" fill="#75378F"/>
</g>
<g id="SB8">
<path id="Vector_13" d="M240.476 166.471H194.622V205.146H183.354V215.627H235.095V181.319H240.563L240.476 166.471Z" fill="#75378F"/>
</g>
<g id="SB9">
<path id="Vector_14" d="M290.505 232.693H305.318V297.658H279.115V232.518L290.505 232.693Z" fill="#75378F"/>
</g>
<g id="SB10">
<path id="Vector_15" d="M326.07 163.362H335.747V211.714H325.93L326.07 163.362Z" fill="#75378F"/>
</g>
<g id="SB11">
<path id="Vector_16" d="M371.592 211.679V186.297H348.133V163.292H342.49V211.557L371.592 211.679Z" fill="#75378F"/>
</g>
<g id="SB12">
<path id="Vector_17" d="M385.899 211.679V195.154H404.241V163.362H354.177V180.97H377.672V211.714L385.899 211.679Z" fill="#75378F"/>
</g>
<g id="SB12a">
<path id="Vector_18" d="M391.087 199.993H404.241V211.015H391.035L391.087 199.993Z" fill="#75378F"/>
</g>
<g id="SB13">
<path id="Vector_19" d="M410.092 163.536H446.915V211.557H409.848L410.092 163.536Z" fill="#75378F"/>
</g>
<g id="SB14">
<path id="Vector_20" d="M455.789 232.711V237.864H469.764V298.094H344.359V237.584H442.776V232.746L455.789 232.711Z" fill="#75378F"/>
</g>
<g id="SB14a">
<path id="Vector_21" d="M328.498 232.518V237.759H338.752V297.448H310.803V237.759H315.467V232.518H328.498Z" fill="#75378F"/>
</g>
<g id="SB15">
<path id="Vector_22" d="M451.807 163.292H469.729V211.557H451.719L451.807 163.292Z" fill="#75378F"/>
</g>
<g id="SB18">
<path id="Vector_23" d="M475.284 211.452V163.362H547.236V211.661L475.284 211.452Z" fill="#75378F"/>
</g>
<g id="SB19">
<path id="Vector_24" d="M551.55 211.172V163.414H570.538V177.389H575.097V211.364L551.55 211.172Z" fill="#75378F"/>
</g>
<g id="SB20">
<path id="Vector_25" d="M579.5 211.364V171.869H575.098V163.327H604.374V211.417L579.5 211.364Z" fill="#75378F"/>
</g>
<g id="SB21">
<path id="Vector_26" d="M476.646 233.933V297.396H564.669V238.423H506.22V234.265H495.739V238.44H489.381V233.863L476.646 233.933Z" fill="#75378F"/>
</g>
<g id="SB21a">
<path id="Vector_27" d="M572.687 297.151V238.266H602.89V297.238L572.687 297.151Z" fill="#75378F"/>
</g>
<g id="SB22">
<path id="Vector_28" d="M616.445 202.91V191.52H609.144V202.822L616.445 202.91Z" fill="#75378F"/>
</g>
<g id="SB22a">
<path id="Vector_29" d="M616.445 186.158L616.305 162.348H609.091L609.23 186.035L616.445 186.158Z" fill="#75378F"/>
</g>
<g id="SB22b">
<path id="Vector_30" d="M620.55 162.348H651.452V203.748H620.393L620.55 162.348Z" fill="#75378F"/>
</g>
<g id="SB23">
<path id="Vector_31" d="M751.195 250.336V233.741H744.784V211.801H748.278V193.407H745.361V169.755H867.813V250.493L751.195 250.336Z" fill="#75378F"/>
</g>
<g id="SB24">
<path id="Vector_32" d="M744.103 292.47V284.801H751.09V264.59H744.592V256.974H867.796V292.574C867.796 292.574 743.963 292.085 744.103 292.47Z" fill="#75378F"/>
</g>
<g id="SB25">
<path id="Vector_33" d="M719.159 285.954H668.012V299.404H662.876V320.873H716.189V313.536H719.194L719.159 285.954Z" fill="#75378F"/>
</g>
<g id="stairs 5">
<path id="Vector_34" d="M769.782 301.675L818.291 301.815V304.278H820.038V313.816L769.52 314.2C769.642 312.209 769.782 303.632 769.782 301.675Z" fill="#75378F"/>
</g>
<g id="SB26">
<path id="Vector_35" d="M743.771 301.675V314.148L763.266 314.252V301.623L743.771 301.675Z" fill="#75378F"/>
</g>
<g id="SB27">
<path id="Vector_36" d="M743.334 386.484V363.181H750.549V341.817H743.928V319.441H817.295V321.187H819.863V346.062H817.295V358.779H820.09V386.728H819.845L743.334 386.484Z" fill="#75378F"/>
</g>
<g id="SB28">
<path id="Vector_37" d="M719.002 326.166H662.876V362.115H718.967L719.002 326.166Z" fill="#75378F"/>
</g>
<g id="SB29">
<path id="Vector_38" d="M743.23 424.669V416.075H820.09V498.91H742.182V447.693H749.623V424.669H743.23Z" fill="#75378F"/>
</g>
<g id="SB30">
<path id="Vector_39" d="M719.508 366.622H662.876V459.606H718.774V445.282H711.787V425.176H719.438L719.508 366.622Z" fill="#75378F"/>
</g>
<g id="SB31">
<path id="Vector_40" d="M718.565 465.597H662.876V560.223H718.338V515.19H711.543V494.228H718.53L718.565 465.597Z" fill="#75378F"/>
</g>
<g id="SB32">
<path id="Vector_41" d="M741.326 647.739V624.873H749.064V603.719H742.287V505.215H820.09V646.848H816.596V651.006H753.292V647.774L741.326 647.739Z" fill="#75378F"/>
</g>
<g id="SB33">
<path id="Vector_42" d="M662.876 565.638H718.006V605.344H709.866V626.952H718.058V653.049H662.876V565.638Z" fill="#75378F"/>
</g>
<g id="SB34">
<path id="Vector_43" d="M770.55 677.575V657.783H742.758V674.361H741.343V677.627L770.55 677.575Z" fill="#75378F"/>
</g>
<g id="SB34a">
<path id="Vector_44" d="M776.803 657.713H822.221V740.338H776.611L776.803 657.713Z" fill="#75378F"/>
</g>
<g id="SB35">
<path id="Vector_45" d="M741.256 694.816H770.55V712.075H741.168L741.256 694.816Z" fill="#75378F"/>
</g>
<g id="Bathroom 1">
<path id="Vector_46" d="M741.081 716.512H770.55V740.338H740.854L741.081 716.512Z" fill="#4B337F"/>
</g>
<g id="SB36">
<path id="Vector_47" d="M657.827 654.237V565.638H365.915V654.639H420.067V645.556H442.775V654.29H537.104L537.471 645.556H558.887V653.975L657.827 654.237Z" fill="#75378F"/>
</g>
<g id="SB37a">
<path id="Vector_48" d="M562.66 678.064H667.889V740.338H562.765L562.66 678.064Z" fill="#75378F"/>
</g>
<g id="SB37b">
<path id="Vector_49" d="M442.496 740.076V678.326H553.053V740.338L442.496 740.076Z" fill="#75378F"/>
</g>
<g id="SB37">
<path id="Vector_50" d="M432.487 740.338V677.959H365.915V739.937L432.487 740.338Z" fill="#75378F"/>
</g>
<g id="SB38">
<path id="Vector_51" d="M268.529 677.959H288.688V697.925H272.966V687.741H268.477L268.529 677.959Z" fill="#75378F"/>
</g>
<g id="SB39">
<path id="Vector_52" d="M242.729 631.214H188.42V740.338H250.956V650.324H242.729V631.214Z" fill="#75378F"/>
</g>
<g id="SB39a">
<path id="Vector_53" d="M188.42 624.087V575.438H212.683V624.174L188.42 624.087Z" fill="#75378F"/>
</g>
<g id="SB39b">
<path id="Vector_54" d="M219.182 623.808V589.57L232.877 589.762V624.174L219.182 623.808Z" fill="#75378F"/>
</g>
<g id="SB39c">
<path id="Vector_55" d="M237.541 589.884L251.516 590.076V624.174L237.768 623.965L237.541 589.884Z" fill="#75378F"/>
</g>
<g id="SB39d">
<path id="Vector_56" d="M228.702 569.953V531.226H188.42V569.778L228.702 569.953Z" fill="#75378F"/>
</g>
<g id="SB39e">
<path id="Vector_57" d="M234.711 569.656H251.533V531.732H234.659L234.711 569.656Z" fill="#75378F"/>
</g>
<g id="SB39f">
<path id="Vector_58" d="M243.812 522.072V507.818H252.231V470.559H188.42V522.352L243.812 522.072Z" fill="#75378F"/>
</g>
<g id="Bathroom 1_2">
<g id="layer116">
<path id="Vector_59" d="M288.094 702.415H262.276V705.699H256.651V740.391H287.972L288.094 702.415Z" fill="#75378F"/>
</g>
</g>
<g id="SB40c">
<path id="Vector_60" d="M281.264 587.91V568.695H274.277V514.823H360.448V588.19L281.264 587.91Z" fill="#75378F"/>
</g>
<g id="SB40d">
<path id="Vector_61" d="M277.508 644.542V594.112H360.43V644.42L277.508 644.542Z" fill="#75378F"/>
</g>
<g id="SB40">
<path id="Vector_62" d="M281.945 402.659V385.453H360.902V508.011H273.945V443.168H277.648V429.491H274.731V405.035H281.858L281.945 402.659Z" fill="#75378F"/>
</g>
<g id="SB40a">
<path id="Vector_63" d="M275.08 351.704H308.27V379.252H275.08V351.704Z" fill="#75378F"/>
</g>
<g id="SB40b">
<path id="Vector_64" d="M313.93 379.007V351.687H361.653V378.955L313.93 379.007Z" fill="#75378F"/>
</g>
<g id="SB43">
<path id="Vector_65" d="M252.913 354.202H190.149V398.799H252.895L252.913 354.202Z" fill="#75378F"/>
</g>
<g id="SB42">
<path id="Vector_66" d="M142.88 375.164V488.394H33.1445V374.85L142.88 375.164Z" fill="#75378F"/>
</g>
<g id="SB41">
<path id="Vector_67" d="M150.654 445.754V392.667H179.337V439.395H174.69V445.806L150.654 445.754Z" fill="#75378F"/>
</g>
<g id="stairs 2">
<path id="Vector_68" d="M189.223 405.873H234.798V447.797H189.119L189.223 405.873Z" fill="#B03A4F"/>
</g>
<g id="stairs 3">
<path id="Vector_69" d="M295.885 681.855H358.614V740.338H295.466L295.885 681.855Z" fill="#B03A4F"/>
</g>
<g id="stairs 4">
<path id="Vector_70" d="M674.038 684.842H716.241V733.334H735.299V740.321H674.021L674.038 684.842Z" fill="#B03A4F"/>
</g>
<g id="stairs 8">
<path id="Vector_71" d="M689.794 230.632H710.25V260.73H689.934L689.794 230.632Z" fill="#B03A4F"/>
</g>
<g id="stairs 9">
<path id="Vector_72" d="M172.209 114.276H204.124V140.478H172.279L172.209 114.276Z" fill="#B03A4F"/>
</g>
<g id="stairs 10">
<path id="Vector_73" d="M304.462 125.158H355.749V155.745H304.497L304.462 125.158Z" fill="#B03A4F"/>
</g>
<g id="stairs 11">
<path id="Vector_74" d="M101.795 219.889H112.032V248.659H73.811V240.082H101.76L101.795 219.889Z" fill="#B03A4F"/>
</g>
<g id="entrance 1">
<path id="Vector_75" d="M117.587 2.26923H100.834V7.94641H117.587V2.26923Z" fill="#2DD4E7"/>
</g>
<g id="entrance 2">
<path id="Vector_76" d="M703.245 163.484H674.614V169.755H703.245V163.484Z" fill="#2DD4E7"/>
</g>
<g id="entrance 3">
<path id="Vector_77" d="M358.509 101.192H352.377V120.949H358.509V101.192Z" fill="#2DD4E7"/>
</g>
</g>
</svg>
