<svg width="1180" height="401" viewBox="0 0 1180 401" transform="scale(-1,-1)"
    xmlns="http://www.w3.org/2000/svg">
    <g id="GarthdeeHouseAnnexeLevel3">
        <g id="3rd Floor">
            <path id="Vector"   d="M178.964 31.1359H246.226V27.5789H321.525V31.2091H334.245V123.429H303.725V204.26H365.453V122.082H476.703V159.644H471.17V202.226H549.059V209.091H807.494V199.942H883.934V222.543H961.399V207.188H1179.3V395.36H815.94V400.733H365.834V381.82H271.931V346.513H366.463V286.175H332.401V292.03H244.382V343.761H225.674V346.908L211.315 361.327H186.137L172.128 347.201V343.132H153.099V294.592H18.0627V277.026H14.9301L0.40918 262.505V236.596L14.5935 222.412H18.9849V205.27H37.7509V120.926H19.8925V103.814H14.9301L1.38993 90.2737V63.691L14.5642 50.5167H19.7168V32.7314H38.9219V28.34H56.6194V32.424H66.866V28.5157H117.748V0.703369H178.964V31.1359Z" class="background"/>
        </g>
        <g id="SC1">
            <path id="Vector_2" d="M167.429 235.249H230.124V299.349L234.106 301.779V314.046L230.271 316.388V326.884H218.18V337.994L208.299 348.446H190.118L180.135 337.906V327.411H166.961L167.429 235.249Z" class="room"/>
        </g>
        <g id="SC2">
            <path id="Vector_3" d="M111.527 233.156H156.305V279.032H142.384L139.544 283.423H126.531L125.404 279.661H111.761L111.527 233.156Z" class="room"/>
        </g>
        <g id="SC3">
            <path id="Vector_4" d="M32.3643 270.908H21.5614L10.9927 260.515V239.45L21.8249 228.794H32.5253V215.532H96.523V237.108H104.94V265.199H98.9382V283.467H32.3057L32.3643 270.908Z" class="room"/>
        </g>
        <g id="SC4">
            <path id="Vector_5" d="M96.7862 167.431H49.3149V182.845L51.9059 184.411V205.08H96.6837L96.7862 167.431Z" class="room"/>
        </g>
        <g id="SC5">
            <path id="Vector_6" d="M96.7276 159.644V126.152H67.027V121.965H53.7502V126.488H50.6323V159.644" class="room"/>
        </g>
        <g id="SC6">
            <path id="Vector_7" d="M93.5366 45.9204H34.6769V58.6702H23.8593L13.4663 69.2682V86.585L24.0057 97.344H34.3256V108.952H48.1439V111.265H92.9803V91.5473H108.262V65.3159H93.6244L93.5366 45.9204Z" class="room"/>
        </g>
        <g id="SC7">
            <path id="Vector_8" d="M166.976 91.9864V10.9208H129.971V40.4165H118.86V91.9864H125.784V89.0588H137.392V92.5719L166.976 91.9864Z" class="room"/>
        </g>
        <g id="SC7a">
            <path id="Vector_9" d="M102.612 44.6761H114.015V58.8165H102.524L102.612 44.6761Z" class="room"/>
        </g>
        <g id="SC8">
            <path id="Vector_10" d="M176.257 92.2352H192.358V40.6506H175.92" class="room"/>
        </g>
        <g id="SC9">
            <path id="Vector_11" d="M199.18 91.7668V45.1445H213.115L215.691 40.6653H228.939L231.53 45.1738H249.315V91.7229L199.18 91.7668Z" class="room"/>
        </g>
        <g id="SC10">
            <path id="Vector_12" d="M257.703 45.5398H284.842L286.671 38.7625H299.48L301.529 46.6084H319.797V111.016H292.673V113.051H257.966C257.966 113.051 257.337 46.3888 257.703 45.5398Z" class="room"/>
        </g>
        <g id="SC11">
            <path id="Vector_13" d="M252.111 121.965H292.849V133.676H252.462L252.111 121.965Z" class="room"/>
        </g>
        <g id="Bathroom 1">
            <path id="Vector_14" d="M275.02 235.249H239.888V282.091H275.151L275.02 235.249Z" class="room"/>
        </g>
        <g id="SC12b">
            <path id="Vector_15" d="M285.852 253.547H323.047V283.467H285.734L285.852 253.547Z" class="room"/>
        </g>
        <g id="SC14">
            <path id="Vector_16" d="M332.284 234.283H365.776V276.646H332.737L332.284 234.283Z" class="room"/>
        </g>
        <g id="SC15">
            <path id="Vector_17" d="M374.324 129.811H465.754V155.603H374.266L374.324 129.811Z" class="room"/>
        </g>
        <g id="SC16">
            <path id="Vector_18" d="M401.771 208.096H462.065L462.284 227.125H435.262L435.043 237.972H401.946L401.771 208.096Z" class="room"/>
        </g>
        <g id="SC17">
            <path id="Vector_19" d="M411.08 310.313V351.798L390.909 372.803H378.203V389.139H579.257V310.211L411.08 310.313Z" class="room"/>
        </g>
        <g id="SC18">
            <path id="Vector_20" d="M401.946 245.598H434.867V273.279H427.358V282.545H412.559V269.107H401.946V245.598Z" class="room"/>
        </g>
        <g id="stairs 3">
            <path id="Vector_21" d="M441.162 276.558H455.243V249.287H464.626V235.44H441.059L441.162 276.558Z" class="stair"/>
        </g>
        <g id="SC20">
            <path id="Vector_22" d="M461.436 255.933H487.491V235.293H501.324V276.646H461.436V255.933Z" class="room"/>
        </g>
        <g id="SC20a">
            <path id="Vector_23" d="M470.862 248.804V235.44H481.914V248.833L470.862 248.804Z" class="room"/>
        </g>
        <g id="Bathroom 2">
            <path id="Vector_24" d="M508.351 276.046H540.876V210.555H471.77V226.408H508.029L508.351 276.046Z" class="bathroom"/>
        </g>
        <g id="SC22">
            <path id="Vector_25" d="M590.148 310.225H765.922V389.139H590.089L590.148 310.225Z" class="room"/>
        </g>
        <g id="SC22a">
            <path id="Vector_26" d="M775.217 309.962V388.232H806.089V309.903C806.089 309.903 774.661 309.581 775.217 309.903V309.962Z" class="room"/>
        </g>
        <g id="SC24">
            <path id="Vector_27" d="M548.927 276.309V217.215H723.984V276.426L548.927 276.309Z" class="room"/>
        </g>
        <g id="SC25">
            <path id="Vector_28" d="M732.108 217.215H759.496L759.832 236.245H769.786L769.45 276.382H732.313L732.108 217.215Z" class="room"/>
        </g>
        <g id="SC26">
            <path id="Vector_29" d="M778.145 276.207L777.969 229.131H766.434L766.595 217.215H809.045V276.499L778.145 276.207Z" class="room"/>
        </g>
        <g id="SC27">
            <path id="Vector_30" d="M815.911 319.989H834.018V306.039H881.05V385.085H815.882L815.911 319.989Z" class="room"/>
        </g>
        <g id="SC28">
            <path id="Vector_31" d="M816.54 276.602V208.989H872.78V272.327H859.327V276.499L816.54 276.602Z" class="room"/>
        </g>
        <g id="SC29">
            <path id="Vector_32" d="M881.855 275.987V230.609H962.365V275.899L881.855 275.987Z" class="room"/>
        </g>
        <g id="SC30">
            <path id="Vector_33" d="M971.967 276.602V217.523L1009.06 217.215V276.426L971.967 276.602Z" class="room"/>
        </g>
        <g id="SC31">
            <path id="Vector_34" d="M970.665 305.79H1010.35V385.041H970.738L970.665 305.79Z" class="room"/>
        </g>
        <g id="SC32">
            <path id="Vector_35" d="M1018.62 384.85V215.532H1168.32V385.041" class="room"/>
        </g>
        <g id="stairs 1">
            <path id="Vector_36" d="M252.36 144.552H293.346V206.427H252.36V144.552Z" class="stair"/>
        </g>
        <g id="stairs 2">
            <path id="Vector_37" d="M400.263 163.508H462.108V201.772H400.058L400.263 163.508Z" class="stair"/>
        </g>
        <g id="stairs 4">
            <path id="Vector_38" d="M889.789 306.054H960.549V370.959H889.73L889.789 306.054Z" class="stair"/>
        </g>
    </g>
</svg>
