<svg width="865" height="301" viewBox="0 0 865 301"
    xmlns="http://www.w3.org/2000/svg">
    <g id="GatehouseLevel1">
        <g id="Gatehouse">
            <path id="Vector" opacity="0.55" d="M814.722 14.0404V124.736L465.705 300.553H87.5993V183.886L93.8797 183.81L94.0269 176.822L104.488 176.77L104.626 183.758L210.475 183.235L210.803 104.693H187.924V136.826H159.496L159.819 101.206L151.653 101.533L151.325 61.9889L258.186 61.338L257.906 10.7957H104.483L104.92 136.717H94.0269L93.5899 10.7957L0.34375 10.7909V2.18745H257.859L864.509 0.553223V7.1424L453.287 9.05217V47.2856L500.342 47.9411L500.67 25.7175L768.973 24.0833L769.297 13.9074L814.722 14.0404Z" class="room"/>
        </g>
        <g id="GH108">
            <path id="Vector_2" d="M132.517 199.174H101.87V272.377H132.517V199.174Z" class="room"/>
        </g>
        <g id="GH107">
            <path id="Vector_3" d="M205.572 199.174H138.906V272.377H205.572V199.174Z" class="room"/>
        </g>
        <g id="GH106">
            <path id="Vector_4" d="M377.467 204.694H214.941V269.185H377.467V204.694Z" class="room"/>
        </g>
        <g id="GH105">
            <path id="Vector_5" d="M453.287 204.694H386.184V273.759H453.287V204.694Z" class="room"/>
        </g>
        <g id="GHST01">
            <path id="Vector_6" d="M463.962 78.5497H479.649V131.928H498.604V146.304H463.962V78.5497Z" class="room"/>
        </g>
        <g id="stairs 1">
            <path id="Vector_7" d="M498.604 80.0747H482.917V129.311H498.604V80.0747Z" class="stair"/>
        </g>
        <g id="GH114">
            <path id="Vector_8" d="M578.12 93.3623H507.316V131.486H578.12V93.3623Z" class="room"/>
        </g>
        <g id="Accessible Toilet 1">
            <path id="Vector_9" d="M533.022 33.8887H507.316V54.1503H533.022V33.8887Z" class="accessible-toilet"/>
        </g>
        <g id="Bathroom 1">
            <path id="Vector_10" d="M575.289 33.8887H536.728V69.6185H575.289V33.8887Z" class="bathroom"/>
        </g>
        <g id="Bathroom 2">
            <path id="Vector_11" d="M611.674 33.8887H579.213V69.6185H611.674V33.8887Z" class="bathroom"/>
        </g>
        <g id="GH110">
            <path id="Vector_12" d="M506.661 134.541H582.914V87.0439H506.661V56.5446H530.628L530.847 75.0627H618.43L618.211 32.796H791.848L792.718 108.83L562.434 230.182L505.354 201.863L506.661 134.541Z" class="room"/>
        </g>
        <g id="GH109">
            <path id="Vector_13" d="M449.438 54.1455V65.5471H463.961V74.2646H503.178V54.1455H449.438Z" class="room"/>
        </g>
        <g id="GH102">
            <path id="Vector_14" d="M345.77 9.05212H267.992V57.0909H345.77V9.05212Z" class="room"/>
        </g>
        <g id="GH103">
            <path id="Vector_15" d="M368.644 9.05212H353.613V57.0909H368.644V9.05212Z" class="room"/>
        </g>
        <g id="GH104">
            <path id="Vector_16" d="M388.905 8.77661H373.219V56.8154H388.905V8.77661Z" class="room"/>
        </g>
        <g id="GH101">
            <path id="Vector_17" d="M225.179 67.5329L223.872 195.739H412.108V182.342H373.219V136.261H317.992V88.8777H326.814V98.3552H386.183V76.6399H395.77V114.802H388.906V135.938H381.062V176.456H418.331V195.739H453.287V112.408H441.847V11.4275H394.464V66.5828L225.179 67.5329Z" class="room"/>
        </g>
    </g>
</svg>
