<svg width="679" height="143" viewBox="0 0 679 143"
    xmlns="http://www.w3.org/2000/svg">
    <g id="GraysArtLevel4">
        <g id="4th Floor">
            <path id="Vector" opacity="0.55" d="M0.992676 0.296644V142.134H678.453V0.121826L0.992676 0.296644Z" class="room"/>
        </g>
        <g id="GB1">
            <path id="Vector_2" d="M74.4156 59.4288V7.66309H9.35303V59.4288H74.4156Z" class="room"/>
        </g>
        <g id="GB2">
            <path id="Vector_3" d="M77.5801 7.76295V59.4288H116.045V7.66309L77.5801 7.76295Z" class="room"/>
        </g>
        <g id="GB3">
            <path id="Vector_4" d="M119.342 7.70054V59.304H188.69V7.66309L119.342 7.70054Z" class="room"/>
        </g>
        <g id="GB4">
            <path id="Vector_5" d="M191.473 7.95023V59.7285H302.24V7.66309L191.473 7.95023Z" class="room"/>
        </g>
        <g id="GB5">
            <path id="Vector_6" d="M305.471 7.66309V59.691H393.623V7.70054L305.471 7.66309Z" class="room"/>
        </g>
        <g id="GB7">
            <path id="Vector_7" d="M397.078 59.3414V7.66309H531.739V59.4288L397.078 59.3414Z" class="room"/>
        </g>
        <g id="GB8">
            <path id="Vector_8" d="M535.524 7.67565H625.891V59.7286H535.55C535.55 59.7286 535.379 6.66431 535.524 7.67565Z" class="room"/>
        </g>
        <g id="GB9">
            <path id="Vector_9" d="M649.443 62.5254H669.051V92.3662H649.271L649.443 62.5254Z" class="room"/>
        </g>
        <g id="GB9a">
            <path id="Vector_10" d="M646.7 59.766L646.489 29.4632L668.906 29.2759L669.13 59.6661L646.7 59.766Z" class="room"/>
        </g>
        <g id="GB9b">
            <path id="Vector_11" d="M649.641 96.1245H669.223V134.83H649.601L649.641 96.1245Z" class="room"/>
        </g>
        <g id="GB10">
            <path id="Vector_12" d="M612.52 84.6377H625.193V102.043H606.613V92.9157H612.52V84.6377Z" class="room"/>
        </g>
        <g id="GB11">
            <path id="Vector_13" d="M603.395 84.8623V135.105H492.984V84.9248L603.395 84.8623Z" class="room"/>
        </g>
        <g id="GB11a">
            <path id="Vector_14" d="M606.639 105.626V134.868H625.205V105.626H606.639Z" class="room"/>
        </g>
        <g id="GB12">
            <path id="Vector_15" d="M489.555 84.7251H468.787V113.118H489.674L489.555 84.7251Z" class="room"/>
        </g>
        <g id="GB13">
            <path id="Vector_16" d="M468.787 116.713H489.753V134.88H468.655L468.787 116.713Z" class="room"/>
        </g>
        <g id="GB14">
            <path id="Vector_17" d="M397.078 84.7124H465.45V135.255H397.078V84.7124Z" class="room"/>
        </g>
        <g id="GB14a">
            <path id="Vector_18" d="M373.012 105.901H393.623V135.405H373.078L373.012 105.901Z" class="room"/>
        </g>
        <g id="GB15a">
            <path id="Vector_19" d="M213.151 84.4004V92.8782L251.208 93.1404V84.7749L213.151 84.4004Z" class="room"/>
        </g>
        <g id="GB16">
            <path id="Vector_20" d="M210.329 84.7H167.526V92.8531H210.329V84.7Z" class="room"/>
        </g>
        <g id="GB17">
            <path id="Vector_21" d="M165.284 84.2756H154.643V135.467H210.33V94.8885H165.324L165.284 84.2756Z" class="room"/>
        </g>
        <g id="GB18">
            <path id="Vector_22" d="M151.306 84.4004V135.405H121.795V84.2131L151.306 84.4004Z" class="room"/>
        </g>
        <g id="GB19">
            <path id="Vector_23" d="M118.63 84.4004H108.898V94.5887H118.696L118.63 84.4004Z" class="room"/>
        </g>
        <g id="Bathroom 1">
            <path id="Vector_24" d="M91.9141 97.323H118.656V135.404H92.0063L91.9141 97.323Z" class="bathroom"/>
        </g>
        <g id="Bathroom 2">
            <path id="Vector_25" d="M53.6992 96.886H81.391V134.967H53.7651L53.6992 96.886Z" class="bathroom"/>
        </g>
        <g id="GB20">
            <path id="Vector_26" d="M53.9761 84.2756H64.2748V94.3891H53.7256L53.9761 84.2756Z" class="room"/>
        </g>
        <g id="GB21">
            <path id="Vector_27" d="M29.6735 81.179V61.926H9.35303V81.3912L29.6735 81.179Z" class="room"/>
        </g>
        <g id="stairs 4">
            <path id="Vector_28" d="M9.74854 83.6511H29.6734V135.404H9.81445L9.74854 83.6511Z" class="stair"/>
        </g>
        <g id="GB22">
            <path id="Vector_29" d="M629.096 59.8409H643.601V25.7174L668.972 25.5177V7.47583L629.412 7.66311L629.096 59.8409Z" class="room"/>
        </g>
        <g id="stairs 5">
            <path id="Vector_30" d="M628.344 85.8362H646.542V127.239H628.344V85.8362Z" class="stair"/>
        </g>
        <g id="stairs 1">
            <path id="Vector_31" d="M326.807 84.0259H347.786V127.214H326.767L326.807 84.0259Z" class="stair"/>
        </g>
        <g id="stairs 3">
            <path id="Vector_32" d="M32.126 85.6489H51.0751V124.904H32.3106L32.126 85.6489Z" class="stair"/>
        </g>
        <g id="GB15">
            <path id="GB15_2" d="M280.733 84.5627V95.0258H262.588V84.5627H254.241V95.1756H212.914L213.072 135.392H302.029L301.976 84.5627H280.733Z" class="room"/>
        </g>
        <g id="stairs 2">
            <path id="Vector_33" d="M277.555 84.7H265.463V92.8656H277.555V84.7Z" class="stair"/>
        </g>
    </g>
</svg>
