<svg width="700" height="151" viewBox="0 0 700 151" transform="scale(-1,-1)"
    xmlns="http://www.w3.org/2000/svg">
    <g id="GraysArtLevel5">
        <g id="5th Floor">
            <path id="Vector"   d="M23.2243 150.496H0.43457V0.51001H699.268V150.441L23.2243 150.496Z" class="background"/>
        </g>
        <g id="GB21m">
            <path id="Vector_2" d="M6.25648 143.942H25.8656V110.116H6.15967L6.25648 143.942Z" class="room"/>
        </g>
        <g id="GM2a">
            <path id="Vector_3" d="M53.0806 131.302V89.3594H80.738V131.468L53.0806 131.302Z" class="room"/>
        </g>
        <g id="GM2b">
            <path id="Vector_4" d="M53.1774 135.077H80.9731V143.941H53.0806L53.1774 135.077Z" class="room"/>
        </g>
        <g id="GM2c">
            <path id="Vector_5" d="M94.0962 143.941V90.0095H121.256V143.845L94.0962 143.941Z" class="room"/>
        </g>
        <g id="stairs 2">
            <path id="Vector_6" d="M29.4611 131.468H48.9872V102.179H29.4058L29.4611 131.468Z" class="stair"/>
        </g>
        <g id="GB15m">
            <path id="Vector_7" d="M214.738 89.2903H309.479V127.347V127.61H214.614L214.738 89.2903Z" class="room"/>
        </g>
        <g id="stairs 1">
            <path id="Vector_8" d="M25.8656 89.9956H6.15967V106.217H25.8656V89.9956Z" class="stair"/>
        </g>
    </g>
</svg>
