<svg width="556" height="151" viewBox="0 0 556 151"
    xmlns="http://www.w3.org/2000/svg">
    <g id="GraysArtLevel6">
        <g id="6th floor">
            <path id="Vector"   d="M31.8315 127.652H0V58.1096H233.414V0.360107H555.902V150.343H232.958V91.2083H32.3046L31.8315 127.652Z" class="background"/>
        </g>
        <g id="GC1">
            <path id="Vector_2" d="M240.054 59.0389V8.03076H319.464V59.3092L240.054 59.0389Z" class="room"/>
        </g>
        <g id="GC2">
            <path id="Vector_3" d="M323.333 8.03076H376.909V58.9037H323.181L323.333 8.03076Z" class="room"/>
        </g>
        <g id="GC3">
            <path id="Vector_4" d="M380.778 8.03076H465.443V59.0726H409.687V53.3112H407.288V59.2247H395.799V53.3112H380.778V8.03076Z" class="room"/>
        </g>
        <g id="GC4/GC5">
            <path id="Vector_5" d="M470.055 8.03076H548.451V143.196H469.802L470.055 8.03076Z" class="room"/>
        </g>
        <g id="GC6">
            <path id="Vector_6" d="M409.788 91.8672H440.336V122.195H465.257V143.247H409.501L409.788 91.8672Z" class="room"/>
        </g>
        <g id="GC7">
            <path id="Vector_7" d="M376.825 91.9517V143.247H322.606V92.0023L376.825 91.9517Z" class="room"/>
        </g>
        <g id="GC8">
            <path id="Vector_8" d="M318.264 92.1713V143.315H240.054V91.7996L318.264 92.1713Z" class="room"/>
        </g>
        <g id="stairs 2">
            <path id="Vector_9" d="M380.778 91.8502C380.778 91.8502 405.581 91.1237 405.361 91.8502C405.142 92.5768 405.75 142.351 405.361 142.977C404.973 143.602 380.728 142.977 380.728 142.977L380.778 91.8502Z" class="stair"/>
        </g>
        <g id="stairs 1">
            <path id="Vector_10" d="M6.63993 80.9019H27.7596V121.367H6.4541L6.63993 80.9019Z" class="stair"/>
        </g>
    </g>
</svg>
