<svg width="664" height="125" viewBox="0 0 664 125" fill="none" xmlns="http://www.w3.org/2000/svg">
<g id="GraysArtLevel1">
<g id="1st Floor">
<path id="Vector" opacity="0.55" d="M0.505829 0H663.417V125H0.379883L0.505829 0Z" fill="#75378F"/>
</g>
<g id="GP1a">
<path id="Vector_2" d="M106.991 5.70984H134.771V21.2019H106.865L106.991 5.70984Z" fill="#75378F"/>
</g>
<g id="GP1">
<path id="Vector_3" d="M134.77 28.3531H100.651V5.70984H16.5015V106.401H134.644L134.77 28.3531Z" fill="#75378F"/>
</g>
<g id="DHST01">
<path id="Vector_4" d="M187.572 42.5016H161.64V27.1075H187.81L187.572 42.5016Z" fill="#75378F"/>
</g>
<g id="stairs 2">
<path id="Vector_5" d="M167.364 46.1263V71.3167H187.81V46.1263H167.364Z" fill="#B03A4F"/>
</g>
<g id="DHP1">
<path id="Vector_6" d="M214.33 26.9397V54.8449H384.336L383.945 32.4535L332.864 31.8238V25.5542L435.025 25.988V32.7755L390.956 32.2996V54.8449H451.133V26.9817H458.872V116.701H191.798V27.0096L214.33 26.9397Z" fill="#75378F"/>
</g>
<g id="DHP2">
<path id="Vector_7" d="M462.329 62.472H474.924V73.052H462.329V62.472Z" fill="#75378F"/>
</g>
<g id="DHP3">
<path id="Vector_8" d="M462.216 77.0265V91.4549H474.602V77.0125L462.216 77.0265Z" fill="#75378F"/>
</g>
<g id="DHP4">
<path id="Vector_9" d="M462.23 94.9256V116.701H497.315V75.613H477.569V94.9116L462.23 94.9256Z" fill="#75378F"/>
</g>
<g id="stairs 3">
<path id="Vector_10" d="M477.723 40.6265H497.315V66.9783H477.723V40.6265Z" fill="#B03A4F"/>
</g>
<g id="DHP18">
<path id="Vector_11" d="M438.972 27.3035H448.768V51.878H438.846L438.972 27.3035Z" fill="#75378F"/>
</g>
<g id="DHP9">
<path id="Vector_12" d="M332.976 35.0006H339.176V51.4863H332.822L332.976 35.0006Z" fill="#75378F"/>
</g>
<g id="DHP10">
<path id="Vector_13" d="M342.325 35.1266H348.678V51.3603H342.367L342.325 35.1266Z" fill="#75378F"/>
</g>
<g id="DHP11">
<path id="Vector_14" d="M352.442 35.0985H359.118V51.3883H352.121L352.442 35.0985Z" fill="#75378F"/>
</g>
<g id="DHP12">
<path id="Vector_15" d="M362.561 35.2245H369.068V51.7381H362.533L362.561 35.2245Z" fill="#75378F"/>
</g>
<g id="DHP13">
<path id="Vector_16" d="M372.945 35.1125H379.844V51.3603H372.847L372.945 35.1125Z" fill="#75378F"/>
</g>
<g id="DHP14">
<path id="Vector_17" d="M395.224 35.1545H402.221V51.6262H395.224C395.224 51.6262 394.748 35.0565 395.224 35.1545Z" fill="#75378F"/>
</g>
<g id="DHP15">
<path id="Vector_18" d="M405.986 35.1965H412.983V51.7661H405.888L405.986 35.1965Z" fill="#75378F"/>
</g>
<g id="DHP16">
<path id="Vector_19" d="M416.146 35.3505H423.648V51.6122H416.146V35.3505Z" fill="#75378F"/>
</g>
<g id="DHP17">
<path id="Vector_20" d="M427.65 35.2245H435.011V51.4862H427.594L427.65 35.2245Z" fill="#75378F"/>
</g>
<g id="DHP7">
<path id="Vector_21" d="M218.542 26.9817H235.979V51.9761H218.472L218.542 26.9817Z" fill="#75378F"/>
</g>
<g id="DHP8">
<path id="Vector_22" d="M240.29 26.8417H257.629V52.032H240.332L240.29 26.8417Z" fill="#75378F"/>
</g>
<g id="DHP1a">
<path id="Vector_23" d="M261.73 26.9396H329.128V51.878H261.66L261.73 26.9396Z" fill="#75378F"/>
</g>
<g id="GP6">
<path id="Vector_24" d="M525.836 48.0995H560.697V102.902H525.71L525.836 48.0995Z" fill="#75378F"/>
</g>
<g id="GP7">
<path id="Vector_25" d="M560.585 44.5449V24.5745H538.865V21.8876H525.822V44.5868L560.585 44.5449Z" fill="#75378F"/>
</g>
<g id="GP3">
<path id="Vector_26" d="M583.41 3.83447H576.86V17.9831H583.34L583.41 3.83447Z" fill="#75378F"/>
</g>
<g id="GP3a">
<path id="Vector_27" d="M586.433 4.24036H610.909V17.8431H586.475L586.433 4.24036Z" fill="#75378F"/>
</g>
<g id="GP4">
<path id="Vector_28" d="M576.805 20.4882H583.41V34.6507H576.847L576.805 20.4882Z" fill="#75378F"/>
</g>
<g id="GP4a">
<path id="Vector_29" d="M586.573 20.2922H605.074V34.6088H586.573V20.2922Z" fill="#75378F"/>
</g>
<g id="GP5a">
<path id="Vector_30" d="M610.49 35.2384V28.2411H614.87V3.83447H643.825V34.2028H622.777V35.3364L610.49 35.2384Z" fill="#75378F"/>
</g>
<g id="GP5">
<path id="Vector_31" d="M647.715 3.83447H660.045V116.701H512.821V106.429H647.52L647.715 3.83447Z" fill="#75378F"/>
</g>
<g id="stairs 1">
<path id="Vector_32" d="M418.707 4.24036V13.4908H481.025V4.4363L418.707 4.24036Z" fill="#B03A4F"/>
</g>
<g id="DHP6">
<path id="path22598" d="M187.628 91.5248H167.294V76.1307H187.81L187.628 91.5248Z" fill="#75378F"/>
</g>
<g id="DHP5">
<path id="path22598_2" d="M187.656 116.701H167.336V95.8352H187.852L187.656 116.701Z" fill="#75378F"/>
</g>
<g id="DHP4a">
<path id="Vector_33" d="M486.175 69.5253H477.723V73.0799H486.175V69.5253Z" fill="#75378F"/>
</g>
<g id="DHP4b">
<path id="Vector_34" d="M497.301 69.5253H489.156V73.0799H497.301V69.5253Z" fill="#75378F"/>
</g>
<g id="DHST02">
<path id="Vector_35" d="M462.231 58.1336H474.602L474.756 37.7575H497.455L497.301 27.3035H462.203L462.231 58.1336Z" fill="#75378F"/>
</g>
</g>
</svg>
