<svg width="678" height="501" viewBox="0 0 678 501" fill="none" xmlns="http://www.w3.org/2000/svg">
<g id="GraysArtLevel2">
<g id="2nd Floor">
<path id="Vector" opacity="0.55" d="M677.373 178.494V167.13H655.967V104.498H676.184V83.0921H666.934V55.8722H677.109V10.4177H656.231V21.6492H363.155V0.77179H320.608V15.9673H334.746V21.7813H30.1744L30.3066 81.5065H0.179688V103.705H10.0898V109.916H19.6036V117.844H10.8827V157.22H30.1744V170.83H21.1892V189.065H30.4387V272.838H27.9281V217.342H1.50104V263.06H12.0719V232.537H17.3573V273.499H8.10781V302.965H17.2252V292.791H29.9101V347.363H23.4355V337.32H14.3182V347.363H10.7505V372.997H30.1744V490.597H171.031V372.733H318.626V405.634H184.376V500.772H499.387V405.767H342.014V373.261H418.917V383.7H484.456V372.865H513.658V490.201H655.835V339.302H675.655V327.542H656.099V178.494H677.373ZM486.081 350.93H200.061V182.458H486.081V350.93Z" fill="#75378F"/>
</g>
<g id="GA1">
<path id="Vector_2" d="M40.4546 414.91H160.063V482.088H40.4546V414.91Z" fill="#75378F"/>
</g>
<g id="GA5">
<path id="Vector_3" d="M133.398 295.381H140.943V305.238H144.709V345.143H133.504L133.398 295.381Z" fill="#75378F"/>
</g>
<g id="GA6a">
<path id="Vector_4" d="M94.1146 276.644H107.817V230.74H93.9956L94.1146 276.644Z" fill="#75378F"/>
</g>
<g id="GA7">
<path id="Vector_5" d="M40.7982 295.381H68.5466V321.028H40.4546L40.7982 295.381Z" fill="#75378F"/>
</g>
<g id="GA8">
<path id="Vector_6" d="M72.4048 295.381H96.6384V321.028H84.5216V305.449H82.9756L82.8567 321.028H72.4973L72.4048 295.381Z" fill="#75378F"/>
</g>
<g id="GA9">
<path id="Vector_7" d="M100.867 295.381H129.487V345.275H100.867V334.863H90.9565V326.38H100.867V295.381Z" fill="#75378F"/>
</g>
<g id="GA10a">
<path id="Vector_8" d="M79.3949 259.77H89.9658V276.644H79.2231L79.3949 259.77Z" fill="#75378F"/>
</g>
<g id="GA11">
<path id="Vector_9" d="M79.2759 229.617H90.3752V242.46H79.2759V229.617Z" fill="#75378F"/>
</g>
<g id="GA12">
<path id="Vector_10" d="M90.2959 245.764V255.793H79.3154V245.526L90.2959 245.764Z" fill="#75378F"/>
</g>
<g id="GA13">
<path id="Vector_11" d="M80.5972 225.693V213.232H88.1553V225.693H80.5972Z" fill="#75378F"/>
</g>
<g id="GA13a">
<path id="Vector_12" d="M92.9385 209.942V225.693H103.985V209.942H92.9385Z" fill="#75378F"/>
</g>
<g id="GA15">
<path id="Vector_13" d="M144.352 166.813H107.817V225.692H144.471L144.352 166.813Z" fill="#75378F"/>
</g>
<g id="GA16a">
<path id="Vector_14" d="M40.6924 214.778H48.158V230.74H40.7585L40.6924 214.778Z" fill="#75378F"/>
</g>
<g id="GA17">
<path id="Vector_15" d="M52.6904 214.778H68.5467V225.693H52.6904V214.778Z" fill="#75378F"/>
</g>
<g id="GA18">
<path id="Vector_16" d="M122.088 146.781H144.009V163.8H122.088V146.781Z" fill="#75378F"/>
</g>
<g id="GA19">
<path id="Vector_17" d="M144.009 127.608V144.641H122.088V127.463L144.009 127.608Z" fill="#75378F"/>
</g>
<g id="GA20">
<path id="Vector_18" d="M122.088 108.911H130.28V125.164H122.088V108.911Z" fill="#75378F"/>
</g>
<g id="GA23">
<path id="Vector_19" d="M72.6821 103.943H105.637V120.13H72.6821V103.943Z" fill="#75378F"/>
</g>
<g id="GA20a">
<path id="Vector_20" d="M133.808 108.911H143.771V125.296H133.808V108.911Z" fill="#75378F"/>
</g>
<g id="Bathroom 2">
<path id="Vector_21" d="M92.3575 124.318L117.648 124.437V163.959H92.1196L92.3575 124.318Z" fill="#4B337F"/>
</g>
<g id="GA29">
<path id="Vector_22" d="M40.679 141.932H57.4601V164.236H40.5732L40.679 141.932Z" fill="#75378F"/>
</g>
<g id="GA24">
<path id="Vector_23" d="M183.61 110.603H243.996V162.638H183.61V110.603Z" fill="#75378F"/>
</g>
<g id="GA25">
<path id="Vector_24" d="M248.251 110.603H275.431V162.135H248.013L248.251 110.603Z" fill="#75378F"/>
</g>
<g id="GA26">
<path id="Vector_25" d="M280.148 110.603H310.341V125.296H280.28L280.148 110.603Z" fill="#75378F"/>
</g>
<g id="GA27">
<path id="Vector_26" d="M280.28 131.388H310.579V162.545H280.188L280.28 131.388Z" fill="#75378F"/>
</g>
<g id="GA28">
<path id="Vector_27" d="M375.471 134.189H418.243V162.638H375.101L375.471 134.189Z" fill="#75378F"/>
</g>
<g id="GA30">
<path id="Vector_28" d="M395.383 110.246H418.243V129.181H395.383V110.246Z" fill="#75378F"/>
</g>
<g id="GA31">
<path id="Vector_29" d="M92.1196 29.6169V84.1624H40.8379V29.3527L92.1196 29.6169Z" fill="#75378F"/>
</g>
<g id="GA32">
<path id="Vector_30" d="M96.9028 84.0302V29.749H148.832V84.2945L96.9028 84.0302Z" fill="#75378F"/>
</g>
<g id="GA33">
<path id="Vector_31" d="M153.721 29.6169H203.747V84.2945H153.417C153.417 84.2945 153.8 30.2643 153.721 29.6169Z" fill="#75378F"/>
</g>
<g id="GA34">
<path id="Vector_32" d="M235.288 84.4134V78.2956H249.347V84.5456L235.288 84.4134Z" fill="#75378F"/>
</g>
<g id="GA34a">
<path id="Vector_33" d="M207.989 29.868H228.88V59.6645H231.681V84.2945H207.896L207.989 29.868Z" fill="#75378F"/>
</g>
<g id="GA34b">
<path id="Vector_34" d="M232.46 29.868H260.05V84.1624H252.822V74.6222H235.156V55.4098H232.328L232.46 29.868Z" fill="#75378F"/>
</g>
<g id="GA35">
<path id="Vector_35" d="M275.695 84.6777H299.995V72.9441L283.729 72.8648V71.5435H301.712V84.6777H330.782V29.4848H293.361V50.1243H291.934L291.736 29.4848H275.431L275.695 84.6777Z" fill="#75378F"/>
</g>
<g id="GA36">
<path id="Vector_36" d="M376.356 84.8099V43.0287H356.113V29.1809H463.46V58.6471H456.998V84.5456L376.356 84.8099Z" fill="#75378F"/>
</g>
<g id="GA39">
<path id="Vector_37" d="M467.529 29.3527V39.5403H488.288V29.1016L467.529 29.3527Z" fill="#75378F"/>
</g>
<g id="GA39_2">
<path id="Vector_38" d="M492.952 29.3527V84.8495H577.175V29.3527H492.952Z" fill="#75378F"/>
</g>
<g id="GA43">
<path id="Vector_39" d="M581.839 29.868V84.6777H631.179V29.4848L581.839 29.868Z" fill="#75378F"/>
</g>
<g id="GA43a">
<path id="Vector_40" d="M636.015 29.3527H646.07V50.3225H636.015V29.3527Z" fill="#75378F"/>
</g>
<g id="GA46">
<path id="Vector_41" d="M540.732 108.462V166.681H601.95V117.513H603.43V108.462C603.43 108.462 540.97 108.052 540.732 108.462Z" fill="#75378F"/>
</g>
<g id="GA47">
<path id="Vector_42" d="M612.561 108.462H623.132V144.588H612.231V152.952H607.368V119.244H608.557V117.513H612.627L612.561 108.462Z" fill="#75378F"/>
</g>
<g id="GA47a">
<path id="Vector_43" d="M614.953 148.539H623.171V152.978H614.953V148.539Z" fill="#75378F"/>
</g>
<g id="GA45">
<path id="Vector_44" d="M461.993 110.484H502.439V162.545H461.874C461.742 162.545 461.874 110.114 461.993 110.484Z" fill="#75378F"/>
</g>
<g id="GA44">
<path id="Vector_45" d="M423.277 110.484H458.531V162.915H422.854L423.277 110.484Z" fill="#75378F"/>
</g>
<g id="GA48">
<path id="Vector_46" d="M540.375 171.676H588.578V227.516H547.616V237.611H540.19L540.375 171.676Z" fill="#75378F"/>
</g>
<g id="GA49">
<path id="Vector_47" d="M540.138 241.919H584.654V243.729H586.874V283.37H540.019L540.138 241.919Z" fill="#75378F"/>
</g>
<g id="Bathroom 4">
<path id="Vector_48" d="M564.556 304.657H588.578V332.55H564.318L564.556 304.657Z" fill="#4B337F"/>
</g>
<g id="GA56">
<path id="Vector_49" d="M539.899 304.524H560.182V332.55H543.837V324.424H539.662L539.899 304.524Z" fill="#75378F"/>
</g>
<g id="GA57">
<path id="Vector_50" d="M540.943 337.73H560.182V369.654H540.877L540.943 337.73Z" fill="#75378F"/>
</g>
<g id="Bathroom 3">
<path id="Vector_51" d="M564.543 337.862H588.578V370.301H564.186L564.543 337.862Z" fill="#4B337F"/>
</g>
<g id="GA54">
<path id="Vector_52" d="M594.313 262.585H646.586V342.844H629.739V369.918H599.017V365.782H593.864L594.313 262.585Z" fill="#75378F"/>
</g>
<g id="GA53">
<path id="Vector_53" d="M593.837 256.982V171.676H606.364V195.275H609.429V191.218H622.801V195.394H647.313V257.22L593.837 256.982Z" fill="#75378F"/>
</g>
<g id="GA53b">
<path id="Vector_54" d="M609.905 171.676H621.797V187.109H609.984L609.905 171.676Z" fill="#75378F"/>
</g>
<g id="GA53c">
<path id="Vector_55" d="M625.365 171.676H646.916V191.958H625.246L625.365 171.676Z" fill="#75378F"/>
</g>
<g id="GA59">
<path id="Vector_56" d="M635.024 349.107H646.678V482.735H521.533V348.459H533.953V375.97H635.262L635.024 349.107Z" fill="#75378F"/>
</g>
<g id="stairs 6">
<path id="Vector_57" d="M629.064 108.304H646.083V164.699H628.483L629.064 108.304Z" fill="#B03A4F"/>
</g>
<g id="stairs 11">
<path id="Vector_58" d="M334.905 145.803H351.514V113.417H335.024C334.905 113.536 334.905 145.552 334.905 145.803Z" fill="#B03A4F"/>
</g>
<g id="stairs 4">
<path id="Vector_59" d="M264.517 84.2945H271.322V39.3685H264.107L264.517 84.2945Z" fill="#B03A4F"/>
</g>
<g id="stairs 2">
<path id="Vector_60" d="M40.6924 137.624H57.4604V103.507H40.7981L40.6924 137.624Z" fill="#B03A4F"/>
</g>
<g id="stairs 8">
<path id="Vector_61" d="M540.019 285.656V291.853H566.631V285.788L540.019 285.656Z" fill="#B03A4F"/>
</g>
<g id="stairs 10">
<path id="Vector_62" d="M209.627 413.549H190.283V448.499H209.376L209.627 413.549Z" fill="#B03A4F"/>
</g>
<g id="DHA6">
<path id="Vector_63" d="M190.283 452.014H210.024V463.906H190.415L190.283 452.014Z" fill="#75378F"/>
</g>
<g id="DHA5">
<path id="Vector_64" d="M190.415 467.17H209.892V492.54H190.415V467.17Z" fill="#75378F"/>
</g>
<g id="DHA2">
<path id="Vector_65" d="M461.332 447.363H467.701V456.612H461.332V447.363Z" fill="#75378F"/>
</g>
<g id="DHA3">
<path id="Vector_66" d="M461.332 458.872H469.974V473.235H461.332V458.872Z" fill="#75378F"/>
</g>
<g id="DHA4">
<path id="Vector_67" d="M461.2 475.309H474.228V459.942H493.573V492.487H461.332L461.2 475.309Z" fill="#75378F"/>
</g>
<g id="DHA4a">
<path id="Vector_68" d="M474.096 454.881V452.014H493.573V454.881H474.096Z" fill="#75378F"/>
</g>
<g id="stairs 9">
<path id="Vector_69" d="M461.2 413.774V443.993H475.127V447.534H492.793V413.88H461.2V413.774Z" fill="#B03A4F"/>
</g>
<g id="DHA1">
<path id="Vector_70" d="M214.913 413.893V492.659H456.998V413.999L214.913 413.893Z" fill="#75378F"/>
</g>
<g id="stairs 3">
<path id="Vector_71" d="M356.113 47.1381H371.969V84.6777H355.98L356.113 47.1381Z" fill="#B03A4F"/>
</g>
<g id="stairs 5">
<path id="Vector_72" d="M646.242 84.6777H635.922V60.4705H646.493L646.242 84.6777Z" fill="#B03A4F"/>
</g>
<g id="stairs 7">
<path id="Vector_73" d="M551.594 231.758H588.816V237.611H551.594V231.758Z" fill="#B03A4F"/>
</g>
<g id="GA41">
<path id="Vector_74" d="M467.78 44.3104H488.288V84.6777H461.979V62.8886H467.78V44.3104Z" fill="#75378F"/>
</g>
<g id="GA3">
<path id="Vector_75" d="M148.752 325.164V348.909H90.4807V354.96H47.3518V325.481L40.5732 325.547L41.3396 409.704H160.605L159.839 325.164H148.752Z" fill="#75378F"/>
</g>
<g id="GA4">
<path id="Vector_76" d="M51.9239 349.913H86.5434V325.164L51.8711 325.481L51.9239 349.913Z" fill="#75378F"/>
</g>
<g id="GA16">
<path id="Vector_77" d="M57.4603 167.13L40.917 167.328V211.039H57.4603V167.13Z" fill="#75378F"/>
</g>
<g id="stairs 1">
<path id="Vector_78" d="M68.4935 179.63H61.8604V211.039H68.4935V179.63Z" fill="#B03A4F"/>
</g>
<g id="GA10">
<path id="Vector_79" d="M112.481 230.172V280.582H76.0648L76.0252 228.89H72.9729V229.842H73.0389V229.908H52.6108V235.193H40.3354V290.65H143.89V230.172H112.481Z" fill="#75378F"/>
</g>
<g id="GA15_2">
<path id="Vector_80" d="M76.1839 177.49H96.9424V179.141H79.2495V208.211H89.1993V205.582H103.919V179.273H102.149L101.699 177.49H103.47V166.694L63.0629 166.628L62.8911 176.419H72.8277L72.9202 225.693H76.3028L76.1839 177.49Z" fill="#75378F"/>
</g>
<g id="Bathroom 1">
<path id="Vector_81" d="M70.1455 123.407L61.1074 123.42V163.351H85.6053V123.407H70.1455Z" fill="#4B337F"/>
</g>
<g id="GA22">
<path id="Vector_82" d="M69.3923 103.956L61.1074 104.168V120.116L69.4848 120.103L69.3923 103.956Z" fill="#75378F"/>
</g>
<g id="GA21">
<path id="Vector_83" d="M117.648 103.956H109.363V120.13H117.648V103.956Z" fill="#75378F"/>
</g>
</g>
</svg>
