<svg width="769" height="501" viewBox="0 0 769 501" transform="scale(-1,-1)"
    xmlns="http://www.w3.org/2000/svg">
    <g id="IshbelGordonLevel1">
        <g id="level 1">
            <path id="Vector"   d="M1.053 0.966309H107.648V51.2783H174.662V78.3908H435.213V74.9707H497.242V80.1519H705.829V75.9386H751.87V173.245H768.885V246.694H750.702V424.386H705.773V420.514H496.342V425.467H435.399V419.318H174.872V448.072H108.09V500.966H0L1.053 0.966309Z" class="background"/>
        </g>
        <g id="level 1 stairs 3">
            <path id="Vector_2" d="M118.308 371.691H146.083V365.466H169.209V417.433H118.248L118.308 371.691Z" class="stair"/>
        </g>
        <g id="level 1 lift 2">
            <path id="Vector_3" d="M117.831 339.197H138.96V355.157H117.562L117.831 339.197Z" class="lift"/>
        </g>
        <g id="level 1 lift 1">
            <path id="Vector_4" d="M117.831 291.359V307.501H139.079V291.572L117.831 291.359Z" class="lift"/>
        </g>
        <g id="H101">
            <path id="Vector_5" d="M141.165 290.687V309.485H151.059V290.779L141.165 290.687Z" class="room"/>
        </g>
        <g id="H102">
            <path id="Vector_6" d="M109.069 248.71H150.881V289.601H115.923V272.024H110.589V311.084H115.864V309.283H119.053V337.083H115.476V412.066H108.95L109.069 248.71Z" class="room"/>
        </g>
        <g id="H103">
            <path id="Vector_7" d="M150.6 167.127V247.047H109.236V167.188L150.6 167.127Z" class="room"/>
        </g>
        <g id="H104">
            <path id="Vector_8" d="M109.146 125.896V165.078H144.729V125.835C144.729 125.835 109.116 125.377 109.146 125.896Z" class="room"/>
        </g>
        <g id="level 1 stairs 1">
            <path id="Vector_9" d="M119.13 83.2963C119.13 84.0287 119.13 119.518 119.13 119.518H159.66V125.53H169.196V82.625L119.13 83.2963Z" class="stair"/>
        </g>
        <g id="H105">
            <path id="Vector_10" d="M168.807 203.154V150.698H171.638V87.4397H221.764V203.612C221.764 203.612 169.314 202.361 168.807 203.154Z" class="room"/>
        </g>
        <g id="H106">
            <path id="Vector_11" d="M222.837 87.5312V203.368H274.871V87.3481L222.837 87.5312Z" class="room"/>
        </g>
        <g id="H107">
            <path id="Vector_12" d="M276.002 157.006V224.232H315.221V156.915L276.002 157.006Z" class="room"/>
        </g>
        <g id="H105/1">
            <path id="Vector_13" d="M168.891 205.221V223.866H203.52V204.794C203.52 204.794 169.07 204.824 168.891 205.221Z" class="room"/>
        </g>
        <g id="H106/1">
            <path id="Vector_14" d="M241.093 205.16V223.927H274.887V204.824L241.093 205.16Z" class="room"/>
        </g>
        <g id="H108">
            <path id="Vector_15" d="M315.309 249.484H227.216V307.342H315.279L315.309 249.484Z" class="room"/>
        </g>
        <g id="H109">
            <path id="Vector_16" d="M168.775 332.751H171.725V347.49H187.282V357.59H280.53V347.795H297.219V357.651H315.07V330.95H299.484V328.723H307.262V309.467H225.457V248.833H168.894L168.775 332.751Z" class="room"/>
        </g>
        <g id="H110">
            <path id="Vector_17" d="M316.888 330.905H333.189V305.211H396.607V408.842H381.646V412.382H316.888C316.888 412.382 316.59 330.6 316.888 330.905Z" class="room"/>
        </g>
        <g id="H111">
            <path id="Vector_18" d="M276.28 87.7297H333.081V155.596H276.161L276.28 87.7297Z" class="room"/>
        </g>
        <g id="H112">
            <path id="Vector_19" d="M334.989 169.237V91.178H396.41V168.84L334.989 169.237Z" class="room"/>
        </g>
        <g id="H113">
            <path id="Vector_20" d="M334.78 249.163H345.538V266.435H334.631L334.78 249.163Z" class="room"/>
        </g>
        <g id="H113/1">
            <path id="Vector_21" d="M346.522 267.228H334.869V276.352H356.118V287.673H351.707V278.702H334.989V298.751H337.075V303.45H351.767V294.753H354.33V303.328C354.33 303.328 380.138 304.243 380.138 303.328C380.138 302.412 380.138 286.941 380.138 286.941H364.045V284.195H382.164V249.468H346.373L346.522 267.228Z" class="room"/>
        </g>
        <g id="H114">
            <path id="Vector_22" d="M362.334 203.592H372.175V224.306H362.25L362.334 203.592Z" class="room"/>
        </g>
        <g id="H114/1">
            <path id="Vector_23" d="M378.686 202.146V203.851H373.587V223.637H414.426V171.549H361.828V185.445H359.194V171.247H335.023V198.499H343.347V200.377H335.255V223.68H359.974V200.528H351.608V197.917H362.165V202.34L378.686 202.146Z" class="room"/>
        </g>
        <g id="H115">
            <path id="Vector_24" d="M405.385 249.567H414.489V266.009H405.428L405.385 249.567Z" class="room"/>
        </g>
        <g id="H115/1">
            <path id="Vector_25" d="M403.995 267.519H414.489V284.479H403.868V286.572H414.826V303.403H398.305V293.434H394.111V297.642H384.544V286.702H395.502V284.264C395.502 284.264 384.882 284.523 384.882 284.264C384.882 284.005 384.882 249.696 384.882 249.696H403.868L403.995 267.519Z" class="room"/>
        </g>
        <g id="H116">
            <path id="Vector_26" d="M440.247 257.531H452.659V271.923H440.205L440.247 257.531Z" class="room"/>
        </g>
        <g id="H117">
            <path id="Vector_27" d="M463.976 248.404V275.117H473.627V248.339L463.976 248.404Z" class="room"/>
        </g>
        <g id="H117/1">
            <path id="Vector_28" d="M462.521 248.102V275.052H454.513V248.253L462.521 248.102Z" class="room"/>
        </g>
        <g id="H117/2">
            <path id="Vector_29" d="M473.711 276.708H439.973V326.66H473.837L473.711 276.708Z" class="room"/>
        </g>
        <g id="H118">
            <path id="Vector_30" d="M462.627 223.468V212.075H473.564V223.532L462.627 223.468Z" class="room"/>
        </g>
        <g id="H118/1">
            <path id="Vector_31" d="M438.393 221.396H460.52V210.068H471.793V172.76H438.161L438.393 221.396Z" class="room"/>
        </g>
        <g id="level 1 lift 3">
            <path id="Vector_32" d="M458.096 339.435H473.521V360.215H458.096V339.435Z" class="lift"/>
        </g>
        <g id="H119">
            <path id="Vector_33" d="M440.121 362.761H475.966V369.946H466.125V377.218H440.1L440.121 362.761Z" class="room"/>
        </g>
        <g id="H120">
            <path id="Vector_34" d="M493.3 368.583V329.398H514.394V353.824H533.149V355.227H535.256V324.759H529.988V313.949H521.98V255.633H548.511V328.595H575.941V395.393H577.185V377.203H600.049V412.008H510.005V406.98V368.658L493.3 368.583Z" class="room"/>
        </g>
        <g id="H120/1">
            <path id="Vector_35" d="M494.453 370.838H507.855V391.984H494.474L494.453 370.838Z" class="room"/>
        </g>
        <g id="H120/2">
            <path id="Vector_36" d="M516.516 326.68H533.353V351.947H516.621L516.516 326.68Z" class="room"/>
        </g>
        <g id="H120/3">
            <path id="Vector_37" d="M519.761 315.791H527.979V324.789H514.682V326.386H509.836V312.446H492.977V296.824H519.677L519.761 315.791Z" class="room"/>
        </g>
        <g id="H121">
            <path id="Vector_38" d="M492.977 313.892V327.4H507.918V313.784L492.977 313.892Z" class="room"/>
        </g>
        <g id="H122">
            <path id="Vector_39" d="M493.02 282.93V294.323H519.74V282.93H493.02Z" class="room"/>
        </g>
        <g id="level 1 stairs 4">
            <path id="Vector_40" d="M441.595 381.434H476.196V372.307H491.411V418.052H441.574L441.595 381.434Z" class="stair"/>
        </g>
        <g id="H123">
            <path id="Vector_41" d="M527.707 165.246H707.036V88.7096C707.036 88.7096 527.166 88.5517 527.755 88.7096C528.345 88.8675 527.707 165.246 527.707 165.246Z" class="room"/>
        </g>
        <g id="H123/1">
            <path id="Vector_42" d="M494.739 165.25H526.399V88.4417H494.715L494.739 165.25Z" class="room"/>
        </g>
        <g id="H124">
            <path id="Vector_43" d="M440.044 143.34H473.592V170.752H439.971L440.044 143.34Z" class="room"/>
        </g>
        <g id="H125">
            <path id="Vector_44" d="M440.189 141.283V127.949H473.81V141.258L440.189 141.283Z" class="room"/>
        </g>
        <g id="level 1 stairs 2">
            <path id="Vector_45" d="M441.738 83.1624V119.026H491.6V82.9641L441.738 83.1624Z" class="stair"/>
        </g>
        <g id="level 1 stairs 0">
            <path id="Vector_46" d="M547.285 203.045H591.778V232.462H547.195L547.285 203.045Z" class="stair"/>
        </g>
    </g>
</svg>
