<svg width="808" height="501" viewBox="0 0 808 501"
    xmlns="http://www.w3.org/2000/svg">
    <g id="IshbelGordonLevel4">
        <g id="Level 4">
            <path id="Vector"   d="M139.975 386.817V500.122H25.5098V270.866H0.963135V0.121826H123.374V23.0077H807.612V386.766H653.161V389.478L139.975 386.817Z" class="background"/>
        </g>
        <g id="H401">
            <path id="Vector_2" d="M250.612 261.564H233.495V204.839H480.033V261.276H463.394V269.939H250.437L250.612 261.564Z" class="room"/>
        </g>
        <g id="H401/1">
            <path id="Vector_3" d="M232.168 205.07H203.527V258.197H231.915L232.168 205.07Z" class="room"/>
        </g>
        <g id="H402">
            <path id="Vector_4" d="M258.503 299.084H241.302V290.278H234.163V301.559H204.736V379.898H258.363L258.503 299.084Z" class="room"/>
        </g>
        <g id="H403">
            <path id="Vector_5" d="M260.189 299.286H276.997V290.22H315.446V376.473H308.869V379.926H260.274L260.189 299.286Z" class="room"/>
        </g>
        <g id="H404">
            <path id="Vector_6" d="M370.669 298.883H353.272V290.307H316.312V375.955H370.641L370.669 298.883Z" class="room"/>
        </g>
        <g id="H405">
            <path id="Vector_7" d="M372.497 298.854H389.332V291.141H466.062V299.027H482.139V376.329H372.525L372.497 298.854Z" class="room"/>
        </g>
        <g id="H406">
            <path id="Vector_8" d="M521.771 322.31V330.195H512.046V337.764H484.867V322.367L521.771 322.31Z" class="room"/>
        </g>
        <g id="H407">
            <path id="Vector_9" d="M595.662 306.481H577.871V290.048H541.614V376.271H595.606L595.662 306.481Z" class="room"/>
        </g>
        <g id="H408">
            <path id="Vector_10" d="M597.185 306.193H604.718V290.134H656.967V375.811H597.326L597.185 306.193Z" class="room"/>
        </g>
        <g id="H409">
            <path id="Vector_11" d="M604.942 288.439V270.768H597.044V205.151H656.882V288.439H604.942Z" class="room"/>
        </g>
        <g id="H410">
            <path id="Vector_12" d="M595.245 261.127H579.084V270.826H541.675V205.093H595.273L595.245 261.127Z" class="room"/>
        </g>
        <g id="H412">
            <path id="Vector_13" d="M520.702 228.237V236.959H509.369V228.262L520.702 228.237Z" class="room"/>
        </g>
        <g id="H413">
            <path id="Vector_14" d="M596.51 122.507H521.51V201.41H523.175V203.239H596.559L596.51 122.507Z" class="room"/>
        </g>
        <g id="H412/1">
            <path id="Vector_15" d="M520.629 203.703V227.063H508.39V238.367H521.265V270.6H482.37V203.402L520.629 203.703Z" class="room"/>
        </g>
        <g id="H417">
            <path id="Vector_16" d="M90.1825 268.372V214.521H81.107V211.862H44.5688V214.682H32.949V268.748L90.1825 268.372Z" class="room"/>
        </g>
        <g id="H418">
            <path id="Vector_17" d="M117.173 268.426H139.993V227.252H117.068" class="room"/>
        </g>
        <g id="H419">
            <path id="Vector_18" d="M127.402 270.212V288.234H122.051V379.888H76.5688V270.015L127.402 270.212Z" class="room"/>
        </g>
        <g id="H419/1">
            <path id="Vector_19" d="M91.7039 227.578H115.337V268.805H91.9662L91.7039 227.578Z" class="room"/>
        </g>
        <g id="H419/2">
            <path id="Vector_20" d="M74.7331 270.981V290.534H57.8936V270.82L74.7331 270.981Z" class="room"/>
        </g>
        <g id="H419/3">
            <path id="Vector_21" d="M127.272 291.125V289.836H123.547V315.163H145.607V294.428H148.439V287.633H144.951V291.232L127.272 291.125Z" class="room"/>
        </g>
        <g id="H419/4">
            <path id="Vector_22" d="M123.469 316.742C123.469 316.742 145.678 317.117 145.895 316.742C146.112 316.367 145.895 349.187 145.895 349.187H123.547L123.469 316.742Z" class="room"/>
        </g>
        <g id="H419/5">
            <path id="Vector_23" d="M123.625 350.288H145.659V380.423H133.488V384.184H123.783L123.625 350.288Z" class="room"/>
        </g>
        <g id="Reception area">
            <path id="Vector_24" d="M92.2461 208.481V225.536H145.388V207.111H172.798H201.913V96.2276H178.306V101.143H145.099H116.614C116.614 101.143 116.732 67.8227 116.614 68.263C116.496 68.7033 30.842 68.263 30.842 68.263V208.777L92.2461 208.481Z" class="reception"/>
        </g>
        <g id="level 4 lift 1">
            <path id="Vector_25" d="M148.22 248.126V265.745H170.254V248.045L148.22 248.126Z" class="lift"/>
        </g>
        <g id="level 4 lift 2">
            <path id="Vector_26" d="M148.299 296.569V314.322H170.149V296.327L148.299 296.569Z" class="lift"/>
        </g>
        <g id="level 4 stairs 3">
            <path id="Vector_27" d="M177.431 323.164V331.805H148.349V380.396H183.106V389.029H201.95V322.984L177.431 323.164Z" class="stair"/>
        </g>
        <g id="level 4 stairs 4">
            <path id="Vector_28" d="M522.276 332.531C522.367 333.069 522.276 341.468 522.276 341.468H486.7V379.838H538.544V332.203L522.276 332.531Z" class="stair"/>
        </g>
        <g id="level 4 lift 3">
            <path id="Vector_29" d="M520.608 297.947V320.103H503.06V297.97L520.608 297.947Z" class="lift"/>
        </g>
        <g id="level 4 stairs 1">
            <path id="Vector_30" d="M191.668 68.3028V73.0609H201.537V21.1147H181.436V30.2162H149.442V68.3901L191.668 68.3028Z" class="stair"/>
        </g>
        <g id="H416 bathroom">
            <path id="Vector_31" d="M145.179 30.0195V50.3833H123.757V30.085L145.179 30.0195Z" class="bathroom"/>
        </g>
        <g id="H414/1">
            <path id="Vector_32" d="M235.142 30.1288V75.2433H232.69V92.3987H204.81V29.7577L235.142 30.1288Z" class="room"/>
        </g>
        <g id="H414/2">
            <path id="Vector_33" d="M236.719 75.2433H264.92V30.2815H236.677L236.719 75.2433Z" class="room"/>
        </g>
        <g id="H414">
            <path id="Vector_34" d="M266.655 30.2598V76.8586H259.855V90.5872H539.376V76.3563H481.867V33.599H309.015V29.954L266.655 30.2598Z" class="room"/>
        </g>
        <g id="H414/4">
            <path id="Vector_35" d="M314.549 92.2853H260.002V120.528H314.89L314.549 92.2853Z" class="room"/>
        </g>
        <g id="H414/5">
            <path id="Vector_36" d="M316.318 92.2853H340.425V96.7597H342.749V121.139H316.232L316.318 92.2853Z" class="room"/>
        </g>
        <g id="H414/6">
            <path id="Vector_37" d="M344.09 96.7813H347.458V92.045H370.798V120.594H344.196L344.09 96.7813Z" class="room"/>
        </g>
        <g id="H414/7">
            <path id="Vector_38" d="M372.471 92.5037H396.963V96.5633H399.158V120.834H372.194L372.471 92.5037Z" class="room"/>
        </g>
        <g id="H414/8">
            <path id="Vector_39" d="M400.478 120.79H427.122V92.4601H402.503V96.7816H400.456L400.478 120.79Z" class="room"/>
        </g>
        <g id="H414/9">
            <path id="Vector_40" d="M454.768 96.6069H451.933V92.3944H428.571V120.703H454.938L454.768 96.6069Z" class="room"/>
        </g>
        <g id="H414/10">
            <path id="Vector_41" d="M456.858 96.6505V120.965H480.135V92.2853H459.523V96.7378L456.858 96.6505Z" class="room"/>
        </g>
        <g id="level 4 stairs 2">
            <path id="Vector_42" d="M528.776 73.3485V68.4376H486.252V30.1545H538.56V73.283L528.776 73.3485Z" class="stair"/>
        </g>
        <g id="level 4 stairs 0 A">
            <path id="Vector_43" d="M204.706 137.349V187.85H278.766V136.985L204.706 137.349Z" class="stair"/>
        </g>
        <g id="level 4 stairs 0 B">
            <path id="Vector_44" d="M501.851 151.934V189.9H433.217V151.338L501.851 151.934Z" class="stair"/>
        </g>
        <g id="level 4 stairs 0 C">
            <path id="Vector_45" d="M598.116 154.646V187.85H644.368V154.547L598.116 154.646Z" class="stair"/>
        </g>
    </g>
</svg>
