<svg width="1059" height="501" viewBox="0 0 1059 501"
    xmlns="http://www.w3.org/2000/svg">
    <g id="IshbelGordonLevel6">
        <g id="level 6">
            <path id="Vector"   d="M0.963135 499.13H702.638V487.701H732.5V500.878H904.744V497.083H1058.7V5.441H905.145V1.81612H732.41V15.7612H703.048V0.87793H661.859V3.0102H245.542V0.87793H204.478V4.28957H1.14141L0.963135 499.13Z" class="background"/>
        </g>
        <g id="H601">
            <path id="Vector_2" d="M224.118 338.736V326.561H239.07V338.579L224.118 338.736Z" class="room"/>
        </g>
        <g id="H601/1 BATHROOM">
            <path id="Vector_3" d="M222.612 338.317V324.758H239.019V257.247H198.169V338.709L222.612 338.317Z" class="bathroom"/>
        </g>
        <g id="H602">
            <path id="Vector_4" d="M241.584 323.713V251.473H392.048V328.076H367.859V339.676H318.028V323.373L241.584 323.713Z" class="room"/>
        </g>
        <g id="H603">
            <path id="Vector_5" d="M314.749 485.129V383.054H242.337V484.907L314.749 485.129Z" class="room"/>
        </g>
        <g id="H604">
            <path id="Vector_6" d="M368.292 378.661V366.956H320.579V370.692H316.803V484.894H391.435V378.3L368.292 378.661Z" class="room"/>
        </g>
        <g id="H605">
            <path id="Vector_7" d="M393.604 328.224V251.83H544.071V328.067H520.699V339.668H416.24V328.041L393.604 328.224Z" class="room"/>
        </g>
        <g id="H606">
            <path id="Vector_8" d="M393.56 485.041V378.981H416.304V367.186H467.859V485.221L393.56 485.041Z" class="room"/>
        </g>
        <g id="H607">
            <path id="Vector_9" d="M544.063 378.89H520.499V367.396H469.295V484.951H544.093L544.063 378.89Z" class="room"/>
        </g>
        <g id="H608">
            <path id="Vector_10" d="M545.74 379.281V484.771H618.545V370.547H616.141V367.186H569.041V379.311L545.74 379.281Z" class="room"/>
        </g>
        <g id="H609">
            <path id="Vector_11" d="M568.788 328.385V339.939H615.947V251.195H545.81V328.325L568.788 328.385Z" class="room"/>
        </g>
        <g id="H610">
            <path id="Vector_12" d="M671.752 410.992H622.249V431.37H659.179V421.706H671.869L671.752 410.992Z" class="room"/>
        </g>
        <g id="H611">
            <path id="Vector_13" d="M671.577 298.063V310.818H656.189V297.643L671.577 298.063Z" class="room"/>
        </g>
        <g id="H611/1 MALE BATHROOM">
            <path id="Vector_14" d="M653.903 298.124H619.757V340.26H670.668V311.809H653.698L653.903 298.124Z" class="bathroom"/>
        </g>
        <g id="H612">
            <path id="Vector_15" d="M670.784 283.268V295.212H656.364V283.568L670.784 283.268Z" class="room"/>
        </g>
        <g id="H612/1 FEMALE BATHROOM">
            <path id="Vector_16" d="M654.665 281.377H670.756V249.834H619.318V295.572H654.636L654.665 281.377Z" class="bathroom"/>
        </g>
        <g id="H613">
            <path id="Vector_17" d="M672.426 141.941H620.256V246.801H673.393V249.352H697.72V137.919H672.485L672.426 141.941Z" class="room"/>
        </g>
        <g id="H614">
            <path id="Vector_18" d="M242.337 18.1778V138.254H315.464V97.2581H618.229V17.7876L242.337 18.1778Z" class="room"/>
        </g>
        <g id="H614/1">
            <path id="Vector_19" d="M317.01 98.819V137.924H353.237V98.6089L317.01 98.819Z" class="room"/>
        </g>
        <g id="H614/2">
            <path id="Vector_20" d="M355.188 98.7501V137.855H391.415V98.54L355.188 98.7501Z" class="room"/>
        </g>
        <g id="H614/3">
            <path id="Vector_21" d="M393.17 98.9732V138.078H429.396V98.7632L393.17 98.9732Z" class="room"/>
        </g>
        <g id="H614/4">
            <path id="Vector_22" d="M431.485 98.6393V137.744H467.712V98.4292L431.485 98.6393Z" class="room"/>
        </g>
        <g id="H614/5">
            <path id="Vector_23" d="M469.69 98.7501V137.855H505.916V98.54L469.69 98.7501Z" class="room"/>
        </g>
        <g id="H614/6">
            <path id="Vector_24" d="M507.671 98.9732V138.078H543.898V98.7632L507.671 98.9732Z" class="room"/>
        </g>
        <g id="H614/7">
            <path id="Vector_25" d="M545.43 98.7501V137.855H581.099V98.54L545.43 98.7501Z" class="room"/>
        </g>
        <g id="H614/8">
            <path id="Vector_26" d="M583.166 105.481H588.09V99.1187H616.578V137.653H582.99L583.166 105.481Z" class="room"/>
        </g>
        <g id="H615">
            <path id="Vector_27" d="M202.108 139.708H240.562V174.281H201.903L202.108 139.708Z" class="room"/>
        </g>
        <g id="H616">
            <path id="Vector_28" d="M126.285 13.209H161.69V80.5849H126.255L126.285 13.209Z" class="room"/>
        </g>
        <g id="H617">
            <path id="Vector_29" d="M124.555 80.1183V13.1025H88.2412V80.1483L124.555 80.1183Z" class="room"/>
        </g>
        <g id="H617/1">
            <path id="Vector_30" d="M9.61279 14.063V61.4212H86.2566V14.153L9.61279 14.063Z" class="room"/>
        </g>
        <g id="H618">
            <path id="Vector_31" d="M54.6025 63.7319V80.7785H86.4911V63.7619L54.6025 63.7319Z" class="room"/>
        </g>
        <g id="H619">
            <path id="Vector_32" d="M69.6383 82.459V97.7948H9.5249V63.4917H52.932V82.7291L69.6383 82.459Z" class="room"/>
        </g>
        <g id="H620">
            <path id="Vector_33" d="M109.323 99.8618H88.1616V119.549H109.294L109.323 99.8618Z" class="room"/>
        </g>
        <g id="H620/1">
            <path id="Vector_34" d="M88.4553 121.53H109.412V136.446H88.3967L88.4553 121.53Z" class="room"/>
        </g>
        <g id="H621">
            <path id="Vector_35" d="M200.123 139.769H156.071V174.732H200.416L200.123 139.769Z" class="room"/>
        </g>
        <g id="H622">
            <path id="Vector_36" d="M110.572 190.895V167.246H112.536V169.347H123.82V138.195H112.448V139.995H110.806V137.894H86.7727V99.0596H10.1875V190.715L110.572 190.895Z" class="room"/>
        </g>
        <g id="H623">
            <path id="Vector_37" d="M156.559 176.391V203.671H200.084V176.511L156.559 176.391Z" class="room"/>
        </g>
        <g id="H624">
            <path id="Vector_38" d="M202.106 176.661H240.061V209.404H216.438V203.702H201.813L202.106 176.661Z" class="room"/>
        </g>
        <g id="H625">
            <path id="Vector_39" d="M202.106 223.655H216.233V211.44H240.325V248.115H236.691V254.657H202.047L202.106 223.655Z" class="room"/>
        </g>
        <g id="H626">
            <path id="Vector_40" d="M200.289 223.385V254.687H156.501V223.595L200.289 223.385Z" class="room"/>
        </g>
        <g id="H627">
            <path id="Vector_41" d="M123.299 192.672V228.656H110.578V250.924H9.6958V192.912L123.299 192.672Z" class="room"/>
        </g>
        <g id="H628">
            <path id="Vector_42" d="M110.754 252.529V274.527H123.445V364.832H9.34399V252.378L110.754 252.529Z" class="room"/>
        </g>
        <g id="H629">
            <path id="Vector_43" d="M161.107 377.219H123.445V367.166H9.60767V489.648H161.371L161.107 377.219Z" class="room"/>
        </g>
        <g id="level 6 stairs 1">
            <path id="Vector_44" d="M224.194 73.7694H238.415V6.50244H166.67V67.219H224.17L224.194 73.7694Z" class="stair"/>
        </g>
        <g id="level 6 lift 1">
            <path id="Vector_45" d="M165.312 309.979H195.388V332.285H165.192L165.312 309.979Z" class="lift"/>
        </g>
        <g id="level 6 lift 2">
            <path id="Vector_46" d="M165.311 377.287V399.94H195.288V377.369L165.311 377.287Z" class="lift"/>
        </g>
        <g id="level 6 stairs 3">
            <path id="Vector_47" d="M205.121 413.363V423.063H166.011V488.976H238.055V412.893L205.121 413.363Z" class="stair"/>
        </g>
        <g id="level 6 stairs 4">
            <path id="Vector_48" d="M672.833 424.454V436.465H623.078V463.371H695.305V424.53L672.833 424.454Z" class="stair"/>
        </g>
        <g id="level 6 lift 3">
            <path id="Vector_49" d="M646.93 377.661H669.756V407.66H646.725L646.93 377.661Z" class="lift"/>
        </g>
        <g id="level 6 stairs 2">
            <path id="Vector_50" d="M622.917 66.9091H681.437V72.8861H695.33V38.1895H622.917V66.9091Z" class="stair"/>
        </g>
        <g id="H614/9">
            <path id="Vector_51" d="M670.025 100.084H649.306V138.963H669.931L670.025 100.084Z" class="room"/>
        </g>
    </g>
</svg>
