<svg width="990" height="500" viewBox="0 0 990 500"
    xmlns="http://www.w3.org/2000/svg">
    <g id="IshbelGordonLevel5">
        <g id="level 5">
            <path id="Vector"   d="M0.988142 491.957H833.458V500H886.125V493.795H989.59V7.12423H886.35V0H832.186V7.20081H0L0.988142 491.957Z" class="background"/>
        </g>
        <g id="H501">
            <path id="Vector_2" d="M219.863 336.031V324.342H233.457V336.097L219.863 336.031Z" class="room"/>
        </g>
        <g id="H501/1 bathroom">
            <path id="Vector_3" d="M230.628 251.646V322.477H217.392V335.765H194.236V251.68L230.628 251.646Z" class="bathroom"/>
        </g>
        <g id="H502">
            <path id="Vector_4" d="M237.236 321.252H311.581V336.837H360.363V325.314H385.6V250.387H236.845L237.236 321.252Z" class="room"/>
        </g>
        <g id="H503">
            <path id="Vector_5" d="M308.33 378.828V479.031H237.627V378.928L308.33 378.828Z" class="room"/>
        </g>
        <g id="H504">
            <path id="Vector_6" d="M383.195 375.331H360.593V363.543H314.151V367.006H310.639V479.73H383.358C383.358 479.73 383.781 376.33 383.195 375.331Z" class="room"/>
        </g>
        <g id="H506">
            <path id="Vector_7" d="M385.388 375.131H407.73V365.008H509.198V375.398H531.931V478.697H385.16L385.127 376.097L385.388 375.131Z" class="room"/>
            <path id="Vector_8" d="M386.505 326.58V250.32H531.91V325.514H509.242V336.836H407.904V326.413L386.505 326.58Z" class="room"/>
        </g>
        <g id="H507">
            <path id="Vector_9" d="M534.24 325.081H556.94V336.97H603.219V249.854H533.915L534.24 325.081Z" class="room"/>
        </g>
        <g id="H508">
            <path id="Vector_10" d="M534.271 375.849H557.134V364.394H603.25V366.891H605.624V478.683H534.011L534.271 375.849Z" class="room"/>
        </g>
        <g id="H509 DATA RISER">
            <path id="Vector_11" d="M657.822 406.086H608.616V426.933H658.049L657.822 406.086Z" class="room"/>
        </g>
        <g id="H510/1">
            <path id="Vector_12" d="M684.847 378.313H714.117V401.957H685.01L684.847 378.313Z" class="room"/>
        </g>
        <g id="H510/2">
            <path id="Vector_13" d="M714.799 424.535V403.522H685.042V425.001L714.799 424.535Z" class="room"/>
        </g>
        <g id="H510">
            <path id="Vector_14" d="M684.304 291.894V375.879H716.208V426.7H684.857V478.15H753.966V457.403H829.646V250.713H757.838V291.969L684.304 291.894Z" class="room"/>
        </g>
        <g id="H510/3">
            <path id="Vector_15" d="M684.37 289.871V251.009H718.095V290.037L684.37 289.871Z" class="room"/>
        </g>
        <g id="H510/4">
            <path id="Vector_16" d="M720.729 250.476V289.205H755.755V250.409L720.729 250.476Z" class="room"/>
        </g>
        <g id="H511">
            <path id="Vector_17" d="M642.482 307.92V296.132H657.8V307.92H642.482Z" class="room"/>
        </g>
        <g id="H511/1 MALE BATHROOM">
            <path id="Vector_18" d="M640.531 309.585V296.564H606.058V337.158H653.8V309.352L640.531 309.585Z" class="bathroom"/>
        </g>
        <g id="H512">
            <path id="Vector_19" d="M657.052 292.868V281.879H642.222V293.001L657.052 292.868Z" class="room"/>
        </g>
        <g id="H512/1 FEMALE BATHROOM">
            <path id="Vector_20" d="M640.433 279.78V293.567H605.667V248.511H656.661V279.814L640.433 279.78Z" class="bathroom"/>
        </g>
        <g id="H513 STAFF COMMON ROOM">
            <path id="Vector_21" d="M607.131 143.892H682.419V250.089H658.613V246.326H607.098L607.131 143.892Z" class="room"/>
        </g>
        <g id="H514">
            <path id="Vector_22" d="M692.989 77.3295V99.6411H797.936V139.536H829.966V43.9952H753.832V22.5464H684.713V77.2266L692.989 77.3295Z" class="room"/>
        </g>
        <g id="H514/1">
            <path id="Vector_23" d="M684.86 102.104H718.228V139.101H684.502L684.86 102.104Z" class="room"/>
        </g>
        <g id="H514/2">
            <path id="Vector_24" d="M720.829 102.237H755.887V138.502H720.374L720.829 102.237Z" class="room"/>
        </g>
        <g id="H514/3">
            <path id="Vector_25" d="M795.304 101.904H758.197V138.069H795.662L795.304 101.904Z" class="room"/>
        </g>
        <g id="H515/1">
            <path id="Vector_26" d="M271.389 139.035C271.389 138.369 271.389 101.205 271.389 101.205H236.786V139.035H271.389Z" class="room"/>
        </g>
        <g id="H515/2">
            <path id="Vector_27" d="M308.22 138.977C308.22 138.311 308.22 101.147 308.22 101.147H273.617V138.977H308.22Z" class="room"/>
        </g>
        <g id="H515/3">
            <path id="Vector_28" d="M346.101 138.977C346.101 138.311 346.101 101.147 346.101 101.147H310.385V138.977H346.101Z" class="room"/>
        </g>
        <g id="H515/4">
            <path id="Vector_29" d="M383.178 138.977C383.178 138.311 383.178 101.147 383.178 101.147H347.709V138.977H383.178Z" class="room"/>
        </g>
        <g id="H515/5">
            <path id="Vector_30" d="M420.379 138.73C420.379 138.064 420.379 100.9 420.379 100.9H385.034V138.73H420.379Z" class="room"/>
        </g>
        <g id="H515/6">
            <path id="Vector_31" d="M457.703 138.977C457.703 138.311 457.703 101.147 457.703 101.147H422.111V138.977H457.703Z" class="room"/>
        </g>
        <g id="H515/7">
            <path id="Vector_32" d="M495.398 138.853C495.398 138.187 495.398 101.023 495.398 101.023H459.683V138.853H495.398Z" class="room"/>
        </g>
        <g id="H515/8">
            <path id="Vector_33" d="M532.229 138.977C532.229 138.311 532.229 101.147 532.229 101.147H496.513V138.977H532.229Z" class="room"/>
        </g>
        <g id="H515/9">
            <path id="Vector_34" d="M568.811 138.977C568.811 138.311 568.811 101.147 568.811 101.147H534.208V138.977H568.811Z" class="room"/>
        </g>
        <g id="H515/10">
            <path id="Vector_35" d="M605.024 138.977C605.024 138.311 605.024 101.147 605.024 101.147H570.421V138.977H605.024Z" class="room"/>
        </g>
        <g id="H516">
            <path id="Vector_36" d="M124.613 18.6611H158.598V55.9249H124.255L124.613 18.6611Z" class="room"/>
        </g>
        <g id="H517">
            <path id="Vector_37" d="M87.0168 18.894V83.6978H122.466V19.1938L87.0168 18.894Z" class="room"/>
        </g>
        <g id="H518">
            <path id="Vector_38" d="M54.8857 68.2462V83.4314H85.0334V67.9797L54.8857 68.2462Z" class="room"/>
        </g>
        <g id="H517/1">
            <path id="Vector_39" d="M9.97363 65.1494V18.5613H84.7087V65.7488L9.97363 65.1494Z" class="room"/>
        </g>
        <g id="H519">
            <path id="Vector_40" d="M65.1956 86.4617V101.314H10.1687V67.8464H52.5771V86.4617H65.1956Z" class="room"/>
        </g>
        <g id="H520">
            <path id="Vector_41" d="M88.156 103.68C88.156 103.68 9.91398 102.972 10.1037 103.68C10.2935 104.388 9.61583 482.904 10.1037 482.904C10.5915 482.904 158.598 482.904 158.598 482.904V363.786H134.142V142.433H88.7088L88.156 103.68Z" class="room"/>
        </g>
        <g id="H522">
            <path id="Vector_42" d="M160.156 175.203V141.002H231.834V175.103L160.156 175.203Z" class="room"/>
        </g>
        <g id="H523">
            <path id="Vector_43" d="M159.701 212.4V177.201H231.639V212.433L159.701 212.4Z" class="room"/>
        </g>
        <g id="H524">
            <path id="Vector_44" d="M160.417 214.284V247.618H163.441V253.812H191.15V247.918H230.924V214.018L160.417 214.284Z" class="room"/>
        </g>
        <g id="level 5 lift 1">
            <path id="Vector_45" d="M162.285 307.919V329.674H191.371V308.131L162.285 307.919Z" class="lift"/>
        </g>
        <g id="level 5 lift 2">
            <path id="Vector_46" d="M162.124 374.123V395.712H191.302V374.17L162.124 374.123Z" class="lift"/>
        </g>
        <g id="level 5 stairs 3">
            <path id="Vector_47" d="M201.12 409.349V418.579H162.653V482.595H233.173V409.374L201.12 409.349Z" class="stair"/>
        </g>
        <g id="level 5 stairs 4">
            <path id="Vector_48" d="M659.243 419.896V432.24H611.218V482.865H680.185V420.127L659.243 419.896Z" class="stair"/>
        </g>
        <g id="level 5 lift 3">
            <path id="Vector_49" d="M654.998 373.873H632.867V403.431H655.111L654.998 373.873Z" class="lift"/>
        </g>
        <g id="level 5 ELECTRICAL RISER">
            <path id="Vector_50" d="M631.877 370.801V361.5H655.395V370.715L631.877 370.801Z" class="room"/>
        </g>
        <g id="level 5 stairs 2">
            <path id="Vector_51" d="M667.281 75.9342H680.327V10.9944H611.077V69.3852H667.252L667.281 75.9342Z" class="stair"/>
        </g>
        <g id="level 5 stairs 1">
            <path id="Vector_52" d="M219.915 76.363H233.046V9.5686H206.812V18.7546H163.598V68.8577H219.971L219.915 76.363Z" class="stair"/>
        </g>
        <g id="level 5 DATA RISER">
            <path id="Vector_53" d="M635.528 102.99H655.483V140.415H635.225L635.528 102.99Z" class="room"/>
        </g>
        <g id="level 5 r.w.drop">
            <path id="Vector_54" d="M161.912 256.667H192.068V304.428H161.529L161.912 256.667Z" class="room"/>
        </g>
    </g>
</svg>
