<svg width="750" height="501" viewBox="0 0 750 501" fill="none" xmlns="http://www.w3.org/2000/svg">
<g id="IshbelGordonLevel2">
<g id="level 2">
<path id="Vector" opacity="0.55" d="M497.449 74.2307V81.2793H569.298V73.4964H749.564V417.959H497.306V426.769H435.855V418.913H173.024V441.454H111.645V418.473H105.98V500.527H0V0.526855H105.55V82.3201H111.788V59.1184H172.666V81.2922H436.445V73.8764L497.449 74.2307Z" fill="#75378F"/>
</g>
<g id="level 2 stairs 3">
<path id="Vector_2" d="M116.748 372.608H145.102V363.809H167.805V418.863H117.015L116.748 372.608Z" fill="#B03A4F"/>
</g>
<g id="level 2 lift 2">
<path id="Vector_3" d="M116.146 338.953V354.873H137.044V338.782L116.146 338.953Z" fill="#2D6D9C"/>
</g>
<g id="level 2 lift 1">
<path id="Vector_4" d="M116.213 291.295H137.545V308.893H115.979L116.213 291.295Z" fill="#2D6D9C"/>
</g>
<g id="H202">
<path id="Vector_5" d="M139.773 276.535H149.359V309.208H139.707L139.773 276.535Z" fill="#75378F"/>
</g>
<g id="H203">
<path id="Vector_6" d="M139.751 274.414H149.448V254.354H139.774L139.751 274.414Z" fill="#75378F"/>
</g>
<g id="H204">
<path id="Vector_7" d="M140.17 229.4H150.02V221.931H140.082L140.17 229.4Z" fill="#75378F"/>
</g>
<g id="H204/1">
<path id="Vector_8" d="M139.134 222.224V231.543H149.536V252.641H115.952V222.134L139.134 222.224Z" fill="#75378F"/>
</g>
<g id="H205">
<path id="Vector_9" d="M140.368 220.735V212.454H149.69V220.983L140.368 220.735Z" fill="#75378F"/>
</g>
<g id="H205/1">
<path id="Vector_10" d="M139.156 210.987V220.938H115.952V190.025H147.266V211.1L139.156 210.987Z" fill="#75378F"/>
</g>
<g id="H206">
<path id="Vector_11" d="M149.381 179.015V188.65H137.746V178.902L149.381 179.015Z" fill="#75378F"/>
</g>
<g id="H206/1">
<path id="Vector_12" d="M136.225 188.628V177.819H149.315V161.911H117.141V188.831L136.225 188.628Z" fill="#75378F"/>
</g>
<g id="H207">
<path id="Vector_13" d="M171.535 142.661H294.058V87.3782H171.38L171.535 142.661Z" fill="#75378F"/>
</g>
<g id="H208">
<path id="Vector_14" d="M168.317 174.081V192.945H222.439V145.176H185.594V174.081H168.317Z" fill="#75378F"/>
</g>
<g id="H210">
<path id="Vector_15" d="M168.173 194.228H222.032V220.597H168.129L168.173 194.228Z" fill="#75378F"/>
</g>
<g id="H211">
<path id="Vector_16" d="M224.41 247.005H206.141V303.664H198.702V311.71H206.097V343.272H198.239V347.509H170.309V360.604H206.383V389.134H224.41V286.343V247.005Z" fill="#75378F"/>
</g>
<g id="H212">
<path id="Vector_17" d="M204.16 247.02V301.516H167.843V246.93L204.16 247.02Z" fill="#75378F"/>
</g>
<g id="H214">
<path id="Vector_18" d="M226.544 246.615V286.326H252.847V246.457L226.544 246.615Z" fill="#75378F"/>
</g>
<g id="H216">
<path id="Vector_19" d="M204.05 313.997V329.12H172.663V327.61H167.689V314.087L204.05 313.997Z" fill="#75378F"/>
</g>
<g id="H217">
<path id="Vector_20" d="M226.412 289.138V349.133H293.961V289.048L226.412 289.138Z" fill="#75378F"/>
</g>
<g id="H218">
<path id="Vector_21" d="M203.434 362.182V412.802H170.198V362.182H203.434Z" fill="#75378F"/>
</g>
<g id="H219">
<path id="Vector_22" d="M226.39 351.319V412.802H294.402V351.252L226.39 351.319Z" fill="#75378F"/>
</g>
<g id="H219/1">
<path id="Vector_23" d="M206.141 391.549H224.409V413.455H206.185L206.141 391.549Z" fill="#75378F"/>
</g>
<g id="H220">
<path id="Vector_24" d="M224.754 145.656V217.4H227.609V220.427H294.339V145.449L224.754 145.656Z" fill="#75378F"/>
</g>
<g id="H221">
<path id="Vector_25" d="M255.15 246.976V286.768H294.238V246.873L255.15 246.976Z" fill="#75378F"/>
</g>
<g id="H222">
<path id="Vector_26" d="M300.768 220.968V196.674H325.782V220.942L300.768 220.968Z" fill="#75378F"/>
</g>
<g id="H223">
<path id="Vector_27" d="M296.382 273.345H313.898V306.618H438.479V410.208H296.06C296.06 410.208 296.596 273.784 296.382 273.345Z" fill="#75378F"/>
</g>
<g id="H224">
<path id="Vector_28" d="M330.128 253.613V265.644H349.735V269.99H358.124V303.547H380.839V248.671H334.525V253.535L330.128 253.613Z" fill="#75378F"/>
</g>
<g id="H224/1">
<path id="Vector_29" d="M382.465 248.852V303.909H438.861V252.656H436.814V248.852H382.465Z" fill="#75378F"/>
</g>
<g id="H224/2">
<path id="Vector_30" d="M348.405 271.025V266.678H315.76V303.365H356.92V270.766L348.405 271.025Z" fill="#75378F"/>
</g>
<g id="H225">
<path id="Vector_31" d="M474.021 288.903V278.916H462.726V289.058L474.021 288.903Z" fill="#75378F"/>
</g>
<g id="H225/1">
<path id="Vector_32" d="M461.412 287.764V277.183H474.501V248.775H447.212V268.257H440.416V287.894L461.412 287.764Z" fill="#75378F"/>
</g>
<g id="H226">
<path id="Vector_33" d="M458.026 289.394V302.331H440.491V289.369L458.026 289.394Z" fill="#75378F"/>
</g>
<g id="H227">
<path id="Vector_34" d="M474.678 320.956V337.256H457.496V321.034L474.678 320.956Z" fill="#75378F"/>
</g>
<g id="H227/1">
<path id="Vector_35" d="M455.904 320.076V329.132H440.239V303.44H474.678V320.18L455.904 320.076Z" fill="#75378F"/>
</g>
<g id="H229">
<path id="Vector_36" d="M476.674 338.159H493.173V347.318H495.068V346.05H518.794V355.571H493.047V370.497H466.845V378H440.517V362.994H476.548L476.674 338.159Z" fill="#75378F"/>
</g>
<g id="H229/1">
<path id="Vector_37" d="M495.371 358H508.864V364.365H495.397L495.371 358Z" fill="#75378F"/>
</g>
<g id="H229/2">
<path id="Vector_38" d="M510.784 357.793H549.417V410.159H545.728V412.876H510.607V408.632H494.917V395.412H510.734L510.784 357.793Z" fill="#75378F"/>
</g>
<g id="H229/3">
<path id="Vector_39" d="M494.866 365.529H508.99V393.626H494.967L494.866 365.529Z" fill="#75378F"/>
</g>
<g id="H229/4">
<path id="Vector_40" d="M520.133 355.697V331.455H546.36V329.308H549.822V356.189L520.133 355.697Z" fill="#75378F"/>
</g>
<g id="H229/5">
<path id="Vector_41" d="M495.371 344.236V331.481H517.859V344.107L495.371 344.236Z" fill="#75378F"/>
</g>
<g id="level 2 stairs 4">
<path id="Vector_42" d="M492.567 372.903H469.018V381.751H442.109V418.36H492.365L492.567 372.903Z" fill="#B03A4F"/>
</g>
<g id="level 2 lift 3">
<path id="Vector_43" d="M474.425 339.682H458.178V360.898C458.178 360.898 474.526 361.545 474.526 360.898C474.526 360.251 474.425 339.682 474.425 339.682Z" fill="#2D6D9C"/>
</g>
<g id="H230">
<path id="Vector_44" d="M545.58 249.917H494.541V290.563H531.885V329.242H544.291V327.276H551.745V413.074H660.873V331.421H602.405V252.408H599.601V249.976H550.28V252.434H545.529L545.58 249.917Z" fill="#75378F"/>
</g>
<g id="H230/1">
<path id="Vector_45" d="M529.222 293.143V329.597H497.335V327.683H493.975V293.117L529.222 293.143Z" fill="#75378F"/>
</g>
<g id="H231">
<path id="Vector_46" d="M460.202 142.723H475.589V169.837H460.101L460.202 142.723Z" fill="#75378F"/>
</g>
<g id="H232">
<path id="Vector_47" d="M495.449 131.779H558.945V87.1488H550.253V89.9689H545.427V87.0712H495.222L495.449 131.779Z" fill="#75378F"/>
</g>
<g id="H233">
<path id="Vector_48" d="M474.402 140.291V128.648H480.315V122.49H440.393V140.317L474.402 140.291Z" fill="#75378F"/>
</g>
<g id="level 2 stairs 1">
<path id="Vector_49" d="M117.506 82.2431V118.228H158.902V124.355H167.918V82.2154L117.506 82.2431Z" fill="#B03A4F"/>
</g>
<g id="H201">
<path id="Vector_50" d="M149.075 150.073V159.942H115.854V150.017L149.075 150.073Z" fill="#75378F"/>
</g>
<g id="level 2 stairs 2">
<path id="Vector_51" d="M442.338 81.8967H492.493V128.338H483.069V118.144H442.187L442.338 81.8967Z" fill="#B03A4F"/>
</g>
<g id="H234">
<path id="Vector_52" d="M329.949 171.803V190.276H296.369C296.369 190.276 296.018 89.5937 296.369 88.9858C296.72 88.3778 438.471 88.9858 438.471 88.9858V167.301H312.818V168.88H326.26V172.01L329.949 171.803Z" fill="#75378F"/>
</g>
<g id="level 2 stairs 0 A">
<path id="Vector_53" d="M457.175 199.348V235.698H386.704V199.157L457.175 199.348Z" fill="#B03A4F"/>
</g>
<g id="level 2 stairs 0 B">
<path id="Vector_54" d="M526.514 202.024V232.959H593.779V201.897L526.514 202.024Z" fill="#B03A4F"/>
</g>
</g>
</svg>
