<svg width="775" height="501" viewBox="0 0 775 501"
    xmlns="http://www.w3.org/2000/svg">
    <g id="IshbelGordonLevel3">
        <g id="level 3">
            <path id="Vector" opacity="0.55" d="M20.9062 337.186V500.742H195.206V426.404H774.046V75.4851H195.599V0.741821H20.8718V165.314H0.963135V337.255L20.9062 337.186Z" class="room"/>
        </g>
        <g id="H301">
            <path id="Vector_2" d="M228.653 341.476V333.544H221.625V343.971H193.168V414.308H245.365V341.7L228.653 341.476Z" class="room"/>
        </g>
        <g id="H302">
            <path id="Vector_3" d="M246.333 341.764H263.108V333H299.718V414.595H246.427L246.333 341.764Z" class="room"/>
        </g>
        <g id="H303">
            <path id="Vector_4" d="M353.914 342.052H336.984V333.896H300.811V414.372H353.54L353.914 342.052Z" class="room"/>
        </g>
        <g id="H304">
            <path id="Vector_5" d="M355.302 341.828C355.302 341.828 371.327 342.404 371.327 341.828C371.327 341.252 371.327 333.927 371.327 333.927H445.516V341.924H460.509V414.595H355.115L355.302 341.828Z" class="room"/>
        </g>
        <g id="H306">
            <path id="Vector_6" d="M518.426 360.962H525.673V371.805H518.395L518.426 360.962Z" class="room"/>
        </g>
        <g id="H307">
            <path id="Vector_7" d="M518.457 373.884H543.416V416.297H518.301L518.457 373.884Z" class="room"/>
        </g>
        <g id="H308">
            <path id="Vector_8" d="M544.725 374.172H570.246V416.137H544.757L544.725 374.172Z" class="room"/>
        </g>
        <g id="H308/1">
            <path id="Vector_9" d="M571.715 375.1V415.818H629.66V374.812L571.715 375.1Z" class="room"/>
        </g>
        <g id="H309">
            <path id="Vector_10" d="M574.151 371.869V346.281H629.847V372.061L574.151 371.869Z" class="room"/>
        </g>
        <g id="H310">
            <path id="Vector_11" d="M574.557 345.161V319.413H629.628V345.033L574.557 345.161Z" class="room"/>
        </g>
        <g id="H311">
            <path id="Vector_12" d="M553.851 319.221V334.542H572.687V319.509L553.851 319.221Z" class="room"/>
        </g>
        <g id="H312">
            <path id="Vector_13" d="M536.358 319.381H520.708V333.87H536.389L536.358 319.381Z" class="room"/>
        </g>
        <g id="H313">
            <path id="Vector_14" d="M571.562 279.543H526.799V281.526H516.865V297.614H526.892V299.886H518.302V313.447H520.926V318.117H629.975V250.564H571.405L571.562 279.543Z" class="room"/>
        </g>
        <g id="H313/1">
            <path id="Vector_15" d="M518.646 278.103H544.729V250.851H518.458L518.646 278.103Z" class="room"/>
        </g>
        <g id="H313/2">
            <path id="Vector_16" d="M546.197 251.043V277.943H570.25V250.915L546.197 251.043Z" class="room"/>
        </g>
        <g id="H315">
            <path id="Vector_17" d="M487.711 273.216H499.223V281.524H487.686L487.711 273.216Z" class="room"/>
        </g>
        <g id="H315/1 bathroom">
            <path id="Vector_18" d="M485.581 281.29H461.113V249.537H497.93V272.125H485.556L485.581 281.29Z" class="bathroom"/>
        </g>
        <g id="H314/1 bathroom">
            <path id="Vector_19" d="M485.557 283.861V294.428H497.753V314.082H461.57V283.991L485.557 283.861Z" class="bathroom"/>
        </g>
        <g id="H314">
            <path id="Vector_20" d="M487.128 293.26V284.043H498.893V293.234L487.128 293.26Z" class="room"/>
        </g>
        <g id="H317">
            <path id="Vector_21" d="M518.669 124.593H543.163V85.725H518.517L518.669 124.593Z" class="room"/>
        </g>
        <g id="H318">
            <path id="Vector_22" d="M540.602 138.613V148.063H546.231V169.977H571.207V138.405L540.602 138.613Z" class="room"/>
        </g>
        <g id="H319">
            <path id="Vector_23" d="M544.481 149.647H518.567V169.769H544.583L544.481 149.647Z" class="room"/>
        </g>
        <g id="H320">
            <path id="Vector_24" d="M540.348 126.384V136.769H583.733V85.6472H544.659V126.28L540.348 126.384Z" class="room"/>
        </g>
        <g id="H320/a">
            <path id="Vector_25" d="M585.398 85.6209V114.752H628.757V85.4652C628.757 85.4652 584.638 85.3873 585.398 85.6209Z" class="room"/>
        </g>
        <g id="H320b">
            <path id="Vector_26" d="M585.626 116.362V141.78H628.859V116.388L585.626 116.362Z" class="room"/>
        </g>
        <g id="H320/c">
            <path id="Vector_27" d="M572.923 138.582V170.128H628.326V143.177H583.522V138.686L572.923 138.582Z" class="room"/>
        </g>
        <g id="H321/1">
            <path id="Vector_28" d="M482.852 143.362H497.382V171.273H482.827L482.852 143.362Z" class="room"/>
        </g>
        <g id="level 3 stairs 2">
            <path id="Vector_29" d="M465.129 82.7213H498.32V74.8544H515.435V126.392H500.906V119.096H465.053L465.129 82.7213Z" class="stair"/>
        </g>
        <g id="H332">
            <path id="Vector_30" d="M442.088 87.5637H459.751V124.558H442.182L442.088 87.5637Z" class="room"/>
        </g>
        <g id="H331">
            <path id="Vector_31" d="M422.55 87.6583H440.212V124.653H422.644L422.55 87.6583Z" class="room"/>
        </g>
        <g id="H321">
            <path id="Vector_32" d="M193.281 87.7306V165.781H298.598V138.435H373.948V87.4646L193.281 87.7306Z" class="room"/>
        </g>
        <g id="H321a">
            <path id="Vector_33" d="M300.18 140.393V163.678H354.515V140.393H300.18Z" class="room"/>
        </g>
        <g id="H329">
            <path id="Vector_34" d="M376.35 87.6337V124.725H400.672V87.5128L376.35 87.6337Z" class="room"/>
        </g>
        <g id="level 3 stairs 1">
            <path id="Vector_35" d="M139.844 82.2837C139.844 82.2837 190.184 82.5329 190.117 82.2837C190.05 82.0345 190.117 125.347 190.117 125.347H181.026V119.665H139.608L139.844 82.2837Z" class="stair"/>
        </g>
        <g id="H322">
            <path id="Vector_36" d="M171.887 150.446V160.529H138.261V150.784L171.887 150.446Z" class="room"/>
        </g>
        <g id="H323">
            <path id="Vector_37" d="M160.033 179.813V189.122H172.17V179.788L160.033 179.813Z" class="room"/>
        </g>
        <g id="H330">
            <path id="Vector_38" d="M402.314 87.4788H419.977V124.473H402.408L402.314 87.4788Z" class="room"/>
        </g>
        <g id="H232/1">
            <path id="Vector_39" d="M138.356 162.96H171.321V178.338H158.971V189.363H138.333L138.356 162.96Z" class="room"/>
        </g>
        <g id="H324">
            <path id="Vector_40" d="M163.269 213.108V221.208H173.021V212.963L163.269 213.108Z" class="room"/>
        </g>
        <g id="H324/1 bathroom">
            <path id="Vector_41" d="M172.005 190.282H138.214V221.28H161.804V211.753H172.076L172.005 190.282Z" class="bathroom"/>
        </g>
        <g id="H325">
            <path id="Vector_42" d="M163.127 222.799V230.899H172.1V222.847L163.127 222.799Z" class="room"/>
        </g>
        <g id="H325/1 bathroom">
            <path id="Vector_43" d="M161.733 222.146V232.132H172.076V253.555H138.191V222.412L161.733 222.146Z" class="bathroom"/>
        </g>
        <g id="H326">
            <path id="Vector_44" d="M162.253 255.254H171.958V275.395H162.182L162.253 255.254Z" class="room"/>
        </g>
        <g id="H327">
            <path id="Vector_45" d="M162.442 277.45H172.005V308.448H162.229L162.442 277.45Z" class="room"/>
        </g>
        <g id="H328">
            <path id="Vector_46" d="M192.029 278.901H205.489V302.161H191.887L192.029 278.901Z" class="room"/>
        </g>
        <g id="H333">
            <path id="Vector_47" d="M219.799 255.254H243.979V278.732H272.126V288.669H207.189V278.635H219.657L219.799 255.254Z" class="room"/>
        </g>
        <g id="H333a">
            <path id="Vector_48" d="M192.099 255.012V277.281H218.145V254.722L192.099 255.012Z" class="room"/>
        </g>
        <g id="H333b">
            <path id="Vector_49" d="M247.331 255.157V276.87H271.984V255.157H247.331Z" class="room"/>
        </g>
        <g id="H333c">
            <path id="Vector_50" d="M273.896 255.157V289.346H284.239V280.908H300.273V254.987L273.896 255.157Z" class="room"/>
        </g>
        <g id="H333d">
            <path id="Vector_51" d="M259.351 290.869H283.956V313.042H259.469L259.351 290.869Z" class="room"/>
        </g>
        <g id="H333e">
            <path id="Vector_52" d="M257.768 290.821H221.521V313.235H257.579L257.768 290.821Z" class="room"/>
        </g>
        <g id="H333g">
            <path id="Vector_53" d="M207.141 290.555H219.703V301.726H207.141V290.555Z" class="room"/>
        </g>
        <g id="H334">
            <path id="Vector_54" d="M285.87 282.455H310.971V313.38H285.634L285.87 282.455Z" class="room"/>
        </g>
        <g id="H335">
            <path id="Vector_55" d="M312.978 282.407H331.798V313.139H313.025L312.978 282.407Z" class="room"/>
        </g>
        <g id="H336">
            <path id="Vector_56" d="M334.325 282.334H352.956V313.204H334.042L334.325 282.334Z" class="room"/>
        </g>
        <g id="level 3 stairs 0 A">
            <path id="Vector_57" d="M197.627 186.408V234.298H264.279V186.324L197.627 186.408Z" class="stair"/>
        </g>
        <g id="level 3 stairs 0 B">
            <path id="Vector_58" d="M409.38 198.775V237.6H480.961V198.859L409.38 198.775Z" class="stair"/>
        </g>
        <g id="level 3 lift 1">
            <path id="Vector_59" d="M138.773 292.53V308.557H160.052V292.572L138.773 292.53Z" class="lift"/>
        </g>
        <g id="level 3 lift 2">
            <path id="Vector_60" d="M138.875 340.92V356.442H159.908V340.899L138.875 340.92Z" class="lift"/>
        </g>
        <g id="level 3 stairs 3">
            <path id="Vector_61" d="M166.994 365.997V372.98H138.854V419.418H190.163V365.829L166.994 365.997Z" class="stair"/>
        </g>
        <g id="level 3 stairs 4">
            <path id="Vector_62" d="M515.501 374.158H499.686V382.802H464.768V419.145H515.317L515.501 374.158Z" class="stair"/>
        </g>
        <g id="level 3 lift 3">
            <path id="Vector_63" d="M496.924 340.543H481.232V361.575H497.13L496.924 340.543Z" class="lift"/>
        </g>
        <g id="H337">
            <path id="Vector_64" d="M354.635 282.445H373.266V313.225H354.352L354.635 282.445Z" class="room"/>
        </g>
        <g id="H338">
            <path id="Vector_65" d="M375.773 282.265H394.758V313.224H375.485L375.773 282.265Z" class="room"/>
        </g>
        <g id="H339">
            <path id="Vector_66" d="M397.313 282.265H416.475V313.224H397.022L397.313 282.265Z" class="room"/>
        </g>
        <g id="H340">
            <path id="Vector_67" d="M418.225 282.175H437.563V313.135H417.931L418.225 282.175Z" class="room"/>
        </g>
        <g id="H341">
            <path id="Vector_68" d="M440.12 281.996H459.459V313.135H439.826L440.12 281.996Z" class="room"/>
        </g>
    </g>
</svg>
