<svg xmlns="http://www.w3.org/2000/svg" viewBox="0 0 616.67 616.67">

    <g id="Library_6" data-name="Library 6">
        <circle class="background" cx="308.33" cy="308.33" r="308.33" />
    </g>
    <g id="N650">
        <path class="room"
            d="M726.11,628.59a257.92,257.92,0,0,0,42.1,71.74c67.88,81.49,166,85.89,185.4,87.8,15.58,1.54,122.78,10.9,213.25-71.54,72.48-66,89.49-142.43,94-173.19,3.74-25.57,11.26-81.61-12.54-145.27-31.55-84.4-108-154.92-204.22-176.66-125.5-28.35-221.95,40.39-236.47,51.11q30,38.57,60,77.12c11.64.9,30.59.48,42.24,1.38,1.57-21.3,2.89-37.74,4-58.17l6.57,1.2c-3,28.09-8.58,118.56-9.18,125.73-28.56-1.89-57.2-2.78-85.76-4.67a191.42,191.42,0,0,0-16.42,145.57l87.48,8.67-.6,26.9-8.66-.6.9-19.43-75.84-6.87a248.75,248.75,0,0,0,35.53,60.38l28.66,2.39q1-9,2.09-17.93l6.27.29-6.27,84-8.95-.3L876,637.86l-29.86-.3-8.36-10.46-40.31,30.19L764.63,605Z"
            transform="translate(-670.79 -197.55)" />
    </g>
    <g id="print">
        <path class="print"
            d="M831,405.6a118.61,118.61,0,0,1,26.83-32,131.87,131.87,0,0,1,19-13.31l29.12.6q-.91,25.13-1.84,50.26Z"
            transform="translate(-670.79 -197.55)" />
    </g>
    <g id="lift">
        <path class="lift"
            d="M769.1,425.72c.91-1.83,19.26-44.25,19.26-44.25l32.56,11.23L801.2,440.85Z"
            transform="translate(-670.79 -197.55)" />
    </g>
    <g id="lift-2" data-name="lift">
        <polygon class="lift"
            points="128.12 163.86 150.59 184.95 183.61 151.7 160.22 127.17 128.12 163.86" />
    </g>
    <g id="stairs">
        <path class="stair"
            d="M797.79,277.48l28.86,39.9a253.08,253.08,0,0,0-68.89,114.19l39.1,16.51q-1.15,7.56-2.33,15.13l-25.6,2.29q1.64,44.49,3.26,89l26.07-.46,2.79,13.76-82.39,50a265.38,265.38,0,0,1-27-83.47c-2.23-15.21-8.28-65.81,12.11-125.65C728.17,337,776,294.6,797.79,277.48Z"
            transform="translate(-670.79 -197.55)" />
    </g>
</svg>