<svg id="svg1890" xmlns="http://www.w3.org/2000/svg" viewBox="0 0 116.84 116.92">
    <g id="Library_8" data-name="Library 8">
        <ellipse class="background" cx="58.42" cy="58.46" rx="58.42" ry="58.46" />
    </g>
    <g id="N801">
        <path class="room"
            d="M162.34,456.4l9.42-5.5L177.83,461l-8.43,7.07A38.4,38.4,0,0,1,162.34,456.4Z"
            transform="translate(-154.22 -374.2)" />
    </g>
    <g id="lift">
        <path class="lift" d="M175.67,409.43l6.75,3.22-4.17,9-7.1-3.43Z"
            transform="translate(-154.22 -374.2)" />
    </g>
    <g id="lift-2" data-name="lift">
        <path class="lift" d="M177,406.32l6.5-7.15,5.57,5.14-6.42,7.21Z"
            transform="translate(-154.22 -374.2)" />
    </g>
    <g id="stairs">
        <path class="stair"
            d="M175,406.91a40.11,40.11,0,0,1,8.79-9.52l-6.68-8.9A58.75,58.75,0,0,0,165,402.54a60.36,60.36,0,0,0-7.45,18.6A106.12,106.12,0,0,0,156.41,434a76,76,0,0,0,.81,9.72s1.48,7.63,3.53,11.07h0L177,445.52l-1-3-5,.31-.2-16.59,6.23-.11.52-2.63-8.23-3.54A40,40,0,0,1,175,406.91Z"
            transform="translate(-154.22 -374.2)" />
    </g>
    <g id="N800">
        <path class="room"
            d="M180.62,387.21a65.75,65.75,0,0,1,8.72-4.8,55.07,55.07,0,0,1,50.3.76c4.25,2.38,16.12,9.34,23.08,23.54a59.86,59.86,0,0,1,4.74,38.53,55.9,55.9,0,0,1-17.21,28.83c-12.57,11-28.18,14.13-33.24,14.43a58.47,58.47,0,0,1-30.88-6.64c-7-3.78-11.77-9.22-15-12.47l14.37-11.16c2.19.31,5.07.55,7.26.86-.41,4.18-1,8.28-1.38,12.46.77.15,1,.44,1.77.59q1.07-9.63,2.14-19.26l-1.53-.31-.49,4.72c-1.57-.16-4.21-.57-5.79-.73-1.45-1.3-2.2-3-3.81-5.67a26.1,26.1,0,0,1-2.3-4.89l12.78,1.47c0,.87-.2,1.66-.25,2.52.55-.06,1.17.07,1.71,0-.13-1.6.41-3.07.28-4.67-5.25-.63-10.64-1.45-15.89-2.08a32.64,32.64,0,0,1-1.48-9.36A34.32,34.32,0,0,1,184,415.27l16.51,2c.26-1.78.51-3.56.77-5.35l-1.66-.14c-.32,1-.25,2.05-.57,3.06-4.27-.61-8.94-1.24-13.21-1.85l.4-2.54c2-2.07,4-4.51,5.94-6.59,2.27.48,4.68.49,7,1-.08.77-.31,2-.39,2.79l1.77.33q1.08-8.34,2.14-16.67l-2.23.1-1.2,11.36-8.49-1.21Z"
            transform="translate(-154.22 -374.2)" />
    </g>
</svg>