<svg id="svg125575" xmlns="http://www.w3.org/2000/svg" viewBox="0 0 410.69 412.68">
    <g id="Library_9" data-name="Library 9" class="cls-1">
        <ellipse class="background" cx="205.34" cy="206.34" rx="205.34" ry="206.34" />
    </g>
    <g id="N901">
        <path class="room"
            d="M400.33,453.09l29-14.74,17.35,29.34-23.14,22.53S405.36,467,400.33,453.09Z"
            transform="translate(-370.31 -164.08)" />
    </g>
    <g id="N900a">
        <path class="room"
            d="M456.67,392.66,513,398.52l-2.3,24.61L480.61,446.9S456.34,416.85,456.67,392.66Z"
            transform="translate(-370.31 -164.08)" />
    </g>
    <g id="N900b">
        <path class="room" d="M454.91,348.11l63,6.61-4.38,41.86-57-5.72Z"
            transform="translate(-370.31 -164.08)" />
    </g>
    <g id="N900c">
        <path class="room" d="M467,313.16,522,319l-3.55,33.73-63.26-6.57s1-12.94,11.81-33Z"
            transform="translate(-370.31 -164.08)" />
    </g>
    <g id="N900d">
        <path class="room"
            d="M498.79,273l24.55,30.38-1.71,13.8-54.26-5.91S479.55,286.13,498.79,273Z"
            transform="translate(-370.31 -164.08)" />
    </g>
    <g id="lift">
        <path class="lift" d="M429.4,318.09l14.25-30.52,24.23,10.91-14.72,31.18Z"
            transform="translate(-370.31 -164.08)" />
    </g>
    <g id="lift-2" data-name="lift">
        <path class="lift" d="M450.16,277.17l23.35-25.56,19.42,18.71-22.79,25.47Z"
            transform="translate(-370.31 -164.08)" />
    </g>
    <g id="stairs">
        <path class="stair"
            d="M449.59,221.39l21.1,25.68a139,139,0,0,0-47.24,74.29l26.14,14.22-1.83,11-15.14.91q1.15,29.13,2.3,58.25l15.59-.46,3.67,8.71-58.7,34.39A190.27,190.27,0,0,1,380.8,403c-2.17-11.49-6.85-42.1,1.38-77.5C395.65,267.51,435.36,232.76,449.59,221.39Z"
            transform="translate(-370.31 -164.08)" />
    </g>
    <g id="N900">
        <path class="room"
            d="M459.68,216.8a197,197,0,0,1,140.33-39c16.08,1.76,65.66,7.9,107.77,46.78,55.07,50.84,57.18,120.59,57.79,140.79.56,18.77,1.32,64.44-27.52,111.44C726.67,495.37,703,526.71,661,547c-47.17,22.81-90,18.34-105.48,16.51-68.93-8.12-112.38-50.23-125.66-64.2l88-74.29c4.44-43.26,8.26-80.58,12.69-123.84C506.77,275,483.53,242.94,459.68,216.8Z"
            transform="translate(-370.31 -164.08)" />
    </g>
</svg>