<svg id="library_5" data-name="library 5" xmlns="http://www.w3.org/2000/svg"
    viewBox="0 0 616.67 616.67">
    <circle id="Library_5-2" data-name="Library 5" class="background" cx="308.33" cy="308.33" r="308.33" />
    <g id="N550">
        <path class="room"
        d="M902.71,426.3V400.16l103.18,45.4c1,24.86,1.27,44.52,1.38,57.78.12,14.15,0,19.56,2.75,27.52,6.73,19.46,22.76,31.25,28.89,35.77a96.61,96.61,0,0,0,19.26,11h152.72c8.33-47.08,3.45-84.58-1.38-107.32-22.84-107.56-104.18-166.78-125.2-181.6a315.61,315.61,0,0,0-56.41-31.64q-16.5,55-33,110.06c-23.46-5-43.46-9.79-59.16-13.76-34.3-8.67-47.57-9.94-62.83-18.34-14.55-8-23.45-18.58-26.6-21.56a148.53,148.53,0,0,1-37.15-56.4L750,291.47l68.79,88,33,9.63q-.69,18.59-1.39,37.15h10.4v7.37l-7.63.2c.69,24.3,1.16,41,1.85,65.33-33.48.46-65.37.25-98.85.7-.75,8.48-2.55,28.93-.68,43.34,4.61,35.58,20.06,60.22,34.39,82.55a308.82,308.82,0,0,0,56.41,65.35l-53.66,55.72A137.93,137.93,0,0,1,725.92,696q-13.42,10.31-26.83,20.63a288.11,288.11,0,0,0,30.27,32.33,298,298,0,0,0,115.56,65.35c53.92,16,98.25,12.23,110.07,11,100.1-10.32,162.74-74.45,180.91-93.55,38.41-40.37,54.63-77.5,57.79-85.3a243.76,243.76,0,0,0,15.13-55.72,756.2,756.2,0,0,0-97,.68c-37.9,2.75-55.61.73-75-10.31a81.36,81.36,0,0,1-36.46-44,102.09,102.09,0,0,1-4.82-41.27l-55-2.07v-68.1L908.9,412.54l-1.38,19.95-10.94.28V426.3Z"
            transform="translate(-613.49 -223.71)" />
    </g>
    <g id="N550d">
        <path class="room"
            d="M822.45,257.08a262.89,262.89,0,0,1,62.37-18.81c58.71-9.94,107.43,2.57,134.37,11.93q-17,52.74-33.94,105.48c-39.12-10.68-65.78-16-83.46-18.81-3.64-.58-7.75-2.52-15-5.19-24.51-9.07-37.33-27.11-43.95-36.53C837.4,287.37,828.45,274,822.45,257.08Z"
            transform="translate(-613.49 -223.71)" />
    </g>
    <g id="N550b">
        <path class="room"
            d="M753.43,494.4a236.35,236.35,0,0,1,6.88-27.51c2.36-7.51,4.94-14.4,7.57-20.64l77-.69.69,48.84Z"
            transform="translate(-613.49 -223.71)" />
    </g>
    <g id="N550a">
        <polygon class="room"
            points="333.93 205.34 384.84 226.66 384.84 259.68 333.93 259.68 333.93 205.34" />
    </g>
    <g id="N550c">
        <path class="room"
            d="M736.24,693.89l57.09-47.46,41.28,42-44.72,48.84a127.23,127.23,0,0,1-53.65-43.34Z"
            transform="translate(-613.49 -223.71)" />
    </g>
    <g id="stairs">
        <path class="stair"
            d="M743.11,300.41l29.58,36.46a223.79,223.79,0,0,0-76.35,113.51l48.84,23.38q-1.73,8.61-3.44,17.2H717.66L719,574.89l26.83,1.37q2.4,9.29,4.81,18.57l-39.9,24.71,31,56.47L692.9,708.34c-35.77-42.65-55.77-108.46-61.81-143.09-3.9-22.33-9.14-87,21.22-156.15C679,348.31,722.69,314.35,743.11,300.41Z"
            transform="translate(-613.49 -223.71)" />
    </g>
    <g id="lift">
        <polygon class="lift"
            points="116.56 179.2 95.23 221.85 131.69 243.17 153.01 193.65 116.56 179.2" />
    </g>
    <g id="lift-2" data-name="lift">
        <polygon class="lift"
            points="126.88 159.25 157.14 188.83 191.54 150.31 159.21 124.17 126.88 159.25" />
    </g>
    <g id="accessible_toilet" data-name="Accessible Toilet">
        <path class="accessible-toilet"
            d="M771.32,437.31a107.58,107.58,0,0,1,41.27-50.91l29.58,8.94c.23,13.3.46,28.44.69,41.74C819,437.76,795.17,436.62,771.32,437.31Z"
            transform="translate(-613.49 -223.71)" />
    </g>
</svg>