<svg id="svg76536" xmlns="http://www.w3.org/2000/svg" viewBox="0 0 231.56 232.69">
    <g id="Library_7" data-name="Library 7" class="cls-1">
        <ellipse id="path124674" class="background" cx="115.78" cy="116.34" rx="115.78" ry="116.34" />
    </g>
    <g id="lift">
        <path class="lift" d="M692.61,355.84l13.9,6.63L698,379.79l-13.68-6.5Z"
            transform="translate(-651.96 -285.76)" />
    </g>
    <g id="lift-2" data-name="lift">
        <path class="lift" d="M696.23,350l13.2-14.1,10.89,10.76-12.91,14Z"
            transform="translate(-651.96 -285.76)" />
    </g>
    <g id="stairs">
        <path class="stair"
            d="M695.4,316.55l12.42,16.12c-4.33,2.93-9.9,8.49-15.63,17.13-6.76,10.18-10,19.77-10.78,25.22l16.05,8.71-1.14,6.19h-9.17q.23,16.51.46,33l11,.23c.38,1.84.77,3.67,1.15,5.51l-33.71,19.26a113,113,0,0,1-10.32-49.53,111,111,0,0,1,15.37-54.12A106.43,106.43,0,0,1,695.4,316.55Z"
            transform="translate(-651.96 -285.76)" />
    </g>
    <g id="N700">
        <path class="room"
            d="M699.76,314.71q12.38,16.05,24.76,32.11l2.75-3.9,11.93.69L742.41,320l3.44.23q-1.73,17.08-3.44,34.16h-3q.35-3.9.68-7.79l-11.46-.46-15.13,14.44c-.08,1.61-.16,3.21-.23,4.82l26.37,2.29q.11-3.21.23-6.42l3.21.46q-.24,4.25-.46,8.48l-33.71-2.52a78.75,78.75,0,0,0-9.86,34.4,77.91,77.91,0,0,0,2.52,23.61l35.09,4.13q-.58,4.81-1.15,9.63l-2.75-.69q.35-2.86.68-5.73l-29.8-3.44A79.59,79.59,0,0,0,717,451.38l11.69.68q.57-3,1.15-6l2.52.23q-1.5,17-3,33.94l-3.44-.69q1.49-12.15,3-24.31l-13.3-.91-3-2.53-28.89,25.46a113.76,113.76,0,0,0,23.84,20.17c8,5.07,36.13,22.25,74.3,17.2,39-5.16,62-30.06,68.1-36.91a112.89,112.89,0,0,0,23.16-40.36,119.8,119.8,0,0,0,4.81-43.8c-.63-8.95-2-25.35-11.46-43.79a105.94,105.94,0,0,0-30.73-36,109.09,109.09,0,0,0-52.28-22.7A111.27,111.27,0,0,0,722,300.73,109.16,109.16,0,0,0,699.76,314.71Z"
            transform="translate(-651.96 -285.76)" />
    </g>
    <g id="N701">
        <path class="room" d="M668.7,451.75l17.15-11.15,10.38,20.17-13.77,13.54a69.47,69.47,0,0,1-13.76-22.56Z"
            transform="translate(-651.96 -285.76)" />
    </g>
</svg>