<svg width="638" height="501" viewBox="0 0 638 501"
    xmlns="http://www.w3.org/2000/svg">
    <g id="RGUSportLevel3">
        <g id="level 2">
            <path id="Vector" opacity="0.55" d="M78.1517 119.48H0.637085V66.8895H72.8574V0.352478H126.796V69.2989H136.57V62.5803H236.892V99.602H444.173L602.404 142V147.651H599.247V427.753H637.032V496.7V500.352H157.779V147.272H141.282L78.189 112.551L78.1517 119.48Z" class="room"/>
        </g>
        <g id="S216">
            <path id="Vector_2" d="M140.628 66.3903V88.2683L162.948 101.358H232.887V66.4513L140.628 66.3903Z" class="room"/>
        </g>
        <g id="S215">
            <path id="Vector_3" d="M295.585 105.264V123.114H330.569V105.173L295.585 105.264Z" class="room"/>
        </g>
        <g id="S214">
            <path id="Vector_4" d="M406.032 197.806H341.427C341.427 197.806 341.07 224.78 325.932 238.358C326.08 238.786 325.932 272.96 325.932 272.96H338.745V263.44H349.473V242.264H419.71L439.675 247.36H496.741V198.508C496.741 198.508 436.398 172.755 422.094 188.591" class="room"/>
        </g>
        <g id="S214f">
            <path id="Vector_5" d="M339.931 265.507H360.09V272.812H339.953L339.931 265.507Z" class="room"/>
        </g>
        <g id="S214e">
            <path id="Vector_6" d="M354.04 243.941H378.443V264.329H354.266L354.04 243.941Z" class="room"/>
        </g>
        <g id="S214d">
            <path id="Vector_7" d="M379.617 244.033C379.617 244.033 400.792 243.825 400.792 244.033C400.792 244.241 400.792 273.02 400.792 273.02H364.357V265.392H379.459L379.617 244.033Z" class="room"/>
        </g>
        <g id="S214c">
            <path id="Vector_8" d="M402.711 243.617V272.673H427.114V252.84L428.869 246.291L418.772 243.585L402.711 243.617Z" class="room"/>
        </g>
        <g id="S214b">
            <path id="Vector_9" d="M452.488 248.494V272.789H428.266V253.349L430.024 246.786L439.417 248.379L452.488 248.494Z" class="room"/>
        </g>
        <g id="S214a">
            <path id="Vector_10" d="M453.978 248.425V272.512H503.823V248.379L453.978 248.425Z" class="room"/>
        </g>
        <g id="S212a">
            <path id="Vector_11" d="M538.891 155.968L544.67 134.4L595.751 148.087V156.245L538.891 155.968Z" class="room"/>
        </g>
        <g id="S212">
            <path id="Vector_12" d="M492.107 156.22H536.94L543.048 133.425L440.879 106.049H408.445V118.564H394.855V156.312H405.307C405.307 156.312 439.192 125.453 492.107 156.22Z" class="room"/>
        </g>
        <g id="S212B">
            <path id="Vector_13" d="M406.901 106.567V117.293H394.981V106.59L406.901 106.567Z" class="room"/>
        </g>
        <g id="S213">
            <path id="Vector_14" d="M393.309 156.173H340.778L334.875 150.271V106.429H393.625L393.309 156.173Z" class="room"/>
        </g>
        <g id="S211a pool cupboard">
            <path id="Vector_15" d="M324.341 240.433V272.61H305.333V250.904C305.333 250.904 315.695 248.315 324.341 240.433Z" class="room"/>
        </g>
        <g id="S207 male changing room">
            <path id="Vector_16" d="M316.734 274.997V285.93H305.333V303.521V337.293H405.068V316.265H442.568V275.144H340.711V294.006H326.037V274.936L316.734 274.997Z" class="bathroom"/>
        </g>
        <g id="S208 family changing room">
            <path id="Vector_17" d="M326.375 339.215H305.335V392.52H326.194V370.454H340.755V392.321H402.813V370.5H415.094V360.768H405.116V339.271H340.778V360.537H326.42L326.375 339.215Z" class="bathroom"/>
        </g>
        <g id="S208a">
            <path id="Vector_18" d="M431.619 360.606V370.5H416.561V360.722L431.619 360.606Z" class="room"/>
        </g>
        <g id="S208b disabled shower disabled toilet">
            <path id="Vector_19" d="M419.744 372.164H404.551V392.275H419.767L419.744 372.164Z" class="accessible-toilet"/>
        </g>
        <g id="S208c family disabled toilet">
            <path id="Vector_20" d="M339.017 372.21H327.526V392.621H339.062L339.017 372.21Z" class="accessible-toilet"/>
        </g>
        <g id="S208d family disabled shower">
            <path id="Vector_21" d="M327.933 339.456H339.017V359.566H327.73L327.933 339.456Z" class="accessible-toilet"/>
        </g>
        <g id="S207b male disabled toilet">
            <path id="Vector_22" d="M339.084 292.203H327.707V275.097H339.175L339.084 292.203Z" class="accessible-toilet"/>
        </g>
        <g id="S207a male toilet">
            <path id="Vector_23" d="M406.682 317.875H430.972V359.391H406.659L406.682 317.875Z" class="bathroom"/>
        </g>
        <g id="S210">
            <path id="Vector_24" d="M305.064 445.327V394.264H419.902V447.915H373.082V479.954H359.153V473.759H348.859V444.356H344.706V427.921H325.382V445.419L305.064 445.327Z" class="room"/>
        </g>
        <g id="S210a">
            <path id="Vector_25" d="M408.05 449.603H419.812V479.769H408.028L408.05 449.603Z" class="room"/>
        </g>
        <g id="S210b female toilets">
            <path id="Vector_26" d="M374.572 449.51H406.425V479.884H379.335V476.949H374.617L374.572 449.51Z" class="bathroom"/>
        </g>
        <g id="S210c female disabled toilet">
            <path id="Vector_27" d="M327.007 429.955H343.283V444.332H326.872L327.007 429.955Z" class="accessible-toilet"/>
        </g>
        <g id="S211b">
            <path id="Vector_28" d="M303.101 469.774V452.969H305.448V446.52H329.242V478.581H305.065V469.844L303.101 469.774Z" class="room"/>
        </g>
        <g id="SST02 UP">
            <path id="Vector_29" d="M331.545 445.849H346.534V473.265H331.59L331.545 445.849Z" class="stair"/>
        </g>
        <g id="SST02 DOWN">
            <path id="Vector_30" d="M330.529 481.17H305.087V495.895H330.551L330.529 481.17Z" class="stair"/>
        </g>
        <g id="S206 first aid room">
            <path id="Vector_31" d="M444.542 327.012H466.868V352.508H444.429L444.542 327.012Z" class="room"/>
        </g>
        <g id="S206a">
            <path id="Vector_32" d="M444.542 318.782V325.463H458.651V318.574L444.542 318.782Z" class="room"/>
        </g>
        <g id="S205 climbing cupboard">
            <path id="Vector_33" d="M468.832 327.289V352.67H492.581V326.988L468.832 327.289Z" class="room"/>
        </g>
        <g id="S205a">
            <path id="Vector_34" d="M460.638 318.875V325.347H476.485V318.852L460.638 318.875Z" class="room"/>
        </g>
        <g id="S205b">
            <path id="Vector_35" d="M478.291 318.782V325.37H492.671V318.852L478.291 318.782Z" class="room"/>
        </g>
        <g id="S203b">
            <path id="Vector_36" d="M503.846 275.14V293.286H492.626V300.891H468.674V316.979H444.271V275.025L503.846 275.14Z" class="room"/>
        </g>
        <g id="S203c electrical cupboard">
            <path id="Vector_37" d="M484.319 302.602H492.536V316.702H484.364L484.319 302.602Z" class="room"/>
        </g>
        <g id="S203d store">
            <path id="Vector_38" d="M470.209 302.532H482.287V316.61H470.3L470.209 302.532Z" class="room"/>
        </g>
        <g id="S204">
            <path id="Vector_39" d="M494.59 318.158H504.027V295.112H494.748L494.59 318.158Z" class="room"/>
        </g>
        <g id="S209 climbing zone (wall)">
            <path id="Vector_40" d="M422.994 372.22H475.247L486.428 383.401V408.962H455.84V478.779H422.76L422.994 372.22Z" class="room"/>
        </g>
        <g id="SST03 down">
            <path id="Vector_41" d="M458.153 411.664H471.129V445.184H458.111L458.153 411.664Z" class="room"/>
        </g>
        <g id="SST03 up">
            <path id="Vector_42" d="M472.857 412.052H484.864V459.527H472.604L472.857 412.052Z" class="room"/>
        </g>
        <g id="S201">
            <path id="Vector_43" d="M506.034 436.491V458.665H523.139V479.739H595.666V412.161H523.939V436.362L506.034 436.491Z" class="room"/>
        </g>
        <g id="S202 cleaners cupboard">
            <path id="Vector_44" d="M505.907 412.074V433.751H521.369V412.246L505.907 412.074Z" class="room"/>
        </g>
        <g id="S203 studio 3">
            <path id="Vector_45" d="M505.929 410.004V343.31H595.287V410.26L505.929 410.004Z" class="room"/>
        </g>
        <g id="S203a studio 3a">
            <path id="Vector_46" d="M505.844 342.239H595.328V199.899H505.886L505.844 342.239Z" class="room"/>
        </g>
        <g id="SST04">
            <path id="Vector_47" d="M632.629 496.04V432.345H599.073V481.308H587.445V496.493L632.629 496.04Z" class="room"/>
        </g>
        <g id="S211 swimming pool">
            <path id="Vector_48" d="M169.081 256.364H285.011V478.94H168.861L169.081 256.364Z" class="room"/>
        </g>
        <g id="SLS02">
            <path id="Vector_49" d="M281.981 190.004H295.689V207.641H281.802L281.981 190.004Z" class="room"/>
        </g>
        <g id="SST05">
            <path id="Vector_50" d="M288.02 223.438C302.28 223.438 313.84 211.903 313.84 197.675C313.84 183.446 302.28 171.912 288.02 171.912C273.76 171.912 262.2 183.446 262.2 197.675C262.2 211.903 273.76 223.438 288.02 223.438Z" class="room"/>
        </g>
    </g>
</svg>
