<svg width="605" height="501" viewBox="0 0 605 501"
    xmlns="http://www.w3.org/2000/svg">
    <g id="RGUSportLevel4">
        <g id="level 3">
            <path id="Vector"   d="M2.34656 2.25991H170.574V29.3685H218.506V0.262451H361.096L558.209 53.0788V412.849H604.009V500.262H0.612671L2.34656 2.25991Z" class="background"/>
        </g>
        <g id="S313 main gym">
            <path id="Vector_2" d="M185.366 248.465H274.132L333.648 307.981V341.865H377.39V476.86H208.845V412.439H184.861L185.366 248.465Z" class="room"/>
        </g>
        <g id="S314 sports president">
            <path id="Vector_3" d="M246.058 218.04H185.315V246.373H246.866C246.866 246.373 250.905 220.418 246.058 218.04Z" class="room"/>
        </g>
        <g id="S315 head of sport">
            <path id="Vector_4" d="M246.21 214.726H185.871V178.224C185.871 178.224 233.94 169.589 246.21 214.726Z" class="room"/>
        </g>
        <g id="S302 main office">
            <path id="Vector_5" d="M239.747 137.905V123.118H310.538L340.436 105.856V165.773H310.487C310.487 165.773 244.796 204.963 239.747 137.905Z" class="room"/>
        </g>
        <g id="S303a">
            <path id="Vector_6" d="M354.87 167.22H381.278V183.3H354.517L354.87 167.22Z" class="room"/>
        </g>
        <g id="S303 colleague room">
            <path id="Vector_7" d="M342.954 105.332V164.48H381.934V108.693C381.934 108.693 359.111 97.422 342.954 105.332Z" class="room"/>
        </g>
        <g id="S304 physio room">
            <path id="Vector_8" d="M384.179 109.727V183.662H436.995V123.997H425.937V120.74L384.179 109.727Z" class="room"/>
        </g>
        <g id="S305 S&#38;C room Strength and Conditioning)">
            <path id="Vector_9" d="M439.708 124.256H552.812V248.032H439.657L439.708 124.256Z" class="room"/>
        </g>
        <g id="S305a S&#38;C store">
            <path id="Vector_10" d="M472.736 250.439H519.445V282.509H472.594L472.736 250.439Z" class="room"/>
        </g>
        <g id="S306 toilet">
            <path id="Vector_11" d="M422.742 200.088H437.306V221.662H423.001L422.742 200.088Z" class="bathroom"/>
        </g>
        <g id="S307 toilet">
            <path id="Vector_12" d="M406.458 200.282H420.951V221.662H406.599L406.458 200.282Z" class="bathroom"/>
        </g>
        <g id="S308 disabled toilet">
            <path id="Vector_13" d="M404.573 200.451V221.565H383.599V207.038L390.275 200.363" class="accessible-toilet"/>
        </g>
        <g id="S309 male toilet">
            <path id="Vector_14" d="M383.622 262.222L393.456 272.056L402.868 262.643V239.732H437.189V223.444C437.189 223.444 383.764 223.757 383.764 223.444C383.764 223.13 383.622 262.222 383.622 262.222Z" class="bathroom"/>
        </g>
        <g id="S310 female toilet">
            <path id="Vector_15" d="M394.957 273.009L404.499 282.55H425.311V251.604H437.235V241.566H404.03V263.332L394.957 273.009Z" class="bathroom"/>
        </g>
        <g id="S311">
            <path id="Vector_16" d="M439.458 283.289V270.596H454.14V283.289H439.458Z" class="room"/>
        </g>
        <g id="S311a electrical cupboard">
            <path id="Vector_17" d="M427.297 252.98H437.148V282.492H426.967L427.297 252.98Z" class="room"/>
        </g>
        <g id="S311c">
            <path id="Vector_18" d="M439.575 268.882H454.163V249.819H439.552L439.575 268.882Z" class="room"/>
        </g>
        <g id="S311b">
            <path id="Vector_19" d="M456.378 250.302H470.376V282.71H456.425L456.378 250.302Z" class="room"/>
        </g>
        <g id="S312 kitchen">
            <path id="Vector_20" d="M522.049 250.585H553.015V312.12H521.861L522.049 250.585Z" class="room"/>
        </g>
        <g id="S300">
            <path id="Vector_21" d="M165.525 154.342C184.204 154.342 199.346 139.938 199.346 122.168C199.346 104.399 184.204 89.9944 165.525 89.9944C146.846 89.9944 131.704 104.399 131.704 122.168C131.704 139.938 146.846 154.342 165.525 154.342Z" class="room"/>
        </g>
        <g id="SST03">
            <path id="Vector_22" d="M395.224 371.07H435.389V452.779C435.389 452.779 395.524 453.905 395.524 452.779C395.524 451.652 395.224 371.07 395.224 371.07Z" class="room"/>
        </g>
        <g id="SST04">
            <path id="Vector_23" d="M557.787 417.57H599.852V499.688H554.354V479.893H557.52L557.787 417.57Z" class="room"/>
        </g>
        <g id="SST02">
            <path id="Vector_24" d="M206.412 415.385H159.647V499.688H206.412V415.385Z" class="room"/>
        </g>
    </g>
</svg>
