<svg width="1350" height="501" viewBox="0 0 1350 501"
    xmlns="http://www.w3.org/2000/svg">
    <g id="SirIanWoodLevel5">
        <g id="_5th_Floor">
            <path id="Vector"   d="M1234.23 285.834C1115.45 304.367 951.001 330.213 950.681 330.381C951.001 332.066 951.633 335.09 951.97 336.927C931.373 340.246 910.439 343.472 889.842 346.792C898.14 329.876 904.037 317.838 912.326 300.922C926.961 306.701 942.913 308.305 958.406 305.555C992.524 299.313 1010.16 273.678 1013.22 269.045C1019.82 259.096 1031.51 236.797 1026.06 208.778C1019.22 173.7 990.789 156.818 986.4 154.308L1000.39 119.768L1154.37 194.744L1201.02 100.486L1121.71 63.4192C1125.33 56.2081 1128.96 48.997 1132.59 41.7859L1055.6 3.92765C1051.46 13.1942 1047.31 22.4608 1043.16 31.7274C1028.31 23.4962 1012.33 17.5064 995.725 13.9524L996.509 4.68582C957.221 -2.39156 916.857 -0.729493 878.285 9.55393C839.712 19.8374 803.877 38.4897 773.327 64.1858L703.339 128.311C664.984 160.904 626.233 190.312 587.903 223.024C582.351 229.055 567.811 245.053 543.145 251.051C536.776 252.601 523.997 253.78 509.709 247.959C488.868 239.468 479.997 221.145 477.824 216.284L327.739 43.9762C325.641 42.5441 305.954 24.5079 283.731 17.6843C262.072 11.0461 237.87 15.612 235.823 14.2136L0.476562 48.5926L73.3709 141.503L263.993 118.193L373.373 259.719L341.546 285.413L300.857 239.08L290.428 247.193C287.87 236.453 283.701 226.163 278.062 216.672C274.144 210.092 263.841 193.227 243.295 180.743C216.135 164.248 188.774 166.144 179.549 167.222C145.625 171.181 124.607 191.071 116.579 198.905C109.688 205.644 97.6747 217.59 90.691 237.538C82.4185 261.126 85.9398 282.355 89.1494 293.938C95.4507 316.684 108.424 330.642 115.416 337.98C125.807 348.958 138.286 357.751 152.12 363.842C166.619 370.065 182.325 372.969 198.091 372.342C215.503 371.514 232.404 366.188 247.145 356.884C266.739 344.121 276.048 327.702 279.999 320.567C285.576 310.441 289.49 299.485 291.591 288.117L315.355 293.677C319.685 299.574 322.364 303.188 322.373 303.188C314.387 309.363 297.698 322.193 293.537 326.388C302.09 338.94 310.643 351.495 319.197 364.053L350.105 340.869L370.525 362.317L320.368 415.044C337.516 434.455 357.585 451.076 379.851 464.309C429.924 494.004 478.616 497.508 511.074 499.69C538.47 501.501 558.696 499.539 599.149 495.63C637.479 491.923 660.258 487.576 749.613 471.874C780.968 466.364 808.026 461.647 829.365 457.94C989.306 432.187 1164.76 400.058 1324.71 374.305C1325.87 371.991 1327.03 369.672 1328.19 367.347L1339 366.192C1342.09 361.138 1346.1 351.509 1349.2 346.488C1312.08 326.498 1271.32 305.757 1234.23 285.834ZM554.964 398.625C534.151 401.512 513.002 400.925 492.381 396.89C465.196 391.392 439.506 380.128 417.044 363.859C400.115 351.613 385.248 336.746 373.002 319.817L406.614 298.378C415.697 309.398 426.223 319.142 437.91 327.349C445.248 332.496 476.914 353.767 523.668 356.328C563.161 358.484 592.46 346.151 600.749 342.419C613.672 336.581 619.005 332.024 657.537 302.43C706.709 264.664 695.033 274.394 718.385 256.097C767.06 217.902 791.397 198.812 809.947 181.341C833.046 159.581 843.484 146.928 868.47 130.922C894.686 114.141 911.736 109.786 918.307 108.328C937.804 104.071 958.009 104.267 977.42 108.901L965.828 137.299C957.576 134.749 948.961 133.574 940.328 133.82C900.936 135.033 877.096 166.32 875.462 168.595C854.848 196.572 858.824 227.387 860.391 236.393C865.732 266.964 885.107 285.084 891.105 290.307L864.451 347.676L554.964 398.625Z" class="background"/>
        </g>
        <g id="Library">
            <path id="Vector_2" d="M190.458 361.526C240.548 361.526 281.153 320.92 281.153 270.831C281.153 220.742 240.548 180.136 190.458 180.136C140.369 180.136 99.7637 220.742 99.7637 270.831C99.7637 320.92 140.369 361.526 190.458 361.526Z" class="library"/>
        </g>
        <g id="N533">
            <path id="Vector_3" d="M1025.23 66.1739C1029.44 55.7363 1035.72 44.726 1039.91 34.2968L1044.54 36.0406L1057.87 9.76562L1124.71 42.9906C1121.42 50.2017 1118.14 57.4128 1114.86 64.6239L1193.28 102.297L1169.52 149.615L1088.58 112.338L1073.14 146.532L1028.91 125.278L1050.35 78.1025C1042.67 73.9663 1032.89 70.3607 1025.23 66.1739Z" class="room"/>
        </g>
        <g id="N533a">
            <path id="Vector_4" d="M1022.52 102.103C1020.08 107.444 1016.85 113.754 1014.41 119.103C1017.38 121.091 1021.15 122.127 1024.06 124.158L1032.56 107.545L1022.52 102.103Z" class="room"/>
        </g>
        <g id="N530">
            <path id="Vector_5" d="M921.786 7.44055C923.146 20.9642 924.499 34.4849 925.847 48.0029C957.814 44.1621 990.16 50.8775 1017.96 67.1258L1033.03 32.3593C1020.01 26.2281 1006.14 22.123 991.884 20.1863C992.446 16.7099 993.024 13.2336 993.619 9.75719C969.953 5.07136 945.68 4.28881 921.761 7.44055H921.786Z" class="room"/>
        </g>
        <g id="N528">
            <path id="Vector_6" d="M789.662 57.8676L820.376 94.3695C827.629 88.8517 835.733 83.1654 844.714 77.5717C851.301 73.4607 857.704 69.8131 863.837 66.5613L841.816 26.5718C833.779 30.7839 825.447 35.3919 816.897 40.4801C807.159 46.2759 798.086 52.1139 789.662 57.8676Z" class="room"/>
        </g>
        <g id="N529">
            <path id="Vector_7" d="M849.347 25.9063C855.727 38.082 862.101 50.2521 868.47 62.4166C884.021 54.3355 901.37 50.3381 918.889 50.7997L910.776 10.2373C889.557 11.9061 868.78 17.1971 849.347 25.881V25.9063Z" class="room"/>
        </g>
        <g id="N526">
            <path id="Vector_8" d="M762.906 83.7467L781.836 108.859L797.682 94.5381L808.498 107.68L816.223 101.109L786.09 62.0881L762.906 83.7467Z" class="room"/>
        </g>
        <g id="N525">
            <path id="Vector_9" d="M713.457 125.859L741.644 162.176L788.39 124.697C778.348 111.948 768.303 99.1995 758.256 86.4509L713.457 125.859Z" class="room"/>
        </g>
        <g id="N523">
            <path id="Vector_10" d="M663.619 167.972L689.894 202.738L736.64 164.88L709.632 128.176L663.619 167.972Z" class="room"/>
        </g>
        <g id="N527">
            <path id="Vector_11" d="M818.152 126.247C824.209 135.134 831.572 142.522 837.629 151.41C844.714 143.221 857.164 134.241 871.469 124.317C889.025 112.128 905.224 108.135 916.664 105.784C914.092 94.4566 911.517 83.126 908.939 71.7927C873.714 79.9805 841.954 99.0358 818.152 126.263V126.247Z" class="room"/>
        </g>
        <g id="N502">
            <path id="Vector_12" d="M43.1704 47.4301C45.2006 60.3022 47.8037 74.7244 49.8339 87.605C142.154 75.3731 206.608 63.7393 231.19 60.7571C242.134 59.2503 253.249 59.5091 264.111 61.5237C279.494 64.3206 286.486 71.2031 291.515 74.6654C306.325 84.8503 315.575 98.7165 320.25 106.922C322.027 105.506 325.7 103.122 327.478 101.707C329.761 103.897 332.044 107.604 334.327 109.82C339.912 105.186 353.871 94.7487 359.448 90.1154C345.969 74.1095 328.809 56.3092 314.159 41.053C306.738 35.6025 294.784 27.17 281.423 22.6967C253.505 13.3627 227.862 18.4846 215.967 21.3488C159.828 31.7864 100.261 39.7051 43.1704 47.4301Z" class="room"/>
        </g>
        <g id="N502a">
            <path id="Vector_13" d="M13.0371 52.0719C20.1218 50.9094 31.4523 49.7553 38.5371 48.5928C41.1149 61.7261 42.269 74.0927 44.8468 87.226C43.4315 87.226 39.1773 88.0011 37.7621 88.0011C29.5232 76.0219 21.2816 64.0455 13.0371 52.0719Z" class="room"/>
        </g>
        <g id="N501">
            <path id="Vector_14" d="M96.2423 95.4984L246.403 76.822C246.1 88.8012 245.794 100.778 245.485 112.751L106.537 131.672L82.0308 108.927L99.393 106.02L96.2423 95.4984Z" class="room"/>
        </g>
        <g id="N501a">
            <path id="Vector_15" d="M250.725 75.1204C250.377 83.3592 250.034 91.6009 249.697 99.8453C251.289 99.4831 254.457 100.334 257.936 101.134C262.367 102.154 264.97 103.308 266.175 104.504C270.303 97.2029 274.425 89.902 278.542 82.601C270.276 77.2836 260.56 74.672 250.742 75.1288L250.725 75.1204Z" class="room"/>
        </g>
        <g id="N504">
            <path id="Vector_16" d="M264.12 112.844C267.75 115.093 270.295 118.884 274.136 123.003C281.895 131.343 287.042 138.066 290.142 143.87L314.572 123.778L299.889 106.778L282.147 117.814C278.196 115.068 275.577 111.075 271.626 108.345C270.648 108.766 269.351 109.828 268.256 110.384C266.95 111.091 265.206 112.136 264.12 112.844Z" class="room"/>
        </g>
        <g id="N505">
            <path id="Vector_17" d="M291.195 148.52L303.587 164.526L330.628 144.434L317.992 128.471L291.195 148.52Z" class="room"/>
        </g>
        <g id="N506">
            <path id="Vector_18" d="M307.167 168.612L318.236 181.492L346.036 161.401L333.678 147.24L307.167 168.612Z" class="room"/>
        </g>
        <g id="N508">
            <path id="Vector_19" d="M343.483 113.366L367.914 94.833L451.363 189.875L417.144 218.441C392.759 188.676 368.385 158.888 344.023 129.077L351.234 123.18C348.639 119.901 346.056 116.629 343.483 113.366Z" class="room"/>
        </g>
        <g id="N509">
            <path id="Vector_20" d="M420.363 222.956L454.059 195.654C457.185 199.866 464.025 206.057 473.376 218.576C479.922 227.345 482.803 234.152 488.826 238.929C493.691 242.766 499.081 245.887 504.832 248.195L488.826 289.667C479.507 285.616 470.831 280.224 463.073 273.661C457.176 268.674 453.352 264.226 436.546 243.267C430.194 235.331 424.701 228.432 420.363 222.956Z" class="room"/>
        </g>
        <g id="N509a">
            <path id="Vector_21" d="M495.439 292.498C500.493 278.851 505.548 265.201 510.602 251.548C512.8 252.385 515.051 253.072 517.342 253.603C520.384 254.321 523.486 254.752 526.608 254.892C526.007 270.174 525.407 285.455 524.806 300.737C514.667 299.451 504.774 296.675 495.447 292.498H495.439Z" class="room"/>
        </g>
        <g id="N516b">
            <path id="Vector_22" d="M531.107 255.153C530.939 262.963 530.635 271.547 530.467 279.365L555.192 277.048C553.044 268.624 550.895 261.244 548.756 252.828C547.239 253.982 543.432 255.094 539.548 255.356C534.948 255.65 533.045 255.507 531.107 255.153Z" class="room"/>
        </g>
        <g id="N516c">
            <path id="Vector_23" d="M551.839 251.228C553.237 255.558 555.015 260.343 556.413 264.706C568.737 260.245 579.922 253.114 589.166 243.823C586.226 240.15 583.556 236.814 580.607 233.149C577.575 236.62 572.672 240.049 566.43 244.101C561.866 247.047 556.968 249.439 551.839 251.228Z" class="room"/>
        </g>
        <g id="N516d">
            <path id="Vector_24" d="M583.455 231.077L591.508 241.641C598.416 236.401 605.327 231.164 612.24 225.93L602.645 213.749L583.455 231.077Z" class="room"/>
        </g>
        <g id="N516e">
            <path id="Vector_25" d="M605.577 212.788L635.904 187.516L664.487 223.344L635.002 247.875L605.577 212.788Z" class="room"/>
        </g>
        <g id="N516">
            <path id="Vector_26" d="M557.281 268.607C560.145 277.138 563.012 285.669 565.882 294.2C582.338 289.492 597.314 280.649 609.384 268.514L597.658 254.412L619.679 236.351L613.108 228.137C596.71 244.432 577.876 258.074 557.281 268.573V268.607Z" class="room"/>
        </g>
        <g id="N516f">
            <path id="Vector_27" d="M601.617 254.665L612.333 267.806L633.292 251L622.088 237.665L601.617 254.665Z" class="room"/>
        </g>
        <g id="N519">
            <path id="Vector_28" d="M638.7 185.351L659.567 168.553L687.19 205.805L668.657 220.488L638.7 185.351Z" class="room"/>
        </g>
        <g id="N512">
            <path id="Vector_29" d="M471.809 302.413L492.668 311.107L482.432 342.976C478.372 342.976 460.024 334.863 455.391 331.771L471.809 302.413Z" class="room"/>
        </g>
        <g id="N513">
            <path id="Vector_30" d="M497.343 312.977C493.476 323.852 491.547 333.768 487.68 344.652C492.12 346.968 508.741 350.835 512.953 350.835L517.165 317.029L497.343 312.977Z" class="room"/>
        </g>
        <g id="N514">
            <path id="Vector_31" d="M523.188 317.846L544.434 318.04L546.203 352.183L520.509 352.571L523.188 317.846Z" class="room"/>
        </g>
        <g id="N515a">
            <path id="Vector_32" d="M548.301 317.846L561.047 314.763C563.574 325.512 566.101 337.23 568.628 347.979C562.832 349.462 557.037 349.976 551.241 351.459C550.247 340.283 549.267 329.078 548.301 317.846Z" class="room"/>
        </g>
        <g id="N515">
            <path id="Vector_33" d="M565.781 313.693L575.047 346.918C586.151 343.067 596.936 338.352 607.304 332.816C616.57 327.862 623.596 321.266 630.554 316.321L626.039 310.424L645.356 294.199L630.723 276.087C624.64 283.113 613.032 291.495 598.804 299.869C585.704 307.552 574.475 311.696 565.781 313.693Z" class="room"/>
        </g>
        <g id="N515b">
            <path id="Vector_34" d="M635.415 274.596C639.992 280.263 644.564 285.93 649.13 291.596L660.528 282.903L646.813 265.136L635.415 274.596Z" class="room"/>
        </g>
        <g id="N517a">
            <path id="Vector_35" d="M656.282 268.8L664.984 280.392L701.107 250.646L685.101 229.586C676.281 237.058 665.919 245.364 657.099 252.828C659.475 256.434 662.153 258.439 664.529 262.044C661.336 264.041 659.432 266.804 656.282 268.8Z" class="room"/>
        </g>
        <g id="N518">
            <path id="N517" d="M693.559 235.188L709.784 255.667L730.844 238.086L713.996 218.382L693.559 235.188Z" class="room"/>
        </g>
        <g id="N526a">
            <path id="Vector_36" d="M784.152 111.563L797.294 99.9717L805.794 109.634L792.458 121.032L784.152 111.563Z" class="room"/>
        </g>
        <g id="N531">
            <path id="Vector_37" d="M913.194 69.2656C915.569 80.6551 917.951 92.0502 920.338 103.451L940.235 101.522L940.429 67.328C931.305 66.577 922.12 67.2304 913.194 69.2656Z" class="room"/>
        </g>
        <g id="N532">
            <path id="Vector_38" d="M946.992 65.205L946.613 89.93L963.992 91.8591C967.923 84.1313 971.854 76.4064 975.785 68.6842C966.444 65.964 956.721 64.7888 947 65.205H946.992Z" class="room"/>
        </g>
        <g id="N536">
            <path id="Vector_39" d="M967.858 92.6344C971.91 85.2969 975.583 76.9907 979.652 69.6448C984.926 71.1274 991.564 72.6101 996.837 74.0927L982.516 106.947L973.822 106.172L976.527 94.5803C973.974 93.6031 970.436 93.6031 967.858 92.6344Z" class="room"/>
        </g>
        <g id="N537">
            <path id="Vector_40" d="M882.479 174.728C887.764 165.896 895.039 158.421 903.725 152.901C922.941 140.778 942.628 142.623 948.735 143.44L923.235 194.432L882.479 174.728Z" class="room"/>
        </g>
        <g id="N539">
            <path id="Vector_41" d="M939.073 203.319L959.939 213.749L969.787 193.472L948.727 183.228L939.073 203.319Z" class="room"/>
        </g>
        <g id="N540a">
            <path id="Vector_42" d="M963.991 214.911L972.685 195.401L993.527 205.055L984.058 225.921L963.991 214.911Z" class="room"/>
        </g>
        <g id="N540b">
            <path id="Vector_43" d="M988.144 226.688C990.907 220.319 993.673 213.945 996.441 207.565L1020.4 218.382C1020.4 221.709 1020.33 225.332 1020.01 229.207C1019.66 233.419 1019.08 237.61 1018.28 241.759L988.144 226.688Z" class="room"/>
        </g>
        <g id="N540">
            <path id="Vector_44" d="M879.581 179.37C874.757 187.093 871.295 195.587 869.346 204.482C863.879 229.578 872.362 250.293 876.085 258.178L900.229 243.688L912.655 261.851L904.348 279.617L916.521 285.801L912.461 292.944C919.265 295.739 926.409 297.623 933.707 298.546C940.682 299.389 960.849 301.705 981.421 290.628C1006.69 277.031 1015.27 252.635 1017.16 246.78L879.581 179.37Z" class="room"/>
        </g>
        <g id="N540c">
            <path id="Vector_45" d="M878.031 261.851C882.908 269.917 889.115 277.1 896.387 283.096L907.785 260.882L898.519 248.903L878.031 261.851Z" class="room"/>
        </g>
        <g id="N542">
            <path id="Vector_46" d="M829.938 356.884L861.233 352.444C856.909 362.486 852.593 372.53 848.285 382.577L835.152 384.894C833.417 375.577 831.678 366.24 829.938 356.884Z" class="room"/>
        </g>
        <g id="N544">
            <path id="Vector_47" d="M807.352 361.332L826.669 358.804C828.022 367.684 829.376 376.568 830.729 385.459L812.373 388.938C810.711 379.733 809.037 370.531 807.352 361.332Z" class="room"/>
        </g>
        <g id="N546">
            <path id="Vector_48" d="M783.386 381.802L784.927 393.2L808.304 389.148L803.856 362.292L787.438 364.819C788.28 369.781 789.889 375.51 790.723 380.471C788.533 381.162 785.576 381.095 783.386 381.802Z" class="room"/>
        </g>
        <g id="N543">
            <path id="Vector_49" d="M826.652 404.792L859.877 398.996L843.458 433.19L830.519 426.45L826.652 404.792Z" class="room"/>
        </g>
        <g id="N545">
            <path id="Vector_50" d="M805.213 408.827L823.948 406.123L827.04 427.377L840.561 435.877L833.99 452.102L811.775 455C809.596 439.623 807.409 424.232 805.213 408.827Z" class="room"/>
        </g>
        <g id="N548t">
            <path id="Vector_51" d="M784.54 412.323C785.062 416.771 785.579 421.214 786.09 425.65L803.469 423.527C802.829 418.759 802.186 413.986 801.54 409.206L784.54 412.323Z" class="room"/>
        </g>
        <g id="N548s">
            <path id="Vector_52" d="M787.825 428.742L803.831 426.813C805.578 436.36 807.316 445.891 809.046 455.404L791.279 457.932C790.134 448.193 788.982 438.463 787.825 428.742Z" class="room"/>
        </g>
        <g id="N548c">
            <path id="Vector_53" d="M355.328 385.282L368.849 370.96L390.095 387.573L378.511 403.798L355.328 385.282Z" class="room"/>
        </g>
        <g id="N548b">
            <path id="Vector_54" d="M342.195 397.876L351.849 388.028L375.807 406.957L367.501 418.936L342.195 397.876Z" class="room"/>
        </g>
        <g id="N548a">
            <path id="Vector_55" d="M326.93 415.027L339.878 400.925L366.338 421.986L353.205 439.752L326.93 415.027Z" class="room"/>
        </g>
        <g id="N548d">
            <path id="Vector_56" d="M418.686 404.017L431.634 379.098L446.705 385.837C443.487 394.851 440.266 403.865 437.042 412.879L418.686 404.017Z" class="room"/>
        </g>
        <g id="N548e">
            <path id="Vector_57" d="M450.555 388.179L465.432 393.394L457.901 420.436L440.126 414.64C443.608 405.817 447.084 396.997 450.555 388.179Z" class="room"/>
        </g>
        <g id="N548f">
            <path id="Vector_58" d="M461.38 421.986L478.953 426.198L484.942 398.963L468.524 394.75C466.142 403.821 463.761 412.899 461.38 421.986Z" class="room"/>
        </g>
        <g id="N548g">
            <path id="Vector_59" d="M488.616 400.344L506.963 402.282L504.259 430.671L482.626 427.588L488.616 400.344Z" class="room"/>
        </g>
        <g id="N548k">
            <path id="Vector_60" d="M514.494 404.405L535.167 405.18C535.296 414.002 535.426 422.823 535.555 431.64L513.349 430.865C513.731 422.048 514.112 413.227 514.494 404.405Z" class="room"/>
        </g>
        <g id="N548l">
            <path id="Vector_61" d="M540.77 405.179L562.015 402.475L565.882 428.936L541.149 431.64C541.019 422.823 540.893 414.002 540.77 405.179Z" class="room"/>
        </g>
        <g id="N548h">
            <path id="Vector_62" d="M406.901 469.119L418.695 441.69L431.634 447.671L422.755 476.65L406.901 469.119Z" class="room"/>
        </g>
        <g id="N548i">
            <path id="Vector_63" d="M435.686 448.252L449.401 453.079L440.901 482.833L425.257 477.063C428.728 467.454 432.204 457.85 435.686 448.252Z" class="room"/>
        </g>
        <g id="N548j">
            <path id="Vector_64" d="M452.493 454.048L468.136 456.752C465.559 467.569 462.984 478.386 460.411 489.202L443.993 484.375C446.823 474.266 449.657 464.157 452.493 454.048Z" class="room"/>
        </g>
        <g id="N458p">
            <path id="Vector_65" d="M575.536 461.773L594.465 458.875C596.15 469.119 597.835 479.357 599.52 489.59L580.203 492.117C578.642 481.997 577.086 471.882 575.536 461.773Z" class="room"/>
        </g>
        <g id="N548q">
            <path id="Vector_66" d="M598.332 458.294L614.944 455.59C616.68 465.766 618.418 475.94 620.159 486.111L602.771 489.202C601.289 478.902 599.809 468.6 598.332 458.294Z" class="room"/>
        </g>
        <g id="N548r">
            <path id="Vector_67" d="M618.802 455.211L637.74 452.119C639.672 462.093 641.604 472.073 643.536 482.058L623.638 485.344C622.032 475.297 620.42 465.252 618.802 455.211Z" class="room"/>
        </g>
        <g id="NS515">
            <path id="Vector_68" d="M843.265 449.027L865.285 404.211L900.052 398.996C901.922 412.711 903.789 426.425 905.654 440.14L843.265 449.027Z" class="room"/>
        </g>
        <g id="N548">
            <path id="Vector_69" d="M372.522 367.549L388.528 349.201C400.467 360.04 413.778 369.262 428.121 376.63C423.286 386.177 418.456 395.708 413.632 405.222C421.562 409.7 429.754 413.697 438.163 417.192C455.501 424.257 473.59 429.314 492.078 432.263C514.236 435.864 536.767 436.578 559.109 434.386L659.761 417.538L655.313 387.211L681.975 383.353C685.059 398.516 688.148 413.71 691.242 428.936L778.365 414.615C781.263 428.981 784.158 443.341 787.05 457.696L646.451 480.315L640.663 447.865L572.276 458.294C573.635 469.566 574.988 480.834 576.336 492.1C538.94 497.217 500.929 495.582 464.109 487.273L471.641 454.823C462.062 452.464 451.844 449.55 441.12 445.936C432.519 443.038 424.465 439.971 416.976 436.854C412.332 446.964 407.696 457.073 403.068 467.182C386.92 461.006 371.707 452.62 357.864 442.263C370.618 423.73 383.367 405.196 396.11 386.663L372.522 367.549Z" class="room"/>
        </g>
        <g id="NS501">
            <path id="Vector_70" d="M892.908 352.444L869.666 398.996L903.405 393.2L909.841 436.728L1316.52 370.531L1318.32 364.356L1334.76 361.778L1340.6 347.373L1277.94 317.88L953.882 367.448L949.763 342.723L892.908 352.444Z" class="room"/>
        </g>
        <g id="NS502">
            <path id="Vector_71" d="M1114.67 309.675L1190.26 298.479L1194.88 325.15L1118.79 337.281L1114.67 309.675Z" class="room"/>
        </g>
        <g id="bathroom_1">
            <path id="Vector_72" d="M567.423 402.669C567.743 407.162 568.066 411.655 568.392 416.148L583.067 414.598L584.23 425.996L611.852 421.556C610.314 413.132 608.769 404.708 607.219 396.284L567.423 402.669Z" class="bathroom"/>
        </g>
        <g id="bathroom_2">
            <path id="Vector_73" d="M610.69 395.349C612.437 403.846 614.178 412.346 615.913 420.849L626.73 418.936C626.275 415.567 625.823 412.217 625.373 408.886L635.036 407.732L632.711 392.274L610.69 395.349Z" class="bathroom"/>
        </g>
        <g id="bathroom_3">
            <path id="Vector_74" d="M408.046 291.731L421.955 281.302L437.118 298.69C433.333 302.935 429.556 307.184 425.788 311.435L408.046 291.731Z" class="bathroom"/>
        </g>
        <g id="bathroom_4">
            <path id="Vector_75" d="M428.408 314.519L439.873 302.413L459.055 316.06L451.591 330.617L428.408 314.519Z" class="bathroom"/>
        </g>
        <g id="bathroom_5">
            <path id="Vector_76" d="M715.68 216.697L726.396 207.708L735.334 218.045L739.58 214.76L749.049 225.627L732.63 237.311L715.68 216.697Z" class="bathroom"/>
        </g>
        <g id="bathroom_6">
            <path id="Vector_77" d="M741.61 214.229L750.253 224.852L767.498 210.463L749.049 189.411L739.293 197.768L747.549 209.208L741.61 214.229Z" class="bathroom"/>
        </g>
        <g id="bathroom_7">
            <path id="Vector_78" d="M1039.91 321.216L1043.52 343.102L1057.04 340.145L1055.1 330.482L1067.98 328.553L1066.18 316.835L1039.91 321.216Z" class="bathroom"/>
        </g>
        <g id="bathroom_8">
            <path id="Vector_79" d="M1069.39 316.835L1070.3 327.391L1085.23 325.849L1086.52 337.281L1101.59 334.61L1097.85 311.941L1069.39 316.835Z" class="bathroom"/>
        </g>
        <g id="stairs_1">
            <path id="Vector_80" d="M43.1704 96.1471L70.9702 92.0193C71.661 97.9162 73.8934 103.872 74.5757 109.794C82.2165 118.126 88.3156 126.449 95.9563 134.78L73.8007 137.872L43.1704 96.1471Z" class="stair"/>
        </g>
        <g id="stairs_2">
            <path id="Vector_81" d="M325.708 184.323L345.539 167.323L374.644 205.704L356.356 220.126C346.146 208.191 335.93 196.257 325.708 184.323Z" class="stair"/>
        </g>
        <g id="stairs_3">
            <path id="Vector_82" d="M321.909 307.24L327.705 314.198L311.48 328.3L323.459 344.138L341.613 329.64L348.563 338.14L320.561 358.619L297.378 326.354L321.909 307.24Z" class="stair"/>
        </g>
        <g id="stairs_4">
            <path id="Vector_83" d="M729.85 374.659C731.013 381.55 732.172 388.438 733.329 395.323L778.34 388.373L775.054 367.7L729.85 374.659Z" class="stair"/>
        </g>
        <g id="stairs_5">
            <path id="Vector_84" d="M985.818 330.617L989.542 352.958L1039.91 344.778L1036.56 321.603L985.818 330.617Z" class="stair"/>
        </g>
        <g id="stairs_6">
            <path id="Vector_85" d="M1194.88 298.479L1197.79 317.88L1267.07 309.237L1232.82 292.75L1194.88 298.479Z" class="stair"/>
        </g>
        <g id="stairs_7">
            <path id="Vector_86" d="M775.913 163.591C775.913 163.591 792.138 182.52 792.138 182.124C792.138 181.728 832.187 149.674 832.187 149.674L816.181 130.745L775.913 163.591Z" class="stair"/>
        </g>
        <g id="stairs_8">
            <path id="Vector_87" d="M1111.51 158.57L1121.94 135.901L1165.85 156.506L1154.01 181.105L1111.51 158.57Z" class="stair"/>
        </g>
        <g id="stairs_9">
            <path id="Vector_88" d="M969.206 187.802L977.42 169.513L1014.41 187.153C1016.55 191.344 1018.25 195.749 1019.46 200.295C1020.73 204.684 1021.47 209.209 1021.65 213.774C1004.15 204.693 986.678 196.858 969.206 187.802Z" class="stair"/>
        </g>
        <g id="Accessible_toilet_1">
            <path id="Vector_89" d="M273.428 100.856L281.684 110.384L296.367 98.0256C293.874 95.021 291.383 92.0163 288.895 89.0117L273.428 100.856Z" class="accessible-toilet"/>
        </g>
        <g id="Accessible_toilet_2">
            <path id="Vector_90" d="M1000.89 112.145L1011.9 116.778L1018.64 101.909L1008.79 96.8547L1000.89 112.145Z" class="accessible-toilet"/>
        </g>
        <g id="Acessible_toilet_3">
            <path id="Vector_91" d="M636.965 392.046L647.2 389.721L651.067 408.254L639.863 409.796C638.897 403.888 637.931 397.971 636.965 392.046Z" class="accessible-toilet"/>
        </g>
        <g id="Accessible_toilet_4">
            <path id="Vector_92" d="M437.135 295.076L444.86 287.342L456.258 296.331L450.749 305.437L437.135 295.076Z" class="accessible-toilet"/>
        </g>
        <g id="Accessible_toilet_5">
            <path id="Vector_93" d="M725.141 202.738L735.427 194.912L745.14 208.534L735.958 215.627L725.141 202.738Z" class="accessible-toilet"/>
        </g>
        <g id="Accessible_toilet_6">
            <path id="Vector_94" d="M1058.58 333.187L1060.13 346.194L1085.49 343.102L1082.92 328.814L1058.58 333.187Z" class="accessible-toilet"/>
        </g>
        <g id="Lift_1">
            <path id="Vector_95" d="M315.532 329.067L324.032 339.884L338.522 327.719L329.441 318.057C324.807 321.73 320.171 325.4 315.532 329.067Z" class="lift"/>
        </g>
        <g id="Lift_2">
            <path id="Vector_96" d="M370.593 241.759L381.789 255.28L395.318 244.851L384.459 231.33L370.593 241.759Z" class="lift"/>
        </g>
        <g id="Lift_3">
            <path id="Vector_97" d="M692.986 381.996C693.5 385.475 694.595 390.884 695.109 394.363C701.006 393.849 706.978 391.793 712.303 390.884C711.266 387.278 711.401 382.704 710.365 379.09C704.957 379.747 698.394 381.356 692.986 381.996Z" class="lift"/>
        </g>
        <g id="Lift_4">
            <path id="Vector_98" d="M956.848 336.253C957.297 339.336 957.746 342.425 958.196 345.519L974.614 342.428C973.783 339.019 972.941 335.607 972.087 332.192L956.848 336.253Z" class="lift"/>
        </g>
        <g id="Lift_5">
            <path id="Vector_99" d="M758.399 194.533L765.981 203.387C765.981 203.387 779.114 193.598 778.617 193.472C778.12 193.345 770.379 184.07 770.379 184.07L758.399 194.533Z" class="lift"/>
        </g>
        <g id="Lift_6">
            <path id="Vector_100" d="M1078.8 144.788L1087.42 128.437C1087.42 128.437 1100.95 133.719 1100.69 134.233C1100.43 134.747 1092.45 152.134 1092.45 152.134L1078.8 144.788Z" class="lift"/>
        </g>
        <g id="Lift_7">
            <path id="Vector_101" d="M974.101 165.133L979.896 154.83L993.03 161.915L988.784 171.577L974.101 165.133Z" class="lift"/>
        </g>
    </g>
</svg>
