<svg width="1101" height="501" viewBox="0 0 1101 501"
    xmlns="http://www.w3.org/2000/svg">
    <g id="SirIanWoodLevel1">
        <g id="_1st_Floor">
            <path id="Vector" opacity="0.55" d="M20.7696 280.355L0.40332 297.812C6.68255 305.856 14.3123 312.747 22.9517 318.178C46.6567 333.017 70.8998 332.144 80.4138 331.271C87.8548 341.454 98.598 355.441 112.418 371.276C127.693 388.733 150.518 414.846 180.791 437.467C193.818 447.199 231.91 473.835 288.441 489.11C334.218 501.375 382.104 503.608 428.823 495.656L733.59 447.65L743.046 427.284L936.526 396.007L929.98 358.911L1087.09 332.726L1100.18 306.541L991.079 255.625L822.329 281.083L881.973 161.067L926.343 182.161L928.525 175.614L920.524 171.977L961.984 86.148L897.975 55.5986L905.976 38.8691L825.966 0.318604L777.96 100.695L783.051 103.605L769.959 131.972C759.124 126.563 747.154 123.82 735.045 123.971C728.753 124.073 702.699 125.31 682.675 146.52C668.214 161.838 664.745 179.251 663.763 186.525C662.708 194.344 659.515 211.386 668.855 229.44C679.86 250.708 700.299 259.662 705.95 262.171L692.858 289.811C693.343 294.175 693.827 298.539 694.312 302.904L473.193 338.545C474.41 347.031 475.622 355.517 476.829 364.003C455.961 368.843 434.833 372.486 413.548 374.913C390.673 377.532 376.133 379.19 356.814 377.823C320.722 375.262 294.26 364.003 287.714 361.093C251.345 344.989 227.764 321.175 214.977 305.813L220.068 301.449L196.065 271.627L182.245 283.265L169.88 269.445L155.333 280.355L134.239 267.263C128.988 276.668 121.798 284.85 113.145 291.266C107.77 295.23 92.3936 306.25 70.958 305.813C41.7615 305.224 23.6355 283.847 20.7696 280.355Z" class="room"/>
        </g>
        <g id="N105">
            <path id="Vector_2" d="M200.43 370.549C209.369 360.81 219.756 349.739 228.695 340C235.637 346.135 242.941 351.847 250.567 357.107C256.939 361.471 263.107 365.268 268.911 368.505L265.384 375.641L272.439 379.917C267.735 390.125 263.032 400.337 258.328 410.554C245.318 405.61 233.173 398.635 222.345 389.89C213.566 382.791 205.412 376.833 200.43 370.549Z" class="room"/>
        </g>
        <g id="N106">
            <path id="Vector_3" d="M277.53 382.187L263.71 412.736C282.947 424.003 304.194 431.414 326.264 434.557C328.931 420.737 331.598 406.917 334.265 393.097C325.846 392 317.56 390.05 309.535 387.278C301.832 384.616 293.809 382.238 288.441 379.277C287.226 381.459 287.474 382.914 286.259 385.096L277.53 382.187Z" class="room"/>
        </g>
        <g id="N107">
            <path id="Vector_4" d="M331.356 435.285C333.298 422.192 336.687 408.372 338.629 395.279C345.241 396.836 352.34 397.462 361.178 398.189C370.204 398.916 377.573 398 384.454 397.462V404.008L394.637 403.28C395.849 414.191 397.061 425.102 398.274 436.012C389 438.194 372.016 440.98 356.086 439.649C344.717 438.696 338.753 437.743 331.356 435.285Z" class="room"/>
        </g>
        <g id="N108">
            <path id="Vector_5" d="M399.728 401.826C400.65 412.979 401.576 424.132 402.507 435.285L460.827 426.556C458.747 412.979 456.664 399.401 454.579 385.824L403.896 393.825C404.352 396.007 404.815 398.189 405.285 400.371L399.728 401.826Z" class="room"/>
        </g>
        <g id="N109">
            <path id="Vector_6" d="M460.827 395.279C462.522 405.95 464.224 415.158 465.919 425.829L585.934 408.372C583.995 395.037 582.055 381.702 580.115 368.367L467.373 384.369C467.858 387.521 468.343 390.673 468.828 393.825C466.159 393.825 463.497 395.279 460.827 395.279Z" class="room"/>
        </g>
        <g id="N114">
            <path id="Vector_7" d="M591.753 324.725L692.13 307.995C693.347 316.724 694.56 325.452 695.767 334.181L668.127 392.37L602.664 401.826L591.753 324.725Z" class="room"/>
        </g>
        <g id="NS101c">
            <path id="Vector_8" d="M677.583 390.915L691.403 362.548L716.861 358.911C718.316 367.88 719.043 374.673 720.498 383.642C705.95 385.336 692.13 389.221 677.583 390.915Z" class="room"/>
        </g>
        <g id="NS101b">
            <path id="Vector_9" d="M721.225 358.184C722.195 366.185 723.165 374.186 724.135 382.187L751.775 377.823C750.557 369.579 749.345 361.336 748.138 353.092L721.225 358.184Z" class="room"/>
            <path id="Vector_10" d="M693.585 357.456L703.041 335.635L733.59 330.544C734.56 337.575 735.53 344.606 736.5 351.637L693.585 357.456Z" class="room"/>
        </g>
        <g id="NS101">
            <path id="Vector_11" d="M708.132 269.445L697.949 289.084L702.313 330.544L760.503 321.815L758.321 307.995L744.501 309.45C742.561 297.327 740.621 285.204 738.682 273.082C732.353 273.019 726.035 272.533 719.77 271.627C715.624 271.03 711.769 270.274 708.132 269.445Z" class="room"/>
        </g>
        <g id="NS107">
            <path id="Vector_12" d="M780.142 348.728C781.359 357.456 782.571 366.185 783.779 374.913L830.33 366.912C827.906 351.152 825.481 335.393 823.057 319.633L814.328 321.815C815.298 329.089 816.268 336.363 817.238 343.636L780.142 348.728Z" class="room"/>
        </g>
        <g id="NS106">
            <path id="Vector_13" d="M796.144 326.179L811.419 323.997C812.388 329.574 813.358 335.15 814.328 340.727L798.326 342.182L796.144 326.179Z" class="room"/>
        </g>
        <g id="NS105">
            <path id="Vector_14" d="M776.505 328.362L791.78 325.452L793.962 343.636L779.414 345.091C778.445 339.515 777.475 333.938 776.505 328.362Z" class="room"/>
        </g>
        <g id="NS115">
            <path id="Vector_15" d="M828.148 320.361L908.886 305.813L915.432 356.002L833.967 368.367C832.027 352.365 830.088 336.363 828.148 320.361Z" class="room"/>
        </g>
        <g id="NS120">
            <path id="Vector_16" d="M913.25 307.268L954.71 299.994C957.135 315.754 959.559 331.513 961.984 347.273L919.796 353.819L913.25 307.268Z" class="room"/>
        </g>
        <g id="NS121">
            <path id="Vector_17" d="M959.802 299.267L992.737 293.448C993.886 301.692 995.031 309.935 996.17 318.179L962.544 323.27C961.637 315.269 960.723 307.268 959.802 299.267Z" class="room"/>
        </g>
        <g id="NS122">
            <path id="Vector_18" d="M989.752 324.086L963.526 328.059L966.581 348.222L992.807 344.248L989.752 324.086Z" class="room"/>
        </g>
        <g id="NS123">
            <path id="Vector_19" d="M1015.88 321.952L1001.78 324.104L1004.38 341.095L1018.47 338.943L1015.88 321.952Z" class="room"/>
        </g>
        <g id="NS126">
            <path id="Vector_20" d="M1017.99 314.542C1018.72 322.783 1020.9 331.758 1021.63 340L1070.36 331.998L1066 305.813C1050.48 308.963 1033.51 311.392 1017.99 314.542Z" class="room"/>
        </g>
        <g id="NS125">
            <path id="Vector_21" d="M995.443 292.721L999.807 321.815L1015.08 319.633L1014.35 312.359L1063.82 303.631L1063.09 291.993L1029.63 277.446L1010.72 279.628L1012.17 290.538L995.443 292.721Z" class="room"/>
        </g>
        <g id="NS119">
            <path id="Vector_22" d="M937.981 265.808L951.801 263.626L954.71 287.629L940.89 289.811L937.981 265.808Z" class="room"/>
        </g>
        <g id="NS118">
            <path id="Vector_23" d="M917.614 270.172L935.071 267.263L937.981 289.811L921.251 292.721L917.614 270.172Z" class="room"/>
        </g>
        <g id="NS117">
            <path id="Vector_24" d="M907.431 271.627L914.705 270.899L917.614 294.175L909.613 295.63L907.431 271.627Z" class="room"/>
        </g>
        <g id="NS116">
            <path id="Vector_25" d="M885.61 275.264L886.338 283.992L894.339 283.265L895.794 297.812L907.431 295.63L903.795 272.354L885.61 275.264Z" class="room"/>
        </g>
        <g id="NS114">
            <path id="Vector_26" d="M887.065 286.174H892.157L893.611 297.812L887.792 298.54L887.065 286.174Z" class="room"/>
        </g>
        <g id="NS113">
            <path id="Vector_27" d="M871.79 276.718L881.973 275.264L885.61 299.267L875.427 300.722L871.79 276.718Z" class="room"/>
        </g>
        <g id="NS118-2">
            <path id="Vector_28" d="M777.232 209.073L791.052 181.433L774.323 173.432L777.96 164.704L721.225 137.791L713.224 155.248L700.859 149.429L692.13 168.341L777.232 209.073Z" class="room"/>
        </g>
        <g id="NS117-2">
            <path id="Vector_29" d="M689.694 173.658L673.27 211.226L741.853 244.263L747.345 232.465L764.307 240.728L776.658 213.467L689.694 173.658Z" class="room"/>
        </g>
        <g id="N129">
            <path id="Vector_30" d="M783.779 98.5133L802.69 62.8723L816.51 70.146L812.146 80.3291L815.055 81.7839L802.69 109.424L783.779 98.5133Z" class="room"/>
        </g>
        <g id="N128">
            <path id="Vector_31" d="M804.145 59.2353L821.289 20.6848L844.15 32.3227L827.006 70.8732L804.145 59.2353Z" class="room"/>
        </g>
        <g id="N127">
            <path id="Vector_32" d="M828.875 72.3279L847.06 35.2322L865.971 43.9606L848.514 81.7837L828.875 72.3279Z" class="room"/>
        </g>
        <g id="N125">
            <path id="Vector_33" d="M851.424 83.2386L868.881 46.1428L889.974 55.5986L872.518 93.4217L851.424 83.2386Z" class="room"/>
        </g>
        <g id="N124">
            <path id="Vector_34" d="M874.7 97.7859L881.973 83.2385L907.431 94.8764L901.612 109.424L874.7 97.7859Z" class="room"/>
        </g>
        <g id="N123">
            <path id="Vector_35" d="M882.701 80.3291L892.884 58.5081L919.069 70.8733L908.159 91.967L882.701 80.3291Z" class="room"/>
        </g>
        <g id="N122">
            <path id="Vector_36" d="M915.432 84.6934L921.979 72.3281L956.165 89.0576L943.8 111.606L919.069 100.695L924.888 89.0576L915.432 84.6934Z" class="room"/>
        </g>
        <g id="N121">
            <path id="Vector_37" d="M907.431 125.426L919.069 103.605L942.345 114.515L931.434 138.519L907.431 125.426Z" class="room"/>
        </g>
        <g id="N126">
            <path id="Vector_38" d="M813.601 114.515L825.966 88.3301L859.425 105.06L847.06 132.7L813.601 114.515Z" class="room"/>
        </g>
        <g id="Lift_1">
            <path id="Vector_39" d="M182.973 289.084L189.519 299.267L203.339 289.084L195.338 278.901L182.973 289.084Z" class="lift"/>
        </g>
        <g id="Lift_2">
            <path id="Vector_40" d="M514.274 335.584L529.032 334.071L530.24 344.414L516.274 345.273L514.274 335.584Z" class="lift"/>
        </g>
        <g id="Lift_3">
            <path id="Vector_41" d="M745.956 295.63L747.41 305.813L763.412 304.358L761.958 292.72L745.956 295.63Z" class="lift"/>
        </g>
        <g id="Lift_4">
            <path id="Vector_42" d="M758.321 145.792L763.412 134.882L777.96 141.428L772.141 152.338L758.321 145.792Z" class="lift"/>
        </g>
        <g id="Lift_5">
            <path id="Vector_43" d="M859.425 114.515L852.879 129.79L863.062 134.882L870.335 119.607L859.425 114.515Z" class="lift"/>
        </g>
        <g id="Bathroom_1">
            <path id="Vector_44" d="M166.971 339.999L184.428 326.907L190.246 333.453L186.61 336.363L190.246 341.454L178.609 353.819L166.971 339.999Z" class="bathroom"/>
        </g>
        <g id="Bathroom_2">
            <path id="Vector_45" d="M181.518 356.729L193.156 345.091L199.702 350.91L203.339 348.001L209.158 353.819L195.338 368.367L181.518 356.729Z" class="bathroom"/>
        </g>
        <g id="Bathroom_3">
            <path id="Vector_46" d="M820.147 284.72L844.15 279.628L845.605 287.629L833.967 289.811L834.694 299.267L822.329 299.994L820.147 284.72Z" class="bathroom"/>
        </g>
        <g id="Bathroom_4">
            <path id="Vector_47" d="M847.787 279.628V287.629L861.607 286.174V293.448L871.063 292.721L868.153 276.719L847.787 279.628Z" class="bathroom"/>
        </g>
        <g id="Accessible_toilet_1">
            <path id="Vector_48" d="M191.701 336.363L199.702 329.816L209.158 340L199.702 346.546L191.701 336.363Z" class="accessible-toilet"/>
        </g>
        <g id="Accessible_toilet_2">
            <path id="Vector_49" d="M495.014 339.999L505.924 337.817L508.106 353.092L497.196 354.547L495.014 339.999Z" class="accessible-toilet"/>
        </g>
        <g id="Accesible_toilet_3">
            <path id="Vector_50" d="M838.331 293.448L839.786 305.813L859.425 304.358L857.243 289.811L838.331 293.448Z" class="accessible-toilet"/>
        </g>
        <g id="stairs_1">
            <path id="Vector_51" d="M159.697 282.537L166.97 276.719L181.518 293.448L172.789 300.722L159.697 282.537Z" class="stair"/>
        </g>
        <g id="stairs_2">
            <path id="Vector_52" d="M544.475 333.453L548.111 350.183L588.844 343.636L585.935 325.452L544.475 333.453Z" class="stair"/>
        </g>
        <g id="stairs_3">
            <path id="Vector_53" d="M810.704 260.643L744.514 270.83L747.425 289.745L813.615 279.557L810.704 260.643Z" class="stair"/>
        </g>
        <g id="stairs_4">
            <path id="Vector_54" d="M956.165 263.626L959.074 281.083L991.806 277.446L990.351 267.263L1000.53 263.626L990.351 259.262L956.165 263.626Z" class="stair"/>
        </g>
        <g id="stairs_5">
            <path id="Vector_55" d="M780.142 291.993L781.597 307.995L818.692 302.904L816.51 286.174L780.142 291.993Z" class="stair"/>
        </g>
        <g id="stairs_6">
            <path id="Vector_56" d="M765.038 341.393L754.226 342.853L755.296 350.782L766.109 349.322L765.038 341.393Z" class="stair"/>
        </g>
        <g id="stair_7">
            <path id="Vector_57" d="M888.52 123.971L878.336 145.792L917.614 165.431L927.797 143.61L888.52 123.971Z" class="stair"/>
        </g>
        <g id="stairs_8">
            <path id="Vector_58" d="M799.053 154.521L809.236 148.702L818.692 169.795L806.327 173.432L799.053 154.521Z" class="stair"/>
        </g>
        <g id="stairs_9">
            <path id="Vector_59" d="M780.142 225.075C778.45 229.197 776.752 233.319 775.05 237.441L785.961 241.805C795.256 232.935 801.172 221.104 802.69 208.346L798.326 206.891L788.87 228.712L780.142 225.075Z" class="stair"/>
        </g>
        <g id="stairs_10">
            <path id="Vector_60" d="M686.297 220.711L720.497 237.732L713.398 253.443L689.526 241.659L680.492 231.185L686.297 220.711Z" class="stair"/>
        </g>
        <g id="stairs_11">
            <path id="Vector_61" d="M783.051 163.976L779.415 171.25L793.235 177.796L796.871 169.068L783.051 163.976Z" class="stair"/>
        </g>
        <g id="stairs_12">
            <path id="Vector_62" d="M863.789 37.4143L869.608 25.7764L900.885 41.0511L895.066 51.2342L863.789 37.4143Z" class="stair"/>
        </g>
    </g>
</svg>
