<svg width="1206" height="501" viewBox="0 0 1206 501"
    xmlns="http://www.w3.org/2000/svg">
    <g id="SirIanWoodLevel6">
        <g id="_6th_Floor">
            <path id="Vector" opacity="0.55" d="M0.476562 51.4989L80.2244 149.807L93.3069 148.117C105.117 163.035 116.931 177.944 128.747 192.842C120.696 199.659 103.845 215.846 95.8417 242.21C90.8804 258.863 90.1335 276.488 93.668 293.502C97.2026 310.515 104.908 326.384 116.092 339.683C153.118 383.563 209.131 376.035 212.293 375.55C260.198 368.24 284.094 330.36 287.398 324.92L344.788 393.693L325.373 415.216C341.078 432.654 359.112 447.845 378.966 460.358C449.751 504.875 523.66 501.922 554.914 498.761L843.525 454.453L917.368 303.398C924.878 306.331 946.694 313.708 972.641 306.35C977.16 305.069 1013.7 294.008 1028.34 256.565C1040.61 225.159 1028.94 197.086 1024.12 187.365C1016.89 172.958 1005.97 160.725 992.473 151.915L1006.4 123.224L1155.77 195.377C1172.22 164.434 1188.68 133.49 1205.13 102.547L1126.23 61.2015L1135.09 41.7867L1053.66 2.96663C1049.29 12.5364 1044.93 22.1029 1040.58 31.6664C1033.42 28.1283 1025.96 24.6125 1018.21 21.1188C1011.17 17.9542 1004.28 14.9984 997.534 12.2516V5.08374C984.622 2.3476 971.489 0.793689 958.296 0.441275C936.764 -0.137846 920.615 2.65333 909.355 4.65652C890.776 7.96985 870.108 11.644 846.06 23.6441C828.826 32.2778 813.029 43.5213 799.227 56.9768L580.652 232.09C572.807 239.919 563.071 245.587 552.389 248.543C546.977 250.005 528.198 254.305 510.616 245.172C497.638 238.432 491.125 227.39 489.094 224.068C474.691 200.542 426.966 142.155 353.228 56.1319C343.742 44.503 332.147 34.7691 319.05 27.4416C282.167 6.93503 245.179 12.7357 232.97 15.2041L0.476562 51.4989Z" class="room"/>
        </g>
        <g id="N601">
            <path id="Vector_2" d="M44.3569 50.4926C45.3443 57.3281 46.3253 64.1668 47.3 71.0087L64.5122 68.92L67.0376 86.5025L83.8131 83.9867L85.0663 92.7874L240.461 67.2396C249.765 65.5937 259.286 65.5937 268.591 67.2396C292.61 71.5308 307.981 85.762 313.933 91.9235L329.474 113.285C331.43 111.747 333.389 110.212 335.351 108.68L346.269 122.493L339.965 127.525C371.295 161.997 391.165 187.535 403.792 204.985C436.394 250.081 421.061 226.821 439.061 249.796C444.359 256.546 451.014 265.043 461.732 274.48C469.023 280.916 476.892 286.665 485.239 291.654L488.6 284.116L499.1 287.913L513.341 252.312C509.977 250.933 506.745 249.252 503.686 247.289C497.903 243.572 492.793 238.901 488.571 233.476L337.848 53.4261C328.971 45.1672 318.927 38.2608 308.037 32.9291C289.485 23.9444 269.017 19.6325 248.416 20.3688L44.3569 50.4926Z" class="room"/>
        </g>
        <g id="N607a">
            <path id="Vector_3" d="M518.838 254.03L501.54 297.492L523.053 302.135L528.123 256.147L518.838 254.03Z" class="room"/>
        </g>
        <g id="N611">
            <path id="Vector_4" d="M531.92 256.564H542.885L550.908 302.135H528.123L531.92 256.564Z" class="room"/>
        </g>
        <g id="N612">
            <path id="Vector_5" d="M548.373 256.565C550.905 271.755 553.436 286.945 555.968 302.135C563.457 300.318 570.793 297.918 577.908 294.958C593.899 288.264 608.606 278.842 621.371 267.112L590.203 231.985C585.323 237.796 575.487 243.008 564.408 249.378C559.317 252.303 553.945 254.711 548.373 256.565Z" class="room"/>
        </g>
        <g id="N612a">
            <path id="Vector_6" d="M595.471 229.137L605.763 220.279L616.728 231.995L606.095 241.792L595.471 229.137Z" class="room"/>
        </g>
        <g id="N616">
            <path id="Vector_7" d="M611.241 216.9L637.823 249.103L688.036 208.46L659.763 173.437L611.241 216.9Z" class="room"/>
        </g>
        <g id="N619">
            <path id="Vector_8" d="M662.726 170.067L694.368 144.329L723.904 180.614L693.315 205.089L662.726 170.067Z" class="room"/>
        </g>
        <g id="N625">
            <path id="Vector_9" d="M698.166 141.794L726.856 119.009L755.973 155.978L727.065 176.817L698.166 141.794Z" class="room"/>
        </g>
        <g id="N626">
            <path id="Vector_10" d="M731.916 116.056L767.784 87.3662L795.639 122.389L759.344 151.924L731.916 116.056Z" class="room"/>
        </g>
        <g id="N627">
            <path id="Vector_11" d="M771.164 83.9864L793.521 64.5811L822.639 100.866L800.272 119.009L771.164 83.9864Z" class="room"/>
        </g>
        <g id="N628">
            <path id="Vector_12" d="M797.585 61.5717C800.566 57.8787 806.851 52.3248 811.512 48.2804C819.582 41.2835 826 38.4923 832.294 35.6157C840.035 49.2551 847.769 62.8977 855.497 76.5435C849.288 80.3236 843.367 84.5566 837.782 89.2082C833.481 92.7873 830.244 94.9044 826.228 98.4361C816.943 85.7809 806.87 74.227 797.585 61.5717Z" class="room"/>
        </g>
        <g id="N630">
            <path id="Vector_13" d="M834.297 33.7262L857.396 21.3843L877.333 65.2076L857.87 74.2267L834.297 33.7262Z" class="room"/>
        </g>
        <g id="N630b">
            <path id="Vector_14" d="M860.244 20.5871L871.636 45.119L900.754 35.6253L893.947 8.09326L860.244 20.5871Z" class="room"/>
        </g>
        <g id="N630a">
            <path id="Vector_15" d="M872.899 47.8059L900.754 39.1001L904.865 55.4009L879.231 63.3093L872.899 47.8059Z" class="room"/>
        </g>
        <g id="N633b">
            <path id="Vector_16" d="M896.634 8.09296L920.843 3.97266L926.226 51.9163L906.763 54.4512L896.634 8.09296Z" class="room"/>
        </g>
        <g id="N633a">
            <path id="Vector_17" d="M924.166 3.97298L952.647 2.07422V24.8593L959.929 25.6568L956.919 51.2046L928.599 51.9166L924.166 3.97298Z" class="room"/>
        </g>
        <g id="N633">
            <path id="Vector_18" d="M962.464 26.6059L959.929 51.9163L971.635 52.5524L979.704 4.60874L971.957 3.97266L967.998 26.9951L962.464 26.6059Z" class="room"/>
        </g>
        <g id="N633f">
            <path id="Vector_19" d="M954.707 3.18506V11.8909H967.837L969.821 3.97304L954.707 3.18506Z" class="room"/>
        </g>
        <g id="N633g">
            <path id="Vector_20" d="M954.707 14.1025H967.685L965.938 23.9096L954.707 22.3337V14.1025Z" class="room"/>
        </g>
        <g id="N633e">
            <path id="Vector_21" d="M982.343 6.46045L992.682 8.09338L992.046 14.103L997.22 15.6315L995.217 22.0682L979.704 19.0112L982.343 6.46045Z" class="room"/>
        </g>
        <g id="N633d">
            <path id="Vector_22" d="M979.704 21.3843L994.372 25.0204L991.42 39.0997L977.074 35.625L979.704 21.3843Z" class="room"/>
        </g>
        <g id="N633c">
            <path id="Vector_23" d="M976.125 39.1001L990.366 42.0052L987.299 55.8187L974.122 53.2933L976.125 39.1001Z" class="room"/>
        </g>
        <g id="N634a">
            <path id="Vector_24" d="M999.755 17.4258L1019.69 25.4385C1019.69 25.4385 1006.82 62.3599 1006.51 62.3599C1006.19 62.3599 989.521 56.4548 989.521 56.4548L999.755 17.4258Z" class="room"/>
        </g>
        <g id="N634">
            <path id="Vector_25" d="M1023.59 27.4512L1043.53 35.4639L1027.07 70.7998L1009.35 63.2048L1023.59 27.4512Z" class="room"/>
        </g>
        <g id="N634c">
            <path id="Vector_26" d="M1053.23 30.2422L1043.53 49.6L1075.49 65.635L1085.09 46.7519L1053.23 30.2422Z" class="room"/>
        </g>
        <g id="N634b">
            <path id="Vector_27" d="M1040.46 51.9165L1030.55 71.3313L1066.42 88.9423L1075.49 69.3281L1040.46 51.9165Z" class="room"/>
        </g>
        <g id="N640a">
            <path id="Vector_28" d="M1069.06 90.6323L1089.41 49.1255L1102.29 55.8186L1082.35 97.278L1069.06 90.6323Z" class="room"/>
        </g>
        <g id="N640">
            <path id="Vector_29" d="M1085.67 98.3317L1105.34 57.7173L1147.43 78.0245L1127.39 120.167L1085.67 98.3317Z" class="room"/>
        </g>
        <g id="N640c">
            <path id="Vector_30" d="M1141.1 102.129L1151.54 78.9263L1198.28 103.078L1185.83 125.123L1141.1 102.129Z" class="room"/>
        </g>
        <g id="N640b">
            <path id="Vector_31" d="M1125.28 133.354L1138.25 105.927L1183.09 127.449L1170.32 155.617L1125.28 133.354Z" class="room"/>
        </g>
        <g id="N635">
            <path id="Vector_32" d="M1017.57 85.4678L1009.35 101.503L1025.07 109.62L1034.56 93.8033L1017.57 85.4678Z" class="room"/>
        </g>
        <g id="N632a">
            <path id="Vector_33" d="M981.498 87.0435L977.074 103.61L996.375 110.778L1005.23 95.0657L981.498 87.0435Z" class="room"/>
        </g>
        <g id="N642">
            <path id="Vector_34" d="M994.372 74.8154L991.154 87.0434L1006.08 93.3758L1012.83 81.7744L994.372 74.8154Z" class="room"/>
        </g>
        <g id="N632">
            <path id="Vector_35" d="M946.799 67.1064V92.4263L975.28 95.7966L981.508 70.4862C976.647 68.369 970.116 67.638 964.628 67.1064C958.704 66.4418 952.723 66.4418 946.799 67.1064Z" class="room"/>
        </g>
        <g id="N631">
            <path id="Vector_36" d="M849.753 100.867C853.104 98.3603 857.737 95.0755 863.462 91.5818C874.791 84.4371 886.985 78.7648 899.747 74.7018C913.755 70.3505 928.333 68.1107 943.001 68.0562C943.147 80.3601 943.286 92.6672 943.419 104.978C918.392 104.223 893.971 112.751 874.855 128.921L849.753 100.867Z" class="room"/>
        </g>
        <g id="N629">
            <path id="Vector_37" d="M817.474 126.709L847.218 102.87L857.662 114.471L840.364 129.348L853.123 145.592L840.782 156.035L817.474 126.709Z" class="room"/>
        </g>
        <g id="N631a">
            <path id="Vector_38" d="M844.266 129.452L858.298 118.487L870.108 130.715L855.497 143.38L844.266 129.452Z" class="room"/>
        </g>
        <g id="N618">
            <path id="Vector_39" d="M690.618 231.036L712.141 213.159L735.239 240.368L713.878 259.043L690.618 231.036Z" class="room"/>
        </g>
        <g id="N615">
            <path id="Vector_40" d="M650.593 263.315L666.571 283.565L705.334 253.821L688.036 234.045L650.593 263.315Z" class="room"/>
        </g>
        <g id="N613a">
            <path id="Vector_41" d="M608.032 296.382L630.181 281.03L645.532 301.442L633.504 311.41L636.988 316.632L632.868 319.803L635.403 323.439C622.081 333.875 607.104 342.003 591.095 347.487L583.823 326.923C595.943 322.843 607.362 316.919 617.678 309.36L608.032 296.382Z" class="room"/>
        </g>
        <g id="N613b">
            <path id="Vector_42" d="M555.968 317.904L576.227 313.945C580.443 325.129 584.661 336.31 588.883 347.487C584.81 348.854 580.338 350.155 575.43 351.284C570.004 352.545 564.511 353.496 558.977 354.133C557.971 342.056 556.968 329.98 555.968 317.904Z" class="room"/>
        </g>
        <g id="N613">
            <path id="Vector_43" d="M578.753 312.683L605.81 298.442L613.253 309.037C608.348 311.638 603.231 314.224 597.902 316.793C593.003 319.16 588.202 321.376 583.5 323.439C581.924 319.85 580.342 316.265 578.753 312.683Z" class="room"/>
        </g>
        <g id="N613d">
            <path id="Vector_44" d="M526.642 318.379L552.389 318.588L554.069 331.452C548.688 332.224 543.262 332.649 537.825 332.724C533.439 332.781 529.347 332.61 525.588 332.297L526.642 318.379Z" class="room"/>
        </g>
        <g id="N613c">
            <path id="Vector_45" d="M524.743 335.885C524.325 342.638 523.904 349.388 523.48 356.135L555.759 355.718C555.55 348.888 555.338 342.066 555.123 335.249L524.743 335.885Z" class="room"/>
        </g>
        <g id="N617">
            <path id="Vector_46" d="M480.198 346.614C484.431 349.25 488.992 351.318 493.764 352.766C501.597 355.262 509.828 356.263 518.03 355.718C519.644 343.623 521.262 331.528 522.882 319.433L490.812 311.629L484.451 322.803L490.992 327.028C487.081 333.351 484.138 340.281 480.198 346.614Z" class="room"/>
        </g>
        <g id="N611a">
            <path id="Vector_47" d="M457.232 337.794L468.625 318.379L485.296 328.082L476.856 347.496L457.232 337.794Z" class="room"/>
        </g>
        <g id="N617a">
            <path id="Vector_48" d="M470.315 314.268L474.53 305.933L486.977 310.945L482.344 320.705L470.315 314.268Z" class="room"/>
        </g>
        <g id="N608">
            <path id="Vector_49" d="M384.443 266.058L404.703 249.103L429.178 278.087L408.709 293.904L384.443 266.058Z" class="room"/>
        </g>
        <g id="N605">
            <path id="Vector_50" d="M309.974 173.437L321.367 188.418L351.329 164.579L339.092 148.972L309.974 173.437Z" class="room"/>
        </g>
        <g id="N602a">
            <path id="Vector_51" d="M272.635 89.8916C270.66 99.7398 268.692 109.585 266.73 119.427C268.862 120.591 270.845 122.01 272.635 123.652C274.488 125.336 276.118 127.25 277.486 129.348L274.743 131.873L307.022 171.329L322.003 159.301L309.556 145.373L314.408 141.576C306.389 132.512 298.373 123.443 290.36 114.367L302.806 104.664C300.623 101.987 298.442 99.3126 296.265 96.6417L291.414 100.021C286.34 94.8005 279.785 91.2643 272.635 89.8916Z" class="room"/>
        </g>
        <g id="N602">
            <path id="Vector_52" d="M93.7246 96.0058C94.2183 98.854 93.6582 103.743 94.1518 106.563L88.4556 110.987L110.813 138.415L234.451 118.269C238.651 117.09 242.962 116.349 247.315 116.057C252.105 115.727 256.917 115.937 261.66 116.683C264.129 106.626 266.591 96.5691 269.046 86.512C276.857 87.7 284.291 90.662 290.778 95.1704L300.063 85.4582C295.79 82.1837 291.193 79.3556 286.344 77.0183C277.494 72.7071 267.9 70.1291 258.081 69.4232C250.48 68.9958 242.859 69.7809 235.505 71.7492C187.894 80.5404 141.336 87.2241 93.7246 96.0058Z" class="room"/>
        </g>
        <g id="N601a">
            <path id="Vector_53" d="M6.59033 52.8658L38.5559 49.3911L42.6667 73.7522L61.0277 72.4895L63.5531 91.4771L42.0401 93.6891L6.59033 52.8658Z" class="room"/>
        </g>
        <g id="stairs_1">
            <path id="Vector_54" d="M46.4077 98.4836L66.7244 96.2241L68.12 109.629L80.3955 109.145L101.215 134.835L94.5697 141.158H80.0157L46.4077 98.4836Z" class="stair"/>
        </g>
        <g id="stairs_2">
            <path id="Vector_55" d="M351.329 173.437L332.228 186.728L359.76 221.855L377.798 207.615L351.329 173.437Z" class="stair"/>
        </g>
        <g id="stairs_3">
            <path id="Vector_56" d="M779.385 164.58L794.262 183.254L830.975 151.924L816.098 134.835L779.385 164.58Z" class="stair"/>
        </g>
        <g id="stairs_4">
            <path id="Vector_57" d="M1122.75 141.794L1112.62 161.418L1156.29 183.254L1164.52 162.519L1122.75 141.794Z" class="stair"/>
        </g>
        <g id="Bathroom_1">
            <path id="Vector_58" d="M411.036 296.856L424.327 284.828C428.969 290.268 434.875 296.011 439.517 301.442C435.871 305.98 431.58 309.986 427.327 314.733C423.398 311.395 419.747 307.744 416.409 303.815C414.387 301.432 412.602 299.097 411.036 296.856Z" class="bathroom"/>
        </g>
        <g id="Bathroom_2">
            <path id="Vector_59" d="M430.65 317.581L440.941 304.29L458.657 315.531L456.606 320.116L461.666 323.126L455.02 335.62C445.728 331.372 437.427 325.228 430.65 317.581Z" class="bathroom"/>
        </g>
        <g id="Bathroom_3">
            <path id="Vector_60" d="M721.321 218.058L729.866 211.27L738.087 220.28L743.632 216.482L750.904 225.501L736.113 238.156L721.321 218.058Z" class="bathroom"/>
        </g>
        <g id="Bathroom_4">
            <path id="Vector_61" d="M750.904 192.899L743.632 199.545L750.904 209.988L745.53 215.371L752.803 224.713L767.993 211.27L750.904 192.899Z" class="bathroom"/>
        </g>
        <g id="Bathroom_5">
            <path id="Vector_62" d="M1030.55 128.921L1045.53 97.2778L1053.02 101.284L1047.43 113.104L1058.35 119.009L1050.43 137.835L1030.55 128.921Z" class="bathroom"/>
        </g>
        <g id="Bathroom_6">
            <path id="Vector_63" d="M1054.87 103.344L1051.54 111.414L1062.15 117.556L1053.02 139.259L1062.15 143.854L1076.7 113.474L1054.87 103.344Z" class="bathroom"/>
        </g>
        <g id="Accesible_toilet_1">
            <path id="Vector_64" d="M296.787 115.847L306.281 108.252L317.673 121.221L308.493 127.553L296.787 115.847Z" class="accessible-toilet"/>
        </g>
        <g id="Accessible_toilet_2">
            <path id="Vector_65" d="M439.507 298.442L452.172 307.623L458.495 299.79L446.153 291.692L439.507 298.442Z" class="accessible-toilet"/>
        </g>
        <g id="Accessible_toilet_3">
            <path id="Vector_66" d="M607.87 244.28L619.889 234.045L630.969 247.489L619.415 258.805L607.87 244.28Z" class="accessible-toilet"/>
        </g>
        <g id="Accessible_toilet_4">
            <path id="Vector_67" d="M729.068 205.09L737.935 198.444L745.844 208.811L738.885 215.533L729.068 205.09Z" class="accessible-toilet"/>
        </g>
        <g id="Accessible_toilet_5">
            <path id="Vector_68" d="M1075.49 123.595L1069.06 137.835L1076.7 142.212L1085.09 126.918L1075.49 123.595Z" class="accessible-toilet"/>
        </g>
        <g id="Lift_1">
            <path id="Vector_69" d="M375.899 241.792L387.614 231.995L400.269 246.862L388.089 256.565L375.899 241.792Z" class="lift"/>
        </g>
        <g id="Lift_2">
            <path id="Vector_70" d="M760.939 196.07L767.993 205.089L782.233 194.96L774.012 187.051L760.939 196.07Z" class="lift"/>
        </g>
        <g id="Lift_3">
            <path id="Vector_71" d="M1088.26 130.934L1079.71 147.908L1092.68 153.5L1100.91 137.836L1088.26 130.934Z" class="lift"/>
        </g>
        <g id="Library_6">
            <path id="Vector_72" d="M136.978 195.434C117.383 210.805 110.244 230.324 107.301 238.716C104.453 246.767 94.0094 278.059 109.456 312.616C112.437 319.262 126.867 349.642 162.336 363.322C169.931 366.266 197.103 375.664 228.185 364.272C255.318 354.332 269.246 334.528 274.259 327.17C285.009 311.455 291.115 293.03 291.879 274.005C292.097 264.824 291.376 239.068 273.328 214.953C248.578 181.849 210.707 177.833 202.485 177.235C193.732 176.504 163.561 174.595 136.978 195.434Z" class="room"/>
        </g>
    </g>
</svg>
