<svg width="1300" height="501" viewBox="0 0 1300 501"
    xmlns="http://www.w3.org/2000/svg">
    <g id="SirIanWoodLevel3">
        <g id="_3rd_Floor">
            <path id="Vector"   d="M870.91 346.151L837.387 350.197L861.389 304.503C869.506 307.685 890.55 314.656 915.108 307.934C948.058 298.92 974.02 268.928 977.418 234.209C977.734 230.886 980.741 193.932 953.981 167.92C947.197 161.365 939.252 156.131 930.553 152.484L947.701 120.481L1102 195.345L1150.01 100.476L1068.86 62.7572L1080.86 43.8981L1000.27 5.60655L968.271 70.1929L932.289 56.4016C936.676 40.0183 941.057 23.6349 945.432 7.25153C919.709 0.541651 892.942 -1.20371 866.565 2.10888C818.121 8.31495 784.141 30.4059 769.984 39.8272C763.911 43.8649 759.051 47.5038 755.694 50.1125L529.916 232.423C527.515 235.347 513.367 252.038 489.34 253.567C459.323 255.478 441.013 231.966 439.617 230.138L297.318 55.2551L268.165 33.538C261.12 47.2518 254.072 60.9682 247.021 74.6875L0.132324 109.548L79.5734 198.701C74.5886 203.046 44.8459 229.607 44.1398 272.426C43.1843 329.751 95.1176 359.801 97.3109 361.014C126.937 377.489 167.854 380.746 199.616 359.868C218.898 347.19 236.57 320.056 238.472 319.865L275.285 364.429C288.079 353.396 303.59 340.485 315.387 330.133C321.812 336.979 328.229 343.828 334.637 350.679C331.314 355.376 328.01 360.084 324.726 364.803C349.565 388.874 379.708 406.778 412.729 417.075C445.75 427.372 480.727 429.775 514.846 424.089C519.249 445.556 521.957 472.275 526.045 494.706L528.778 494.233C529.725 496.326 530.678 498.42 531.636 500.514L1287.73 379.3C1291.55 370.156 1295.36 361.017 1299.16 351.884C1260.11 331.308 1221.07 310.734 1182.02 290.164L901.417 334.736C902.175 337.212 902.937 339.688 903.701 342.163L870.91 346.151ZM696.542 353.113C692.548 328.743 688.549 304.359 684.545 279.961L832.593 158.764L840.021 163.334C831.775 169.874 824.968 178.045 820.023 187.336C801.746 221.98 818.42 257.771 820.023 261.061C826.037 273.247 834.865 283.827 845.778 291.925L823.454 337.071L696.542 353.113Z" class="background"/>
        </g>
        <g id="Reception">
            <path id="Vector_2" d="M242.526 92.774L222.737 122.932L249.505 157.543L275.8 138.185L242.526 92.774Z" class="reception"/>
        </g>
        <g id="N309">
            <path id="Vector_3" d="M258.769 107.388C281.923 140.919 309.098 174.442 332.253 207.973C349.808 195.02 363.333 182.068 380.879 169.108L291.677 55.5708L258.769 107.388Z" class="room"/>
        </g>
        <g id="N310">
            <path id="Vector_4" d="M346.975 202.705L399.041 266.203L438.163 235.464L385.623 172.73L346.975 202.705Z" class="room"/>
        </g>
        <g id="Main Atrium">
            <path id="Vector_5" d="M147.757 364.022C197.284 364.022 237.434 323.872 237.434 274.345C237.434 224.818 197.284 184.669 147.757 184.669C98.2301 184.669 58.0806 224.818 58.0806 274.345C58.0806 323.872 98.2301 364.022 147.757 364.022Z" class="room"/>
        </g>
        <g id="N311">
            <path id="Vector_6" d="M392.569 276.871C400.237 285.553 412.583 299.402 434.225 309.064C456.287 318.811 480.64 322.179 504.519 318.785C500.515 298.015 496.513 277.245 492.514 256.475C483.122 259.48 473.003 259.32 463.711 256.018C454.42 252.716 446.468 246.455 441.079 238.197C424.314 251.158 409.334 263.902 392.569 276.871Z" class="room"/>
        </g>
        <g id="N318">
            <path id="Vector_7" d="M535.948 350.214L522.805 312.495L507.377 316.5C503.567 297.07 499.756 277.638 495.945 258.203C507.275 255.91 517.989 251.234 527.374 244.486L566.813 292.49L559.385 297.641L582.814 325.057C570.542 338.571 553.994 347.451 535.948 350.205V350.214Z" class="room"/>
        </g>
        <g id="N317">
            <path id="Vector_8" d="M476.13 322.972C474.856 334.404 473.588 345.835 472.325 357.267C492.357 361.49 513.218 359.081 531.761 350.405C528.327 338.591 524.898 326.78 521.475 314.971C507.621 322.466 491.713 325.272 476.13 322.972Z" class="room"/>
        </g>
        <g id="N318a">
            <path id="Vector_9" d="M565.284 297.35C569.222 302.684 575.071 308.499 579 313.833L605.677 295.157C600.593 288.56 595.511 281.958 590.432 275.35C582.689 282.844 573.035 289.856 565.284 297.35Z" class="room"/>
        </g>
        <g id="N319">
            <path id="Vector_10" d="M593.099 272.684L607.222 292.49L613.32 289.449L619.792 297.824L628.557 289.823C620.803 279.92 613.049 270.014 605.295 260.105L593.099 272.684Z" class="room"/>
        </g>
        <g id="N320">
            <path id="Vector_11" d="M628.15 256.682L644.534 278.026L698.635 234.209L673.08 203.719L637.264 233.819L648.347 250.609L640.728 255.594L636.574 251.025L628.15 256.682Z" class="room"/>
        </g>
        <g id="N325">
            <path id="Vector_12" d="M705.481 99.894L733.313 137.621L737.882 134.198L745.501 144.865C759.029 132.987 773.145 121.796 787.797 111.334C800.707 102.112 813.236 94.0285 825.133 86.9501C815.717 67.6423 806.318 48.3373 796.935 29.0351C764.104 49.4602 733.458 73.2045 705.481 99.894Z" class="room"/>
        </g>
        <g id="N328">
            <path id="Vector_13" d="M799.793 27.5064C808.816 46.2382 817.833 64.9699 826.844 83.7017C842.751 76.2026 859.829 71.4981 877.332 69.7941L873.519 20.644L876.011 19.888C877.407 36.4652 878.791 53.0369 880.165 69.603C897.109 67.0903 914.413 68.9257 930.453 74.9367L935.214 59.6999L929.689 56.8419C933.566 41.3337 937.443 25.8254 941.32 10.3172C893.616 -1.24852 843.339 4.84253 799.777 27.4649L799.793 27.5064Z" class="room"/>
        </g>
        <g id="N328a">
            <path id="Vector_14" d="M829.187 85.9864C831.214 90.913 833.233 99.2792 835.26 104.181L862.228 94.8593L856.412 76.4322C846.925 79.1655 838.259 81.6662 829.187 85.9864Z" class="room"/>
        </g>
        <g id="N328b">
            <path id="Vector_15" d="M870.976 111.035L892.062 107.986L890.791 71.1566L860.566 75.2192L866.149 99.6032L868.949 98.5896C869.636 102.721 870.312 106.87 870.976 111.035Z" class="room"/>
        </g>
        <g id="N327">
            <path id="Vector_16" d="M894.729 71.4141C894.812 79.628 894.898 87.8418 894.986 96.0556C905.102 96.2032 915.163 97.5672 924.953 100.118L930.038 77.7698C919.063 72.4847 906.857 70.2876 894.729 71.4141Z" class="room"/>
        </g>
        <g id="N331">
            <path id="Vector_17" d="M973.721 71.8545C983.353 52.2254 992.985 32.5964 1002.62 12.9674L1072.4 45.892C1069.46 52.1451 1066.52 58.3955 1063.59 64.6431L1075.34 70.1763C1068.57 83.9509 1061.79 97.7311 1055.02 111.517L973.721 71.8545Z" class="room"/>
        </g>
        <g id="N334">
            <path id="Vector_18" d="M1059.32 116.086L1080.4 72.4028L1105.8 84.0838L1084.2 127.518L1059.32 116.086Z" class="room"/>
        </g>
        <g id="N336">
            <path id="Vector_19" d="M1081.17 141.725L1115.23 158.233C1124.45 139.523 1133.68 120.811 1142.91 102.096L1109.13 85.0808L1081.17 141.725Z" class="room"/>
        </g>
        <g id="N329">
            <path id="Vector_20" d="M949.844 117.083C960.935 122.5 973.297 128.939 984.389 134.355C989.216 124.702 994.043 113.527 998.869 103.873C987.521 97.7754 976.18 93.206 964.807 87.1079C960.262 97.4431 954.422 106.756 949.844 117.083Z" class="room"/>
        </g>
        <g id="N332">
            <path id="Vector_21" d="M988.077 135.751C995.106 139.307 1003.15 144.392 1010.18 147.947L1026.43 117.681L1001.5 105.743C997.391 116.277 992.223 125.25 988.077 135.751Z" class="room"/>
        </g>
        <g id="N339">
            <path id="Vector_22" d="M839.522 263.794C831.888 254.202 827.052 242.687 825.548 230.521C824.211 218.192 826.22 205.731 831.364 194.447C837.18 181.864 846.563 171.265 858.348 163.965L882.225 177.432L839.522 263.794Z" class="room"/>
        </g>
        <g id="N340">
            <path id="Vector_23" d="M865.327 220.609C871.846 206.303 878.365 191.994 884.884 177.682L968.961 218.831C970.696 227.154 970.498 235.763 968.384 243.997C966.269 252.232 962.294 259.871 956.764 266.328L865.327 220.609Z" class="room"/>
        </g>
        <g id="N341">
            <path id="Vector_24" d="M842.214 266.328C848.301 273.752 856.424 279.239 865.584 282.113L859.769 292.016C865.384 295.349 871.463 297.832 877.805 299.385C907.44 306.589 931.807 290.247 935.214 287.954C942.699 282.75 949.158 276.207 954.264 268.654L862.818 222.96C855.961 237.4 849.093 251.855 842.214 266.328Z" class="room"/>
        </g>
        <g id="N346">
            <path id="Vector_25" d="M539.446 426.739C537.901 417.528 536.358 408.314 534.818 399.098L599.139 387.168L603.849 416.711L539.446 426.739Z" class="room"/>
        </g>
        <g id="N345">
            <path id="Vector_26" d="M521.875 409.084L530.639 407.173L535.973 430.436L609.083 419.386C608.07 410.364 607.054 401.347 606.034 392.335H619.377L631.565 475.008L535.167 491.375C530.736 463.942 526.305 436.512 521.875 409.084Z" class="room"/>
        </g>
        <g id="N344">
            <path id="Vector_27" d="M623.456 391.43L640.471 389.394C641.579 397.015 642.686 404.637 643.794 412.258L735.739 399.048C739.062 419.796 742.363 440.538 745.642 461.275L637.929 478.547C633.115 449.514 628.291 420.474 623.456 391.43Z" class="room"/>
        </g>
        <g id="N342">
            <path id="Vector_28" d="M739.378 384.675C743.183 409.821 746.991 434.966 750.801 460.112L786.617 454.014L821.286 391.529L814.814 353.811L753.094 363.723L753.468 372.479L742.801 373.244L745.094 383.911L739.378 384.675Z" class="room"/>
        </g>
        <g id="NS301a">
            <path id="Vector_29" d="M813.485 431.815C814.075 437.315 814.665 443.837 815.263 449.336L845.487 443.521C844.216 437.763 844.216 432.006 842.945 426.249C833.515 428.4 822.848 429.613 813.485 431.815Z" class="room"/>
        </g>
        <g id="NS304">
            <path id="Vector_30" d="M845.703 426.224C846.302 432.155 846.894 438.082 847.481 444.003L873.901 439.691L871.358 422.668L845.703 426.224Z" class="room"/>
        </g>
        <g id="NS303">
            <path id="Vector_31" d="M803.798 434.1L798.464 442.225C799.057 445.614 799.649 449.001 800.242 452.385L811.923 450.865C811.159 444.684 810.397 438.503 809.638 432.322L803.798 434.1Z" class="room"/>
        </g>
        <g id="NS305">
            <path id="Vector_32" d="M872.123 409.458L876.185 439.176L901.583 434.606L896.249 404.631L872.123 409.458Z" class="room"/>
        </g>
        <g id="NS311">
            <path id="Vector_33" d="M897.271 381.045C900.04 398.824 902.835 416.606 905.654 434.39L931.051 430.07C928.592 412.202 926.136 394.338 923.682 376.475L897.271 381.045Z" class="room"/>
        </g>
        <g id="NS311a">
            <path id="Vector_34" d="M926.731 376.949C929.273 394.479 931.813 412.006 934.35 429.53L960.511 425.974L952.386 372.122L926.731 376.949Z" class="room"/>
        </g>
        <g id="NS309">
            <path id="Vector_35" d="M862.976 351.801C864.166 358.242 865.352 364.678 866.531 371.108L885.075 368.317C884.061 361.621 883.045 354.93 882.026 348.245L862.976 351.801Z" class="room"/>
        </g>
        <g id="NS310">
            <path id="Vector_36" d="M885.582 347.996L887.875 367.553L905.903 365.268L903.111 345.96L885.582 347.996Z" class="room"/>
        </g>
        <g id="NS320">
            <path id="Vector_37" d="M955.875 371.075L958.169 387.749C958.169 387.749 996.776 382.839 996.776 383.263C996.776 383.687 994.74 365.143 994.74 365.143L957.404 371.075" class="room"/>
        </g>
        <g id="NS321">
            <path id="Vector_38" d="M964.258 425.127L960.511 390.832L976.33 387.791L980.775 422.668L964.258 425.127Z" class="room"/>
        </g>
        <g id="NS322">
            <path id="Vector_39" d="M980.775 397.27L1000.77 393.972L1004.71 418.306L984.389 421.912L980.775 397.27Z" class="room"/>
        </g>
        <g id="NS323">
            <path id="Vector_40" d="M1000.77 365.733L1007.88 418.306L1086.12 405.952L1077.23 353.628L1000.77 365.733Z" class="room"/>
        </g>
        <g id="NS324">
            <path id="Vector_41" d="M1080.66 354.85L1089.04 404.382L1170.32 391.937L1162.45 339.87L1080.66 354.85Z" class="room"/>
        </g>
        <g id="NS326">
            <path id="Vector_42" d="M1166.77 340.236L1174.64 390.923L1282.59 373.393L1291.98 352.565L1242.97 325.39L1166.77 340.236Z" class="room"/>
        </g>
        <g id="NS325">
            <path id="Vector_43" d="M1064.91 313.193L1068.72 340.236L1141.11 329.71L1136.28 301.18L1064.91 313.193Z" class="room"/>
        </g>
        <g id="NS318">
            <path id="Vector_44" d="M1047.92 315.985L1051.96 342.911L1064.91 340.236L1061.86 313.7L1047.92 315.985Z" class="room"/>
        </g>
        <g id="bathroom_3">
            <path id="Vector_45" d="M880.697 386.345C881.367 392.438 882.042 398.53 882.724 404.623L898.218 402.338C897.11 395.991 896.003 389.641 894.895 383.288L880.697 386.345Z" class="bathroom"/>
        </g>
        <g id="bathroom_1">
            <path id="Vector_46" d="M359.038 299.984L380.879 321.834C389.099 312.263 397.313 302.695 405.521 293.13L388.498 276.364L359.038 299.984Z" class="bathroom"/>
        </g>
        <g id="bathroom_2">
            <path id="Vector_47" d="M443.621 353.196L468.545 359.294L472.358 322.465L452.286 318.909C449.384 330.336 446.496 341.765 443.621 353.196Z" class="bathroom"/>
        </g>
        <g id="bathroom_4">
            <path id="Vector_48" d="M782.463 118.122L792.624 134.38L813.701 117.357L802.269 102.877L782.463 118.122Z" class="bathroom"/>
            </g>
<g id="bathroom_5">
<path id="Vector_49" d="M789.574 139.963L799.735 153.173L822.084 134.123L812.181 121.42L789.574 139.963Z" class="bathroom"/>
        </g>
        <g id="Accessible_toilet_1">
            <path id="Vector_50" d="M400.312 313.833L417.841 325.639L424.671 308.873L409.816 298.97C406.653 303.922 403.485 308.876 400.312 313.833Z" class="accessible-toilet"/>
        </g>
        <g id="Accessible_toilet_2">
            <path id="Vector_51" d="M843.801 104.281L848.37 117.615L867.803 111.899C866.529 106.814 865.26 101.733 863.998 96.6538L843.801 104.281Z" class="accessible-toilet"/>
        </g>
        <g id="Accessible_toilet_3">
            <path id="Vector_52" d="M1016.72 141.235L1025.85 146.568L1036.14 129.421L1024.33 125.615L1016.72 141.235Z" class="accessible-toilet"/>
        </g>
        <g id="Accessible_toilet_4">
            <path id="Vector_53" d="M1009.03 335.035L1011.82 349.009L1033.42 345.686C1032.74 340.444 1032.26 336.688 1031.59 331.438C1024.13 333.149 1016.48 333.349 1009.03 335.035Z" class="accessible-toilet"/>
        </g>
        <g id="lift_1">
            <path id="Vector_54" d="M269.137 329.577C272.46 333.365 275.805 337.151 279.173 340.934L293.471 326.603C289.957 323.429 286.093 319.051 282.77 316.226C278.45 319.881 273.465 325.921 269.137 329.577Z" class="lift"/>
        </g>
        <g id="lift_2">
            <path id="Vector_55" d="M325.64 244.868L338.334 260.363L351.802 250.202C347.731 245.217 343.665 240.233 339.605 235.248L325.64 244.868Z" class="lift"/>
        </g>
        <g id="lift_3">
            <path id="Vector_56" d="M709.942 199.399L716.04 208.928L730.646 198.767L723.759 189.496L709.942 199.399Z" class="lift"/>
        </g>
        <g id="lift_4">
            <path id="Vector_57" d="M925.842 168.036L929.656 158.897L946.164 166.258L942.101 175.912L925.842 168.036Z" class="lift"/>
        </g>
        <g id="lift_5">
            <path id="Vector_58" d="M1030.37 149.684C1034.24 152.054 1038.14 154.425 1042.05 156.795L1049.67 139.016L1037.73 132.918C1035.28 138.501 1032.82 144.09 1030.37 149.684Z" class="lift"/>
        </g>
        <g id="lift_6">
            <path id="Vector_59" d="M646.378 384.567L647.649 395.235L663.434 392.443V381.776L646.378 384.567Z" class="lift"/>
        </g>
        <g id="lift_7">
            <path id="Vector_60" d="M906.41 337.843C907.091 341.222 907.769 344.609 908.445 348.004L924.446 345.968L922.668 335.558L906.41 337.843Z" class="lift"/>
        </g>
        <g id="stairs_1">
            <path id="Vector_61" d="M282.961 186.064L311.923 223.027L330.209 208.546L298.589 172.73L282.961 186.064Z" class="stair"/>
        </g>
        <g id="stairs_2">
            <path id="Vector_62" d="M280.187 315.088L272.286 306.032L250.162 326.885L276.357 357.691L303.732 333.49L296.412 326.968L278.633 344.357L265.266 329.419" class="stair"/>
        </g>
        <g id="stairs_3">
            <path id="Vector_63" d="M603.841 347.356L605.677 366.788L693.683 353.072L682.252 282.587L620.822 331.355V345.96L603.841 347.356Z" class="stair"/>
        </g>
        <g id="stairs_4">
            <path id="Vector_64" d="M681.496 376.442L684.545 398.417L734.069 392.319L730.646 369.073L681.496 376.442Z" class="stair"/>
        </g>
        <g id="stairs_5">
            <path id="Vector_65" d="M938.985 331.463L941.336 353.072L992.738 345.96L990.104 324.692L938.985 331.463Z" class="stair"/>
        </g>
        <g id="stairs_6">
            <path id="Vector_66" d="M928.85 174.25L920.002 191.531L968.005 213.88L971.819 203.719L965.862 191.905L928.85 174.25Z" class="stair"/>
        </g>
        <g id="stairs_7">
            <path id="Vector_67" d="M727.979 167.521L765.315 137.297L780.336 153.173L742.069 184.669L727.979 167.521Z" class="stair"/>
        </g>
        <g id="stairs_8">
            <path id="Vector_68" d="M1060.72 164.223L1070.75 143.395L1113.43 164.223L1104.41 184.544L1060.72 164.223Z" class="stair"/>
        </g>
    </g>
</svg>
