<svg width="1091" height="501" viewBox="0 0 1091 501" fill="none" xmlns="http://www.w3.org/2000/svg">
<g id="SirIanWoodLevel4">
<g id="_4th_Floor">
<path id="Vector" opacity="0.55" d="M972.273 288.293L690.974 329.361L691.428 339.546L626.562 350.068L626.882 349.419L650.639 301.115C665.327 306.895 681.328 308.498 696.87 305.748C731.106 299.506 748.797 273.879 751.88 269.246C758.485 259.289 770.228 236.99 764.752 208.971C757.895 173.893 729.371 157.011 724.957 154.5C729.64 142.976 734.321 131.463 739 119.961L893.491 194.936L940.312 100.67L860.721 63.6036C864.368 56.3925 868.201 46.8564 871.84 39.6453C846.096 27.009 813.865 13.2608 788.113 0.641357C783.951 9.90795 779.512 19.1745 775.35 28.4411C768.232 24.507 766.201 23.9174 756.168 20.3539C749.03 17.818 741.733 15.7525 734.324 14.1706L735.099 4.904C679.302 -4.99068 621.81 2.56678 570.466 26.5457C554.839 33.8747 537.022 46.2498 514.639 64.9768C491.236 86.3489 464.355 107.157 440.944 128.537L325.499 226.552C319.931 232.584 304.439 247.613 280.245 251.277C273.741 252.255 261.029 254.007 246.691 248.186C225.782 239.694 216.878 221.372 214.679 216.511L64.1139 44.228L51.6293 35.728L0.132324 118.361L110.927 262.869L29.777 326.615L55.5297 364.279L86.5475 341.104L107.027 362.544L56.7007 415.279C73.9233 434.691 94.0588 451.308 116.386 464.535C166.628 494.231 215.488 497.735 248.056 499.917C275.544 501.728 295.838 499.774 336.425 495.856C374.882 492.15 397.745 487.811 487.403 472.1C514.041 467.433 537.586 463.339 557.189 459.944L1075.81 377.21L1090.35 347.658L972.273 288.293ZM289.696 400.983C277.453 402.152 265.132 402.282 252.866 401.371C237.702 400.234 207.106 397.639 173.401 379.729C148.57 366.456 127.095 347.694 110.607 324.871L143.166 301.696C158.93 321.078 178.966 336.547 201.706 346.892C257.609 372.046 310.075 355.998 324.968 350.758C341.817 344.862 354.268 336.378 379.237 319.463C411.763 297.433 424.93 284.334 477.311 239.492C569.354 160.718 542.868 189.048 578.098 156.817C597.288 139.261 610.287 126.153 633.917 116.642C643.259 112.885 672.002 101.74 706.364 108.917C710.692 109.82 714.962 110.979 719.152 112.388C714.238 122.312 709.33 132.23 704.427 142.142C693.043 139.168 681.177 138.509 669.534 140.205C662.87 141.19 641.203 144.712 622.637 163C612.285 173.558 604.811 186.592 600.927 200.859C598.56 209.46 593.994 231.186 603.64 255.717C609.01 269.227 617.671 281.181 628.837 290.492L600.152 350.758L289.696 400.983Z" fill="#75378F"/>
</g>
<g id="N405">
<path id="Vector_2" d="M154.05 222.871L190.754 196.217L115.779 108.521L81.0127 135.563L154.05 222.871Z" fill="#75378F"/>
</g>
<g id="N403">
<path id="Vector_3" d="M7.5708 118.63C19.5416 136.018 34.6124 153.397 46.5831 170.784L71.3165 151.08L23.0207 91.2012C18.9013 100.341 11.6902 109.482 7.5708 118.63Z" fill="#75378F"/>
</g>
<g id="N402">
<path id="Vector_4" d="M49.936 97.3845L78.9068 133.314L112.132 106.651L71.5693 59.1304L49.936 97.3845Z" fill="#75378F"/>
</g>
<g id="N407">
<path id="Vector_5" d="M157.269 227.184L181.227 255.388L217.535 226.03L193.585 197.438L157.269 227.184Z" fill="#75378F"/>
</g>
<g id="N410">
<path id="Vector_6" d="M183.156 260.99C193.067 273.715 205.742 284.019 220.222 291.124L241.476 248.245C232.819 243.652 225.296 237.185 219.456 229.315L183.156 260.99Z" fill="#75378F"/>
</g>
<g id="N412">
<path id="Vector_7" d="M227.973 291.899C240.663 300.207 255.72 304.141 270.852 303.103C270.211 287.131 269.568 271.161 268.923 255.195C260.94 255.47 253.003 253.884 245.739 250.561L227.973 291.899Z" fill="#75378F"/>
</g>
<g id="N414">
<path id="Vector_8" d="M277.423 302.716C293.294 303.48 308.995 299.15 322.231 290.357C314.643 276.452 307.048 262.543 299.443 248.632C295.614 250.465 291.598 251.877 287.464 252.844C282.773 253.953 277.963 254.474 273.143 254.394C274.575 270.507 276.002 286.614 277.423 302.716Z" fill="#75378F"/>
</g>
<g id="N415">
<path id="Vector_9" d="M307.522 249.66L328.768 288.293L423.455 215.66L392.547 176.26L307.522 249.66Z" fill="#75378F"/>
</g>
<g id="N419">
<path id="Vector_10" d="M397.914 173.034L425.713 208.963L518.455 134.788L485.272 99.2463L397.914 173.034Z" fill="#75378F"/>
</g>
<g id="N424">
<path id="Vector_11" d="M489.905 94.0907L519.651 130.407L588.805 75.5491L561.376 36.5283C548.74 45.0283 536.584 53.3767 524.545 63.056C512.472 72.7974 500.91 83.1561 489.905 94.0907Z" fill="#75378F"/>
</g>
<g id="N426b">
<path id="Vector_12" d="M566.397 38.0783L576.051 51.2116L594.989 42.3326L587.255 23.395L566.397 38.0783Z" fill="#75378F"/>
</g>
<g id="N426a">
<path id="Vector_13" d="M592.663 74.0076L606.985 66.6701L597.314 45.8035L577.601 54.3372L592.663 74.0076Z" fill="#75378F"/>
</g>
<g id="N426">
<path id="Vector_14" d="M592.259 24.5576L611.828 66.9228C636.328 56.1097 662.989 51.0881 689.744 52.2479L688.707 22.8812L659.088 23.3951C658.229 17.2174 657.386 11.0397 656.561 4.86194C633.927 6.55382 611.958 13.2831 592.259 24.5576Z" fill="#75378F"/>
</g>
<g id="N426a-2">
<path id="Vector_15" d="M659.888 7.04369L661.43 21.727L689.381 21.5922L689.769 5.62842L659.888 7.04369Z" fill="#75378F"/>
</g>
<g id="SOC_Office">
<path id="Vector_16" d="M692.001 4.01946C691.681 13.3534 691.358 22.6902 691.032 32.0298C703.046 32.371 714.977 34.1211 726.582 37.2444L731.991 16.3777L727.155 14.8361L728.512 8.09676C716.764 4.18519 704.321 2.80426 692.001 4.04473V4.01946Z" fill="#75378F"/>
</g>
<g id="N427">
<path id="Vector_17" d="M620.724 82.2633L634.245 114.722C647.989 107.691 663.237 104.109 678.674 104.284C678.416 92.698 678.158 81.1092 677.899 69.5175C658.128 69.4357 638.589 73.7912 620.724 82.2633Z" fill="#75378F"/>
</g>
<g id="N432a">
<path id="Vector_18" d="M731.62 37.3034C733.159 30.4405 734.703 23.572 736.253 16.6979L772.477 29.8396C769.512 36.9664 766.55 44.0905 763.59 51.2117L731.62 37.3034Z" fill="#75378F"/>
</g>
<g id="N429">
<path id="Vector_19" d="M684.344 68.5908V96.0199L704.949 98.3366L708.555 71.177L697.41 68.5908H684.344Z" fill="#75378F"/>
</g>
<g id="N433">
<path id="Vector_20" d="M711.512 70.6548L707.586 96.6686H711.512L709.549 107.746L718.706 110.577L736.43 77.352L725.42 73.1652L711.512 70.6548Z" fill="#75378F"/>
</g>
<g id="N432j">
<path id="Vector_21" d="M736.144 115.547L751.737 83.4595L778.248 96.2137L762.411 128.664L736.144 115.547Z" fill="#75378F"/>
</g>
<g id="N432b">
<path id="Vector_22" d="M774.676 33.959L788.972 4.85352L800.563 10.3882L793.411 25.2653L802.105 29.7048L794.768 44.5819L774.676 33.959Z" fill="#75378F"/>
</g>
<g id="N432c">
<path id="Vector_23" d="M803.925 11.0031L797.084 24.7176L805.778 28.9297L797.084 45.5422L811.768 52.6943L826.443 21.7186L803.925 11.0031Z" fill="#75378F"/>
</g>
<g id="N432d">
<path id="Vector_24" d="M815.247 54.236L831.085 61.3881L845.38 31.853L828.574 23.5215L815.247 54.236Z" fill="#75378F"/>
</g>
<g id="N432e">
<path id="Vector_25" d="M848.278 33.959L866.045 42.4505L853.686 70.6547L833.401 61.3881L848.278 33.959Z" fill="#75378F"/>
</g>
<g id="N453">
<path id="Vector_26" d="M712.48 37.2361L710.357 55.2048L725.807 57.5215L729.868 40.7153L712.48 37.2361Z" fill="#75378F"/>
</g>
<g id="N430">
<path id="Vector_27" d="M728.512 57.5214L732.951 41.4902L750.339 47.3787L743.195 62.736L728.512 57.5214Z" fill="#75378F"/>
</g>
<g id="N431">
<path id="Vector_28" d="M746.093 63.7048L761.349 71.4298L768.695 55.5923L752.032 48.4402L746.093 63.7048Z" fill="#75378F"/>
</g>
<g id="N432">
<path id="Vector_29" d="M760.195 83.4595L774.196 54.573L767.237 51.2118L773.328 37.2361L854.259 74.7152L859.288 65.634L932.882 101.951L907.382 154.105L760.195 83.4595Z" fill="#75378F"/>
</g>
<g id="N436">
<path id="Vector_30" d="M698.808 213.444L707.468 193.917L756.985 218.069C757.802 225.623 757.384 233.26 755.747 240.68C750.532 264.065 734.484 277.527 729.261 281.79C708.058 299.059 671.977 308.89 643.596 291.553C622.536 278.681 613.025 258.581 610.177 250.182C607.204 241.438 601.879 218.33 609.925 194.431C620.724 162.352 650.588 150.457 655.23 148.696C657.875 154.947 660.517 161.201 663.157 167.457L673.055 173.11L662.18 195.206C674.639 200.775 686.34 207.876 698.808 213.444Z" fill="#75378F"/>
</g>
<g id="N435">
<path id="Vector_31" d="M686.205 185.013L679.062 198.921L697.991 208.382L705.91 193.892L686.205 185.013Z" fill="#75378F"/>
</g>
<g id="N436a">
<path id="Vector_32" d="M659.164 148.115C661.548 153.169 663.932 159.513 666.308 164.542L676.551 168.594C680.544 160.872 684.535 153.144 688.522 145.411C683.468 145.764 678.784 144.568 673.072 145.411C668.456 146.085 663.3 147.256 659.164 148.115Z" fill="#75378F"/>
</g>
<g id="N425">
<path id="Vector_33" d="M553.828 127.324C560.949 136.686 568.073 146.043 575.2 155.394C590.619 139.239 608.539 125.674 628.272 115.219L621.533 96.4159L606.597 105.944L597.583 91.0076L553.828 127.324Z" fill="#75378F"/>
</g>
<g id="N418">
<path id="Vector_34" d="M430.203 237.091L451.061 219.266L468.836 242.188L447.456 260.216L430.203 237.091Z" fill="#75378F"/>
</g>
<g id="N413">
<path id="Vector_35" d="M307.522 313.802C310.967 324.871 314.421 338.013 317.867 349.082C323.983 348.037 332.188 344.558 340.536 340.843C353.383 335.132 361.934 329.134 367.578 323.59L360.839 314.568L398.503 285.715C393.01 279.111 386.709 271.209 381.25 264.596C371.234 274.166 358.842 283.66 342.617 296.018C329.981 305.655 317.774 310.348 307.522 313.802Z" fill="#75378F"/>
</g>
<g id="N452">
<path id="Vector_36" d="M283.134 318.94C290.164 318.762 297.121 317.46 303.739 315.082C307.002 326.415 310.265 337.746 313.528 349.074C309.647 350.864 305.59 352.244 301.423 353.193C296.516 354.312 291.493 354.832 286.461 354.743C285.338 342.803 284.229 330.869 283.134 318.94Z" fill="#75378F"/>
</g>
<g id="N451">
<path id="Vector_37" d="M260.212 318.688C266.458 320.15 272.924 320.41 279.267 319.454L281.845 355.771C273.762 357.172 265.498 357.172 257.415 355.771L260.212 318.688Z" fill="#75378F"/>
</g>
<g id="N411">
<path id="Vector_38" d="M208.445 303.49C222.719 312.439 239.014 317.654 255.831 318.654C254.458 330.498 254.147 342.873 252.74 354.718C241.486 355.027 230.26 353.458 219.523 350.076C209.82 347.035 200.682 342.422 192.473 336.421L208.445 303.49Z" fill="#75378F"/>
</g>
<g id="N404">
<path id="Vector_39" d="M49.2788 173.935L57.7788 183.724L82.3268 164.146L72.7149 154.104L49.2788 173.935Z" fill="#75378F"/>
</g>
<g id="N447b">
<path id="Vector_40" d="M85.9746 393.376L105.814 409.214L122.291 386.157L106.193 371.608L85.9746 393.376Z" fill="#75378F"/>
</g>
<g id="N447a">
<path id="Vector_41" d="M64.1646 415.65L85.9747 435.228L103.623 410.882L83.894 395.305L64.1646 415.65Z" fill="#75378F"/>
</g>
<g id="N447c">
<path id="Vector_42" d="M168.911 380.302L184.361 388.414C184.361 388.414 174.319 413.527 173.738 413.333C173.156 413.139 154.809 404.067 154.809 404.067L168.911 380.302Z" fill="#75378F"/>
</g>
<g id="N447d">
<path id="Vector_43" d="M176.729 415.33L194.445 421.201L202.532 396.384L185.785 391.742L176.729 415.33Z" fill="#75378F"/>
</g>
<g id="N447e">
<path id="Vector_44" d="M198.488 422.852L217.164 428.353L222.556 401.581L205.227 397.824L198.488 422.852Z" fill="#75378F"/>
</g>
<g id="N447i">
<path id="Vector_45" d="M225.445 402.71L244.113 404.884L241.418 431.285L220.248 428.354L225.445 402.71Z" fill="#75378F"/>
</g>
<g id="N447j">
<path id="Vector_46" d="M251.046 406.468H272.031V432.566H248.351L251.046 406.468Z" fill="#75378F"/>
</g>
<g id="N447k">
<path id="Vector_47" d="M276.656 406.468L297.64 404.513L303.411 431.285L277.422 432.566L276.656 406.468Z" fill="#75378F"/>
</g>
<g id="N447l">
<path id="Vector_48" d="M143.04 469.421L158.827 474.922L169.323 447.24L156.182 441.007L143.04 469.421Z" fill="#75378F"/>
</g>
<g id="N447g">
<path id="Vector_49" d="M161.91 476.574L176.728 481.342L185.97 453.289L172.306 448.336L161.91 476.574Z" fill="#75378F"/>
</g>
<g id="N447h">
<path id="Vector_50" d="M180.199 483.178L198.488 487.39L205.421 457.964L189.634 454.207L180.199 483.178Z" fill="#75378F"/>
</g>
<g id="N447">
<path id="Vector_51" d="M129.174 391.742L146.696 369.132C146.696 369.132 166.249 379.822 165.33 380.437C164.412 381.052 151.127 406.468 151.127 406.468C157.488 410.139 164.043 413.463 170.764 416.425C198.269 428.564 221.764 431.673 237.762 433.661C269.007 437.553 293.252 435.346 306.688 434.031C313.335 433.383 316.047 432.827 339.222 429.263C363.652 425.498 383.474 422.524 396.406 420.645C394.67 411.053 392.938 401.458 391.208 391.86L418.721 388.196L422.933 416.433L440.624 413.906C442.427 423.257 444.224 432.608 446.016 441.959L480.673 435.902C482.784 446.011 484.901 456.097 487.024 466.161L384.603 480.482C382.357 469.812 380.11 459.116 377.864 448.395L326.476 455.37L332.062 488.738C288.958 494.43 245.255 493.811 202.329 486.902L208.875 455.917C190.232 451.272 172.203 444.44 155.163 435.565L138.794 467.467C128.243 464.163 118.201 459.412 108.956 453.348C101.669 448.564 94.9507 442.965 88.9316 436.66C100.725 421.142 112.533 405.619 124.355 390.091L129.174 391.742Z" fill="#75378F"/>
</g>
<g id="N447o">
<path id="Vector_52" d="M330.882 458.116L351.564 455.067L356.677 485.394C356.677 485.394 336.409 489.968 336.611 488.637C336.813 487.306 330.882 458.116 330.882 458.116Z" fill="#75378F"/>
</g>
<g id="N447p">
<path id="Vector_53" d="M355.784 454.207L375.615 452.371L380.812 482.437L360.013 485.739L355.784 454.207Z" fill="#75378F"/>
</g>
<g id="N455">
<path id="Vector_54" d="M447.843 424.343L448.997 438.446L469.477 435.354L466.772 420.477L447.843 424.343Z" fill="#75378F"/>
</g>
<g id="N454">
<path id="Vector_55" d="M469.477 421.446L472.004 435.16C472.004 435.16 484.75 433.425 484.75 432.844C484.75 432.262 481.852 419.517 481.852 419.517L469.477 421.446Z" fill="#75378F"/>
</g>
<g id="N445">
<path id="Vector_56" d="M484.969 419.365L491.708 465.024L522.507 459.885L513.847 413.316L484.969 419.365Z" fill="#75378F"/>
</g>
<g id="N441">
<path id="Vector_57" d="M522.507 438.252L525.59 459.523L557.358 455.488L552.741 428.808L545.353 429.642L546.575 435.287L522.507 438.252Z" fill="#75378F"/>
</g>
<g id="N443">
<path id="Vector_58" d="M519.314 413.139L541.427 410.435L544.452 432.599L522.793 436.129L519.314 413.139Z" fill="#75378F"/>
</g>
<g id="N442">
<path id="Vector_59" d="M520.856 383.781L522.794 396.333L545.32 393.629L541.714 364.776L525.338 366.588L527.427 382.813L520.856 383.781Z" fill="#75378F"/>
</g>
<g id="N438">
<path id="Vector_60" d="M545.32 363.614L548.285 392.281L583.826 386.864L600.169 355.257L545.32 363.614Z" fill="#75378F"/>
</g>
<g id="N439">
<path id="Vector_61" d="M563.482 405.861L565.933 425.439L585.764 423.282L597.356 400.2L563.482 405.861Z" fill="#75378F"/>
</g>
<g id="N440">
<path id="Vector_62" d="M554.982 428.808L584.635 424.259L571.923 452.126L559.346 454.207L554.982 428.808Z" fill="#75378F"/>
</g>
<g id="NS419">
<path id="Vector_63" d="M578.78 449.987L619.343 442.843C619.343 442.843 612.603 403.966 612.022 403.966C611.441 403.966 602.755 401.034 602.755 401.034L578.78 449.987Z" fill="#75378F"/>
</g>
<g id="NS402">
<path id="Vector_64" d="M617.06 376.629L626.714 354.221L691.428 344.76L694.899 364.776L617.06 376.629Z" fill="#75378F"/>
</g>
<g id="NS411">
<path id="Vector_65" d="M851.816 313.288C852.069 312.799 855.936 337.962 855.936 337.962L891.738 331.863L887.872 306.591L851.816 313.288Z" fill="#75378F"/>
</g>
<g id="NS410">
<path id="Vector_66" d="M838.422 318.165L842.027 343.404L853.619 340.7L848.725 315.849L838.422 318.165Z" fill="#75378F"/>
</g>
<g id="NS412">
<path id="Vector_67" d="M891.09 306.06L894.569 331.299L910.541 329.403L906.548 303.617L891.09 306.06Z" fill="#75378F"/>
</g>
<g id="NS413">
<path id="Vector_68" d="M909.126 303.617L926.893 300.778L930.111 327.693L913.372 329.631L909.126 303.617Z" fill="#75378F"/>
</g>
<g id="NS415">
<path id="Vector_69" d="M964.405 338.737L972.442 390.394L998.245 386.182L995.937 368.946L1032.13 363.26L1034.44 380.31L1066.4 375.728L1077.95 352.991L1030.01 329.15L964.405 338.737Z" fill="#75378F"/>
</g>
<g id="NS418">
<path id="Vector_70" d="M999.787 371.33L1001.32 385.078L1031.93 380.496L1028.85 366.191L999.787 371.33Z" fill="#75378F"/>
</g>
<g id="NS401">
<path id="Vector_71" d="M613.387 384.287L605.679 398.464L618.003 405.061L624.161 442.228L964.405 389.417L953.766 330.802L613.387 384.287Z" fill="#75378F"/>
</g>
<g id="stairs_2">
<path id="Vector_72" d="M717.038 172.006L709.49 189.04L756.235 211.667L760.945 205.13L753.38 187.995L717.038 172.006Z" fill="#B03A4F"/>
</g>
<g id="stairs_1">
<path id="Vector_73" d="M849.727 160.802L858.513 142.799L901.005 162.857L892.252 183.463L849.727 160.802Z" fill="#B03A4F"/>
</g>
<g id="stairs_3">
<path id="Vector_74" d="M514.681 164.146L527.3 181.407L567.736 151.788L552.539 133.238L514.681 164.146Z" fill="#B03A4F"/>
</g>
<g id="stairs_4">
<path id="Vector_75" d="M59.5815 187.077L81.0379 168.063C81.0379 168.063 114.212 207.657 113.42 208.946C112.629 210.235 90.2287 228.263 90.2287 228.263L59.5815 187.077Z" fill="#B03A4F"/>
</g>
<g id="stairs_5">
<path id="Vector_76" d="M30.3496 79.0283L53.912 40.9089L68.8481 53.0145L48.8912 89.7186L30.3496 79.0283Z" fill="#B03A4F"/>
</g>
<g id="stairs_6">
<path id="Vector_77" d="M58.7055 308.351L64.1643 315.394L47.7962 329.108L59.9691 346.108L78.2159 333.261L84.5003 339.74L58.8066 359.73L35.1431 326.699L58.7055 308.351Z" fill="#B03A4F"/>
</g>
<g id="stairs_7">
<path id="Vector_78" d="M465.804 377.404L468.702 400.2L517.772 392.854L514.293 369.292L465.804 377.404Z" fill="#B03A4F"/>
</g>
<g id="stairs_8">
<path id="Vector_79" d="M725.032 334.331L728.512 355.189C728.512 355.189 780.017 348.029 779.436 347.835C778.854 347.641 776.226 326.219 776.226 326.219L725.032 334.331Z" fill="#B03A4F"/>
</g>
<g id="stairs_9">
<path id="Vector_80" d="M930.11 300.778L932.688 322.293L1007.38 311.536L971.06 293.188L930.11 300.778Z" fill="#B03A4F"/>
</g>
<g id="Lift_1">
<path id="Vector_81" d="M107.818 242.836L119.924 256.997L133.832 246.956L121.196 232.272L107.818 242.836Z" fill="#2D6D9C"/>
</g>
<g id="Lift_2">
<path id="Vector_82" d="M51.1577 329.892C53.7355 333.405 57.3411 338.99 59.9188 342.528C65.6641 337.889 71.415 333.253 77.1716 328.62L66.3549 317.281C60.4327 321.644 55.8837 324.997 51.1577 329.892Z" fill="#2D6D9C"/>
</g>
<g id="Lift_3">
<path id="Vector_83" d="M695.876 334.154C696.407 337.162 696.946 341.736 697.477 344.761L712.725 341.601C711.63 338.114 710.532 334.626 709.431 331.139C704.343 331.998 700.426 332.621 695.876 334.154Z" fill="#2D6D9C"/>
</g>
<g id="Lift_4">
<path id="Vector_84" d="M816.789 147.921L825.676 130.348L839.003 136.717L830.309 155.267L816.789 147.921Z" fill="#2D6D9C"/>
</g>
<g id="Lift_5">
<path id="Vector_85" d="M495.103 197.514L503.199 208.061L517.722 195.594L508.784 186.554L495.103 197.514Z" fill="#2D6D9C"/>
</g>
<g id="Lift_6">
<path id="Vector_86" d="M715.016 157.255L710.383 166.614L728.149 174.339L733.634 164.298L715.016 157.255Z" fill="#2D6D9C"/>
</g>
<g id="Lift_7">
<path id="Vector_87" d="M430.456 382.425L432.966 396.333L452.283 394.017L449.579 379.721L430.456 382.425Z" fill="#2D6D9C"/>
</g>
<g id="bathroom_1">
<path id="Vector_88" d="M455.13 218.878C460.286 225.129 466.208 231.952 471.355 238.195L486.039 225.836L477.151 216.923L472.097 221.565C469.07 218.409 466.043 215.253 463.015 212.096C460.674 214.565 457.514 216.435 455.13 218.878Z" fill="#4B337F"/>
</g>
<g id="bathroom_2">
<path id="Vector_89" d="M477.151 199.182L485.272 209.418L478.904 215.601L487.21 224.295L502.66 212.122L486.241 191.836L477.151 199.182Z" fill="#4B337F"/>
</g>
<g id="bathroom_3">
<path id="Vector_90" d="M776.032 107.359L766.176 128.664L798.441 145.411L815.247 113.155L799.982 106.55L793.799 116.819L776.032 107.359Z" fill="#4B337F"/>
</g>
<g id="bathroom_4">
<path id="Vector_91" d="M146.166 298.31L159.038 286.002L173.451 301.233C170.242 305.74 165.55 310.592 162.34 315.107C159.088 313.717 155.398 310.609 150.841 305.327C149.004 303.186 147.435 300.829 146.166 298.31Z" fill="#4B337F"/>
</g>
<g id="bathroom_5">
<path id="Vector_92" d="M165.583 316.624C169.369 320.421 173.414 323.95 177.689 327.188C181.396 329.989 185.267 332.569 189.28 334.913L196.963 317.913L175.625 303.49L165.583 316.624Z" fill="#4B337F"/>
</g>
<g id="bathroom_6">
<path id="Vector_93" d="M304.127 403.865L305.669 418.649L320.546 417.015L322.281 429.752L348.362 424.925L343.729 398.262L304.127 403.865Z" fill="#4B337F"/>
</g>
<g id="bathroom_7">
<path id="Vector_94" d="M348.362 398.262L351.841 424.344L364.781 422.221L362.658 411.303L373.281 409.854L371.925 394.017L348.362 398.262Z" fill="#4B337F"/>
</g>
<g id="bathroom_8">
<path id="Vector_95" d="M779.444 324.349L782.022 343.404L794.642 340.7L793.353 331.155L805.972 329.757L804.683 319.454L779.444 324.349Z" fill="#4B337F"/>
</g>
<g id="bathroom_9">
<path id="Vector_96" d="M806.941 319.454L808.289 328.923L822.778 327.179L824.033 335.098L837.074 333.068L833.789 314.526L806.941 319.454Z" fill="#4B337F"/>
</g>
<g id="Accessible_toilet_1">
<path id="Vector_97" d="M804.237 140.196L815.247 145.411L823.553 127.063L812.349 121.848L804.237 140.196Z" fill="#C26700"/>
</g>
<g id="Accessible_toilet_2">
<path id="Vector_98" d="M461.878 205.13L471.92 197.337C471.92 197.337 482.483 208.221 481.708 209.249C480.933 210.277 472.956 217.488 472.956 217.488L461.878 205.13Z" fill="#C26700"/>
</g>
<g id="Accessible_toilet_3">
<path id="Vector_99" d="M389.767 260.216L404.956 246.821L423.455 268.715L406.607 282.11L389.767 260.216Z" fill="#C26700"/>
</g>
<g id="Accessible_toilet_4">
<path id="Vector_100" d="M179.34 291.124L173.451 296.532L187.41 309.152L192.473 300.138L179.34 291.124Z" fill="#C26700"/>
</g>
<g id="Accessible_toilet_5">
<path id="Vector_101" d="M374.823 390.925L388.344 388.802L391.241 411.21L378.108 413.139L374.823 390.925Z" fill="#C26700"/>
</g>
<g id="Accessible_toilet_6">
<path id="Vector_102" d="M795.349 333.169L798.146 349.006L823.932 345.628L820.942 329.403L795.349 333.169Z" fill="#C26700"/>
</g>
</g>
</svg>
