<svg width="1120" height="501" viewBox="0 0 1120 501" transform="scale(-1,-1)"
    xmlns="http://www.w3.org/2000/svg">
    <g id="SirIanWoodLevel2">
        <g id="_2nd_Floor">
            <path id="Vector" d="M0.461452 296.198L0.132324 311.443L68.9129 293.39C68.2829 299.305 68.4927 305.279 69.5361 311.135C74.515 338.845 97.0847 354.636 102.526 358.438C104.228 359.636 144.906 387.073 187.805 367.465C210.01 357.318 221.495 339.734 225.773 332.297L256.585 368.088L220.479 398.277C252.693 437.916 295.084 468.044 343.111 485.433C381.018 498.757 421.401 503.54 461.372 499.438L559.725 484.809C558.997 478.582 558.271 472.356 557.547 466.133L696.978 445.279L698.848 463.647L777.278 451.196C776.345 444.969 775.411 438.743 774.477 432.52L1105.62 380.546L1119.01 353.46L1015.68 303.04L850.106 329.188C849.061 322.858 848.022 316.527 846.99 310.197L793.77 318.6C801.928 315.883 816.773 309.574 828.937 295.26C834.574 288.926 838.906 281.541 841.683 273.53C844.46 265.518 845.628 257.037 845.12 248.573C844.802 239.132 842.692 229.838 838.902 221.186C831.066 203.406 818.104 193.371 811.823 189.134L821.78 166.102L952.5 229.904L993.893 147.426L923.866 112.882C926.457 107.998 929.05 103.122 931.646 98.2531L912.346 90.1579L916.086 81.1314L865.351 56.8601C855.496 77.504 845.641 98.148 835.786 118.792L810.576 111.012L818.979 69.3039C806.409 65.6999 793.453 63.6123 780.387 63.0855C728.96 61.0687 689.569 84.2477 673.638 93.8974C666.713 98.099 661.265 101.915 657.763 104.478L646.244 90.7812L463.557 238.314C459.707 243.457 454.694 247.615 448.929 250.45C445.579 252.079 442.017 253.232 438.347 253.874L441.457 271.612C436.494 272.313 431.45 272.209 426.52 271.304C402.711 266.871 390.337 244.694 387.928 240.177C368.937 216.526 349.957 192.874 330.989 169.218L339.392 162.685L375.183 207.187L431.205 163.616C428.716 154.695 426.228 145.773 423.74 136.852L438.369 125.333L417.823 100.123L458.592 66.8249L494.39 110.711L554.767 61.846L562.855 72.7352L603.317 40.3687L574.683 4.88602L529.866 0.845459L226.082 246.717C219.143 235.637 209.811 226.251 198.771 219.249C187.73 212.247 175.261 207.807 162.28 206.256C147.795 204.569 133.12 206.603 119.64 212.166C115.775 213.826 89.2137 225.639 76.3848 255.121C73.4603 261.872 71.4764 268.992 70.4885 276.283L0.461452 296.198Z" class="background"/>
        </g>
        <g id="N203">
            <path id="Vector_2" d="M105.033 226.76C110.91 221.555 117.618 217.372 124.878 214.386C145.186 206.067 163.463 209.981 169.458 211.354C190.844 216.256 203.96 228.86 210.311 235.163C215.04 239.844 219.264 245.007 222.916 250.569L187.665 278.58L187.433 288.145L104.802 279.98C104.641 276.857 106.902 270.288 109.472 264.336C113.779 254.357 121.461 251.682 124.178 250.261C118.338 242.712 110.873 234.309 105.033 226.76Z" class="room"/>
        </g>
        <g id="N204">
            <path id="Vector_3" d="M128.835 297.249C128.368 303.551 127.902 309.854 127.435 316.156L104.795 332.963C110.029 339.745 116.733 345.251 124.402 349.069C139.227 356.408 158.289 355.511 163.856 354.818C179.143 352.927 184.5 347.234 189.528 343.467C183.456 336.233 177.392 327.129 171.321 319.896L173.653 302.151L128.835 297.249Z" class="room"/>
        </g>
        <g id="N200a">
            <path id="Vector_4" d="M177.16 302.62C176.624 308.143 176.08 313.668 175.529 319.195C181.208 325.883 188.547 333.509 194.226 340.203C196.943 339.027 203.442 334.16 208.673 324.798C211.756 319.244 213.213 312.934 212.874 306.59L177.16 302.62Z" class="room"/>
        </g>
        <g id="N204a">
            <path id="Vector_5" d="M94.1436 291.885V302.851L100.908 302.389C102.367 310.218 106.104 317.443 111.65 323.159L123.786 314.525C124.099 308.301 124.409 302.076 124.717 295.848L94.1436 291.885Z" class="room"/>
        </g>
        <g id="N209a">
            <path id="Vector_6" d="M231.088 248.692L258.861 224.89L272.867 243.097L245.094 263.874L231.088 248.692Z" class="room"/>
        </g>
        <g id="N209">
            <path id="Vector_7" d="M248.364 267.291L276.137 245.667L312.32 290.484L283.84 312.662L248.364 267.291Z" class="room"/>
        </g>
        <g id="N212">
            <path id="Vector_8" d="M288.042 316.163L307.18 300.057L321.423 316.163L301.116 334.132L288.042 316.163Z" class="room"/>
        </g>
        <g id="N213">
            <path id="Vector_9" d="M311.15 297.256L316.283 291.885L320.254 296.318L329.126 289.553L338.93 302.62L325.037 314.062L311.15 297.256Z" class="room"/>
        </g>
        <g id="N216">
            <path id="Vector_10" d="M312.607 231.395L349.112 200.072L393.726 256.402L358.125 286.598L312.607 231.395Z" class="room"/>
        </g>
        <g id="N215a">
            <path id="Vector_11" d="M285.94 202.95L325.037 171.669L338.93 188.714L301.115 219.757L285.94 202.95Z" class="room"/>
        </g>
        <g id="N217">
            <path id="Vector_12" d="M358.439 293.979L396.73 261.472C401.059 266.458 406.439 270.422 412.484 273.079C418.529 275.736 425.087 277.019 431.688 276.836V326.261C422.542 325.498 408.971 324.321 393.873 317.158C382.669 311.814 373.936 304.329 368.047 299.119L363.593 301.794L358.439 293.979Z" class="room"/>
        </g>
        <g id="N228">
            <path id="Vector_13" d="M438.256 278.433L450.21 276.01L479.993 314.581C467.065 321.774 452.608 325.778 437.822 326.261L438.256 278.433Z" class="room"/>
        </g>
        <g id="N228-2">
            <path id="Vector_14" d="M443.964 258.153L445.133 269.245L451.436 267.845L484.748 311.962L488.949 309.364C492.072 313.145 495.2 316.922 498.333 320.694L504.194 315.743L496.925 306.058L499.971 303.467L491.764 293.075L496.666 289.063C497.296 284.105 497.922 279.147 498.543 274.189L485.749 257.915L473.788 257.677L460.644 266.178L450.322 254.848L443.964 258.153Z" class="room"/>
        </g>
        <g id="N249">
            <path id="Vector_15" d="M466.688 243.622L474.909 254.581H489.516L503.9 272.277L502.072 287.795L497.962 292.018L503.9 299.784L544.992 265.884L555.496 277.641L579.921 257.663L584.711 262.684L591.791 256.976L587.225 251.5L643.611 206.984L633.114 194.883L660.508 172.51L618.275 119.772L594.529 139.408L605.719 155.388L549.789 201.277L536.315 185.521L466.688 243.622Z" class="room"/>
        </g>
        <g id="N429g">
            <path id="Vector_16" d="M622.224 116.313L629.696 110.011C633.735 114.534 637.78 119.056 641.832 123.575C667.286 98.4675 698.982 80.6098 733.644 71.8459C737.692 91.2947 741.737 110.744 745.78 130.192L733.336 131.768L698.785 160.185L688.519 145.36L662.063 166.172L622.224 116.313Z" class="room"/>
        </g>
        <g id="N249a">
            <path id="Vector_17" d="M738.623 71.2506C742.125 88.7574 745.15 103.68 748.679 121.215C760.71 110.711 773.273 102.889 785.31 92.4128L807.096 94.2825C808.543 86.9157 809.995 79.5488 811.451 72.182C787.753 64.9817 762.498 64.6587 738.623 71.2506Z" class="room"/>
        </g>
        <g id="N250">
            <path id="Vector_18" d="M748.588 125.69L785.934 97.0556L808.027 99.2334L806.165 114.793L753.567 154.632L748.588 125.69Z" class="room"/>
        </g>
        <g id="N252">
            <path id="Vector_19" d="M839.953 123.281L856.892 90.207L878.993 101.103L863.433 134.093L839.953 123.281Z" class="room"/>
        </g>
        <g id="N253">
            <path id="Vector_20" d="M868.412 136.579L883.656 103.904L978.585 149.653L956.8 193.224L921.94 178.595L928.166 164.905L868.412 136.579Z" class="room"/>
        </g>
        <g id="N281">
            <path id="Vector_21" d="M342.116 158.364L362.039 141.873L396.583 184.512L376.352 200.072L342.116 158.364Z" class="room"/>
        </g>
        <g id="N280">
            <path id="Vector_22" d="M385.085 124.051L413.719 101.026L432.388 124.051L417.76 135.879L420.561 147.398L410.918 155.486L385.085 124.051Z" class="room"/>
        </g>
        <g id="N249f">
            <path id="Vector_23" d="M462.563 61.888L533.213 5.24316L572.737 8.04424L596.707 38.2329L563.598 64.374L555.93 54.7243L496.176 102.658L462.563 61.888Z" class="room"/>
        </g>
        <g id="N249c">
            <path id="Vector_24" d="M605.418 244.245L620.67 263.874L664.241 227.775L647.434 209.232L605.418 244.245Z" class="room"/>
        </g>
        <g id="N218">
            <path id="Vector_25" d="M369.35 304.336L355.19 317.095C360.05 320.778 365.337 324.545 371.059 328.299C376.304 331.751 381.409 334.839 386.31 337.633L393.782 322.382C389.434 319.7 384.833 316.611 380.085 313.047C376.171 310.106 372.599 307.179 369.35 304.336Z" class="room"/>
        </g>
        <g id="N225">
            <path id="Vector_26" d="M453.844 327.984C454.054 333.385 454.262 338.78 454.467 344.167C469.8 342.187 484.485 336.762 497.422 328.299L487.149 314.945C477.01 321.438 465.694 325.878 453.844 328.012V327.984Z" class="room"/>
        </g>
        <g id="N227">
            <path id="Vector_27" d="M504.264 306.822L527.919 286.591L536.637 296.864L565.271 276.01L587.057 303.089L563.086 323.943L523.563 330.477L504.264 306.822Z" class="room"/>
        </g>
        <g id="N219">
            <path id="Vector_28" d="M311.928 346.037L342.424 321.45C349.803 329.207 358.3 335.816 367.634 341.058L348.965 375.602C334.386 368.926 321.668 358.774 311.928 346.037Z" class="room"/>
        </g>
        <g id="N220">
            <path id="Vector_29" d="M354.252 377.78L372.305 345.105L388.18 351.954L376.037 388.053L354.252 377.78Z" class="room"/>
        </g>
        <g id="N221">
            <path id="Vector_30" d="M381.64 389.299C385.79 377.367 389.94 365.437 394.09 353.509C398.453 354.86 403.194 356.142 408.411 357.241C414.369 358.514 420.394 359.449 426.457 360.042C425.836 373.114 425.215 386.186 424.594 399.257C409.893 397.885 395.445 394.535 381.64 389.299Z" class="room"/>
        </g>
        <g id="N224">
            <path id="Vector_31" d="M430.82 360.357L443.887 359.734C444.82 366.998 445.754 374.26 446.688 381.519L429.881 383.074C430.199 375.506 430.512 367.934 430.82 360.357Z" class="room"/>
        </g>
        <g id="N229">
            <path id="Vector_32" d="M429.881 387.129L446.688 384.79L449.489 400.504H429.881V387.129Z" class="room"/>
        </g>
        <g id="N230">
            <path id="Vector_33" d="M464.586 400.819L474.117 399.257L466.841 356.828L490.104 350.084L500.377 416.379L466.841 421.666L464.586 400.819Z" class="room"/>
        </g>
        <g id="N226">
            <path id="Vector_34" d="M499.292 344.174L500.377 351.639L525.118 348.53L523.255 334.132L517.653 330.477L499.292 344.174Z" class="room"/>
        </g>
        <g id="N231">
            <path id="Vector_35" d="M508.003 391.792L510.804 414.509L536.014 410.462L531.659 388.053L508.003 391.792Z" class="print"/>
        </g>
        <g id="N239">
            <path id="Vector_36" d="M559.515 366.583L561.224 379.033L628.45 368.137L626.524 356.226L559.515 366.583Z" class="room"/>
        </g>
        <g id="N237">
            <path id="Vector_37" d="M646.503 367.626L649.612 391.169L664.241 388.053L673.575 371.407V363.466L646.503 367.626Z" class="room"/>
        </g>
        <g id="N243">
            <path id="Vector_38" d="M708.155 238.692L727.447 248.622L745.78 213.714L724.541 204.428C721.698 206.382 717.538 210.969 713.61 218.917C709.352 227.481 707.888 235.254 708.155 238.692Z" class="room"/>
        </g>
        <g id="NS201">
            <path id="Vector_39" d="M710.458 400.504L728.82 361.289L745.003 359.734L747.804 374.986L783.91 370.007L786.711 391.169L734.114 399.257L729.443 409.845L710.458 400.504Z" class="room"/>
        </g>
        <g id="NS202">
            <path id="Vector_40" d="M733.336 411.631L737.384 403.228L788.112 396.379L792.782 421.904L759.477 427.191L733.336 411.631Z" class="room"/>
        </g>
        <g id="NS205">
            <path id="Vector_41" d="M789.358 371.407L822.971 365.959L829.196 414.509L796.823 420.111L789.358 371.407Z" class="room"/>
        </g>
        <g id="NS208a">
            <path id="Vector_42" d="M827.019 365.959L833.86 414.509L901.086 404.243L893.306 353.509L827.019 365.959Z" class="room"/>
        </g>
        <g id="MS208b">
            <path id="Vector_43" d="M897.354 353.509L904.385 402.682L958.046 396.379L948.144 344.174L897.354 353.509Z" class="room"/>
        </g>
        <g id="NS208c">
            <path id="Vector_44" d="M951.8 344.174L961.015 394.593L1013.44 388.053L1005.82 334.524L951.8 344.174Z" class="room"/>
        </g>
        <g id="NS222">
            <path id="Vector_45" d="M1053.59 337.633L1060.44 379.033L1101.52 373.431L1108.68 356.226L1068.22 334.524L1053.59 337.633Z" class="room"/>
        </g>
        <g id="NS221">
            <path id="Vector_46" d="M1039.59 338.572L1050.48 336.856L1053.59 354.132L1041.76 356.779L1039.59 338.572Z" class="room"/>
        </g>
        <g id="NS220">
            <path id="Vector_47" d="M1038.03 359.58L1054.84 356.779L1058.26 379.033L1041.14 381.05L1038.03 359.58Z" class="room"/>
        </g>
        <g id="NS219">
            <path id="Vector_48" d="M1013.44 362.843L1034.45 359.426L1038.03 382.92L1016.71 385.721L1013.44 362.843Z" class="room"/>
        </g>
        <g id="NS218">
            <path id="Vector_49" d="M1011.42 342.773L1013.44 359.426L1038.81 355.378L1037.1 339.349L1011.42 342.773Z" class="room"/>
        </g>
        <g id="NS217">
            <path id="Vector_50" d="M963.487 315.848L976.715 313.516L980.14 335.925L967.122 338.145L963.487 315.848Z" class="room"/>
        </g>
        <g id="NS216">
            <path id="Vector_51" d="M949.797 318.495L960.378 316.625L964.426 339.349L952.598 340.904L949.797 318.495Z" class="room"/>
        </g>
        <g id="NS215">
            <path id="Vector_52" d="M914.006 324.097L946.373 319.896L948.704 340.904L918.67 345.575L914.006 324.097Z" class="room"/>
        </g>
        <g id="NS214">
            <path id="Vector_53" d="M902.648 329.699L911.982 327.676L914.629 346.821L904.826 348.53L902.648 329.699Z" class="room"/>
        </g>
        <g id="NS203">
            <path id="Vector_54" d="M748.588 356.226L750.451 371.246L765.234 369.069L763.679 353.509L748.588 356.226Z" class="room"/>
        </g>
        <g id="NS204">
            <path id="Vector_55" d="M767.104 354.286L768.035 369.384L785.465 367.626L782.979 351.177L767.104 354.286Z" class="room"/>
        </g>
        <g id="N241">
            <path id="Vector_56" d="M712.517 270.288C713.981 269.848 715.477 269.525 716.992 269.322L755.899 287.529L759.947 280.365L810.52 305.421C805.618 308.173 784.568 319.293 758.231 312.893C725.241 304.868 714.233 274.028 712.517 270.288Z" class="room"/>
        </g>
        <g id="N247">
            <path id="Vector_57" d="M709.212 155.689L723.967 144.359L733.42 155.689L738.721 151.642L742.202 165.395L726.936 177.041L709.212 155.689Z" class="room"/>
        </g>
        <g id="N242">
            <path id="Vector_58" d="M753.322 206.354L728.441 258.454L813.566 299.245L839.812 244.792L753.322 206.354Z" class="room"/>
        </g>
        <g id="Bathroom_1">
            <path id="Vector_59" d="M502.093 355.273L525.118 351.639L528.858 384.79L508.004 388.053L502.093 355.273Z" class="bathroom"/>
        </g>
        <g id="Bathroom_2">
            <path id="Vector_60" d="M528.857 334.132L532.282 373.431L545.664 371.52L547.527 380.896L557.491 379.033L555.93 363.466L569.004 362.381L567.757 348.53L557.491 350.084L555.314 330.477L528.857 334.132Z" class="bathroom"/>
        </g>
        <g id="Bathroom_3">
            <path id="Vector_61" d="M649.612 206.298L673.575 186.69L681.047 195.717L675.137 200.072L684.002 211.585L666.811 224.89L649.612 206.298Z" class="bathroom"/>
        </g>
        <g id="Bathroom_4">
            <path id="Vector_62" d="M687.272 177.04L708.127 158.987L716.215 168.014L710.458 172.993L719.331 183.266L703.302 195.717L687.272 177.04Z" class="bathroom"/>
        </g>
        <g id="Bathroom_5">
            <path id="Vector_63" d="M856.892 146.544L844.133 169.884L859.469 177.356L865.918 163.35L857.515 160.703L864.049 148.56L856.892 146.544Z" class="bathroom"/>
        </g>
        <g id="Bathroom_6">
            <path id="Vector_64" d="M862.34 177.195L871.675 181.865L883.502 158.833L865.765 150.43L861.094 158.833L868.25 161.789L862.34 177.195Z" class="bathroom"/>
        </g>
        <g id="Bathroom_7">
            <path id="Vector_65" d="M855.029 334.524L856.269 350.084L868.411 348.53L867.165 340.904L877.123 339.349L875.876 330.477L855.029 334.524Z" class="bathroom"/>
        </g>
        <g id="Bathroom_8">
            <path id="Vector_66" d="M878.993 330.477L880.239 338.145L890.505 336.856V344.174L901.086 342.619L898.908 327.676L878.993 330.477Z" class="bathroom"/>
        </g>
        <g id="Bathroom_9">
            <path id="Vector_67" d="M209.219 266.99L216.068 276.01H227.587L240.346 265.429L228.204 250.849L209.219 266.99Z" class="bathroom"/>
        </g>
        <g id="Bathroom_10">
            <path id="Vector_68" d="M231.088 279.161V285.036H240.346V293.867L257.776 295.309L263.686 291.885L244.702 268.545L231.088 279.161Z" class="bathroom"/>
        </g>
        <g id="Accessible_toilet_1">
            <path id="Vector_69" d="M191.635 279.161H206.579V289.553L191.635 288.152V279.161Z" class="accessible-toilet"/>
        </g>
        <g id="Accessible_toilet_2">
            <path id="Vector_70" d="M549.473 385.49L559.746 383.774L561.616 397.079L551.574 398.557L549.473 385.49Z" class="accessible-toilet"/>
        </g>
        <g id="Accessible_toilet_3">
            <path id="Vector_71" d="M676.691 185.444L684.002 178.91L698.4 194.778L689.296 202.25L676.691 185.444Z" class="accessible-toilet"/>
        </g>
        <g id="Layer_73">
            <path id="Vector_72" d="M869.966 342.269L871.136 349.811L880.001 348.257V352.073L890.043 350.904L888.173 339.076L869.966 342.269Z" class="accessible-toilet"/>
        </g>
        <g id="Lift_1">
            <path id="Vector_73" d="M255.437 338.495L262.363 347.437L275.206 337.633L267.734 329.545L255.437 338.495Z" class="lift"/>
        </g>
        <g id="Liftt_2">
            <path id="Vector_74" d="M301.928 265.8L313.37 258.328L322.705 269.77L312.32 278.755L301.928 265.8Z" class="lift"/>
        </g>
        <g id="Lift_3">
            <path id="Vector_75" d="M569.004 382.535L583.086 380.665L584.025 389.692L570.019 391.092L569.004 382.535Z" class="lift"/>
        </g>
        <g id="Lift_4">
            <path id="Vector_76" d="M785.464 344.174L786.711 353.509L799.939 351.639L798.307 342.073L785.464 344.174Z" class="lift"/>
        </g>
        <g id="Lift_5">
            <path id="Vector_77" d="M892.144 172.839L904.048 178.91L897.354 193.224L885.841 187.776L892.144 172.839Z" class="lift"/>
        </g>
        <g id="Lift_6">
            <path id="Vector_78" d="M100.6 251.738L111.342 241.157L119.122 248.692L109.431 259.049L100.6 251.738Z" class="lift"/>
        </g>
        <g id="stairs_1">
            <path id="Vector_79" d="M237.545 295.309V304.336L256.837 305.89V297.256L237.545 295.309Z" class="stair"/>
        </g>
        <g id="stairs_2">
            <path id="Vector_80" d="M231.088 328.299L259.954 365.336L285.941 343.859L280.338 337.248L261.508 350.399L240.346 323.012L231.088 328.299Z" class="stair"/>
        </g>
        <g id="stairs_3">
            <path id="Vector_81" d="M265.318 219.757L280.339 207.852L304.729 238.979L290.142 250.849L265.318 219.757Z" class="stair"/>
        </g>
        <g id="stairs_4">
            <path id="Vector_82" d="M599.193 298.418L566.826 324.566L572.428 360.28L608.219 355.686L599.193 298.418Z" class="stair"/>
        </g>
        <g id="stairs_5">
            <path id="Vector_83" d="M717.153 256.717L712.524 263.874L755.122 284.105L758.231 276.01L717.153 256.717Z" class="stair"/>
        </g>
        <g id="stairs_6">
            <path id="Vector_84" d="M803.048 209.232L797.761 221.858L833.86 238.664L836.976 233.062L834.483 223.952L803.048 209.232Z" class="stair"/>
        </g>
        <g id="stairs_7">
            <path id="Vector_85" d="M902.648 90.207L897.354 100.788L920.694 112.146L925.673 101.18L902.648 90.207Z" class="stair"/>
        </g>
        <g id="stairs_8">
            <path id="Vector_86" d="M868.411 60.9496L911.513 82.1188L908.635 88.3372L865.918 66.5098L868.411 60.9496Z" class="stair"/>
        </g>
        <g id="stairs_9">
            <path id="Vector_87" d="M792.705 323.012L844.133 314.917L846.626 329.349L792.782 336.856L792.705 323.012Z" class="stair"/>
        </g>
        <g id="stairs_10">
            <path id="Vector_88" d="M813.713 342.073L815.345 356.779L852.459 351.177L850.358 335.925L813.713 342.073Z" class="stair"/>
        </g>
        <g id="stairs_11">
            <path id="Vector_89" d="M980.14 313.516L982.626 330.477L1043.63 323.166L1013.44 307.991L980.14 313.516Z" class="stair"/>
        </g>
    </g>
</svg>
